%TF.GenerationSoftware,KiCad,Pcbnew,(5.1.10)-1*%
%TF.CreationDate,2023-01-05T11:00:30-07:00*%
%TF.ProjectId,Double_MicroD_25_Gateway,446f7562-6c65-45f4-9d69-63726f445f32,rev?*%
%TF.SameCoordinates,Original*%
%TF.FileFunction,Legend,Bot*%
%TF.FilePolarity,Positive*%
%FSLAX46Y46*%
G04 Gerber Fmt 4.6, Leading zero omitted, Abs format (unit mm)*
G04 Created by KiCad (PCBNEW (5.1.10)-1) date 2023-01-05 11:00:30*
%MOMM*%
%LPD*%
G01*
G04 APERTURE LIST*
%ADD10C,0.150000*%
G04 APERTURE END LIST*
D10*
X14802380Y4511904D02*
X15802380Y4178571D01*
X14802380Y3845238D01*
X15802380Y3083333D02*
X15278571Y3083333D01*
X15183333Y3130952D01*
X15135714Y3226190D01*
X15135714Y3416666D01*
X15183333Y3511904D01*
X15754761Y3083333D02*
X15802380Y3178571D01*
X15802380Y3416666D01*
X15754761Y3511904D01*
X15659523Y3559523D01*
X15564285Y3559523D01*
X15469047Y3511904D01*
X15421428Y3416666D01*
X15421428Y3178571D01*
X15373809Y3083333D01*
X15754761Y2178571D02*
X15802380Y2273809D01*
X15802380Y2464285D01*
X15754761Y2559523D01*
X15707142Y2607142D01*
X15611904Y2654761D01*
X15326190Y2654761D01*
X15230952Y2607142D01*
X15183333Y2559523D01*
X15135714Y2464285D01*
X15135714Y2273809D01*
X15183333Y2178571D01*
X15135714Y1321428D02*
X15802380Y1321428D01*
X15135714Y1750000D02*
X15659523Y1750000D01*
X15754761Y1702380D01*
X15802380Y1607142D01*
X15802380Y1464285D01*
X15754761Y1369047D01*
X15707142Y1321428D01*
X15135714Y416666D02*
X15802380Y416666D01*
X15135714Y845238D02*
X15659523Y845238D01*
X15754761Y797619D01*
X15802380Y702380D01*
X15802380Y559523D01*
X15754761Y464285D01*
X15707142Y416666D01*
X15802380Y-59523D02*
X15135714Y-59523D01*
X15230952Y-59523D02*
X15183333Y-107142D01*
X15135714Y-202380D01*
X15135714Y-345238D01*
X15183333Y-440476D01*
X15278571Y-488095D01*
X15802380Y-488095D01*
X15278571Y-488095D02*
X15183333Y-535714D01*
X15135714Y-630952D01*
X15135714Y-773809D01*
X15183333Y-869047D01*
X15278571Y-916666D01*
X15802380Y-916666D01*
X15754761Y-2107142D02*
X15802380Y-2250000D01*
X15802380Y-2488095D01*
X15754761Y-2583333D01*
X15707142Y-2630952D01*
X15611904Y-2678571D01*
X15516666Y-2678571D01*
X15421428Y-2630952D01*
X15373809Y-2583333D01*
X15326190Y-2488095D01*
X15278571Y-2297619D01*
X15230952Y-2202380D01*
X15183333Y-2154761D01*
X15088095Y-2107142D01*
X14992857Y-2107142D01*
X14897619Y-2154761D01*
X14850000Y-2202380D01*
X14802380Y-2297619D01*
X14802380Y-2535714D01*
X14850000Y-2678571D01*
X15802380Y-3107142D02*
X15135714Y-3107142D01*
X14802380Y-3107142D02*
X14850000Y-3059523D01*
X14897619Y-3107142D01*
X14850000Y-3154761D01*
X14802380Y-3107142D01*
X14897619Y-3107142D01*
X15802380Y-4011904D02*
X14802380Y-4011904D01*
X15754761Y-4011904D02*
X15802380Y-3916666D01*
X15802380Y-3726190D01*
X15754761Y-3630952D01*
X15707142Y-3583333D01*
X15611904Y-3535714D01*
X15326190Y-3535714D01*
X15230952Y-3583333D01*
X15183333Y-3630952D01*
X15135714Y-3726190D01*
X15135714Y-3916666D01*
X15183333Y-4011904D01*
X15754761Y-4869047D02*
X15802380Y-4773809D01*
X15802380Y-4583333D01*
X15754761Y-4488095D01*
X15659523Y-4440476D01*
X15278571Y-4440476D01*
X15183333Y-4488095D01*
X15135714Y-4583333D01*
X15135714Y-4773809D01*
X15183333Y-4869047D01*
X15278571Y-4916666D01*
X15373809Y-4916666D01*
X15469047Y-4440476D01*
X17452380Y13178571D02*
X16452380Y13178571D01*
X17166666Y12845238D01*
X16452380Y12511904D01*
X17452380Y12511904D01*
X17452380Y12035714D02*
X16785714Y12035714D01*
X16452380Y12035714D02*
X16500000Y12083333D01*
X16547619Y12035714D01*
X16500000Y11988095D01*
X16452380Y12035714D01*
X16547619Y12035714D01*
X17404761Y11130952D02*
X17452380Y11226190D01*
X17452380Y11416666D01*
X17404761Y11511904D01*
X17357142Y11559523D01*
X17261904Y11607142D01*
X16976190Y11607142D01*
X16880952Y11559523D01*
X16833333Y11511904D01*
X16785714Y11416666D01*
X16785714Y11226190D01*
X16833333Y11130952D01*
X17452380Y10702380D02*
X16785714Y10702380D01*
X16976190Y10702380D02*
X16880952Y10654761D01*
X16833333Y10607142D01*
X16785714Y10511904D01*
X16785714Y10416666D01*
X17452380Y9940476D02*
X17404761Y10035714D01*
X17357142Y10083333D01*
X17261904Y10130952D01*
X16976190Y10130952D01*
X16880952Y10083333D01*
X16833333Y10035714D01*
X16785714Y9940476D01*
X16785714Y9797619D01*
X16833333Y9702380D01*
X16880952Y9654761D01*
X16976190Y9607142D01*
X17261904Y9607142D01*
X17357142Y9654761D01*
X17404761Y9702380D01*
X17452380Y9797619D01*
X17452380Y9940476D01*
X17452380Y9178571D02*
X16452380Y9178571D01*
X16452380Y8940476D01*
X16500000Y8797619D01*
X16595238Y8702380D01*
X16690476Y8654761D01*
X16880952Y8607142D01*
X17023809Y8607142D01*
X17214285Y8654761D01*
X17309523Y8702380D01*
X17404761Y8797619D01*
X17452380Y8940476D01*
X17452380Y9178571D01*
X17547619Y8416666D02*
X17547619Y7654761D01*
X16452380Y7559523D02*
X17452380Y7226190D01*
X16452380Y6892857D01*
X17452380Y6130952D02*
X16928571Y6130952D01*
X16833333Y6178571D01*
X16785714Y6273809D01*
X16785714Y6464285D01*
X16833333Y6559523D01*
X17404761Y6130952D02*
X17452380Y6226190D01*
X17452380Y6464285D01*
X17404761Y6559523D01*
X17309523Y6607142D01*
X17214285Y6607142D01*
X17119047Y6559523D01*
X17071428Y6464285D01*
X17071428Y6226190D01*
X17023809Y6130952D01*
X17404761Y5226190D02*
X17452380Y5321428D01*
X17452380Y5511904D01*
X17404761Y5607142D01*
X17357142Y5654761D01*
X17261904Y5702380D01*
X16976190Y5702380D01*
X16880952Y5654761D01*
X16833333Y5607142D01*
X16785714Y5511904D01*
X16785714Y5321428D01*
X16833333Y5226190D01*
X16785714Y4369047D02*
X17452380Y4369047D01*
X16785714Y4797619D02*
X17309523Y4797619D01*
X17404761Y4750000D01*
X17452380Y4654761D01*
X17452380Y4511904D01*
X17404761Y4416666D01*
X17357142Y4369047D01*
X16785714Y3464285D02*
X17452380Y3464285D01*
X16785714Y3892857D02*
X17309523Y3892857D01*
X17404761Y3845238D01*
X17452380Y3750000D01*
X17452380Y3607142D01*
X17404761Y3511904D01*
X17357142Y3464285D01*
X17452380Y2988095D02*
X16785714Y2988095D01*
X16880952Y2988095D02*
X16833333Y2940476D01*
X16785714Y2845238D01*
X16785714Y2702380D01*
X16833333Y2607142D01*
X16928571Y2559523D01*
X17452380Y2559523D01*
X16928571Y2559523D02*
X16833333Y2511904D01*
X16785714Y2416666D01*
X16785714Y2273809D01*
X16833333Y2178571D01*
X16928571Y2130952D01*
X17452380Y2130952D01*
X17547619Y1892857D02*
X17547619Y1130952D01*
X16928571Y559523D02*
X16928571Y892857D01*
X17452380Y892857D02*
X16452380Y892857D01*
X16452380Y416666D01*
X17404761Y-345238D02*
X17452380Y-249999D01*
X17452380Y-59523D01*
X17404761Y35714D01*
X17309523Y83333D01*
X16928571Y83333D01*
X16833333Y35714D01*
X16785714Y-59523D01*
X16785714Y-249999D01*
X16833333Y-345238D01*
X16928571Y-392857D01*
X17023809Y-392857D01*
X17119047Y83333D01*
X17404761Y-1202380D02*
X17452380Y-1107142D01*
X17452380Y-916666D01*
X17404761Y-821428D01*
X17309523Y-773809D01*
X16928571Y-773809D01*
X16833333Y-821428D01*
X16785714Y-916666D01*
X16785714Y-1107142D01*
X16833333Y-1202380D01*
X16928571Y-1249999D01*
X17023809Y-1249999D01*
X17119047Y-773809D01*
X17452380Y-2107142D02*
X16452380Y-2107142D01*
X17404761Y-2107142D02*
X17452380Y-2011904D01*
X17452380Y-1821428D01*
X17404761Y-1726190D01*
X17357142Y-1678571D01*
X17261904Y-1630952D01*
X16976190Y-1630952D01*
X16880952Y-1678571D01*
X16833333Y-1726190D01*
X16785714Y-1821428D01*
X16785714Y-2011904D01*
X16833333Y-2107142D01*
X16785714Y-2440476D02*
X16785714Y-2821428D01*
X16452380Y-2583333D02*
X17309523Y-2583333D01*
X17404761Y-2630952D01*
X17452380Y-2726190D01*
X17452380Y-2821428D01*
X17452380Y-3154761D02*
X16452380Y-3154761D01*
X17452380Y-3583333D02*
X16928571Y-3583333D01*
X16833333Y-3535714D01*
X16785714Y-3440476D01*
X16785714Y-3297619D01*
X16833333Y-3202380D01*
X16880952Y-3154761D01*
X17452380Y-4059523D02*
X16785714Y-4059523D01*
X16976190Y-4059523D02*
X16880952Y-4107142D01*
X16833333Y-4154761D01*
X16785714Y-4249999D01*
X16785714Y-4345238D01*
X17452380Y-4821428D02*
X17404761Y-4726190D01*
X17357142Y-4678571D01*
X17261904Y-4630952D01*
X16976190Y-4630952D01*
X16880952Y-4678571D01*
X16833333Y-4726190D01*
X16785714Y-4821428D01*
X16785714Y-4964285D01*
X16833333Y-5059523D01*
X16880952Y-5107142D01*
X16976190Y-5154761D01*
X17261904Y-5154761D01*
X17357142Y-5107142D01*
X17404761Y-5059523D01*
X17452380Y-4964285D01*
X17452380Y-4821428D01*
X16785714Y-6011904D02*
X17452380Y-6011904D01*
X16785714Y-5583333D02*
X17309523Y-5583333D01*
X17404761Y-5630952D01*
X17452380Y-5726190D01*
X17452380Y-5869047D01*
X17404761Y-5964285D01*
X17357142Y-6011904D01*
X16785714Y-6916666D02*
X17595238Y-6916666D01*
X17690476Y-6869047D01*
X17738095Y-6821428D01*
X17785714Y-6726190D01*
X17785714Y-6583333D01*
X17738095Y-6488095D01*
X17404761Y-6916666D02*
X17452380Y-6821428D01*
X17452380Y-6630952D01*
X17404761Y-6535714D01*
X17357142Y-6488095D01*
X17261904Y-6440476D01*
X16976190Y-6440476D01*
X16880952Y-6488095D01*
X16833333Y-6535714D01*
X16785714Y-6630952D01*
X16785714Y-6821428D01*
X16833333Y-6916666D01*
X17452380Y-7392857D02*
X16452380Y-7392857D01*
X17452380Y-7821428D02*
X16928571Y-7821428D01*
X16833333Y-7773809D01*
X16785714Y-7678571D01*
X16785714Y-7535714D01*
X16833333Y-7440476D01*
X16880952Y-7392857D01*
X17547619Y-8059523D02*
X17547619Y-8821428D01*
X17452380Y-9059523D02*
X16452380Y-9059523D01*
X16452380Y-9297619D01*
X16500000Y-9440476D01*
X16595238Y-9535714D01*
X16690476Y-9583333D01*
X16880952Y-9630952D01*
X17023809Y-9630952D01*
X17214285Y-9583333D01*
X17309523Y-9535714D01*
X17404761Y-9440476D01*
X17452380Y-9297619D01*
X17452380Y-9059523D01*
X17452380Y-10202380D02*
X17404761Y-10107142D01*
X17357142Y-10059523D01*
X17261904Y-10011904D01*
X16976190Y-10011904D01*
X16880952Y-10059523D01*
X16833333Y-10107142D01*
X16785714Y-10202380D01*
X16785714Y-10345238D01*
X16833333Y-10440476D01*
X16880952Y-10488095D01*
X16976190Y-10535714D01*
X17261904Y-10535714D01*
X17357142Y-10488095D01*
X17404761Y-10440476D01*
X17452380Y-10345238D01*
X17452380Y-10202380D01*
X16785714Y-11392857D02*
X17452380Y-11392857D01*
X16785714Y-10964285D02*
X17309523Y-10964285D01*
X17404761Y-11011904D01*
X17452380Y-11107142D01*
X17452380Y-11249999D01*
X17404761Y-11345238D01*
X17357142Y-11392857D01*
X17452380Y-11869047D02*
X16452380Y-11869047D01*
X16833333Y-11869047D02*
X16785714Y-11964285D01*
X16785714Y-12154761D01*
X16833333Y-12249999D01*
X16880952Y-12297619D01*
X16976190Y-12345238D01*
X17261904Y-12345238D01*
X17357142Y-12297619D01*
X17404761Y-12249999D01*
X17452380Y-12154761D01*
X17452380Y-11964285D01*
X17404761Y-11869047D01*
X17452380Y-12916666D02*
X17404761Y-12821428D01*
X17309523Y-12773809D01*
X16452380Y-12773809D01*
X17404761Y-13678571D02*
X17452380Y-13583333D01*
X17452380Y-13392857D01*
X17404761Y-13297619D01*
X17309523Y-13249999D01*
X16928571Y-13249999D01*
X16833333Y-13297619D01*
X16785714Y-13392857D01*
X16785714Y-13583333D01*
X16833333Y-13678571D01*
X16928571Y-13726190D01*
X17023809Y-13726190D01*
X17119047Y-13249999D01*
X19102380Y2511904D02*
X18626190Y2845238D01*
X19102380Y3083333D02*
X18102380Y3083333D01*
X18102380Y2702380D01*
X18150000Y2607142D01*
X18197619Y2559523D01*
X18292857Y2511904D01*
X18435714Y2511904D01*
X18530952Y2559523D01*
X18578571Y2607142D01*
X18626190Y2702380D01*
X18626190Y3083333D01*
X19054761Y1702380D02*
X19102380Y1797619D01*
X19102380Y1988095D01*
X19054761Y2083333D01*
X18959523Y2130952D01*
X18578571Y2130952D01*
X18483333Y2083333D01*
X18435714Y1988095D01*
X18435714Y1797619D01*
X18483333Y1702380D01*
X18578571Y1654761D01*
X18673809Y1654761D01*
X18769047Y2130952D01*
X18435714Y1321428D02*
X19102380Y1083333D01*
X18435714Y845238D01*
X19054761Y83333D02*
X19102380Y178571D01*
X19102380Y369047D01*
X19054761Y464285D01*
X18959523Y511904D01*
X18578571Y511904D01*
X18483333Y464285D01*
X18435714Y369047D01*
X18435714Y178571D01*
X18483333Y83333D01*
X18578571Y35714D01*
X18673809Y35714D01*
X18769047Y511904D01*
X19102380Y-392857D02*
X18435714Y-392857D01*
X18626190Y-392857D02*
X18530952Y-440476D01*
X18483333Y-488095D01*
X18435714Y-583333D01*
X18435714Y-678571D01*
X19054761Y-964285D02*
X19102380Y-1059523D01*
X19102380Y-1250000D01*
X19054761Y-1345238D01*
X18959523Y-1392857D01*
X18911904Y-1392857D01*
X18816666Y-1345238D01*
X18769047Y-1250000D01*
X18769047Y-1107142D01*
X18721428Y-1011904D01*
X18626190Y-964285D01*
X18578571Y-964285D01*
X18483333Y-1011904D01*
X18435714Y-1107142D01*
X18435714Y-1250000D01*
X18483333Y-1345238D01*
X19054761Y-2202380D02*
X19102380Y-2107142D01*
X19102380Y-1916666D01*
X19054761Y-1821428D01*
X18959523Y-1773809D01*
X18578571Y-1773809D01*
X18483333Y-1821428D01*
X18435714Y-1916666D01*
X18435714Y-2107142D01*
X18483333Y-2202380D01*
X18578571Y-2250000D01*
X18673809Y-2250000D01*
X18769047Y-1773809D01*
X19102380Y-3107142D02*
X18102380Y-3107142D01*
X19054761Y-3107142D02*
X19102380Y-3011904D01*
X19102380Y-2821428D01*
X19054761Y-2726190D01*
X19007142Y-2678571D01*
X18911904Y-2630952D01*
X18626190Y-2630952D01*
X18530952Y-2678571D01*
X18483333Y-2726190D01*
X18435714Y-2821428D01*
X18435714Y-3011904D01*
X18483333Y-3107142D01*
X19007142Y-3583333D02*
X19054761Y-3630952D01*
X19102380Y-3583333D01*
X19054761Y-3535714D01*
X19007142Y-3583333D01*
X19102380Y-3583333D01*
X18721428Y-3583333D02*
X18150000Y-3535714D01*
X18102380Y-3583333D01*
X18150000Y-3630952D01*
X18721428Y-3583333D01*
X18102380Y-3583333D01*
X20752380Y5654761D02*
X20276190Y5988095D01*
X20752380Y6226190D02*
X19752380Y6226190D01*
X19752380Y5845238D01*
X19800000Y5750000D01*
X19847619Y5702380D01*
X19942857Y5654761D01*
X20085714Y5654761D01*
X20180952Y5702380D01*
X20228571Y5750000D01*
X20276190Y5845238D01*
X20276190Y6226190D01*
X20085714Y5321428D02*
X20752380Y5083333D01*
X20085714Y4845238D02*
X20752380Y5083333D01*
X20990476Y5178571D01*
X21038095Y5226190D01*
X21085714Y5321428D01*
X20752380Y4035714D02*
X20228571Y4035714D01*
X20133333Y4083333D01*
X20085714Y4178571D01*
X20085714Y4369047D01*
X20133333Y4464285D01*
X20704761Y4035714D02*
X20752380Y4130952D01*
X20752380Y4369047D01*
X20704761Y4464285D01*
X20609523Y4511904D01*
X20514285Y4511904D01*
X20419047Y4464285D01*
X20371428Y4369047D01*
X20371428Y4130952D01*
X20323809Y4035714D01*
X20085714Y3559523D02*
X20752380Y3559523D01*
X20180952Y3559523D02*
X20133333Y3511904D01*
X20085714Y3416666D01*
X20085714Y3273809D01*
X20133333Y3178571D01*
X20228571Y3130952D01*
X20752380Y3130952D01*
X20752380Y1892857D02*
X19752380Y1892857D01*
X20466666Y1559523D01*
X19752380Y1226190D01*
X20752380Y1226190D01*
X20752380Y607142D02*
X20704761Y702380D01*
X20657142Y750000D01*
X20561904Y797619D01*
X20276190Y797619D01*
X20180952Y750000D01*
X20133333Y702380D01*
X20085714Y607142D01*
X20085714Y464285D01*
X20133333Y369047D01*
X20180952Y321428D01*
X20276190Y273809D01*
X20561904Y273809D01*
X20657142Y321428D01*
X20704761Y369047D01*
X20752380Y464285D01*
X20752380Y607142D01*
X20752380Y-154761D02*
X20085714Y-154761D01*
X20276190Y-154761D02*
X20180952Y-202380D01*
X20133333Y-250000D01*
X20085714Y-345238D01*
X20085714Y-440476D01*
X20085714Y-1202380D02*
X20895238Y-1202380D01*
X20990476Y-1154761D01*
X21038095Y-1107142D01*
X21085714Y-1011904D01*
X21085714Y-869047D01*
X21038095Y-773809D01*
X20704761Y-1202380D02*
X20752380Y-1107142D01*
X20752380Y-916666D01*
X20704761Y-821428D01*
X20657142Y-773809D01*
X20561904Y-726190D01*
X20276190Y-726190D01*
X20180952Y-773809D01*
X20133333Y-821428D01*
X20085714Y-916666D01*
X20085714Y-1107142D01*
X20133333Y-1202380D01*
X20704761Y-2059523D02*
X20752380Y-1964285D01*
X20752380Y-1773809D01*
X20704761Y-1678571D01*
X20609523Y-1630952D01*
X20228571Y-1630952D01*
X20133333Y-1678571D01*
X20085714Y-1773809D01*
X20085714Y-1964285D01*
X20133333Y-2059523D01*
X20228571Y-2107142D01*
X20323809Y-2107142D01*
X20419047Y-1630952D01*
X20085714Y-2535714D02*
X20752380Y-2535714D01*
X20180952Y-2535714D02*
X20133333Y-2583333D01*
X20085714Y-2678571D01*
X20085714Y-2821428D01*
X20133333Y-2916666D01*
X20228571Y-2964285D01*
X20752380Y-2964285D01*
X20704761Y-3392857D02*
X20752380Y-3488095D01*
X20752380Y-3678571D01*
X20704761Y-3773809D01*
X20609523Y-3821428D01*
X20561904Y-3821428D01*
X20466666Y-3773809D01*
X20419047Y-3678571D01*
X20419047Y-3535714D01*
X20371428Y-3440476D01*
X20276190Y-3392857D01*
X20228571Y-3392857D01*
X20133333Y-3440476D01*
X20085714Y-3535714D01*
X20085714Y-3678571D01*
X20133333Y-3773809D01*
X20085714Y-4107142D02*
X20085714Y-4488095D01*
X19752380Y-4250000D02*
X20609523Y-4250000D01*
X20704761Y-4297619D01*
X20752380Y-4392857D01*
X20752380Y-4488095D01*
X20704761Y-5202380D02*
X20752380Y-5107142D01*
X20752380Y-4916666D01*
X20704761Y-4821428D01*
X20609523Y-4773809D01*
X20228571Y-4773809D01*
X20133333Y-4821428D01*
X20085714Y-4916666D01*
X20085714Y-5107142D01*
X20133333Y-5202380D01*
X20228571Y-5250000D01*
X20323809Y-5250000D01*
X20419047Y-4773809D01*
X20752380Y-5678571D02*
X20085714Y-5678571D01*
X20276190Y-5678571D02*
X20180952Y-5726190D01*
X20133333Y-5773809D01*
X20085714Y-5869047D01*
X20085714Y-5964285D01*
X20085714Y-6297619D02*
X20752380Y-6297619D01*
X20180952Y-6297619D02*
X20133333Y-6345238D01*
X20085714Y-6440476D01*
X20085714Y-6583333D01*
X20133333Y-6678571D01*
X20228571Y-6726190D01*
X20752380Y-6726190D01*
X22402380Y1940476D02*
X22402380Y2511904D01*
X22402380Y2226190D02*
X21402380Y2226190D01*
X21545238Y2321428D01*
X21640476Y2416666D01*
X21688095Y2511904D01*
X21354761Y797619D02*
X22640476Y1654761D01*
X21402380Y-11904D02*
X21402380Y464285D01*
X21878571Y511904D01*
X21830952Y464285D01*
X21783333Y369047D01*
X21783333Y130952D01*
X21830952Y35714D01*
X21878571Y-11904D01*
X21973809Y-59523D01*
X22211904Y-59523D01*
X22307142Y-11904D01*
X22354761Y35714D01*
X22402380Y130952D01*
X22402380Y369047D01*
X22354761Y464285D01*
X22307142Y511904D01*
X21354761Y-1202380D02*
X22640476Y-345238D01*
X21497619Y-1488095D02*
X21450000Y-1535714D01*
X21402380Y-1630952D01*
X21402380Y-1869047D01*
X21450000Y-1964285D01*
X21497619Y-2011904D01*
X21592857Y-2059523D01*
X21688095Y-2059523D01*
X21830952Y-2011904D01*
X22402380Y-1440476D01*
X22402380Y-2059523D01*
X21402380Y-2392857D02*
X21402380Y-3011904D01*
X21783333Y-2678571D01*
X21783333Y-2821428D01*
X21830952Y-2916666D01*
X21878571Y-2964285D01*
X21973809Y-3011904D01*
X22211904Y-3011904D01*
X22307142Y-2964285D01*
X22354761Y-2916666D01*
X22402380Y-2821428D01*
X22402380Y-2535714D01*
X22354761Y-2440476D01*
X22307142Y-2392857D01*
%TO.C,J3*%
X-8080000Y-4236000D02*
X-9080000Y-5236000D01*
X-9080000Y-5236000D02*
X-9080000Y-7256000D01*
X-9080000Y-7256000D02*
X9080000Y-7256000D01*
X9080000Y-7256000D02*
X9080000Y-4236000D01*
X9080000Y-4236000D02*
X-8080000Y-4236000D01*
%TO.C,J1*%
X-8080000Y7256000D02*
X-9080000Y6256000D01*
X-9080000Y6256000D02*
X-9080000Y4236000D01*
X-9080000Y4236000D02*
X9080000Y4236000D01*
X9080000Y4236000D02*
X9080000Y7256000D01*
X9080000Y7256000D02*
X-8080000Y7256000D01*
%TO.C,J4*%
X233333Y-13498380D02*
X233333Y-14212666D01*
X280952Y-14355523D01*
X376190Y-14450761D01*
X519047Y-14498380D01*
X614285Y-14498380D01*
X-671428Y-13831714D02*
X-671428Y-14498380D01*
X-433333Y-13450761D02*
X-195238Y-14165047D01*
X-814285Y-14165047D01*
X7334285Y-9658380D02*
X7905714Y-9658380D01*
X7620000Y-9658380D02*
X7620000Y-8658380D01*
X7715238Y-8801238D01*
X7810476Y-8896476D01*
X7905714Y-8944095D01*
%TO.C,J2*%
X233333Y9993619D02*
X233333Y9279333D01*
X280952Y9136476D01*
X376190Y9041238D01*
X519047Y8993619D01*
X614285Y8993619D01*
X-195238Y9898380D02*
X-242857Y9946000D01*
X-338095Y9993619D01*
X-576190Y9993619D01*
X-671428Y9946000D01*
X-719047Y9898380D01*
X-766666Y9803142D01*
X-766666Y9707904D01*
X-719047Y9565047D01*
X-147619Y8993619D01*
X-766666Y8993619D01*
X7334285Y13833619D02*
X7905714Y13833619D01*
X7620000Y13833619D02*
X7620000Y14833619D01*
X7715238Y14690761D01*
X7810476Y14595523D01*
X7905714Y14547904D01*
%TD*%
M02*
