M48
; DRILL file {KiCad (5.1.10)-1} date 01/05/23 11:00:32
; FORMAT={-:-/ absolute / inch / decimal}
; #@! TF.CreationDate,2023-01-05T11:00:32-07:00
; #@! TF.GenerationSoftware,Kicad,Pcbnew,(5.1.10)-1
; #@! TF.FileFunction,Plated,1,4,PTH
FMAT,2
INCH
T1C0.0240
%
G90
G05
T1
X-0.3Y0.4841
X-0.3Y0.2479
X-0.3Y-0.2046
X-0.3Y-0.4408
X-0.275Y0.4408
X-0.275Y0.2046
X-0.275Y-0.2479
X-0.275Y-0.4841
X-0.25Y0.4841
X-0.25Y0.2479
X-0.25Y-0.2046
X-0.25Y-0.4408
X-0.225Y0.4408
X-0.225Y0.2046
X-0.225Y-0.2479
X-0.225Y-0.4841
X-0.2Y0.4841
X-0.2Y0.2479
X-0.2Y-0.2046
X-0.2Y-0.4408
X-0.175Y0.4408
X-0.175Y0.2046
X-0.175Y-0.2479
X-0.175Y-0.4841
X-0.15Y0.4841
X-0.15Y0.2479
X-0.15Y-0.2046
X-0.15Y-0.4408
X-0.125Y0.4408
X-0.125Y0.2046
X-0.125Y-0.2479
X-0.125Y-0.4841
X-0.1Y0.4841
X-0.1Y0.2479
X-0.1Y-0.2046
X-0.1Y-0.4408
X-0.075Y0.4408
X-0.075Y0.2046
X-0.075Y-0.2479
X-0.075Y-0.4841
X-0.05Y0.4841
X-0.05Y0.2479
X-0.05Y-0.2046
X-0.05Y-0.4408
X-0.025Y0.4408
X-0.025Y0.2046
X-0.025Y-0.2479
X-0.025Y-0.4841
X0.0Y0.4841
X0.0Y0.2479
X0.0Y-0.2046
X0.0Y-0.4408
X0.025Y0.4408
X0.025Y0.2046
X0.025Y-0.2479
X0.025Y-0.4841
X0.05Y0.4841
X0.05Y0.2479
X0.05Y-0.2046
X0.05Y-0.4408
X0.075Y0.4408
X0.075Y0.2046
X0.075Y-0.2479
X0.075Y-0.4841
X0.1Y0.4841
X0.1Y0.2479
X0.1Y-0.2046
X0.1Y-0.4408
X0.125Y0.4408
X0.125Y0.2046
X0.125Y-0.2479
X0.125Y-0.4841
X0.15Y0.4841
X0.15Y0.2479
X0.15Y-0.2046
X0.15Y-0.4408
X0.175Y0.4408
X0.175Y0.2046
X0.175Y-0.2479
X0.175Y-0.4841
X0.2Y0.4841
X0.2Y0.2479
X0.2Y-0.2046
X0.2Y-0.4408
X0.225Y0.4408
X0.225Y0.2046
X0.225Y-0.2479
X0.225Y-0.4841
X0.25Y0.4841
X0.25Y0.2479
X0.25Y-0.2046
X0.25Y-0.4408
X0.275Y0.4408
X0.275Y0.2046
X0.275Y-0.2479
X0.275Y-0.4841
X0.3Y0.4841
X0.3Y0.2479
X0.3Y-0.2046
X0.3Y-0.4408
T0
M30
