%TF.GenerationSoftware,KiCad,Pcbnew,(5.1.10)-1*%
%TF.CreationDate,2023-01-05T11:00:30-07:00*%
%TF.ProjectId,Double_MicroD_25_Gateway,446f7562-6c65-45f4-9d69-63726f445f32,rev?*%
%TF.SameCoordinates,Original*%
%TF.FileFunction,Copper,L1,Top*%
%TF.FilePolarity,Positive*%
%FSLAX46Y46*%
G04 Gerber Fmt 4.6, Leading zero omitted, Abs format (unit mm)*
G04 Created by KiCad (PCBNEW (5.1.10)-1) date 2023-01-05 11:00:30*
%MOMM*%
%LPD*%
G01*
G04 APERTURE LIST*
%TA.AperFunction,ComponentPad*%
%ADD10O,0.920000X0.920000*%
%TD*%
%TA.AperFunction,Conductor*%
%ADD11C,0.100000*%
%TD*%
%TA.AperFunction,NonConductor*%
%ADD12C,0.254000*%
%TD*%
%TA.AperFunction,NonConductor*%
%ADD13C,0.100000*%
%TD*%
G04 APERTURE END LIST*
D10*
%TO.P,J4,1*%
%TO.N,Net-(J3-Pad13)*%
X7620000Y-11196000D03*
%TO.P,J4,14*%
%TO.N,Net-(J3-Pad25)*%
X6985000Y-12296000D03*
%TO.P,J4,2*%
%TO.N,Net-(J3-Pad12)*%
X6350000Y-11196000D03*
%TO.P,J4,15*%
%TO.N,Net-(J3-Pad24)*%
X5715000Y-12296000D03*
%TO.P,J4,3*%
%TO.N,Net-(J3-Pad11)*%
X5080000Y-11196000D03*
%TO.P,J4,16*%
%TO.N,Net-(J3-Pad23)*%
X4445000Y-12296000D03*
%TO.P,J4,4*%
%TO.N,Net-(J3-Pad10)*%
X3810000Y-11196000D03*
%TO.P,J4,17*%
%TO.N,Net-(J3-Pad22)*%
X3175000Y-12296000D03*
%TO.P,J4,5*%
%TO.N,Net-(J3-Pad9)*%
X2540000Y-11196000D03*
%TO.P,J4,18*%
%TO.N,Net-(J3-Pad21)*%
X1905000Y-12296000D03*
%TO.P,J4,6*%
%TO.N,Net-(J3-Pad8)*%
X1270000Y-11196000D03*
%TO.P,J4,19*%
%TO.N,Net-(J3-Pad20)*%
X635000Y-12296000D03*
%TO.P,J4,7*%
%TO.N,Net-(J3-Pad7)*%
X0Y-11196000D03*
%TO.P,J4,20*%
%TO.N,Net-(J3-Pad19)*%
X-635000Y-12296000D03*
%TO.P,J4,8*%
%TO.N,Net-(J3-Pad6)*%
X-1270000Y-11196000D03*
%TO.P,J4,21*%
%TO.N,Net-(J3-Pad18)*%
X-1905000Y-12296000D03*
%TO.P,J4,9*%
%TO.N,Net-(J3-Pad5)*%
X-2540000Y-11196000D03*
%TO.P,J4,22*%
%TO.N,Net-(J3-Pad17)*%
X-3175000Y-12296000D03*
%TO.P,J4,10*%
%TO.N,Net-(J3-Pad4)*%
X-3810000Y-11196000D03*
%TO.P,J4,23*%
%TO.N,Net-(J3-Pad16)*%
X-4445000Y-12296000D03*
%TO.P,J4,11*%
%TO.N,Net-(J3-Pad3)*%
X-5080000Y-11196000D03*
%TO.P,J4,24*%
%TO.N,Net-(J3-Pad15)*%
X-5715000Y-12296000D03*
%TO.P,J4,12*%
%TO.N,Net-(J3-Pad2)*%
X-6350000Y-11196000D03*
%TO.P,J4,25*%
%TO.N,Net-(J3-Pad14)*%
X-6985000Y-12296000D03*
%TO.P,J4,13*%
%TO.N,Net-(J3-Pad1)*%
X-7620000Y-11196000D03*
%TD*%
%TO.P,J3,1*%
%TO.N,Net-(J3-Pad1)*%
X-7620000Y-5196000D03*
%TO.P,J3,14*%
%TO.N,Net-(J3-Pad14)*%
X-6985000Y-6296000D03*
%TO.P,J3,2*%
%TO.N,Net-(J3-Pad2)*%
X-6350000Y-5196000D03*
%TO.P,J3,15*%
%TO.N,Net-(J3-Pad15)*%
X-5715000Y-6296000D03*
%TO.P,J3,3*%
%TO.N,Net-(J3-Pad3)*%
X-5080000Y-5196000D03*
%TO.P,J3,16*%
%TO.N,Net-(J3-Pad16)*%
X-4445000Y-6296000D03*
%TO.P,J3,4*%
%TO.N,Net-(J3-Pad4)*%
X-3810000Y-5196000D03*
%TO.P,J3,17*%
%TO.N,Net-(J3-Pad17)*%
X-3175000Y-6296000D03*
%TO.P,J3,5*%
%TO.N,Net-(J3-Pad5)*%
X-2540000Y-5196000D03*
%TO.P,J3,18*%
%TO.N,Net-(J3-Pad18)*%
X-1905000Y-6296000D03*
%TO.P,J3,6*%
%TO.N,Net-(J3-Pad6)*%
X-1270000Y-5196000D03*
%TO.P,J3,19*%
%TO.N,Net-(J3-Pad19)*%
X-635000Y-6296000D03*
%TO.P,J3,7*%
%TO.N,Net-(J3-Pad7)*%
X0Y-5196000D03*
%TO.P,J3,20*%
%TO.N,Net-(J3-Pad20)*%
X635000Y-6296000D03*
%TO.P,J3,8*%
%TO.N,Net-(J3-Pad8)*%
X1270000Y-5196000D03*
%TO.P,J3,21*%
%TO.N,Net-(J3-Pad21)*%
X1905000Y-6296000D03*
%TO.P,J3,9*%
%TO.N,Net-(J3-Pad9)*%
X2540000Y-5196000D03*
%TO.P,J3,22*%
%TO.N,Net-(J3-Pad22)*%
X3175000Y-6296000D03*
%TO.P,J3,10*%
%TO.N,Net-(J3-Pad10)*%
X3810000Y-5196000D03*
%TO.P,J3,23*%
%TO.N,Net-(J3-Pad23)*%
X4445000Y-6296000D03*
%TO.P,J3,11*%
%TO.N,Net-(J3-Pad11)*%
X5080000Y-5196000D03*
%TO.P,J3,24*%
%TO.N,Net-(J3-Pad24)*%
X5715000Y-6296000D03*
%TO.P,J3,12*%
%TO.N,Net-(J3-Pad12)*%
X6350000Y-5196000D03*
%TO.P,J3,25*%
%TO.N,Net-(J3-Pad25)*%
X6985000Y-6296000D03*
%TO.P,J3,13*%
%TO.N,Net-(J3-Pad13)*%
X7620000Y-5196000D03*
%TD*%
%TO.P,J2,1*%
%TO.N,Net-(J1-Pad13)*%
X7620000Y12296000D03*
%TO.P,J2,14*%
%TO.N,Net-(J1-Pad25)*%
X6985000Y11196000D03*
%TO.P,J2,2*%
%TO.N,Net-(J1-Pad12)*%
X6350000Y12296000D03*
%TO.P,J2,15*%
%TO.N,Net-(J1-Pad24)*%
X5715000Y11196000D03*
%TO.P,J2,3*%
%TO.N,Net-(J1-Pad11)*%
X5080000Y12296000D03*
%TO.P,J2,16*%
%TO.N,Net-(J1-Pad23)*%
X4445000Y11196000D03*
%TO.P,J2,4*%
%TO.N,Net-(J1-Pad10)*%
X3810000Y12296000D03*
%TO.P,J2,17*%
%TO.N,Net-(J1-Pad22)*%
X3175000Y11196000D03*
%TO.P,J2,5*%
%TO.N,Net-(J1-Pad9)*%
X2540000Y12296000D03*
%TO.P,J2,18*%
%TO.N,Net-(J1-Pad21)*%
X1905000Y11196000D03*
%TO.P,J2,6*%
%TO.N,Net-(J1-Pad8)*%
X1270000Y12296000D03*
%TO.P,J2,19*%
%TO.N,Net-(J1-Pad20)*%
X635000Y11196000D03*
%TO.P,J2,7*%
%TO.N,Net-(J1-Pad7)*%
X0Y12296000D03*
%TO.P,J2,20*%
%TO.N,Net-(J1-Pad19)*%
X-635000Y11196000D03*
%TO.P,J2,8*%
%TO.N,Net-(J1-Pad6)*%
X-1270000Y12296000D03*
%TO.P,J2,21*%
%TO.N,Net-(J1-Pad18)*%
X-1905000Y11196000D03*
%TO.P,J2,9*%
%TO.N,Net-(J1-Pad5)*%
X-2540000Y12296000D03*
%TO.P,J2,22*%
%TO.N,Net-(J1-Pad17)*%
X-3175000Y11196000D03*
%TO.P,J2,10*%
%TO.N,Net-(J1-Pad4)*%
X-3810000Y12296000D03*
%TO.P,J2,23*%
%TO.N,Net-(J1-Pad16)*%
X-4445000Y11196000D03*
%TO.P,J2,11*%
%TO.N,Net-(J1-Pad3)*%
X-5080000Y12296000D03*
%TO.P,J2,24*%
%TO.N,Net-(J1-Pad15)*%
X-5715000Y11196000D03*
%TO.P,J2,12*%
%TO.N,Net-(J1-Pad2)*%
X-6350000Y12296000D03*
%TO.P,J2,25*%
%TO.N,Net-(J1-Pad14)*%
X-6985000Y11196000D03*
%TO.P,J2,13*%
%TO.N,Net-(J1-Pad1)*%
X-7620000Y12296000D03*
%TD*%
%TO.P,J1,1*%
%TO.N,Net-(J1-Pad1)*%
X-7620000Y6296000D03*
%TO.P,J1,14*%
%TO.N,Net-(J1-Pad14)*%
X-6985000Y5196000D03*
%TO.P,J1,2*%
%TO.N,Net-(J1-Pad2)*%
X-6350000Y6296000D03*
%TO.P,J1,15*%
%TO.N,Net-(J1-Pad15)*%
X-5715000Y5196000D03*
%TO.P,J1,3*%
%TO.N,Net-(J1-Pad3)*%
X-5080000Y6296000D03*
%TO.P,J1,16*%
%TO.N,Net-(J1-Pad16)*%
X-4445000Y5196000D03*
%TO.P,J1,4*%
%TO.N,Net-(J1-Pad4)*%
X-3810000Y6296000D03*
%TO.P,J1,17*%
%TO.N,Net-(J1-Pad17)*%
X-3175000Y5196000D03*
%TO.P,J1,5*%
%TO.N,Net-(J1-Pad5)*%
X-2540000Y6296000D03*
%TO.P,J1,18*%
%TO.N,Net-(J1-Pad18)*%
X-1905000Y5196000D03*
%TO.P,J1,6*%
%TO.N,Net-(J1-Pad6)*%
X-1270000Y6296000D03*
%TO.P,J1,19*%
%TO.N,Net-(J1-Pad19)*%
X-635000Y5196000D03*
%TO.P,J1,7*%
%TO.N,Net-(J1-Pad7)*%
X0Y6296000D03*
%TO.P,J1,20*%
%TO.N,Net-(J1-Pad20)*%
X635000Y5196000D03*
%TO.P,J1,8*%
%TO.N,Net-(J1-Pad8)*%
X1270000Y6296000D03*
%TO.P,J1,21*%
%TO.N,Net-(J1-Pad21)*%
X1905000Y5196000D03*
%TO.P,J1,9*%
%TO.N,Net-(J1-Pad9)*%
X2540000Y6296000D03*
%TO.P,J1,22*%
%TO.N,Net-(J1-Pad22)*%
X3175000Y5196000D03*
%TO.P,J1,10*%
%TO.N,Net-(J1-Pad10)*%
X3810000Y6296000D03*
%TO.P,J1,23*%
%TO.N,Net-(J1-Pad23)*%
X4445000Y5196000D03*
%TO.P,J1,11*%
%TO.N,Net-(J1-Pad11)*%
X5080000Y6296000D03*
%TO.P,J1,24*%
%TO.N,Net-(J1-Pad24)*%
X5715000Y5196000D03*
%TO.P,J1,12*%
%TO.N,Net-(J1-Pad12)*%
X6350000Y6296000D03*
%TO.P,J1,25*%
%TO.N,Net-(J1-Pad25)*%
X6985000Y5196000D03*
%TO.P,J1,13*%
%TO.N,Net-(J1-Pad13)*%
X7620000Y6296000D03*
%TD*%
D11*
%TO.N,Net-(J1-Pad1)*%
X-7620000Y12296000D02*
X-7620000Y6296000D01*
%TO.N,Net-(J1-Pad14)*%
X-6985000Y6042998D02*
X-6985000Y5196000D01*
X-6985000Y11196000D02*
X-6985000Y6042998D01*
%TO.N,Net-(J1-Pad2)*%
X-6350000Y12296000D02*
X-6350000Y6296000D01*
%TO.N,Net-(J1-Pad15)*%
X-5715000Y5196000D02*
X-5715000Y11196000D01*
%TO.N,Net-(J1-Pad3)*%
X-5080000Y12296000D02*
X-5080000Y6296000D01*
%TO.N,Net-(J1-Pad16)*%
X-4445000Y11196000D02*
X-4445000Y5196000D01*
%TO.N,Net-(J1-Pad4)*%
X-3810000Y6296000D02*
X-3810000Y12296000D01*
%TO.N,Net-(J1-Pad17)*%
X-3175000Y6042998D02*
X-3175000Y5196000D01*
X-3175000Y11196000D02*
X-3175000Y6042998D01*
%TO.N,Net-(J1-Pad5)*%
X-2540000Y12296000D02*
X-2540000Y6296000D01*
%TO.N,Net-(J1-Pad18)*%
X-1905000Y11196000D02*
X-1905000Y5196000D01*
%TO.N,Net-(J1-Pad6)*%
X-1270000Y6296000D02*
X-1270000Y12296000D01*
%TO.N,Net-(J1-Pad19)*%
X-635000Y11196000D02*
X-635000Y5196000D01*
%TO.N,Net-(J1-Pad7)*%
X0Y6296000D02*
X0Y12296000D01*
%TO.N,Net-(J1-Pad20)*%
X635000Y11196000D02*
X635000Y5196000D01*
%TO.N,Net-(J1-Pad8)*%
X1270000Y6296000D02*
X1270000Y12296000D01*
%TO.N,Net-(J1-Pad21)*%
X1905000Y11196000D02*
X1905000Y5196000D01*
%TO.N,Net-(J1-Pad9)*%
X2540000Y11449002D02*
X2540000Y12296000D01*
X2540000Y6296000D02*
X2540000Y11449002D01*
%TO.N,Net-(J1-Pad22)*%
X3175000Y11196000D02*
X3175000Y5196000D01*
%TO.N,Net-(J1-Pad10)*%
X3810000Y11449002D02*
X3810000Y12296000D01*
X3810000Y6296000D02*
X3810000Y11449002D01*
%TO.N,Net-(J1-Pad23)*%
X4445000Y11196000D02*
X4445000Y5196000D01*
%TO.N,Net-(J1-Pad11)*%
X5080000Y6296000D02*
X5080000Y12296000D01*
%TO.N,Net-(J1-Pad24)*%
X5715000Y11196000D02*
X5715000Y5196000D01*
%TO.N,Net-(J1-Pad12)*%
X6350000Y6296000D02*
X6350000Y12296000D01*
%TO.N,Net-(J1-Pad25)*%
X6985000Y11196000D02*
X6985000Y5196000D01*
%TO.N,Net-(J1-Pad13)*%
X7620000Y6296000D02*
X7620000Y12296000D01*
%TO.N,Net-(J3-Pad1)*%
X-7620000Y-5196000D02*
X-7620000Y-11196000D01*
%TO.N,Net-(J3-Pad14)*%
X-6985000Y-12296000D02*
X-6985000Y-6296000D01*
%TO.N,Net-(J3-Pad2)*%
X-6350000Y-5196000D02*
X-6350000Y-11196000D01*
%TO.N,Net-(J3-Pad15)*%
X-5715000Y-12296000D02*
X-5715000Y-6296000D01*
%TO.N,Net-(J3-Pad3)*%
X-5080000Y-5196000D02*
X-5080000Y-11196000D01*
%TO.N,Net-(J3-Pad16)*%
X-4445000Y-12296000D02*
X-4445000Y-6296000D01*
%TO.N,Net-(J3-Pad4)*%
X-3810000Y-5196000D02*
X-3810000Y-11196000D01*
%TO.N,Net-(J3-Pad17)*%
X-3175000Y-12296000D02*
X-3175000Y-6296000D01*
%TO.N,Net-(J3-Pad5)*%
X-2540000Y-5196000D02*
X-2540000Y-11196000D01*
%TO.N,Net-(J3-Pad18)*%
X-1905000Y-12296000D02*
X-1905000Y-6296000D01*
%TO.N,Net-(J3-Pad6)*%
X-1270000Y-5196000D02*
X-1270000Y-11196000D01*
%TO.N,Net-(J3-Pad19)*%
X-635000Y-12296000D02*
X-635000Y-6296000D01*
%TO.N,Net-(J3-Pad7)*%
X0Y-5196000D02*
X0Y-11196000D01*
%TO.N,Net-(J3-Pad20)*%
X635000Y-12296000D02*
X635000Y-6296000D01*
%TO.N,Net-(J3-Pad8)*%
X1270000Y-5196000D02*
X1270000Y-11196000D01*
%TO.N,Net-(J3-Pad21)*%
X1905000Y-12296000D02*
X1905000Y-6296000D01*
%TO.N,Net-(J3-Pad9)*%
X2540000Y-5196000D02*
X2540000Y-11196000D01*
%TO.N,Net-(J3-Pad22)*%
X3175000Y-6296000D02*
X3175000Y-12296000D01*
%TO.N,Net-(J3-Pad10)*%
X3810000Y-11196000D02*
X3810000Y-5196000D01*
%TO.N,Net-(J3-Pad23)*%
X4445000Y-12296000D02*
X4445000Y-6296000D01*
%TO.N,Net-(J3-Pad11)*%
X5080000Y-5196000D02*
X5080000Y-11196000D01*
%TO.N,Net-(J3-Pad24)*%
X5715000Y-12296000D02*
X5715000Y-6296000D01*
%TO.N,Net-(J3-Pad12)*%
X6350000Y-5196000D02*
X6350000Y-11196000D01*
%TO.N,Net-(J3-Pad25)*%
X6985000Y-12296000D02*
X6985000Y-6296000D01*
%TO.N,Net-(J3-Pad13)*%
X7620000Y-5196000D02*
X7620000Y-11196000D01*
%TD*%
D12*
X1520371Y26103762D02*
X3538643Y25907449D01*
X5535633Y25555326D01*
X7499331Y25049510D01*
X9417927Y24393043D01*
X11279883Y23589874D01*
X13074000Y22644832D01*
X14789489Y21563602D01*
X16416031Y20352686D01*
X17943846Y19019366D01*
X19363745Y17571662D01*
X20667188Y16018279D01*
X21846335Y14368561D01*
X22894097Y12632428D01*
X23804170Y10820323D01*
X24571083Y8943143D01*
X25190222Y7012177D01*
X25657864Y5039040D01*
X25971197Y3035598D01*
X26128335Y1013898D01*
X26128335Y-1013898D01*
X25971197Y-3035598D01*
X25657864Y-5039040D01*
X25190222Y-7012177D01*
X24571083Y-8943143D01*
X23804170Y-10820323D01*
X22894097Y-12632428D01*
X21846335Y-14368561D01*
X20667188Y-16018279D01*
X19363745Y-17571662D01*
X17943846Y-19019366D01*
X16416031Y-20352686D01*
X14789489Y-21563602D01*
X13074000Y-22644832D01*
X11279883Y-23589874D01*
X9417927Y-24393043D01*
X7499331Y-25049510D01*
X5535633Y-25555326D01*
X3538643Y-25907449D01*
X1520371Y-26103762D01*
X-507045Y-26143083D01*
X-2531411Y-26025178D01*
X-4540553Y-25750753D01*
X-6522387Y-25321461D01*
X-8464995Y-24739882D01*
X-10356694Y-24009515D01*
X-12186106Y-23134751D01*
X-13942230Y-22120853D01*
X-15614503Y-20973917D01*
X-17192869Y-19700842D01*
X-18667835Y-18309283D01*
X-20030530Y-16807610D01*
X-21272760Y-15204855D01*
X-22387052Y-13510655D01*
X-23366706Y-11735201D01*
X-24205830Y-9889170D01*
X-24899378Y-7983664D01*
X-25443177Y-6030144D01*
X-25622220Y-5118487D01*
X-8407000Y-5118487D01*
X-8407000Y-5273513D01*
X-8376756Y-5425559D01*
X-8317430Y-5568784D01*
X-8231303Y-5697683D01*
X-8121683Y-5807303D01*
X-7997000Y-5890613D01*
X-7996999Y-10501386D01*
X-8121683Y-10584697D01*
X-8231303Y-10694317D01*
X-8317430Y-10823216D01*
X-8376756Y-10966441D01*
X-8407000Y-11118487D01*
X-8407000Y-11273513D01*
X-8376756Y-11425559D01*
X-8317430Y-11568784D01*
X-8231303Y-11697683D01*
X-8121683Y-11807303D01*
X-7992784Y-11893430D01*
X-7849559Y-11952756D01*
X-7706457Y-11981221D01*
X-7741756Y-12066441D01*
X-7772000Y-12218487D01*
X-7772000Y-12373513D01*
X-7741756Y-12525559D01*
X-7682430Y-12668784D01*
X-7596303Y-12797683D01*
X-7486683Y-12907303D01*
X-7357784Y-12993430D01*
X-7214559Y-13052756D01*
X-7062513Y-13083000D01*
X-6907487Y-13083000D01*
X-6755441Y-13052756D01*
X-6612216Y-12993430D01*
X-6483317Y-12907303D01*
X-6373697Y-12797683D01*
X-6350000Y-12762218D01*
X-6326303Y-12797683D01*
X-6216683Y-12907303D01*
X-6087784Y-12993430D01*
X-5944559Y-13052756D01*
X-5792513Y-13083000D01*
X-5637487Y-13083000D01*
X-5485441Y-13052756D01*
X-5342216Y-12993430D01*
X-5213317Y-12907303D01*
X-5103697Y-12797683D01*
X-5080000Y-12762218D01*
X-5056303Y-12797683D01*
X-4946683Y-12907303D01*
X-4817784Y-12993430D01*
X-4674559Y-13052756D01*
X-4522513Y-13083000D01*
X-4367487Y-13083000D01*
X-4215441Y-13052756D01*
X-4072216Y-12993430D01*
X-3943317Y-12907303D01*
X-3833697Y-12797683D01*
X-3810000Y-12762218D01*
X-3786303Y-12797683D01*
X-3676683Y-12907303D01*
X-3547784Y-12993430D01*
X-3404559Y-13052756D01*
X-3252513Y-13083000D01*
X-3097487Y-13083000D01*
X-2945441Y-13052756D01*
X-2802216Y-12993430D01*
X-2673317Y-12907303D01*
X-2563697Y-12797683D01*
X-2540000Y-12762218D01*
X-2516303Y-12797683D01*
X-2406683Y-12907303D01*
X-2277784Y-12993430D01*
X-2134559Y-13052756D01*
X-1982513Y-13083000D01*
X-1827487Y-13083000D01*
X-1675441Y-13052756D01*
X-1532216Y-12993430D01*
X-1403317Y-12907303D01*
X-1293697Y-12797683D01*
X-1270000Y-12762218D01*
X-1246303Y-12797683D01*
X-1136683Y-12907303D01*
X-1007784Y-12993430D01*
X-864559Y-13052756D01*
X-712513Y-13083000D01*
X-557487Y-13083000D01*
X-405441Y-13052756D01*
X-262216Y-12993430D01*
X-133317Y-12907303D01*
X-23697Y-12797683D01*
X0Y-12762218D01*
X23697Y-12797683D01*
X133317Y-12907303D01*
X262216Y-12993430D01*
X405441Y-13052756D01*
X557487Y-13083000D01*
X712513Y-13083000D01*
X864559Y-13052756D01*
X1007784Y-12993430D01*
X1136683Y-12907303D01*
X1246303Y-12797683D01*
X1270000Y-12762218D01*
X1293697Y-12797683D01*
X1403317Y-12907303D01*
X1532216Y-12993430D01*
X1675441Y-13052756D01*
X1827487Y-13083000D01*
X1982513Y-13083000D01*
X2134559Y-13052756D01*
X2277784Y-12993430D01*
X2406683Y-12907303D01*
X2516303Y-12797683D01*
X2540000Y-12762218D01*
X2563697Y-12797683D01*
X2673317Y-12907303D01*
X2802216Y-12993430D01*
X2945441Y-13052756D01*
X3097487Y-13083000D01*
X3252513Y-13083000D01*
X3404559Y-13052756D01*
X3547784Y-12993430D01*
X3676683Y-12907303D01*
X3786303Y-12797683D01*
X3810000Y-12762218D01*
X3833697Y-12797683D01*
X3943317Y-12907303D01*
X4072216Y-12993430D01*
X4215441Y-13052756D01*
X4367487Y-13083000D01*
X4522513Y-13083000D01*
X4674559Y-13052756D01*
X4817784Y-12993430D01*
X4946683Y-12907303D01*
X5056303Y-12797683D01*
X5080000Y-12762218D01*
X5103697Y-12797683D01*
X5213317Y-12907303D01*
X5342216Y-12993430D01*
X5485441Y-13052756D01*
X5637487Y-13083000D01*
X5792513Y-13083000D01*
X5944559Y-13052756D01*
X6087784Y-12993430D01*
X6216683Y-12907303D01*
X6326303Y-12797683D01*
X6350000Y-12762218D01*
X6373697Y-12797683D01*
X6483317Y-12907303D01*
X6612216Y-12993430D01*
X6755441Y-13052756D01*
X6907487Y-13083000D01*
X7062513Y-13083000D01*
X7214559Y-13052756D01*
X7357784Y-12993430D01*
X7486683Y-12907303D01*
X7596303Y-12797683D01*
X7682430Y-12668784D01*
X7741756Y-12525559D01*
X7772000Y-12373513D01*
X7772000Y-12218487D01*
X7741756Y-12066441D01*
X7706457Y-11981221D01*
X7849559Y-11952756D01*
X7992784Y-11893430D01*
X8121683Y-11807303D01*
X8231303Y-11697683D01*
X8317430Y-11568784D01*
X8376756Y-11425559D01*
X8407000Y-11273513D01*
X8407000Y-11118487D01*
X8376756Y-10966441D01*
X8317430Y-10823216D01*
X8231303Y-10694317D01*
X8121683Y-10584697D01*
X7997000Y-10501387D01*
X7997000Y-5890613D01*
X8121683Y-5807303D01*
X8231303Y-5697683D01*
X8317430Y-5568784D01*
X8376756Y-5425559D01*
X8407000Y-5273513D01*
X8407000Y-5118487D01*
X8376756Y-4966441D01*
X8317430Y-4823216D01*
X8231303Y-4694317D01*
X8121683Y-4584697D01*
X7992784Y-4498570D01*
X7849559Y-4439244D01*
X7697513Y-4409000D01*
X7542487Y-4409000D01*
X7390441Y-4439244D01*
X7247216Y-4498570D01*
X7118317Y-4584697D01*
X7008697Y-4694317D01*
X6985000Y-4729782D01*
X6961303Y-4694317D01*
X6851683Y-4584697D01*
X6722784Y-4498570D01*
X6579559Y-4439244D01*
X6427513Y-4409000D01*
X6272487Y-4409000D01*
X6120441Y-4439244D01*
X5977216Y-4498570D01*
X5848317Y-4584697D01*
X5738697Y-4694317D01*
X5715000Y-4729782D01*
X5691303Y-4694317D01*
X5581683Y-4584697D01*
X5452784Y-4498570D01*
X5309559Y-4439244D01*
X5157513Y-4409000D01*
X5002487Y-4409000D01*
X4850441Y-4439244D01*
X4707216Y-4498570D01*
X4578317Y-4584697D01*
X4468697Y-4694317D01*
X4445000Y-4729782D01*
X4421303Y-4694317D01*
X4311683Y-4584697D01*
X4182784Y-4498570D01*
X4039559Y-4439244D01*
X3887513Y-4409000D01*
X3732487Y-4409000D01*
X3580441Y-4439244D01*
X3437216Y-4498570D01*
X3308317Y-4584697D01*
X3198697Y-4694317D01*
X3175000Y-4729782D01*
X3151303Y-4694317D01*
X3041683Y-4584697D01*
X2912784Y-4498570D01*
X2769559Y-4439244D01*
X2617513Y-4409000D01*
X2462487Y-4409000D01*
X2310441Y-4439244D01*
X2167216Y-4498570D01*
X2038317Y-4584697D01*
X1928697Y-4694317D01*
X1905000Y-4729782D01*
X1881303Y-4694317D01*
X1771683Y-4584697D01*
X1642784Y-4498570D01*
X1499559Y-4439244D01*
X1347513Y-4409000D01*
X1192487Y-4409000D01*
X1040441Y-4439244D01*
X897216Y-4498570D01*
X768317Y-4584697D01*
X658697Y-4694317D01*
X635000Y-4729782D01*
X611303Y-4694317D01*
X501683Y-4584697D01*
X372784Y-4498570D01*
X229559Y-4439244D01*
X77513Y-4409000D01*
X-77513Y-4409000D01*
X-229559Y-4439244D01*
X-372784Y-4498570D01*
X-501683Y-4584697D01*
X-611303Y-4694317D01*
X-635000Y-4729782D01*
X-658697Y-4694317D01*
X-768317Y-4584697D01*
X-897216Y-4498570D01*
X-1040441Y-4439244D01*
X-1192487Y-4409000D01*
X-1347513Y-4409000D01*
X-1499559Y-4439244D01*
X-1642784Y-4498570D01*
X-1771683Y-4584697D01*
X-1881303Y-4694317D01*
X-1905000Y-4729782D01*
X-1928697Y-4694317D01*
X-2038317Y-4584697D01*
X-2167216Y-4498570D01*
X-2310441Y-4439244D01*
X-2462487Y-4409000D01*
X-2617513Y-4409000D01*
X-2769559Y-4439244D01*
X-2912784Y-4498570D01*
X-3041683Y-4584697D01*
X-3151303Y-4694317D01*
X-3175000Y-4729782D01*
X-3198697Y-4694317D01*
X-3308317Y-4584697D01*
X-3437216Y-4498570D01*
X-3580441Y-4439244D01*
X-3732487Y-4409000D01*
X-3887513Y-4409000D01*
X-4039559Y-4439244D01*
X-4182784Y-4498570D01*
X-4311683Y-4584697D01*
X-4421303Y-4694317D01*
X-4445000Y-4729782D01*
X-4468697Y-4694317D01*
X-4578317Y-4584697D01*
X-4707216Y-4498570D01*
X-4850441Y-4439244D01*
X-5002487Y-4409000D01*
X-5157513Y-4409000D01*
X-5309559Y-4439244D01*
X-5452784Y-4498570D01*
X-5581683Y-4584697D01*
X-5691303Y-4694317D01*
X-5715000Y-4729782D01*
X-5738697Y-4694317D01*
X-5848317Y-4584697D01*
X-5977216Y-4498570D01*
X-6120441Y-4439244D01*
X-6272487Y-4409000D01*
X-6427513Y-4409000D01*
X-6579559Y-4439244D01*
X-6722784Y-4498570D01*
X-6851683Y-4584697D01*
X-6961303Y-4694317D01*
X-6985000Y-4729782D01*
X-7008697Y-4694317D01*
X-7118317Y-4584697D01*
X-7247216Y-4498570D01*
X-7390441Y-4439244D01*
X-7542487Y-4409000D01*
X-7697513Y-4409000D01*
X-7849559Y-4439244D01*
X-7992784Y-4498570D01*
X-8121683Y-4584697D01*
X-8231303Y-4694317D01*
X-8317430Y-4823216D01*
X-8376756Y-4966441D01*
X-8407000Y-5118487D01*
X-25622220Y-5118487D01*
X-25833959Y-4040357D01*
X-26069371Y-2026272D01*
X-26148000Y0D01*
X-26069371Y2026272D01*
X-25833959Y4040357D01*
X-25443177Y6030144D01*
X-24899378Y7983664D01*
X-24205830Y9889170D01*
X-23366706Y11735201D01*
X-23014501Y12373513D01*
X-8407000Y12373513D01*
X-8407000Y12218487D01*
X-8376756Y12066441D01*
X-8317430Y11923216D01*
X-8231303Y11794317D01*
X-8121683Y11684697D01*
X-7997000Y11601387D01*
X-7996999Y6990614D01*
X-8121683Y6907303D01*
X-8231303Y6797683D01*
X-8317430Y6668784D01*
X-8376756Y6525559D01*
X-8407000Y6373513D01*
X-8407000Y6218487D01*
X-8376756Y6066441D01*
X-8317430Y5923216D01*
X-8231303Y5794317D01*
X-8121683Y5684697D01*
X-7992784Y5598570D01*
X-7849559Y5539244D01*
X-7706457Y5510779D01*
X-7741756Y5425559D01*
X-7772000Y5273513D01*
X-7772000Y5118487D01*
X-7741756Y4966441D01*
X-7682430Y4823216D01*
X-7596303Y4694317D01*
X-7486683Y4584697D01*
X-7357784Y4498570D01*
X-7214559Y4439244D01*
X-7062513Y4409000D01*
X-6907487Y4409000D01*
X-6755441Y4439244D01*
X-6612216Y4498570D01*
X-6483317Y4584697D01*
X-6373697Y4694317D01*
X-6350000Y4729782D01*
X-6326303Y4694317D01*
X-6216683Y4584697D01*
X-6087784Y4498570D01*
X-5944559Y4439244D01*
X-5792513Y4409000D01*
X-5637487Y4409000D01*
X-5485441Y4439244D01*
X-5342216Y4498570D01*
X-5213317Y4584697D01*
X-5103697Y4694317D01*
X-5080000Y4729782D01*
X-5056303Y4694317D01*
X-4946683Y4584697D01*
X-4817784Y4498570D01*
X-4674559Y4439244D01*
X-4522513Y4409000D01*
X-4367487Y4409000D01*
X-4215441Y4439244D01*
X-4072216Y4498570D01*
X-3943317Y4584697D01*
X-3833697Y4694317D01*
X-3810000Y4729782D01*
X-3786303Y4694317D01*
X-3676683Y4584697D01*
X-3547784Y4498570D01*
X-3404559Y4439244D01*
X-3252513Y4409000D01*
X-3097487Y4409000D01*
X-2945441Y4439244D01*
X-2802216Y4498570D01*
X-2673317Y4584697D01*
X-2563697Y4694317D01*
X-2540000Y4729782D01*
X-2516303Y4694317D01*
X-2406683Y4584697D01*
X-2277784Y4498570D01*
X-2134559Y4439244D01*
X-1982513Y4409000D01*
X-1827487Y4409000D01*
X-1675441Y4439244D01*
X-1532216Y4498570D01*
X-1403317Y4584697D01*
X-1293697Y4694317D01*
X-1270000Y4729782D01*
X-1246303Y4694317D01*
X-1136683Y4584697D01*
X-1007784Y4498570D01*
X-864559Y4439244D01*
X-712513Y4409000D01*
X-557487Y4409000D01*
X-405441Y4439244D01*
X-262216Y4498570D01*
X-133317Y4584697D01*
X-23697Y4694317D01*
X0Y4729782D01*
X23697Y4694317D01*
X133317Y4584697D01*
X262216Y4498570D01*
X405441Y4439244D01*
X557487Y4409000D01*
X712513Y4409000D01*
X864559Y4439244D01*
X1007784Y4498570D01*
X1136683Y4584697D01*
X1246303Y4694317D01*
X1270000Y4729782D01*
X1293697Y4694317D01*
X1403317Y4584697D01*
X1532216Y4498570D01*
X1675441Y4439244D01*
X1827487Y4409000D01*
X1982513Y4409000D01*
X2134559Y4439244D01*
X2277784Y4498570D01*
X2406683Y4584697D01*
X2516303Y4694317D01*
X2540000Y4729782D01*
X2563697Y4694317D01*
X2673317Y4584697D01*
X2802216Y4498570D01*
X2945441Y4439244D01*
X3097487Y4409000D01*
X3252513Y4409000D01*
X3404559Y4439244D01*
X3547784Y4498570D01*
X3676683Y4584697D01*
X3786303Y4694317D01*
X3810000Y4729782D01*
X3833697Y4694317D01*
X3943317Y4584697D01*
X4072216Y4498570D01*
X4215441Y4439244D01*
X4367487Y4409000D01*
X4522513Y4409000D01*
X4674559Y4439244D01*
X4817784Y4498570D01*
X4946683Y4584697D01*
X5056303Y4694317D01*
X5080000Y4729782D01*
X5103697Y4694317D01*
X5213317Y4584697D01*
X5342216Y4498570D01*
X5485441Y4439244D01*
X5637487Y4409000D01*
X5792513Y4409000D01*
X5944559Y4439244D01*
X6087784Y4498570D01*
X6216683Y4584697D01*
X6326303Y4694317D01*
X6350000Y4729782D01*
X6373697Y4694317D01*
X6483317Y4584697D01*
X6612216Y4498570D01*
X6755441Y4439244D01*
X6907487Y4409000D01*
X7062513Y4409000D01*
X7214559Y4439244D01*
X7357784Y4498570D01*
X7486683Y4584697D01*
X7596303Y4694317D01*
X7682430Y4823216D01*
X7741756Y4966441D01*
X7772000Y5118487D01*
X7772000Y5273513D01*
X7741756Y5425559D01*
X7706457Y5510779D01*
X7849559Y5539244D01*
X7992784Y5598570D01*
X8121683Y5684697D01*
X8231303Y5794317D01*
X8317430Y5923216D01*
X8376756Y6066441D01*
X8407000Y6218487D01*
X8407000Y6373513D01*
X8376756Y6525559D01*
X8317430Y6668784D01*
X8231303Y6797683D01*
X8121683Y6907303D01*
X7997000Y6990613D01*
X7997000Y11601387D01*
X8121683Y11684697D01*
X8231303Y11794317D01*
X8317430Y11923216D01*
X8376756Y12066441D01*
X8407000Y12218487D01*
X8407000Y12373513D01*
X8376756Y12525559D01*
X8317430Y12668784D01*
X8231303Y12797683D01*
X8121683Y12907303D01*
X7992784Y12993430D01*
X7849559Y13052756D01*
X7697513Y13083000D01*
X7542487Y13083000D01*
X7390441Y13052756D01*
X7247216Y12993430D01*
X7118317Y12907303D01*
X7008697Y12797683D01*
X6985000Y12762218D01*
X6961303Y12797683D01*
X6851683Y12907303D01*
X6722784Y12993430D01*
X6579559Y13052756D01*
X6427513Y13083000D01*
X6272487Y13083000D01*
X6120441Y13052756D01*
X5977216Y12993430D01*
X5848317Y12907303D01*
X5738697Y12797683D01*
X5715000Y12762218D01*
X5691303Y12797683D01*
X5581683Y12907303D01*
X5452784Y12993430D01*
X5309559Y13052756D01*
X5157513Y13083000D01*
X5002487Y13083000D01*
X4850441Y13052756D01*
X4707216Y12993430D01*
X4578317Y12907303D01*
X4468697Y12797683D01*
X4445000Y12762218D01*
X4421303Y12797683D01*
X4311683Y12907303D01*
X4182784Y12993430D01*
X4039559Y13052756D01*
X3887513Y13083000D01*
X3732487Y13083000D01*
X3580441Y13052756D01*
X3437216Y12993430D01*
X3308317Y12907303D01*
X3198697Y12797683D01*
X3175000Y12762218D01*
X3151303Y12797683D01*
X3041683Y12907303D01*
X2912784Y12993430D01*
X2769559Y13052756D01*
X2617513Y13083000D01*
X2462487Y13083000D01*
X2310441Y13052756D01*
X2167216Y12993430D01*
X2038317Y12907303D01*
X1928697Y12797683D01*
X1905000Y12762218D01*
X1881303Y12797683D01*
X1771683Y12907303D01*
X1642784Y12993430D01*
X1499559Y13052756D01*
X1347513Y13083000D01*
X1192487Y13083000D01*
X1040441Y13052756D01*
X897216Y12993430D01*
X768317Y12907303D01*
X658697Y12797683D01*
X635000Y12762218D01*
X611303Y12797683D01*
X501683Y12907303D01*
X372784Y12993430D01*
X229559Y13052756D01*
X77513Y13083000D01*
X-77513Y13083000D01*
X-229559Y13052756D01*
X-372784Y12993430D01*
X-501683Y12907303D01*
X-611303Y12797683D01*
X-635000Y12762218D01*
X-658697Y12797683D01*
X-768317Y12907303D01*
X-897216Y12993430D01*
X-1040441Y13052756D01*
X-1192487Y13083000D01*
X-1347513Y13083000D01*
X-1499559Y13052756D01*
X-1642784Y12993430D01*
X-1771683Y12907303D01*
X-1881303Y12797683D01*
X-1905000Y12762218D01*
X-1928697Y12797683D01*
X-2038317Y12907303D01*
X-2167216Y12993430D01*
X-2310441Y13052756D01*
X-2462487Y13083000D01*
X-2617513Y13083000D01*
X-2769559Y13052756D01*
X-2912784Y12993430D01*
X-3041683Y12907303D01*
X-3151303Y12797683D01*
X-3175000Y12762218D01*
X-3198697Y12797683D01*
X-3308317Y12907303D01*
X-3437216Y12993430D01*
X-3580441Y13052756D01*
X-3732487Y13083000D01*
X-3887513Y13083000D01*
X-4039559Y13052756D01*
X-4182784Y12993430D01*
X-4311683Y12907303D01*
X-4421303Y12797683D01*
X-4445000Y12762218D01*
X-4468697Y12797683D01*
X-4578317Y12907303D01*
X-4707216Y12993430D01*
X-4850441Y13052756D01*
X-5002487Y13083000D01*
X-5157513Y13083000D01*
X-5309559Y13052756D01*
X-5452784Y12993430D01*
X-5581683Y12907303D01*
X-5691303Y12797683D01*
X-5715000Y12762218D01*
X-5738697Y12797683D01*
X-5848317Y12907303D01*
X-5977216Y12993430D01*
X-6120441Y13052756D01*
X-6272487Y13083000D01*
X-6427513Y13083000D01*
X-6579559Y13052756D01*
X-6722784Y12993430D01*
X-6851683Y12907303D01*
X-6961303Y12797683D01*
X-6985000Y12762218D01*
X-7008697Y12797683D01*
X-7118317Y12907303D01*
X-7247216Y12993430D01*
X-7390441Y13052756D01*
X-7542487Y13083000D01*
X-7697513Y13083000D01*
X-7849559Y13052756D01*
X-7992784Y12993430D01*
X-8121683Y12907303D01*
X-8231303Y12797683D01*
X-8317430Y12668784D01*
X-8376756Y12525559D01*
X-8407000Y12373513D01*
X-23014501Y12373513D01*
X-22387052Y13510655D01*
X-21272760Y15204855D01*
X-20030530Y16807610D01*
X-18667835Y18309283D01*
X-17192869Y19700842D01*
X-15614503Y20973917D01*
X-13942230Y22120853D01*
X-12186106Y23134751D01*
X-10356694Y24009515D01*
X-8464995Y24739882D01*
X-6522387Y25321461D01*
X-4540553Y25750753D01*
X-2531411Y26025178D01*
X-507045Y26143083D01*
X1520371Y26103762D01*
%TA.AperFunction,NonConductor*%
D13*
G36*
X1520371Y26103762D02*
G01*
X3538643Y25907449D01*
X5535633Y25555326D01*
X7499331Y25049510D01*
X9417927Y24393043D01*
X11279883Y23589874D01*
X13074000Y22644832D01*
X14789489Y21563602D01*
X16416031Y20352686D01*
X17943846Y19019366D01*
X19363745Y17571662D01*
X20667188Y16018279D01*
X21846335Y14368561D01*
X22894097Y12632428D01*
X23804170Y10820323D01*
X24571083Y8943143D01*
X25190222Y7012177D01*
X25657864Y5039040D01*
X25971197Y3035598D01*
X26128335Y1013898D01*
X26128335Y-1013898D01*
X25971197Y-3035598D01*
X25657864Y-5039040D01*
X25190222Y-7012177D01*
X24571083Y-8943143D01*
X23804170Y-10820323D01*
X22894097Y-12632428D01*
X21846335Y-14368561D01*
X20667188Y-16018279D01*
X19363745Y-17571662D01*
X17943846Y-19019366D01*
X16416031Y-20352686D01*
X14789489Y-21563602D01*
X13074000Y-22644832D01*
X11279883Y-23589874D01*
X9417927Y-24393043D01*
X7499331Y-25049510D01*
X5535633Y-25555326D01*
X3538643Y-25907449D01*
X1520371Y-26103762D01*
X-507045Y-26143083D01*
X-2531411Y-26025178D01*
X-4540553Y-25750753D01*
X-6522387Y-25321461D01*
X-8464995Y-24739882D01*
X-10356694Y-24009515D01*
X-12186106Y-23134751D01*
X-13942230Y-22120853D01*
X-15614503Y-20973917D01*
X-17192869Y-19700842D01*
X-18667835Y-18309283D01*
X-20030530Y-16807610D01*
X-21272760Y-15204855D01*
X-22387052Y-13510655D01*
X-23366706Y-11735201D01*
X-24205830Y-9889170D01*
X-24899378Y-7983664D01*
X-25443177Y-6030144D01*
X-25622220Y-5118487D01*
X-8407000Y-5118487D01*
X-8407000Y-5273513D01*
X-8376756Y-5425559D01*
X-8317430Y-5568784D01*
X-8231303Y-5697683D01*
X-8121683Y-5807303D01*
X-7997000Y-5890613D01*
X-7996999Y-10501386D01*
X-8121683Y-10584697D01*
X-8231303Y-10694317D01*
X-8317430Y-10823216D01*
X-8376756Y-10966441D01*
X-8407000Y-11118487D01*
X-8407000Y-11273513D01*
X-8376756Y-11425559D01*
X-8317430Y-11568784D01*
X-8231303Y-11697683D01*
X-8121683Y-11807303D01*
X-7992784Y-11893430D01*
X-7849559Y-11952756D01*
X-7706457Y-11981221D01*
X-7741756Y-12066441D01*
X-7772000Y-12218487D01*
X-7772000Y-12373513D01*
X-7741756Y-12525559D01*
X-7682430Y-12668784D01*
X-7596303Y-12797683D01*
X-7486683Y-12907303D01*
X-7357784Y-12993430D01*
X-7214559Y-13052756D01*
X-7062513Y-13083000D01*
X-6907487Y-13083000D01*
X-6755441Y-13052756D01*
X-6612216Y-12993430D01*
X-6483317Y-12907303D01*
X-6373697Y-12797683D01*
X-6350000Y-12762218D01*
X-6326303Y-12797683D01*
X-6216683Y-12907303D01*
X-6087784Y-12993430D01*
X-5944559Y-13052756D01*
X-5792513Y-13083000D01*
X-5637487Y-13083000D01*
X-5485441Y-13052756D01*
X-5342216Y-12993430D01*
X-5213317Y-12907303D01*
X-5103697Y-12797683D01*
X-5080000Y-12762218D01*
X-5056303Y-12797683D01*
X-4946683Y-12907303D01*
X-4817784Y-12993430D01*
X-4674559Y-13052756D01*
X-4522513Y-13083000D01*
X-4367487Y-13083000D01*
X-4215441Y-13052756D01*
X-4072216Y-12993430D01*
X-3943317Y-12907303D01*
X-3833697Y-12797683D01*
X-3810000Y-12762218D01*
X-3786303Y-12797683D01*
X-3676683Y-12907303D01*
X-3547784Y-12993430D01*
X-3404559Y-13052756D01*
X-3252513Y-13083000D01*
X-3097487Y-13083000D01*
X-2945441Y-13052756D01*
X-2802216Y-12993430D01*
X-2673317Y-12907303D01*
X-2563697Y-12797683D01*
X-2540000Y-12762218D01*
X-2516303Y-12797683D01*
X-2406683Y-12907303D01*
X-2277784Y-12993430D01*
X-2134559Y-13052756D01*
X-1982513Y-13083000D01*
X-1827487Y-13083000D01*
X-1675441Y-13052756D01*
X-1532216Y-12993430D01*
X-1403317Y-12907303D01*
X-1293697Y-12797683D01*
X-1270000Y-12762218D01*
X-1246303Y-12797683D01*
X-1136683Y-12907303D01*
X-1007784Y-12993430D01*
X-864559Y-13052756D01*
X-712513Y-13083000D01*
X-557487Y-13083000D01*
X-405441Y-13052756D01*
X-262216Y-12993430D01*
X-133317Y-12907303D01*
X-23697Y-12797683D01*
X0Y-12762218D01*
X23697Y-12797683D01*
X133317Y-12907303D01*
X262216Y-12993430D01*
X405441Y-13052756D01*
X557487Y-13083000D01*
X712513Y-13083000D01*
X864559Y-13052756D01*
X1007784Y-12993430D01*
X1136683Y-12907303D01*
X1246303Y-12797683D01*
X1270000Y-12762218D01*
X1293697Y-12797683D01*
X1403317Y-12907303D01*
X1532216Y-12993430D01*
X1675441Y-13052756D01*
X1827487Y-13083000D01*
X1982513Y-13083000D01*
X2134559Y-13052756D01*
X2277784Y-12993430D01*
X2406683Y-12907303D01*
X2516303Y-12797683D01*
X2540000Y-12762218D01*
X2563697Y-12797683D01*
X2673317Y-12907303D01*
X2802216Y-12993430D01*
X2945441Y-13052756D01*
X3097487Y-13083000D01*
X3252513Y-13083000D01*
X3404559Y-13052756D01*
X3547784Y-12993430D01*
X3676683Y-12907303D01*
X3786303Y-12797683D01*
X3810000Y-12762218D01*
X3833697Y-12797683D01*
X3943317Y-12907303D01*
X4072216Y-12993430D01*
X4215441Y-13052756D01*
X4367487Y-13083000D01*
X4522513Y-13083000D01*
X4674559Y-13052756D01*
X4817784Y-12993430D01*
X4946683Y-12907303D01*
X5056303Y-12797683D01*
X5080000Y-12762218D01*
X5103697Y-12797683D01*
X5213317Y-12907303D01*
X5342216Y-12993430D01*
X5485441Y-13052756D01*
X5637487Y-13083000D01*
X5792513Y-13083000D01*
X5944559Y-13052756D01*
X6087784Y-12993430D01*
X6216683Y-12907303D01*
X6326303Y-12797683D01*
X6350000Y-12762218D01*
X6373697Y-12797683D01*
X6483317Y-12907303D01*
X6612216Y-12993430D01*
X6755441Y-13052756D01*
X6907487Y-13083000D01*
X7062513Y-13083000D01*
X7214559Y-13052756D01*
X7357784Y-12993430D01*
X7486683Y-12907303D01*
X7596303Y-12797683D01*
X7682430Y-12668784D01*
X7741756Y-12525559D01*
X7772000Y-12373513D01*
X7772000Y-12218487D01*
X7741756Y-12066441D01*
X7706457Y-11981221D01*
X7849559Y-11952756D01*
X7992784Y-11893430D01*
X8121683Y-11807303D01*
X8231303Y-11697683D01*
X8317430Y-11568784D01*
X8376756Y-11425559D01*
X8407000Y-11273513D01*
X8407000Y-11118487D01*
X8376756Y-10966441D01*
X8317430Y-10823216D01*
X8231303Y-10694317D01*
X8121683Y-10584697D01*
X7997000Y-10501387D01*
X7997000Y-5890613D01*
X8121683Y-5807303D01*
X8231303Y-5697683D01*
X8317430Y-5568784D01*
X8376756Y-5425559D01*
X8407000Y-5273513D01*
X8407000Y-5118487D01*
X8376756Y-4966441D01*
X8317430Y-4823216D01*
X8231303Y-4694317D01*
X8121683Y-4584697D01*
X7992784Y-4498570D01*
X7849559Y-4439244D01*
X7697513Y-4409000D01*
X7542487Y-4409000D01*
X7390441Y-4439244D01*
X7247216Y-4498570D01*
X7118317Y-4584697D01*
X7008697Y-4694317D01*
X6985000Y-4729782D01*
X6961303Y-4694317D01*
X6851683Y-4584697D01*
X6722784Y-4498570D01*
X6579559Y-4439244D01*
X6427513Y-4409000D01*
X6272487Y-4409000D01*
X6120441Y-4439244D01*
X5977216Y-4498570D01*
X5848317Y-4584697D01*
X5738697Y-4694317D01*
X5715000Y-4729782D01*
X5691303Y-4694317D01*
X5581683Y-4584697D01*
X5452784Y-4498570D01*
X5309559Y-4439244D01*
X5157513Y-4409000D01*
X5002487Y-4409000D01*
X4850441Y-4439244D01*
X4707216Y-4498570D01*
X4578317Y-4584697D01*
X4468697Y-4694317D01*
X4445000Y-4729782D01*
X4421303Y-4694317D01*
X4311683Y-4584697D01*
X4182784Y-4498570D01*
X4039559Y-4439244D01*
X3887513Y-4409000D01*
X3732487Y-4409000D01*
X3580441Y-4439244D01*
X3437216Y-4498570D01*
X3308317Y-4584697D01*
X3198697Y-4694317D01*
X3175000Y-4729782D01*
X3151303Y-4694317D01*
X3041683Y-4584697D01*
X2912784Y-4498570D01*
X2769559Y-4439244D01*
X2617513Y-4409000D01*
X2462487Y-4409000D01*
X2310441Y-4439244D01*
X2167216Y-4498570D01*
X2038317Y-4584697D01*
X1928697Y-4694317D01*
X1905000Y-4729782D01*
X1881303Y-4694317D01*
X1771683Y-4584697D01*
X1642784Y-4498570D01*
X1499559Y-4439244D01*
X1347513Y-4409000D01*
X1192487Y-4409000D01*
X1040441Y-4439244D01*
X897216Y-4498570D01*
X768317Y-4584697D01*
X658697Y-4694317D01*
X635000Y-4729782D01*
X611303Y-4694317D01*
X501683Y-4584697D01*
X372784Y-4498570D01*
X229559Y-4439244D01*
X77513Y-4409000D01*
X-77513Y-4409000D01*
X-229559Y-4439244D01*
X-372784Y-4498570D01*
X-501683Y-4584697D01*
X-611303Y-4694317D01*
X-635000Y-4729782D01*
X-658697Y-4694317D01*
X-768317Y-4584697D01*
X-897216Y-4498570D01*
X-1040441Y-4439244D01*
X-1192487Y-4409000D01*
X-1347513Y-4409000D01*
X-1499559Y-4439244D01*
X-1642784Y-4498570D01*
X-1771683Y-4584697D01*
X-1881303Y-4694317D01*
X-1905000Y-4729782D01*
X-1928697Y-4694317D01*
X-2038317Y-4584697D01*
X-2167216Y-4498570D01*
X-2310441Y-4439244D01*
X-2462487Y-4409000D01*
X-2617513Y-4409000D01*
X-2769559Y-4439244D01*
X-2912784Y-4498570D01*
X-3041683Y-4584697D01*
X-3151303Y-4694317D01*
X-3175000Y-4729782D01*
X-3198697Y-4694317D01*
X-3308317Y-4584697D01*
X-3437216Y-4498570D01*
X-3580441Y-4439244D01*
X-3732487Y-4409000D01*
X-3887513Y-4409000D01*
X-4039559Y-4439244D01*
X-4182784Y-4498570D01*
X-4311683Y-4584697D01*
X-4421303Y-4694317D01*
X-4445000Y-4729782D01*
X-4468697Y-4694317D01*
X-4578317Y-4584697D01*
X-4707216Y-4498570D01*
X-4850441Y-4439244D01*
X-5002487Y-4409000D01*
X-5157513Y-4409000D01*
X-5309559Y-4439244D01*
X-5452784Y-4498570D01*
X-5581683Y-4584697D01*
X-5691303Y-4694317D01*
X-5715000Y-4729782D01*
X-5738697Y-4694317D01*
X-5848317Y-4584697D01*
X-5977216Y-4498570D01*
X-6120441Y-4439244D01*
X-6272487Y-4409000D01*
X-6427513Y-4409000D01*
X-6579559Y-4439244D01*
X-6722784Y-4498570D01*
X-6851683Y-4584697D01*
X-6961303Y-4694317D01*
X-6985000Y-4729782D01*
X-7008697Y-4694317D01*
X-7118317Y-4584697D01*
X-7247216Y-4498570D01*
X-7390441Y-4439244D01*
X-7542487Y-4409000D01*
X-7697513Y-4409000D01*
X-7849559Y-4439244D01*
X-7992784Y-4498570D01*
X-8121683Y-4584697D01*
X-8231303Y-4694317D01*
X-8317430Y-4823216D01*
X-8376756Y-4966441D01*
X-8407000Y-5118487D01*
X-25622220Y-5118487D01*
X-25833959Y-4040357D01*
X-26069371Y-2026272D01*
X-26148000Y0D01*
X-26069371Y2026272D01*
X-25833959Y4040357D01*
X-25443177Y6030144D01*
X-24899378Y7983664D01*
X-24205830Y9889170D01*
X-23366706Y11735201D01*
X-23014501Y12373513D01*
X-8407000Y12373513D01*
X-8407000Y12218487D01*
X-8376756Y12066441D01*
X-8317430Y11923216D01*
X-8231303Y11794317D01*
X-8121683Y11684697D01*
X-7997000Y11601387D01*
X-7996999Y6990614D01*
X-8121683Y6907303D01*
X-8231303Y6797683D01*
X-8317430Y6668784D01*
X-8376756Y6525559D01*
X-8407000Y6373513D01*
X-8407000Y6218487D01*
X-8376756Y6066441D01*
X-8317430Y5923216D01*
X-8231303Y5794317D01*
X-8121683Y5684697D01*
X-7992784Y5598570D01*
X-7849559Y5539244D01*
X-7706457Y5510779D01*
X-7741756Y5425559D01*
X-7772000Y5273513D01*
X-7772000Y5118487D01*
X-7741756Y4966441D01*
X-7682430Y4823216D01*
X-7596303Y4694317D01*
X-7486683Y4584697D01*
X-7357784Y4498570D01*
X-7214559Y4439244D01*
X-7062513Y4409000D01*
X-6907487Y4409000D01*
X-6755441Y4439244D01*
X-6612216Y4498570D01*
X-6483317Y4584697D01*
X-6373697Y4694317D01*
X-6350000Y4729782D01*
X-6326303Y4694317D01*
X-6216683Y4584697D01*
X-6087784Y4498570D01*
X-5944559Y4439244D01*
X-5792513Y4409000D01*
X-5637487Y4409000D01*
X-5485441Y4439244D01*
X-5342216Y4498570D01*
X-5213317Y4584697D01*
X-5103697Y4694317D01*
X-5080000Y4729782D01*
X-5056303Y4694317D01*
X-4946683Y4584697D01*
X-4817784Y4498570D01*
X-4674559Y4439244D01*
X-4522513Y4409000D01*
X-4367487Y4409000D01*
X-4215441Y4439244D01*
X-4072216Y4498570D01*
X-3943317Y4584697D01*
X-3833697Y4694317D01*
X-3810000Y4729782D01*
X-3786303Y4694317D01*
X-3676683Y4584697D01*
X-3547784Y4498570D01*
X-3404559Y4439244D01*
X-3252513Y4409000D01*
X-3097487Y4409000D01*
X-2945441Y4439244D01*
X-2802216Y4498570D01*
X-2673317Y4584697D01*
X-2563697Y4694317D01*
X-2540000Y4729782D01*
X-2516303Y4694317D01*
X-2406683Y4584697D01*
X-2277784Y4498570D01*
X-2134559Y4439244D01*
X-1982513Y4409000D01*
X-1827487Y4409000D01*
X-1675441Y4439244D01*
X-1532216Y4498570D01*
X-1403317Y4584697D01*
X-1293697Y4694317D01*
X-1270000Y4729782D01*
X-1246303Y4694317D01*
X-1136683Y4584697D01*
X-1007784Y4498570D01*
X-864559Y4439244D01*
X-712513Y4409000D01*
X-557487Y4409000D01*
X-405441Y4439244D01*
X-262216Y4498570D01*
X-133317Y4584697D01*
X-23697Y4694317D01*
X0Y4729782D01*
X23697Y4694317D01*
X133317Y4584697D01*
X262216Y4498570D01*
X405441Y4439244D01*
X557487Y4409000D01*
X712513Y4409000D01*
X864559Y4439244D01*
X1007784Y4498570D01*
X1136683Y4584697D01*
X1246303Y4694317D01*
X1270000Y4729782D01*
X1293697Y4694317D01*
X1403317Y4584697D01*
X1532216Y4498570D01*
X1675441Y4439244D01*
X1827487Y4409000D01*
X1982513Y4409000D01*
X2134559Y4439244D01*
X2277784Y4498570D01*
X2406683Y4584697D01*
X2516303Y4694317D01*
X2540000Y4729782D01*
X2563697Y4694317D01*
X2673317Y4584697D01*
X2802216Y4498570D01*
X2945441Y4439244D01*
X3097487Y4409000D01*
X3252513Y4409000D01*
X3404559Y4439244D01*
X3547784Y4498570D01*
X3676683Y4584697D01*
X3786303Y4694317D01*
X3810000Y4729782D01*
X3833697Y4694317D01*
X3943317Y4584697D01*
X4072216Y4498570D01*
X4215441Y4439244D01*
X4367487Y4409000D01*
X4522513Y4409000D01*
X4674559Y4439244D01*
X4817784Y4498570D01*
X4946683Y4584697D01*
X5056303Y4694317D01*
X5080000Y4729782D01*
X5103697Y4694317D01*
X5213317Y4584697D01*
X5342216Y4498570D01*
X5485441Y4439244D01*
X5637487Y4409000D01*
X5792513Y4409000D01*
X5944559Y4439244D01*
X6087784Y4498570D01*
X6216683Y4584697D01*
X6326303Y4694317D01*
X6350000Y4729782D01*
X6373697Y4694317D01*
X6483317Y4584697D01*
X6612216Y4498570D01*
X6755441Y4439244D01*
X6907487Y4409000D01*
X7062513Y4409000D01*
X7214559Y4439244D01*
X7357784Y4498570D01*
X7486683Y4584697D01*
X7596303Y4694317D01*
X7682430Y4823216D01*
X7741756Y4966441D01*
X7772000Y5118487D01*
X7772000Y5273513D01*
X7741756Y5425559D01*
X7706457Y5510779D01*
X7849559Y5539244D01*
X7992784Y5598570D01*
X8121683Y5684697D01*
X8231303Y5794317D01*
X8317430Y5923216D01*
X8376756Y6066441D01*
X8407000Y6218487D01*
X8407000Y6373513D01*
X8376756Y6525559D01*
X8317430Y6668784D01*
X8231303Y6797683D01*
X8121683Y6907303D01*
X7997000Y6990613D01*
X7997000Y11601387D01*
X8121683Y11684697D01*
X8231303Y11794317D01*
X8317430Y11923216D01*
X8376756Y12066441D01*
X8407000Y12218487D01*
X8407000Y12373513D01*
X8376756Y12525559D01*
X8317430Y12668784D01*
X8231303Y12797683D01*
X8121683Y12907303D01*
X7992784Y12993430D01*
X7849559Y13052756D01*
X7697513Y13083000D01*
X7542487Y13083000D01*
X7390441Y13052756D01*
X7247216Y12993430D01*
X7118317Y12907303D01*
X7008697Y12797683D01*
X6985000Y12762218D01*
X6961303Y12797683D01*
X6851683Y12907303D01*
X6722784Y12993430D01*
X6579559Y13052756D01*
X6427513Y13083000D01*
X6272487Y13083000D01*
X6120441Y13052756D01*
X5977216Y12993430D01*
X5848317Y12907303D01*
X5738697Y12797683D01*
X5715000Y12762218D01*
X5691303Y12797683D01*
X5581683Y12907303D01*
X5452784Y12993430D01*
X5309559Y13052756D01*
X5157513Y13083000D01*
X5002487Y13083000D01*
X4850441Y13052756D01*
X4707216Y12993430D01*
X4578317Y12907303D01*
X4468697Y12797683D01*
X4445000Y12762218D01*
X4421303Y12797683D01*
X4311683Y12907303D01*
X4182784Y12993430D01*
X4039559Y13052756D01*
X3887513Y13083000D01*
X3732487Y13083000D01*
X3580441Y13052756D01*
X3437216Y12993430D01*
X3308317Y12907303D01*
X3198697Y12797683D01*
X3175000Y12762218D01*
X3151303Y12797683D01*
X3041683Y12907303D01*
X2912784Y12993430D01*
X2769559Y13052756D01*
X2617513Y13083000D01*
X2462487Y13083000D01*
X2310441Y13052756D01*
X2167216Y12993430D01*
X2038317Y12907303D01*
X1928697Y12797683D01*
X1905000Y12762218D01*
X1881303Y12797683D01*
X1771683Y12907303D01*
X1642784Y12993430D01*
X1499559Y13052756D01*
X1347513Y13083000D01*
X1192487Y13083000D01*
X1040441Y13052756D01*
X897216Y12993430D01*
X768317Y12907303D01*
X658697Y12797683D01*
X635000Y12762218D01*
X611303Y12797683D01*
X501683Y12907303D01*
X372784Y12993430D01*
X229559Y13052756D01*
X77513Y13083000D01*
X-77513Y13083000D01*
X-229559Y13052756D01*
X-372784Y12993430D01*
X-501683Y12907303D01*
X-611303Y12797683D01*
X-635000Y12762218D01*
X-658697Y12797683D01*
X-768317Y12907303D01*
X-897216Y12993430D01*
X-1040441Y13052756D01*
X-1192487Y13083000D01*
X-1347513Y13083000D01*
X-1499559Y13052756D01*
X-1642784Y12993430D01*
X-1771683Y12907303D01*
X-1881303Y12797683D01*
X-1905000Y12762218D01*
X-1928697Y12797683D01*
X-2038317Y12907303D01*
X-2167216Y12993430D01*
X-2310441Y13052756D01*
X-2462487Y13083000D01*
X-2617513Y13083000D01*
X-2769559Y13052756D01*
X-2912784Y12993430D01*
X-3041683Y12907303D01*
X-3151303Y12797683D01*
X-3175000Y12762218D01*
X-3198697Y12797683D01*
X-3308317Y12907303D01*
X-3437216Y12993430D01*
X-3580441Y13052756D01*
X-3732487Y13083000D01*
X-3887513Y13083000D01*
X-4039559Y13052756D01*
X-4182784Y12993430D01*
X-4311683Y12907303D01*
X-4421303Y12797683D01*
X-4445000Y12762218D01*
X-4468697Y12797683D01*
X-4578317Y12907303D01*
X-4707216Y12993430D01*
X-4850441Y13052756D01*
X-5002487Y13083000D01*
X-5157513Y13083000D01*
X-5309559Y13052756D01*
X-5452784Y12993430D01*
X-5581683Y12907303D01*
X-5691303Y12797683D01*
X-5715000Y12762218D01*
X-5738697Y12797683D01*
X-5848317Y12907303D01*
X-5977216Y12993430D01*
X-6120441Y13052756D01*
X-6272487Y13083000D01*
X-6427513Y13083000D01*
X-6579559Y13052756D01*
X-6722784Y12993430D01*
X-6851683Y12907303D01*
X-6961303Y12797683D01*
X-6985000Y12762218D01*
X-7008697Y12797683D01*
X-7118317Y12907303D01*
X-7247216Y12993430D01*
X-7390441Y13052756D01*
X-7542487Y13083000D01*
X-7697513Y13083000D01*
X-7849559Y13052756D01*
X-7992784Y12993430D01*
X-8121683Y12907303D01*
X-8231303Y12797683D01*
X-8317430Y12668784D01*
X-8376756Y12525559D01*
X-8407000Y12373513D01*
X-23014501Y12373513D01*
X-22387052Y13510655D01*
X-21272760Y15204855D01*
X-20030530Y16807610D01*
X-18667835Y18309283D01*
X-17192869Y19700842D01*
X-15614503Y20973917D01*
X-13942230Y22120853D01*
X-12186106Y23134751D01*
X-10356694Y24009515D01*
X-8464995Y24739882D01*
X-6522387Y25321461D01*
X-4540553Y25750753D01*
X-2531411Y26025178D01*
X-507045Y26143083D01*
X1520371Y26103762D01*
G37*
%TD.AperFunction*%
M02*
