%TF.GenerationSoftware,KiCad,Pcbnew,(5.1.9)-1*%
%TF.CreationDate,2021-07-01T13:43:52-06:00*%
%TF.ProjectId,Sub-D Micro-D 25 Pin Vacuum FeedThru,5375622d-4420-44d6-9963-726f2d442032,rev?*%
%TF.SameCoordinates,Original*%
%TF.FileFunction,Legend,Top*%
%TF.FilePolarity,Positive*%
%FSLAX46Y46*%
G04 Gerber Fmt 4.6, Leading zero omitted, Abs format (unit mm)*
G04 Created by KiCad (PCBNEW (5.1.9)-1) date 2021-07-01 13:43:52*
%MOMM*%
%LPD*%
G01*
G04 APERTURE LIST*
%ADD10C,0.150000*%
G04 APERTURE END LIST*
%TO.C,J1*%
D10*
X15666666Y15547619D02*
X15666666Y14833333D01*
X15619047Y14690476D01*
X15523809Y14595238D01*
X15380952Y14547619D01*
X15285714Y14547619D01*
X16666666Y14547619D02*
X16095238Y14547619D01*
X16380952Y14547619D02*
X16380952Y15547619D01*
X16285714Y15404761D01*
X16190476Y15309523D01*
X16095238Y15261904D01*
%TO.C,J3*%
X15666666Y3547619D02*
X15666666Y2833333D01*
X15619047Y2690476D01*
X15523809Y2595238D01*
X15380952Y2547619D01*
X15285714Y2547619D01*
X16047619Y3547619D02*
X16666666Y3547619D01*
X16333333Y3166666D01*
X16476190Y3166666D01*
X16571428Y3119047D01*
X16619047Y3071428D01*
X16666666Y2976190D01*
X16666666Y2738095D01*
X16619047Y2642857D01*
X16571428Y2595238D01*
X16476190Y2547619D01*
X16190476Y2547619D01*
X16095238Y2595238D01*
X16047619Y2642857D01*
%TO.C,J5*%
X16046666Y-7452380D02*
X16046666Y-8166666D01*
X15999047Y-8309523D01*
X15903809Y-8404761D01*
X15760952Y-8452380D01*
X15665714Y-8452380D01*
X16999047Y-7452380D02*
X16522857Y-7452380D01*
X16475238Y-7928571D01*
X16522857Y-7880952D01*
X16618095Y-7833333D01*
X16856190Y-7833333D01*
X16951428Y-7880952D01*
X16999047Y-7928571D01*
X17046666Y-8023809D01*
X17046666Y-8261904D01*
X16999047Y-8357142D01*
X16951428Y-8404761D01*
X16856190Y-8452380D01*
X16618095Y-8452380D01*
X16522857Y-8404761D01*
X16475238Y-8357142D01*
%TD*%
M02*
