M48
INCH
T1C0.0240
%
G90
G05
T1
X-0.3Y0.6102
X-0.3Y0.3543
X-0.3Y0.1378
X-0.3Y-0.1181
X-0.3Y-0.3346
X-0.3Y-0.5906
X-0.275Y0.5669
X-0.275Y0.3976
X-0.275Y0.0945
X-0.275Y-0.0748
X-0.275Y-0.378
X-0.275Y-0.5472
X-0.25Y0.6102
X-0.25Y0.3543
X-0.25Y0.1378
X-0.25Y-0.1181
X-0.25Y-0.3346
X-0.25Y-0.5906
X-0.225Y0.5669
X-0.225Y0.3976
X-0.225Y0.0945
X-0.225Y-0.0748
X-0.225Y-0.378
X-0.225Y-0.5472
X-0.2Y0.6102
X-0.2Y0.3543
X-0.2Y0.1378
X-0.2Y-0.1181
X-0.2Y-0.3346
X-0.2Y-0.5906
X-0.175Y0.5669
X-0.175Y0.3976
X-0.175Y0.0945
X-0.175Y-0.0748
X-0.175Y-0.378
X-0.175Y-0.5472
X-0.15Y0.6102
X-0.15Y0.3543
X-0.15Y0.1378
X-0.15Y-0.1181
X-0.15Y-0.3346
X-0.15Y-0.5906
X-0.125Y0.5669
X-0.125Y0.3976
X-0.125Y0.0945
X-0.125Y-0.0748
X-0.125Y-0.378
X-0.125Y-0.5472
X-0.1Y0.6102
X-0.1Y0.3543
X-0.1Y0.1378
X-0.1Y-0.1181
X-0.1Y-0.3346
X-0.1Y-0.5906
X-0.075Y0.5669
X-0.075Y0.3976
X-0.075Y0.0945
X-0.075Y-0.0748
X-0.075Y-0.378
X-0.075Y-0.5472
X-0.05Y0.6102
X-0.05Y0.3543
X-0.05Y0.1378
X-0.05Y-0.1181
X-0.05Y-0.3346
X-0.05Y-0.5906
X-0.025Y0.5669
X-0.025Y0.3976
X-0.025Y0.0945
X-0.025Y-0.0748
X-0.025Y-0.378
X-0.025Y-0.5472
X0.0Y0.6102
X0.0Y0.3543
X0.0Y0.1378
X0.0Y-0.1181
X0.0Y-0.3346
X0.0Y-0.5906
X0.025Y0.5669
X0.025Y0.3976
X0.025Y0.0945
X0.025Y-0.0748
X0.025Y-0.378
X0.025Y-0.5472
X0.05Y0.6102
X0.05Y0.3543
X0.05Y0.1378
X0.05Y-0.1181
X0.05Y-0.3346
X0.05Y-0.5906
X0.075Y0.5669
X0.075Y0.3976
X0.075Y0.0945
X0.075Y-0.0748
X0.075Y-0.378
X0.075Y-0.5472
X0.1Y0.6102
X0.1Y0.3543
X0.1Y0.1378
X0.1Y-0.1181
X0.1Y-0.3346
X0.1Y-0.5906
X0.125Y0.5669
X0.125Y0.3976
X0.125Y0.0945
X0.125Y-0.0748
X0.125Y-0.378
X0.125Y-0.5472
X0.15Y0.6102
X0.15Y0.3543
X0.15Y0.1378
X0.15Y-0.1181
X0.15Y-0.3346
X0.15Y-0.5906
X0.175Y0.5669
X0.175Y0.3976
X0.175Y0.0945
X0.175Y-0.0748
X0.175Y-0.378
X0.175Y-0.5472
X0.2Y0.6102
X0.2Y0.3543
X0.2Y0.1378
X0.2Y-0.1181
X0.2Y-0.3346
X0.2Y-0.5906
X0.225Y0.5669
X0.225Y0.3976
X0.225Y0.0945
X0.225Y-0.0748
X0.225Y-0.378
X0.225Y-0.5472
X0.25Y0.6102
X0.25Y0.3543
X0.25Y0.1378
X0.25Y-0.1181
X0.25Y-0.3346
X0.25Y-0.5906
X0.275Y0.5669
X0.275Y0.3976
X0.275Y0.0945
X0.275Y-0.0748
X0.275Y-0.378
X0.275Y-0.5472
X0.3Y0.6102
X0.3Y0.3543
X0.3Y0.1378
X0.3Y-0.1181
X0.3Y-0.3346
X0.3Y-0.5906
T0
M30
