%TF.GenerationSoftware,KiCad,Pcbnew,(5.1.9)-1*%
%TF.CreationDate,2021-07-07T13:02:54-06:00*%
%TF.ProjectId,Sub-D Micro-D 25 Pin Vacuum FeedThru,5375622d-4420-44d6-9963-726f2d442032,rev?*%
%TF.SameCoordinates,Original*%
%TF.FileFunction,Legend,Bot*%
%TF.FilePolarity,Positive*%
%FSLAX46Y46*%
G04 Gerber Fmt 4.6, Leading zero omitted, Abs format (unit mm)*
G04 Created by KiCad (PCBNEW (5.1.9)-1) date 2021-07-07 13:02:54*
%MOMM*%
%LPD*%
G01*
G04 APERTURE LIST*
%ADD10C,0.150000*%
G04 APERTURE END LIST*
D10*
%TO.C,J5*%
X-8080000Y-7540000D02*
X-9080000Y-8540000D01*
X-9080000Y-8540000D02*
X-9080000Y-10560000D01*
X-9080000Y-10560000D02*
X9080000Y-10560000D01*
X9080000Y-10560000D02*
X9080000Y-7540000D01*
X9080000Y-7540000D02*
X-8080000Y-7540000D01*
%TO.C,J3*%
X-8080000Y4460000D02*
X-9080000Y3460000D01*
X-9080000Y3460000D02*
X-9080000Y1440000D01*
X-9080000Y1440000D02*
X9080000Y1440000D01*
X9080000Y1440000D02*
X9080000Y4460000D01*
X9080000Y4460000D02*
X-8080000Y4460000D01*
%TO.C,J1*%
X-8080000Y16460000D02*
X-9080000Y15460000D01*
X-9080000Y15460000D02*
X-9080000Y13440000D01*
X-9080000Y13440000D02*
X9080000Y13440000D01*
X9080000Y13440000D02*
X9080000Y16460000D01*
X9080000Y16460000D02*
X-8080000Y16460000D01*
%TO.C,J6*%
X23953333Y-12902380D02*
X23953333Y-13616666D01*
X24000952Y-13759523D01*
X24096190Y-13854761D01*
X24239047Y-13902380D01*
X24334285Y-13902380D01*
X23048571Y-12902380D02*
X23239047Y-12902380D01*
X23334285Y-12950000D01*
X23381904Y-12997619D01*
X23477142Y-13140476D01*
X23524761Y-13330952D01*
X23524761Y-13711904D01*
X23477142Y-13807142D01*
X23429523Y-13854761D01*
X23334285Y-13902380D01*
X23143809Y-13902380D01*
X23048571Y-13854761D01*
X23000952Y-13807142D01*
X22953333Y-13711904D01*
X22953333Y-13473809D01*
X23000952Y-13378571D01*
X23048571Y-13330952D01*
X23143809Y-13283333D01*
X23334285Y-13283333D01*
X23429523Y-13330952D01*
X23477142Y-13378571D01*
X23524761Y-13473809D01*
X-7905714Y-17442380D02*
X-7334285Y-17442380D01*
X-7619999Y-17442380D02*
X-7619999Y-16442380D01*
X-7524761Y-16585238D01*
X-7429523Y-16680476D01*
X-7334285Y-16728095D01*
%TO.C,J4*%
X23953333Y-902380D02*
X23953333Y-1616666D01*
X24000952Y-1759523D01*
X24096190Y-1854761D01*
X24239047Y-1902380D01*
X24334285Y-1902380D01*
X23048571Y-1235714D02*
X23048571Y-1902380D01*
X23286666Y-854761D02*
X23524761Y-1569047D01*
X22905714Y-1569047D01*
X-7905714Y-5442380D02*
X-7334285Y-5442380D01*
X-7619999Y-5442380D02*
X-7619999Y-4442380D01*
X-7524761Y-4585238D01*
X-7429523Y-4680476D01*
X-7334285Y-4728095D01*
%TO.C,J2*%
X23953333Y11097619D02*
X23953333Y10383333D01*
X24000952Y10240476D01*
X24096190Y10145238D01*
X24239047Y10097619D01*
X24334285Y10097619D01*
X23524761Y11002380D02*
X23477142Y11050000D01*
X23381904Y11097619D01*
X23143809Y11097619D01*
X23048571Y11050000D01*
X23000952Y11002380D01*
X22953333Y10907142D01*
X22953333Y10811904D01*
X23000952Y10669047D01*
X23572380Y10097619D01*
X22953333Y10097619D01*
X-7905714Y6557619D02*
X-7334285Y6557619D01*
X-7619999Y6557619D02*
X-7619999Y7557619D01*
X-7524761Y7414761D01*
X-7429523Y7319523D01*
X-7334285Y7271904D01*
%TD*%
M02*
