%TF.GenerationSoftware,KiCad,Pcbnew,(5.1.9)-1*%
%TF.CreationDate,2021-07-21T23:40:00-06:00*%
%TF.ProjectId,Sub-D Micro-D 25 Pin Vacuum FeedThru,5375622d-4420-44d6-9963-726f2d442032,rev?*%
%TF.SameCoordinates,Original*%
%TF.FileFunction,Legend,Top*%
%TF.FilePolarity,Positive*%
%FSLAX46Y46*%
G04 Gerber Fmt 4.6, Leading zero omitted, Abs format (unit mm)*
G04 Created by KiCad (PCBNEW (5.1.9)-1) date 2021-07-21 23:40:00*
%MOMM*%
%LPD*%
G01*
G04 APERTURE LIST*
%ADD10C,0.150000*%
G04 APERTURE END LIST*
D10*
%TO.C,J6*%
X9080000Y-15960000D02*
X-8080000Y-15960000D01*
X9080000Y-12940000D02*
X9080000Y-15960000D01*
X-9080000Y-12940000D02*
X9080000Y-12940000D01*
X-9080000Y-14960000D02*
X-9080000Y-12940000D01*
X-8080000Y-15960000D02*
X-9080000Y-14960000D01*
%TO.C,J4*%
X9080000Y-3960000D02*
X-8080000Y-3960000D01*
X9080000Y-940000D02*
X9080000Y-3960000D01*
X-9080000Y-940000D02*
X9080000Y-940000D01*
X-9080000Y-2960000D02*
X-9080000Y-940000D01*
X-8080000Y-3960000D02*
X-9080000Y-2960000D01*
%TO.C,J2*%
X9080000Y8040000D02*
X-8080000Y8040000D01*
X9080000Y11060000D02*
X9080000Y8040000D01*
X-9080000Y11060000D02*
X9080000Y11060000D01*
X-9080000Y9040000D02*
X-9080000Y11060000D01*
X-8080000Y8040000D02*
X-9080000Y9040000D01*
%TO.C,J5*%
X23666666Y-8502380D02*
X23666666Y-9216666D01*
X23619047Y-9359523D01*
X23523809Y-9454761D01*
X23380952Y-9502380D01*
X23285714Y-9502380D01*
X24619047Y-8502380D02*
X24142857Y-8502380D01*
X24095238Y-8978571D01*
X24142857Y-8930952D01*
X24238095Y-8883333D01*
X24476190Y-8883333D01*
X24571428Y-8930952D01*
X24619047Y-8978571D01*
X24666666Y-9073809D01*
X24666666Y-9311904D01*
X24619047Y-9407142D01*
X24571428Y-9454761D01*
X24476190Y-9502380D01*
X24238095Y-9502380D01*
X24142857Y-9454761D01*
X24095238Y-9407142D01*
X-7334285Y-6962380D02*
X-7905714Y-6962380D01*
X-7620000Y-6962380D02*
X-7620000Y-5962380D01*
X-7715238Y-6105238D01*
X-7810476Y-6200476D01*
X-7905714Y-6248095D01*
%TO.C,J3*%
X23286666Y2497619D02*
X23286666Y1783333D01*
X23239047Y1640476D01*
X23143809Y1545238D01*
X23000952Y1497619D01*
X22905714Y1497619D01*
X23667619Y2497619D02*
X24286666Y2497619D01*
X23953333Y2116666D01*
X24096190Y2116666D01*
X24191428Y2069047D01*
X24239047Y2021428D01*
X24286666Y1926190D01*
X24286666Y1688095D01*
X24239047Y1592857D01*
X24191428Y1545238D01*
X24096190Y1497619D01*
X23810476Y1497619D01*
X23715238Y1545238D01*
X23667619Y1592857D01*
X-7334285Y5037619D02*
X-7905714Y5037619D01*
X-7620000Y5037619D02*
X-7620000Y6037619D01*
X-7715238Y5894761D01*
X-7810476Y5799523D01*
X-7905714Y5751904D01*
%TO.C,J1*%
X23286666Y15397619D02*
X23286666Y14683333D01*
X23239047Y14540476D01*
X23143809Y14445238D01*
X23000952Y14397619D01*
X22905714Y14397619D01*
X24286666Y14397619D02*
X23715238Y14397619D01*
X24000952Y14397619D02*
X24000952Y15397619D01*
X23905714Y15254761D01*
X23810476Y15159523D01*
X23715238Y15111904D01*
X-7334285Y17037619D02*
X-7905714Y17037619D01*
X-7620000Y17037619D02*
X-7620000Y18037619D01*
X-7715238Y17894761D01*
X-7810476Y17799523D01*
X-7905714Y17751904D01*
%TD*%
M02*
