%TF.GenerationSoftware,KiCad,Pcbnew,(5.1.9)-1*%
%TF.CreationDate,2021-07-01T13:43:52-06:00*%
%TF.ProjectId,Sub-D Micro-D 25 Pin Vacuum FeedThru,5375622d-4420-44d6-9963-726f2d442032,rev?*%
%TF.SameCoordinates,Original*%
%TF.FileFunction,Legend,Bot*%
%TF.FilePolarity,Positive*%
%FSLAX46Y46*%
G04 Gerber Fmt 4.6, Leading zero omitted, Abs format (unit mm)*
G04 Created by KiCad (PCBNEW (5.1.9)-1) date 2021-07-01 13:43:52*
%MOMM*%
%LPD*%
G01*
G04 APERTURE LIST*
%ADD10C,0.150000*%
G04 APERTURE END LIST*
%TO.C,J2*%
D10*
X16333333Y10547619D02*
X16333333Y9833333D01*
X16380952Y9690476D01*
X16476190Y9595238D01*
X16619047Y9547619D01*
X16714285Y9547619D01*
X15904761Y10452380D02*
X15857142Y10500000D01*
X15761904Y10547619D01*
X15523809Y10547619D01*
X15428571Y10500000D01*
X15380952Y10452380D01*
X15333333Y10357142D01*
X15333333Y10261904D01*
X15380952Y10119047D01*
X15952380Y9547619D01*
X15333333Y9547619D01*
%TO.C,J4*%
X16333333Y-1452380D02*
X16333333Y-2166666D01*
X16380952Y-2309523D01*
X16476190Y-2404761D01*
X16619047Y-2452380D01*
X16714285Y-2452380D01*
X15428571Y-1785714D02*
X15428571Y-2452380D01*
X15666666Y-1404761D02*
X15904761Y-2119047D01*
X15285714Y-2119047D01*
%TO.C,J6*%
X16333333Y-13452380D02*
X16333333Y-14166666D01*
X16380952Y-14309523D01*
X16476190Y-14404761D01*
X16619047Y-14452380D01*
X16714285Y-14452380D01*
X15428571Y-13452380D02*
X15619047Y-13452380D01*
X15714285Y-13500000D01*
X15761904Y-13547619D01*
X15857142Y-13690476D01*
X15904761Y-13880952D01*
X15904761Y-14261904D01*
X15857142Y-14357142D01*
X15809523Y-14404761D01*
X15714285Y-14452380D01*
X15523809Y-14452380D01*
X15428571Y-14404761D01*
X15380952Y-14357142D01*
X15333333Y-14261904D01*
X15333333Y-14023809D01*
X15380952Y-13928571D01*
X15428571Y-13880952D01*
X15523809Y-13833333D01*
X15714285Y-13833333D01*
X15809523Y-13880952D01*
X15857142Y-13928571D01*
X15904761Y-14023809D01*
%TD*%
M02*
