%TF.GenerationSoftware,KiCad,Pcbnew,(5.1.10)-1*%
%TF.CreationDate,2022-07-15T13:11:57-06:00*%
%TF.ProjectId,Sub-D Micro-D 25 Pin Vacuum FeedThru,5375622d-4420-44d6-9963-726f2d442032,rev?*%
%TF.SameCoordinates,Original*%
%TF.FileFunction,Copper,L1,Top*%
%TF.FilePolarity,Positive*%
%FSLAX46Y46*%
G04 Gerber Fmt 4.6, Leading zero omitted, Abs format (unit mm)*
G04 Created by KiCad (PCBNEW (5.1.10)-1) date 2022-07-15 13:11:57*
%MOMM*%
%LPD*%
G01*
G04 APERTURE LIST*
%TA.AperFunction,ComponentPad*%
%ADD10O,0.920000X0.920000*%
%TD*%
%TA.AperFunction,Conductor*%
%ADD11C,0.130000*%
%TD*%
%TA.AperFunction,NonConductor*%
%ADD12C,0.254000*%
%TD*%
%TA.AperFunction,NonConductor*%
%ADD13C,0.100000*%
%TD*%
G04 APERTURE END LIST*
D10*
%TO.P,J6,13*%
%TO.N,Net-(J5-Pad13)*%
X7620000Y-15000000D03*
%TO.P,J6,25*%
%TO.N,Net-(J5-Pad25)*%
X6985000Y-13900000D03*
%TO.P,J6,12*%
%TO.N,Net-(J5-Pad12)*%
X6350000Y-15000000D03*
%TO.P,J6,24*%
%TO.N,Net-(J5-Pad24)*%
X5715000Y-13900000D03*
%TO.P,J6,11*%
%TO.N,Net-(J5-Pad11)*%
X5080000Y-15000000D03*
%TO.P,J6,23*%
%TO.N,Net-(J5-Pad23)*%
X4445000Y-13900000D03*
%TO.P,J6,10*%
%TO.N,Net-(J5-Pad10)*%
X3810000Y-15000000D03*
%TO.P,J6,22*%
%TO.N,Net-(J5-Pad22)*%
X3175000Y-13900000D03*
%TO.P,J6,9*%
%TO.N,Net-(J5-Pad9)*%
X2540000Y-15000000D03*
%TO.P,J6,21*%
%TO.N,Net-(J5-Pad21)*%
X1905000Y-13900000D03*
%TO.P,J6,8*%
%TO.N,Net-(J5-Pad8)*%
X1270000Y-15000000D03*
%TO.P,J6,20*%
%TO.N,Net-(J5-Pad20)*%
X635000Y-13900000D03*
%TO.P,J6,7*%
%TO.N,Net-(J5-Pad7)*%
X0Y-15000000D03*
%TO.P,J6,19*%
%TO.N,Net-(J5-Pad19)*%
X-635000Y-13900000D03*
%TO.P,J6,6*%
%TO.N,Net-(J5-Pad6)*%
X-1270000Y-15000000D03*
%TO.P,J6,18*%
%TO.N,Net-(J5-Pad18)*%
X-1905000Y-13900000D03*
%TO.P,J6,5*%
%TO.N,Net-(J5-Pad5)*%
X-2540000Y-15000000D03*
%TO.P,J6,17*%
%TO.N,Net-(J5-Pad17)*%
X-3175000Y-13900000D03*
%TO.P,J6,4*%
%TO.N,Net-(J5-Pad4)*%
X-3810000Y-15000000D03*
%TO.P,J6,16*%
%TO.N,Net-(J5-Pad16)*%
X-4445000Y-13900000D03*
%TO.P,J6,3*%
%TO.N,Net-(J5-Pad3)*%
X-5080000Y-15000000D03*
%TO.P,J6,15*%
%TO.N,Net-(J5-Pad15)*%
X-5715000Y-13900000D03*
%TO.P,J6,2*%
%TO.N,Net-(J5-Pad2)*%
X-6350000Y-15000000D03*
%TO.P,J6,14*%
%TO.N,Net-(J5-Pad14)*%
X-6985000Y-13900000D03*
%TO.P,J6,1*%
%TO.N,Net-(J5-Pad1)*%
X-7620000Y-15000000D03*
%TD*%
%TO.P,J5,13*%
%TO.N,Net-(J5-Pad13)*%
X7620000Y-8500000D03*
%TO.P,J5,25*%
%TO.N,Net-(J5-Pad25)*%
X6985000Y-9600000D03*
%TO.P,J5,12*%
%TO.N,Net-(J5-Pad12)*%
X6350000Y-8500000D03*
%TO.P,J5,24*%
%TO.N,Net-(J5-Pad24)*%
X5715000Y-9600000D03*
%TO.P,J5,11*%
%TO.N,Net-(J5-Pad11)*%
X5080000Y-8500000D03*
%TO.P,J5,23*%
%TO.N,Net-(J5-Pad23)*%
X4445000Y-9600000D03*
%TO.P,J5,10*%
%TO.N,Net-(J5-Pad10)*%
X3810000Y-8500000D03*
%TO.P,J5,22*%
%TO.N,Net-(J5-Pad22)*%
X3175000Y-9600000D03*
%TO.P,J5,9*%
%TO.N,Net-(J5-Pad9)*%
X2540000Y-8500000D03*
%TO.P,J5,21*%
%TO.N,Net-(J5-Pad21)*%
X1905000Y-9600000D03*
%TO.P,J5,8*%
%TO.N,Net-(J5-Pad8)*%
X1270000Y-8500000D03*
%TO.P,J5,20*%
%TO.N,Net-(J5-Pad20)*%
X635000Y-9600000D03*
%TO.P,J5,7*%
%TO.N,Net-(J5-Pad7)*%
X0Y-8500000D03*
%TO.P,J5,19*%
%TO.N,Net-(J5-Pad19)*%
X-635000Y-9600000D03*
%TO.P,J5,6*%
%TO.N,Net-(J5-Pad6)*%
X-1270000Y-8500000D03*
%TO.P,J5,18*%
%TO.N,Net-(J5-Pad18)*%
X-1905000Y-9600000D03*
%TO.P,J5,5*%
%TO.N,Net-(J5-Pad5)*%
X-2540000Y-8500000D03*
%TO.P,J5,17*%
%TO.N,Net-(J5-Pad17)*%
X-3175000Y-9600000D03*
%TO.P,J5,4*%
%TO.N,Net-(J5-Pad4)*%
X-3810000Y-8500000D03*
%TO.P,J5,16*%
%TO.N,Net-(J5-Pad16)*%
X-4445000Y-9600000D03*
%TO.P,J5,3*%
%TO.N,Net-(J5-Pad3)*%
X-5080000Y-8500000D03*
%TO.P,J5,15*%
%TO.N,Net-(J5-Pad15)*%
X-5715000Y-9600000D03*
%TO.P,J5,2*%
%TO.N,Net-(J5-Pad2)*%
X-6350000Y-8500000D03*
%TO.P,J5,14*%
%TO.N,Net-(J5-Pad14)*%
X-6985000Y-9600000D03*
%TO.P,J5,1*%
%TO.N,Net-(J5-Pad1)*%
X-7620000Y-8500000D03*
%TD*%
%TO.P,J4,13*%
%TO.N,Net-(J3-Pad13)*%
X7620000Y-3000000D03*
%TO.P,J4,25*%
%TO.N,Net-(J3-Pad25)*%
X6985000Y-1900000D03*
%TO.P,J4,12*%
%TO.N,Net-(J3-Pad12)*%
X6350000Y-3000000D03*
%TO.P,J4,24*%
%TO.N,Net-(J3-Pad24)*%
X5715000Y-1900000D03*
%TO.P,J4,11*%
%TO.N,Net-(J3-Pad11)*%
X5080000Y-3000000D03*
%TO.P,J4,23*%
%TO.N,Net-(J3-Pad23)*%
X4445000Y-1900000D03*
%TO.P,J4,10*%
%TO.N,Net-(J3-Pad10)*%
X3810000Y-3000000D03*
%TO.P,J4,22*%
%TO.N,Net-(J3-Pad22)*%
X3175000Y-1900000D03*
%TO.P,J4,9*%
%TO.N,Net-(J3-Pad9)*%
X2540000Y-3000000D03*
%TO.P,J4,21*%
%TO.N,Net-(J3-Pad21)*%
X1905000Y-1900000D03*
%TO.P,J4,8*%
%TO.N,Net-(J3-Pad8)*%
X1270000Y-3000000D03*
%TO.P,J4,20*%
%TO.N,Net-(J3-Pad20)*%
X635000Y-1900000D03*
%TO.P,J4,7*%
%TO.N,Net-(J3-Pad7)*%
X0Y-3000000D03*
%TO.P,J4,19*%
%TO.N,Net-(J3-Pad19)*%
X-635000Y-1900000D03*
%TO.P,J4,6*%
%TO.N,Net-(J3-Pad6)*%
X-1270000Y-3000000D03*
%TO.P,J4,18*%
%TO.N,Net-(J3-Pad18)*%
X-1905000Y-1900000D03*
%TO.P,J4,5*%
%TO.N,Net-(J3-Pad5)*%
X-2540000Y-3000000D03*
%TO.P,J4,17*%
%TO.N,Net-(J3-Pad17)*%
X-3175000Y-1900000D03*
%TO.P,J4,4*%
%TO.N,Net-(J3-Pad4)*%
X-3810000Y-3000000D03*
%TO.P,J4,16*%
%TO.N,Net-(J3-Pad16)*%
X-4445000Y-1900000D03*
%TO.P,J4,3*%
%TO.N,Net-(J3-Pad3)*%
X-5080000Y-3000000D03*
%TO.P,J4,15*%
%TO.N,Net-(J3-Pad15)*%
X-5715000Y-1900000D03*
%TO.P,J4,2*%
%TO.N,Net-(J3-Pad2)*%
X-6350000Y-3000000D03*
%TO.P,J4,14*%
%TO.N,Net-(J3-Pad14)*%
X-6985000Y-1900000D03*
%TO.P,J4,1*%
%TO.N,Net-(J3-Pad1)*%
X-7620000Y-3000000D03*
%TD*%
%TO.P,J3,13*%
%TO.N,Net-(J3-Pad13)*%
X7620000Y3500000D03*
%TO.P,J3,25*%
%TO.N,Net-(J3-Pad25)*%
X6985000Y2400000D03*
%TO.P,J3,12*%
%TO.N,Net-(J3-Pad12)*%
X6350000Y3500000D03*
%TO.P,J3,24*%
%TO.N,Net-(J3-Pad24)*%
X5715000Y2400000D03*
%TO.P,J3,11*%
%TO.N,Net-(J3-Pad11)*%
X5080000Y3500000D03*
%TO.P,J3,23*%
%TO.N,Net-(J3-Pad23)*%
X4445000Y2400000D03*
%TO.P,J3,10*%
%TO.N,Net-(J3-Pad10)*%
X3810000Y3500000D03*
%TO.P,J3,22*%
%TO.N,Net-(J3-Pad22)*%
X3175000Y2400000D03*
%TO.P,J3,9*%
%TO.N,Net-(J3-Pad9)*%
X2540000Y3500000D03*
%TO.P,J3,21*%
%TO.N,Net-(J3-Pad21)*%
X1905000Y2400000D03*
%TO.P,J3,8*%
%TO.N,Net-(J3-Pad8)*%
X1270000Y3500000D03*
%TO.P,J3,20*%
%TO.N,Net-(J3-Pad20)*%
X635000Y2400000D03*
%TO.P,J3,7*%
%TO.N,Net-(J3-Pad7)*%
X0Y3500000D03*
%TO.P,J3,19*%
%TO.N,Net-(J3-Pad19)*%
X-635000Y2400000D03*
%TO.P,J3,6*%
%TO.N,Net-(J3-Pad6)*%
X-1270000Y3500000D03*
%TO.P,J3,18*%
%TO.N,Net-(J3-Pad18)*%
X-1905000Y2400000D03*
%TO.P,J3,5*%
%TO.N,Net-(J3-Pad5)*%
X-2540000Y3500000D03*
%TO.P,J3,17*%
%TO.N,Net-(J3-Pad17)*%
X-3175000Y2400000D03*
%TO.P,J3,4*%
%TO.N,Net-(J3-Pad4)*%
X-3810000Y3500000D03*
%TO.P,J3,16*%
%TO.N,Net-(J3-Pad16)*%
X-4445000Y2400000D03*
%TO.P,J3,3*%
%TO.N,Net-(J3-Pad3)*%
X-5080000Y3500000D03*
%TO.P,J3,15*%
%TO.N,Net-(J3-Pad15)*%
X-5715000Y2400000D03*
%TO.P,J3,2*%
%TO.N,Net-(J3-Pad2)*%
X-6350000Y3500000D03*
%TO.P,J3,14*%
%TO.N,Net-(J3-Pad14)*%
X-6985000Y2400000D03*
%TO.P,J3,1*%
%TO.N,Net-(J3-Pad1)*%
X-7620000Y3500000D03*
%TD*%
%TO.P,J2,13*%
%TO.N,Net-(J1-Pad13)*%
X7620000Y9000000D03*
%TO.P,J2,25*%
%TO.N,Net-(J1-Pad25)*%
X6985000Y10100000D03*
%TO.P,J2,12*%
%TO.N,Net-(J1-Pad12)*%
X6350000Y9000000D03*
%TO.P,J2,24*%
%TO.N,Net-(J1-Pad24)*%
X5715000Y10100000D03*
%TO.P,J2,11*%
%TO.N,Net-(J1-Pad11)*%
X5080000Y9000000D03*
%TO.P,J2,23*%
%TO.N,Net-(J1-Pad23)*%
X4445000Y10100000D03*
%TO.P,J2,10*%
%TO.N,Net-(J1-Pad10)*%
X3810000Y9000000D03*
%TO.P,J2,22*%
%TO.N,Net-(J1-Pad22)*%
X3175000Y10100000D03*
%TO.P,J2,9*%
%TO.N,Net-(J1-Pad9)*%
X2540000Y9000000D03*
%TO.P,J2,21*%
%TO.N,Net-(J1-Pad21)*%
X1905000Y10100000D03*
%TO.P,J2,8*%
%TO.N,Net-(J1-Pad8)*%
X1270000Y9000000D03*
%TO.P,J2,20*%
%TO.N,Net-(J1-Pad20)*%
X635000Y10100000D03*
%TO.P,J2,7*%
%TO.N,Net-(J1-Pad7)*%
X0Y9000000D03*
%TO.P,J2,19*%
%TO.N,Net-(J1-Pad19)*%
X-635000Y10100000D03*
%TO.P,J2,6*%
%TO.N,Net-(J1-Pad6)*%
X-1270000Y9000000D03*
%TO.P,J2,18*%
%TO.N,Net-(J1-Pad18)*%
X-1905000Y10100000D03*
%TO.P,J2,5*%
%TO.N,Net-(J1-Pad5)*%
X-2540000Y9000000D03*
%TO.P,J2,17*%
%TO.N,Net-(J1-Pad17)*%
X-3175000Y10100000D03*
%TO.P,J2,4*%
%TO.N,Net-(J1-Pad4)*%
X-3810000Y9000000D03*
%TO.P,J2,16*%
%TO.N,Net-(J1-Pad16)*%
X-4445000Y10100000D03*
%TO.P,J2,3*%
%TO.N,Net-(J1-Pad3)*%
X-5080000Y9000000D03*
%TO.P,J2,15*%
%TO.N,Net-(J1-Pad15)*%
X-5715000Y10100000D03*
%TO.P,J2,2*%
%TO.N,Net-(J1-Pad2)*%
X-6350000Y9000000D03*
%TO.P,J2,14*%
%TO.N,Net-(J1-Pad14)*%
X-6985000Y10100000D03*
%TO.P,J2,1*%
%TO.N,Net-(J1-Pad1)*%
X-7620000Y9000000D03*
%TD*%
%TO.P,J1,13*%
%TO.N,Net-(J1-Pad13)*%
X7620000Y15150000D03*
%TO.P,J1,25*%
%TO.N,Net-(J1-Pad25)*%
X6985000Y14050000D03*
%TO.P,J1,12*%
%TO.N,Net-(J1-Pad12)*%
X6350000Y15150000D03*
%TO.P,J1,24*%
%TO.N,Net-(J1-Pad24)*%
X5715000Y14050000D03*
%TO.P,J1,11*%
%TO.N,Net-(J1-Pad11)*%
X5080000Y15150000D03*
%TO.P,J1,23*%
%TO.N,Net-(J1-Pad23)*%
X4445000Y14050000D03*
%TO.P,J1,10*%
%TO.N,Net-(J1-Pad10)*%
X3810000Y15150000D03*
%TO.P,J1,22*%
%TO.N,Net-(J1-Pad22)*%
X3175000Y14050000D03*
%TO.P,J1,9*%
%TO.N,Net-(J1-Pad9)*%
X2540000Y15150000D03*
%TO.P,J1,21*%
%TO.N,Net-(J1-Pad21)*%
X1905000Y14050000D03*
%TO.P,J1,8*%
%TO.N,Net-(J1-Pad8)*%
X1270000Y15150000D03*
%TO.P,J1,20*%
%TO.N,Net-(J1-Pad20)*%
X635000Y14050000D03*
%TO.P,J1,7*%
%TO.N,Net-(J1-Pad7)*%
X0Y15150000D03*
%TO.P,J1,19*%
%TO.N,Net-(J1-Pad19)*%
X-635000Y14050000D03*
%TO.P,J1,6*%
%TO.N,Net-(J1-Pad6)*%
X-1270000Y15150000D03*
%TO.P,J1,18*%
%TO.N,Net-(J1-Pad18)*%
X-1905000Y14050000D03*
%TO.P,J1,5*%
%TO.N,Net-(J1-Pad5)*%
X-2540000Y15150000D03*
%TO.P,J1,17*%
%TO.N,Net-(J1-Pad17)*%
X-3175000Y14050000D03*
%TO.P,J1,4*%
%TO.N,Net-(J1-Pad4)*%
X-3810000Y15150000D03*
%TO.P,J1,16*%
%TO.N,Net-(J1-Pad16)*%
X-4445000Y14050000D03*
%TO.P,J1,3*%
%TO.N,Net-(J1-Pad3)*%
X-5080000Y15150000D03*
%TO.P,J1,15*%
%TO.N,Net-(J1-Pad15)*%
X-5715000Y14050000D03*
%TO.P,J1,2*%
%TO.N,Net-(J1-Pad2)*%
X-6350000Y15150000D03*
%TO.P,J1,14*%
%TO.N,Net-(J1-Pad14)*%
X-6985000Y14050000D03*
%TO.P,J1,1*%
%TO.N,Net-(J1-Pad1)*%
X-7620000Y15150000D03*
%TD*%
D11*
%TO.N,Net-(J1-Pad25)*%
X6985000Y14050000D02*
X6985000Y10100000D01*
%TO.N,Net-(J1-Pad24)*%
X5715000Y10100000D02*
X5715000Y14050000D01*
%TO.N,Net-(J1-Pad23)*%
X4445000Y14050000D02*
X4445000Y10100000D01*
%TO.N,Net-(J1-Pad22)*%
X3175000Y10100000D02*
X3175000Y14050000D01*
%TO.N,Net-(J1-Pad21)*%
X1905000Y14050000D02*
X1905000Y10100000D01*
%TO.N,Net-(J1-Pad20)*%
X635000Y10100000D02*
X635000Y14050000D01*
%TO.N,Net-(J1-Pad19)*%
X-635000Y14050000D02*
X-635000Y10100000D01*
%TO.N,Net-(J1-Pad18)*%
X-1905000Y10100000D02*
X-1905000Y14050000D01*
%TO.N,Net-(J1-Pad17)*%
X-3175000Y14050000D02*
X-3175000Y10100000D01*
%TO.N,Net-(J1-Pad16)*%
X-4445000Y10100000D02*
X-4445000Y14050000D01*
%TO.N,Net-(J1-Pad15)*%
X-5715000Y14050000D02*
X-5715000Y10100000D01*
%TO.N,Net-(J1-Pad13)*%
X7620000Y9000000D02*
X7620000Y15150000D01*
%TO.N,Net-(J1-Pad12)*%
X6350000Y15150000D02*
X6350000Y9000000D01*
%TO.N,Net-(J1-Pad11)*%
X5080000Y9000000D02*
X5080000Y15150000D01*
%TO.N,Net-(J1-Pad10)*%
X3810000Y15150000D02*
X3810000Y9000000D01*
%TO.N,Net-(J1-Pad9)*%
X2540000Y9000000D02*
X2540000Y15150000D01*
%TO.N,Net-(J1-Pad8)*%
X1270000Y9839598D02*
X1270000Y9000000D01*
X1270000Y15150000D02*
X1270000Y9839598D01*
%TO.N,Net-(J1-Pad7)*%
X0Y9000000D02*
X0Y15150000D01*
%TO.N,Net-(J1-Pad6)*%
X-1270000Y9839598D02*
X-1270000Y9000000D01*
X-1270000Y15150000D02*
X-1270000Y9839598D01*
%TO.N,Net-(J1-Pad5)*%
X-2540000Y9000000D02*
X-2540000Y15150000D01*
%TO.N,Net-(J1-Pad4)*%
X-3810000Y15150000D02*
X-3810000Y9000000D01*
%TO.N,Net-(J1-Pad3)*%
X-5080000Y9000000D02*
X-5080000Y15150000D01*
%TO.N,Net-(J1-Pad2)*%
X-6350000Y15150000D02*
X-6350000Y9000000D01*
%TO.N,Net-(J1-Pad14)*%
X-6985000Y14050000D02*
X-6985000Y10100000D01*
%TO.N,Net-(J1-Pad1)*%
X-7620000Y15150000D02*
X-7620000Y9000000D01*
%TO.N,Net-(J3-Pad25)*%
X6985000Y-1900000D02*
X6985000Y2400000D01*
%TO.N,Net-(J3-Pad24)*%
X5715000Y2400000D02*
X5715000Y-1900000D01*
%TO.N,Net-(J3-Pad23)*%
X4445000Y2400000D02*
X4445000Y-1900000D01*
%TO.N,Net-(J3-Pad22)*%
X3175000Y-1900000D02*
X3175000Y2400000D01*
%TO.N,Net-(J3-Pad21)*%
X1905000Y2400000D02*
X1905000Y-1900000D01*
%TO.N,Net-(J3-Pad20)*%
X635000Y-1900000D02*
X635000Y2400000D01*
%TO.N,Net-(J3-Pad19)*%
X-635000Y2400000D02*
X-635000Y-1900000D01*
%TO.N,Net-(J3-Pad18)*%
X-1905000Y-1900000D02*
X-1905000Y2400000D01*
%TO.N,Net-(J3-Pad17)*%
X-3175000Y2400000D02*
X-3175000Y-1900000D01*
%TO.N,Net-(J3-Pad16)*%
X-4445000Y-1900000D02*
X-4445000Y2400000D01*
%TO.N,Net-(J3-Pad15)*%
X-5715000Y2400000D02*
X-5715000Y-1900000D01*
%TO.N,Net-(J3-Pad13)*%
X7620000Y3500000D02*
X7620000Y-3000000D01*
%TO.N,Net-(J3-Pad12)*%
X6350000Y-3000000D02*
X6350000Y3500000D01*
%TO.N,Net-(J3-Pad11)*%
X5080000Y3500000D02*
X5080000Y-3000000D01*
%TO.N,Net-(J3-Pad10)*%
X3810000Y-3000000D02*
X3810000Y3500000D01*
%TO.N,Net-(J3-Pad9)*%
X2540000Y3500000D02*
X2540000Y-3000000D01*
%TO.N,Net-(J3-Pad8)*%
X1270000Y-3000000D02*
X1270000Y3500000D01*
%TO.N,Net-(J3-Pad7)*%
X0Y3500000D02*
X0Y-3000000D01*
%TO.N,Net-(J3-Pad6)*%
X-1270000Y-3000000D02*
X-1270000Y3500000D01*
%TO.N,Net-(J3-Pad5)*%
X-2540000Y3500000D02*
X-2540000Y-3000000D01*
%TO.N,Net-(J3-Pad4)*%
X-3810000Y-3000000D02*
X-3810000Y3500000D01*
%TO.N,Net-(J3-Pad3)*%
X-5080000Y3500000D02*
X-5080000Y-3000000D01*
%TO.N,Net-(J3-Pad2)*%
X-6350000Y-3000000D02*
X-6350000Y3500000D01*
%TO.N,Net-(J3-Pad14)*%
X-6985000Y2400000D02*
X-6985000Y-1900000D01*
%TO.N,Net-(J3-Pad1)*%
X-7620000Y3500000D02*
X-7620000Y-3000000D01*
%TO.N,Net-(J5-Pad25)*%
X6985000Y-9600000D02*
X6985000Y-13900000D01*
%TO.N,Net-(J5-Pad24)*%
X5715000Y-9600000D02*
X5715000Y-13900000D01*
%TO.N,Net-(J5-Pad23)*%
X4445000Y-13900000D02*
X4445000Y-9600000D01*
%TO.N,Net-(J5-Pad22)*%
X3175000Y-13900000D02*
X3175000Y-9600000D01*
%TO.N,Net-(J5-Pad21)*%
X1905000Y-13900000D02*
X1905000Y-9600000D01*
%TO.N,Net-(J5-Pad20)*%
X635000Y-9600000D02*
X635000Y-13900000D01*
%TO.N,Net-(J5-Pad19)*%
X-635000Y-9600000D02*
X-635000Y-13900000D01*
%TO.N,Net-(J5-Pad18)*%
X-1905000Y-9600000D02*
X-1905000Y-13900000D01*
%TO.N,Net-(J5-Pad17)*%
X-3175000Y-9600000D02*
X-3175000Y-13900000D01*
%TO.N,Net-(J5-Pad16)*%
X-4445000Y-9600000D02*
X-4445000Y-13900000D01*
%TO.N,Net-(J5-Pad15)*%
X-5715000Y-9600000D02*
X-5715000Y-13900000D01*
%TO.N,Net-(J5-Pad13)*%
X7620000Y-15000000D02*
X7620000Y-8500000D01*
%TO.N,Net-(J5-Pad12)*%
X6350000Y-15000000D02*
X6350000Y-8500000D01*
%TO.N,Net-(J5-Pad11)*%
X5080000Y-8500000D02*
X5080000Y-15000000D01*
%TO.N,Net-(J5-Pad10)*%
X3810000Y-15000000D02*
X3810000Y-8500000D01*
%TO.N,Net-(J5-Pad9)*%
X2540000Y-8500000D02*
X2540000Y-15000000D01*
%TO.N,Net-(J5-Pad8)*%
X1270000Y-8500000D02*
X1270000Y-15000000D01*
%TO.N,Net-(J5-Pad7)*%
X0Y-15000000D02*
X0Y-8500000D01*
%TO.N,Net-(J5-Pad6)*%
X-1270000Y-15000000D02*
X-1270000Y-8500000D01*
%TO.N,Net-(J5-Pad5)*%
X-2540000Y-15000000D02*
X-2540000Y-8500000D01*
%TO.N,Net-(J5-Pad4)*%
X-3810000Y-15000000D02*
X-3810000Y-8500000D01*
%TO.N,Net-(J5-Pad3)*%
X-5080000Y-15000000D02*
X-5080000Y-8500000D01*
%TO.N,Net-(J5-Pad2)*%
X-6350000Y-15000000D02*
X-6350000Y-8500000D01*
%TO.N,Net-(J5-Pad14)*%
X-6985000Y-13900000D02*
X-6985000Y-9600000D01*
%TO.N,Net-(J5-Pad1)*%
X-7620000Y-14160402D02*
X-7620000Y-15000000D01*
X-7620000Y-8500000D02*
X-7620000Y-14160402D01*
%TD*%
D12*
X1520371Y26103762D02*
X3538643Y25907449D01*
X5535633Y25555326D01*
X7499331Y25049510D01*
X9417927Y24393043D01*
X11279883Y23589874D01*
X13074000Y22644832D01*
X14789489Y21563602D01*
X16416031Y20352686D01*
X17943846Y19019366D01*
X19363745Y17571662D01*
X20667188Y16018279D01*
X21846335Y14368561D01*
X22894097Y12632428D01*
X23804170Y10820323D01*
X24571083Y8943143D01*
X25190222Y7012177D01*
X25657864Y5039040D01*
X25971197Y3035598D01*
X26128335Y1013898D01*
X26128335Y-1013898D01*
X25971197Y-3035598D01*
X25657864Y-5039040D01*
X25190222Y-7012177D01*
X24571083Y-8943143D01*
X23804170Y-10820323D01*
X22894097Y-12632428D01*
X21846335Y-14368561D01*
X20667188Y-16018279D01*
X19363745Y-17571662D01*
X17943846Y-19019366D01*
X16416031Y-20352686D01*
X14789489Y-21563602D01*
X13074000Y-22644832D01*
X11279883Y-23589874D01*
X9417927Y-24393043D01*
X7499331Y-25049510D01*
X5535633Y-25555326D01*
X3538643Y-25907449D01*
X1520371Y-26103762D01*
X-507045Y-26143083D01*
X-2531411Y-26025178D01*
X-4540553Y-25750753D01*
X-6522387Y-25321461D01*
X-8464995Y-24739882D01*
X-10356694Y-24009515D01*
X-12186106Y-23134751D01*
X-13942230Y-22120853D01*
X-15614503Y-20973917D01*
X-17192869Y-19700842D01*
X-18667835Y-18309283D01*
X-20030530Y-16807610D01*
X-21272760Y-15204855D01*
X-22387052Y-13510655D01*
X-23366706Y-11735201D01*
X-24205830Y-9889170D01*
X-24739659Y-8422487D01*
X-8407000Y-8422487D01*
X-8407000Y-8577513D01*
X-8376756Y-8729559D01*
X-8317430Y-8872784D01*
X-8231303Y-9001683D01*
X-8121683Y-9111303D01*
X-8012000Y-9184590D01*
X-8011999Y-14141144D01*
X-8012000Y-14141154D01*
X-8012000Y-14315410D01*
X-8121683Y-14388697D01*
X-8231303Y-14498317D01*
X-8317430Y-14627216D01*
X-8376756Y-14770441D01*
X-8407000Y-14922487D01*
X-8407000Y-15077513D01*
X-8376756Y-15229559D01*
X-8317430Y-15372784D01*
X-8231303Y-15501683D01*
X-8121683Y-15611303D01*
X-7992784Y-15697430D01*
X-7849559Y-15756756D01*
X-7697513Y-15787000D01*
X-7542487Y-15787000D01*
X-7390441Y-15756756D01*
X-7247216Y-15697430D01*
X-7118317Y-15611303D01*
X-7008697Y-15501683D01*
X-6985000Y-15466218D01*
X-6961303Y-15501683D01*
X-6851683Y-15611303D01*
X-6722784Y-15697430D01*
X-6579559Y-15756756D01*
X-6427513Y-15787000D01*
X-6272487Y-15787000D01*
X-6120441Y-15756756D01*
X-5977216Y-15697430D01*
X-5848317Y-15611303D01*
X-5738697Y-15501683D01*
X-5715000Y-15466218D01*
X-5691303Y-15501683D01*
X-5581683Y-15611303D01*
X-5452784Y-15697430D01*
X-5309559Y-15756756D01*
X-5157513Y-15787000D01*
X-5002487Y-15787000D01*
X-4850441Y-15756756D01*
X-4707216Y-15697430D01*
X-4578317Y-15611303D01*
X-4468697Y-15501683D01*
X-4445000Y-15466218D01*
X-4421303Y-15501683D01*
X-4311683Y-15611303D01*
X-4182784Y-15697430D01*
X-4039559Y-15756756D01*
X-3887513Y-15787000D01*
X-3732487Y-15787000D01*
X-3580441Y-15756756D01*
X-3437216Y-15697430D01*
X-3308317Y-15611303D01*
X-3198697Y-15501683D01*
X-3175000Y-15466218D01*
X-3151303Y-15501683D01*
X-3041683Y-15611303D01*
X-2912784Y-15697430D01*
X-2769559Y-15756756D01*
X-2617513Y-15787000D01*
X-2462487Y-15787000D01*
X-2310441Y-15756756D01*
X-2167216Y-15697430D01*
X-2038317Y-15611303D01*
X-1928697Y-15501683D01*
X-1905000Y-15466218D01*
X-1881303Y-15501683D01*
X-1771683Y-15611303D01*
X-1642784Y-15697430D01*
X-1499559Y-15756756D01*
X-1347513Y-15787000D01*
X-1192487Y-15787000D01*
X-1040441Y-15756756D01*
X-897216Y-15697430D01*
X-768317Y-15611303D01*
X-658697Y-15501683D01*
X-635000Y-15466218D01*
X-611303Y-15501683D01*
X-501683Y-15611303D01*
X-372784Y-15697430D01*
X-229559Y-15756756D01*
X-77513Y-15787000D01*
X77513Y-15787000D01*
X229559Y-15756756D01*
X372784Y-15697430D01*
X501683Y-15611303D01*
X611303Y-15501683D01*
X635000Y-15466218D01*
X658697Y-15501683D01*
X768317Y-15611303D01*
X897216Y-15697430D01*
X1040441Y-15756756D01*
X1192487Y-15787000D01*
X1347513Y-15787000D01*
X1499559Y-15756756D01*
X1642784Y-15697430D01*
X1771683Y-15611303D01*
X1881303Y-15501683D01*
X1905000Y-15466218D01*
X1928697Y-15501683D01*
X2038317Y-15611303D01*
X2167216Y-15697430D01*
X2310441Y-15756756D01*
X2462487Y-15787000D01*
X2617513Y-15787000D01*
X2769559Y-15756756D01*
X2912784Y-15697430D01*
X3041683Y-15611303D01*
X3151303Y-15501683D01*
X3175000Y-15466218D01*
X3198697Y-15501683D01*
X3308317Y-15611303D01*
X3437216Y-15697430D01*
X3580441Y-15756756D01*
X3732487Y-15787000D01*
X3887513Y-15787000D01*
X4039559Y-15756756D01*
X4182784Y-15697430D01*
X4311683Y-15611303D01*
X4421303Y-15501683D01*
X4445000Y-15466218D01*
X4468697Y-15501683D01*
X4578317Y-15611303D01*
X4707216Y-15697430D01*
X4850441Y-15756756D01*
X5002487Y-15787000D01*
X5157513Y-15787000D01*
X5309559Y-15756756D01*
X5452784Y-15697430D01*
X5581683Y-15611303D01*
X5691303Y-15501683D01*
X5715000Y-15466218D01*
X5738697Y-15501683D01*
X5848317Y-15611303D01*
X5977216Y-15697430D01*
X6120441Y-15756756D01*
X6272487Y-15787000D01*
X6427513Y-15787000D01*
X6579559Y-15756756D01*
X6722784Y-15697430D01*
X6851683Y-15611303D01*
X6961303Y-15501683D01*
X6985000Y-15466218D01*
X7008697Y-15501683D01*
X7118317Y-15611303D01*
X7247216Y-15697430D01*
X7390441Y-15756756D01*
X7542487Y-15787000D01*
X7697513Y-15787000D01*
X7849559Y-15756756D01*
X7992784Y-15697430D01*
X8121683Y-15611303D01*
X8231303Y-15501683D01*
X8317430Y-15372784D01*
X8376756Y-15229559D01*
X8407000Y-15077513D01*
X8407000Y-14922487D01*
X8376756Y-14770441D01*
X8317430Y-14627216D01*
X8231303Y-14498317D01*
X8121683Y-14388697D01*
X8012000Y-14315410D01*
X8012000Y-9184590D01*
X8121683Y-9111303D01*
X8231303Y-9001683D01*
X8317430Y-8872784D01*
X8376756Y-8729559D01*
X8407000Y-8577513D01*
X8407000Y-8422487D01*
X8376756Y-8270441D01*
X8317430Y-8127216D01*
X8231303Y-7998317D01*
X8121683Y-7888697D01*
X7992784Y-7802570D01*
X7849559Y-7743244D01*
X7697513Y-7713000D01*
X7542487Y-7713000D01*
X7390441Y-7743244D01*
X7247216Y-7802570D01*
X7118317Y-7888697D01*
X7008697Y-7998317D01*
X6985000Y-8033782D01*
X6961303Y-7998317D01*
X6851683Y-7888697D01*
X6722784Y-7802570D01*
X6579559Y-7743244D01*
X6427513Y-7713000D01*
X6272487Y-7713000D01*
X6120441Y-7743244D01*
X5977216Y-7802570D01*
X5848317Y-7888697D01*
X5738697Y-7998317D01*
X5715000Y-8033782D01*
X5691303Y-7998317D01*
X5581683Y-7888697D01*
X5452784Y-7802570D01*
X5309559Y-7743244D01*
X5157513Y-7713000D01*
X5002487Y-7713000D01*
X4850441Y-7743244D01*
X4707216Y-7802570D01*
X4578317Y-7888697D01*
X4468697Y-7998317D01*
X4445000Y-8033782D01*
X4421303Y-7998317D01*
X4311683Y-7888697D01*
X4182784Y-7802570D01*
X4039559Y-7743244D01*
X3887513Y-7713000D01*
X3732487Y-7713000D01*
X3580441Y-7743244D01*
X3437216Y-7802570D01*
X3308317Y-7888697D01*
X3198697Y-7998317D01*
X3175000Y-8033782D01*
X3151303Y-7998317D01*
X3041683Y-7888697D01*
X2912784Y-7802570D01*
X2769559Y-7743244D01*
X2617513Y-7713000D01*
X2462487Y-7713000D01*
X2310441Y-7743244D01*
X2167216Y-7802570D01*
X2038317Y-7888697D01*
X1928697Y-7998317D01*
X1905000Y-8033782D01*
X1881303Y-7998317D01*
X1771683Y-7888697D01*
X1642784Y-7802570D01*
X1499559Y-7743244D01*
X1347513Y-7713000D01*
X1192487Y-7713000D01*
X1040441Y-7743244D01*
X897216Y-7802570D01*
X768317Y-7888697D01*
X658697Y-7998317D01*
X635000Y-8033782D01*
X611303Y-7998317D01*
X501683Y-7888697D01*
X372784Y-7802570D01*
X229559Y-7743244D01*
X77513Y-7713000D01*
X-77513Y-7713000D01*
X-229559Y-7743244D01*
X-372784Y-7802570D01*
X-501683Y-7888697D01*
X-611303Y-7998317D01*
X-635000Y-8033782D01*
X-658697Y-7998317D01*
X-768317Y-7888697D01*
X-897216Y-7802570D01*
X-1040441Y-7743244D01*
X-1192487Y-7713000D01*
X-1347513Y-7713000D01*
X-1499559Y-7743244D01*
X-1642784Y-7802570D01*
X-1771683Y-7888697D01*
X-1881303Y-7998317D01*
X-1905000Y-8033782D01*
X-1928697Y-7998317D01*
X-2038317Y-7888697D01*
X-2167216Y-7802570D01*
X-2310441Y-7743244D01*
X-2462487Y-7713000D01*
X-2617513Y-7713000D01*
X-2769559Y-7743244D01*
X-2912784Y-7802570D01*
X-3041683Y-7888697D01*
X-3151303Y-7998317D01*
X-3175000Y-8033782D01*
X-3198697Y-7998317D01*
X-3308317Y-7888697D01*
X-3437216Y-7802570D01*
X-3580441Y-7743244D01*
X-3732487Y-7713000D01*
X-3887513Y-7713000D01*
X-4039559Y-7743244D01*
X-4182784Y-7802570D01*
X-4311683Y-7888697D01*
X-4421303Y-7998317D01*
X-4445000Y-8033782D01*
X-4468697Y-7998317D01*
X-4578317Y-7888697D01*
X-4707216Y-7802570D01*
X-4850441Y-7743244D01*
X-5002487Y-7713000D01*
X-5157513Y-7713000D01*
X-5309559Y-7743244D01*
X-5452784Y-7802570D01*
X-5581683Y-7888697D01*
X-5691303Y-7998317D01*
X-5715000Y-8033782D01*
X-5738697Y-7998317D01*
X-5848317Y-7888697D01*
X-5977216Y-7802570D01*
X-6120441Y-7743244D01*
X-6272487Y-7713000D01*
X-6427513Y-7713000D01*
X-6579559Y-7743244D01*
X-6722784Y-7802570D01*
X-6851683Y-7888697D01*
X-6961303Y-7998317D01*
X-6985000Y-8033782D01*
X-7008697Y-7998317D01*
X-7118317Y-7888697D01*
X-7247216Y-7802570D01*
X-7390441Y-7743244D01*
X-7542487Y-7713000D01*
X-7697513Y-7713000D01*
X-7849559Y-7743244D01*
X-7992784Y-7802570D01*
X-8121683Y-7888697D01*
X-8231303Y-7998317D01*
X-8317430Y-8127216D01*
X-8376756Y-8270441D01*
X-8407000Y-8422487D01*
X-24739659Y-8422487D01*
X-24899378Y-7983664D01*
X-25443177Y-6030144D01*
X-25833959Y-4040357D01*
X-26069371Y-2026272D01*
X-26148000Y0D01*
X-26069371Y2026272D01*
X-25888058Y3577513D01*
X-8407000Y3577513D01*
X-8407000Y3422487D01*
X-8376756Y3270441D01*
X-8317430Y3127216D01*
X-8231303Y2998317D01*
X-8121683Y2888697D01*
X-8012000Y2815410D01*
X-8011999Y-2315409D01*
X-8121683Y-2388697D01*
X-8231303Y-2498317D01*
X-8317430Y-2627216D01*
X-8376756Y-2770441D01*
X-8407000Y-2922487D01*
X-8407000Y-3077513D01*
X-8376756Y-3229559D01*
X-8317430Y-3372784D01*
X-8231303Y-3501683D01*
X-8121683Y-3611303D01*
X-7992784Y-3697430D01*
X-7849559Y-3756756D01*
X-7697513Y-3787000D01*
X-7542487Y-3787000D01*
X-7390441Y-3756756D01*
X-7247216Y-3697430D01*
X-7118317Y-3611303D01*
X-7008697Y-3501683D01*
X-6985000Y-3466218D01*
X-6961303Y-3501683D01*
X-6851683Y-3611303D01*
X-6722784Y-3697430D01*
X-6579559Y-3756756D01*
X-6427513Y-3787000D01*
X-6272487Y-3787000D01*
X-6120441Y-3756756D01*
X-5977216Y-3697430D01*
X-5848317Y-3611303D01*
X-5738697Y-3501683D01*
X-5715000Y-3466218D01*
X-5691303Y-3501683D01*
X-5581683Y-3611303D01*
X-5452784Y-3697430D01*
X-5309559Y-3756756D01*
X-5157513Y-3787000D01*
X-5002487Y-3787000D01*
X-4850441Y-3756756D01*
X-4707216Y-3697430D01*
X-4578317Y-3611303D01*
X-4468697Y-3501683D01*
X-4445000Y-3466218D01*
X-4421303Y-3501683D01*
X-4311683Y-3611303D01*
X-4182784Y-3697430D01*
X-4039559Y-3756756D01*
X-3887513Y-3787000D01*
X-3732487Y-3787000D01*
X-3580441Y-3756756D01*
X-3437216Y-3697430D01*
X-3308317Y-3611303D01*
X-3198697Y-3501683D01*
X-3175000Y-3466218D01*
X-3151303Y-3501683D01*
X-3041683Y-3611303D01*
X-2912784Y-3697430D01*
X-2769559Y-3756756D01*
X-2617513Y-3787000D01*
X-2462487Y-3787000D01*
X-2310441Y-3756756D01*
X-2167216Y-3697430D01*
X-2038317Y-3611303D01*
X-1928697Y-3501683D01*
X-1905000Y-3466218D01*
X-1881303Y-3501683D01*
X-1771683Y-3611303D01*
X-1642784Y-3697430D01*
X-1499559Y-3756756D01*
X-1347513Y-3787000D01*
X-1192487Y-3787000D01*
X-1040441Y-3756756D01*
X-897216Y-3697430D01*
X-768317Y-3611303D01*
X-658697Y-3501683D01*
X-635000Y-3466218D01*
X-611303Y-3501683D01*
X-501683Y-3611303D01*
X-372784Y-3697430D01*
X-229559Y-3756756D01*
X-77513Y-3787000D01*
X77513Y-3787000D01*
X229559Y-3756756D01*
X372784Y-3697430D01*
X501683Y-3611303D01*
X611303Y-3501683D01*
X635000Y-3466218D01*
X658697Y-3501683D01*
X768317Y-3611303D01*
X897216Y-3697430D01*
X1040441Y-3756756D01*
X1192487Y-3787000D01*
X1347513Y-3787000D01*
X1499559Y-3756756D01*
X1642784Y-3697430D01*
X1771683Y-3611303D01*
X1881303Y-3501683D01*
X1905000Y-3466218D01*
X1928697Y-3501683D01*
X2038317Y-3611303D01*
X2167216Y-3697430D01*
X2310441Y-3756756D01*
X2462487Y-3787000D01*
X2617513Y-3787000D01*
X2769559Y-3756756D01*
X2912784Y-3697430D01*
X3041683Y-3611303D01*
X3151303Y-3501683D01*
X3175000Y-3466218D01*
X3198697Y-3501683D01*
X3308317Y-3611303D01*
X3437216Y-3697430D01*
X3580441Y-3756756D01*
X3732487Y-3787000D01*
X3887513Y-3787000D01*
X4039559Y-3756756D01*
X4182784Y-3697430D01*
X4311683Y-3611303D01*
X4421303Y-3501683D01*
X4445000Y-3466218D01*
X4468697Y-3501683D01*
X4578317Y-3611303D01*
X4707216Y-3697430D01*
X4850441Y-3756756D01*
X5002487Y-3787000D01*
X5157513Y-3787000D01*
X5309559Y-3756756D01*
X5452784Y-3697430D01*
X5581683Y-3611303D01*
X5691303Y-3501683D01*
X5715000Y-3466218D01*
X5738697Y-3501683D01*
X5848317Y-3611303D01*
X5977216Y-3697430D01*
X6120441Y-3756756D01*
X6272487Y-3787000D01*
X6427513Y-3787000D01*
X6579559Y-3756756D01*
X6722784Y-3697430D01*
X6851683Y-3611303D01*
X6961303Y-3501683D01*
X6985000Y-3466218D01*
X7008697Y-3501683D01*
X7118317Y-3611303D01*
X7247216Y-3697430D01*
X7390441Y-3756756D01*
X7542487Y-3787000D01*
X7697513Y-3787000D01*
X7849559Y-3756756D01*
X7992784Y-3697430D01*
X8121683Y-3611303D01*
X8231303Y-3501683D01*
X8317430Y-3372784D01*
X8376756Y-3229559D01*
X8407000Y-3077513D01*
X8407000Y-2922487D01*
X8376756Y-2770441D01*
X8317430Y-2627216D01*
X8231303Y-2498317D01*
X8121683Y-2388697D01*
X8012000Y-2315410D01*
X8012000Y2815410D01*
X8121683Y2888697D01*
X8231303Y2998317D01*
X8317430Y3127216D01*
X8376756Y3270441D01*
X8407000Y3422487D01*
X8407000Y3577513D01*
X8376756Y3729559D01*
X8317430Y3872784D01*
X8231303Y4001683D01*
X8121683Y4111303D01*
X7992784Y4197430D01*
X7849559Y4256756D01*
X7697513Y4287000D01*
X7542487Y4287000D01*
X7390441Y4256756D01*
X7247216Y4197430D01*
X7118317Y4111303D01*
X7008697Y4001683D01*
X6985000Y3966218D01*
X6961303Y4001683D01*
X6851683Y4111303D01*
X6722784Y4197430D01*
X6579559Y4256756D01*
X6427513Y4287000D01*
X6272487Y4287000D01*
X6120441Y4256756D01*
X5977216Y4197430D01*
X5848317Y4111303D01*
X5738697Y4001683D01*
X5715000Y3966218D01*
X5691303Y4001683D01*
X5581683Y4111303D01*
X5452784Y4197430D01*
X5309559Y4256756D01*
X5157513Y4287000D01*
X5002487Y4287000D01*
X4850441Y4256756D01*
X4707216Y4197430D01*
X4578317Y4111303D01*
X4468697Y4001683D01*
X4445000Y3966218D01*
X4421303Y4001683D01*
X4311683Y4111303D01*
X4182784Y4197430D01*
X4039559Y4256756D01*
X3887513Y4287000D01*
X3732487Y4287000D01*
X3580441Y4256756D01*
X3437216Y4197430D01*
X3308317Y4111303D01*
X3198697Y4001683D01*
X3175000Y3966218D01*
X3151303Y4001683D01*
X3041683Y4111303D01*
X2912784Y4197430D01*
X2769559Y4256756D01*
X2617513Y4287000D01*
X2462487Y4287000D01*
X2310441Y4256756D01*
X2167216Y4197430D01*
X2038317Y4111303D01*
X1928697Y4001683D01*
X1905000Y3966218D01*
X1881303Y4001683D01*
X1771683Y4111303D01*
X1642784Y4197430D01*
X1499559Y4256756D01*
X1347513Y4287000D01*
X1192487Y4287000D01*
X1040441Y4256756D01*
X897216Y4197430D01*
X768317Y4111303D01*
X658697Y4001683D01*
X635000Y3966218D01*
X611303Y4001683D01*
X501683Y4111303D01*
X372784Y4197430D01*
X229559Y4256756D01*
X77513Y4287000D01*
X-77513Y4287000D01*
X-229559Y4256756D01*
X-372784Y4197430D01*
X-501683Y4111303D01*
X-611303Y4001683D01*
X-635000Y3966218D01*
X-658697Y4001683D01*
X-768317Y4111303D01*
X-897216Y4197430D01*
X-1040441Y4256756D01*
X-1192487Y4287000D01*
X-1347513Y4287000D01*
X-1499559Y4256756D01*
X-1642784Y4197430D01*
X-1771683Y4111303D01*
X-1881303Y4001683D01*
X-1905000Y3966218D01*
X-1928697Y4001683D01*
X-2038317Y4111303D01*
X-2167216Y4197430D01*
X-2310441Y4256756D01*
X-2462487Y4287000D01*
X-2617513Y4287000D01*
X-2769559Y4256756D01*
X-2912784Y4197430D01*
X-3041683Y4111303D01*
X-3151303Y4001683D01*
X-3175000Y3966218D01*
X-3198697Y4001683D01*
X-3308317Y4111303D01*
X-3437216Y4197430D01*
X-3580441Y4256756D01*
X-3732487Y4287000D01*
X-3887513Y4287000D01*
X-4039559Y4256756D01*
X-4182784Y4197430D01*
X-4311683Y4111303D01*
X-4421303Y4001683D01*
X-4445000Y3966218D01*
X-4468697Y4001683D01*
X-4578317Y4111303D01*
X-4707216Y4197430D01*
X-4850441Y4256756D01*
X-5002487Y4287000D01*
X-5157513Y4287000D01*
X-5309559Y4256756D01*
X-5452784Y4197430D01*
X-5581683Y4111303D01*
X-5691303Y4001683D01*
X-5715000Y3966218D01*
X-5738697Y4001683D01*
X-5848317Y4111303D01*
X-5977216Y4197430D01*
X-6120441Y4256756D01*
X-6272487Y4287000D01*
X-6427513Y4287000D01*
X-6579559Y4256756D01*
X-6722784Y4197430D01*
X-6851683Y4111303D01*
X-6961303Y4001683D01*
X-6985000Y3966218D01*
X-7008697Y4001683D01*
X-7118317Y4111303D01*
X-7247216Y4197430D01*
X-7390441Y4256756D01*
X-7542487Y4287000D01*
X-7697513Y4287000D01*
X-7849559Y4256756D01*
X-7992784Y4197430D01*
X-8121683Y4111303D01*
X-8231303Y4001683D01*
X-8317430Y3872784D01*
X-8376756Y3729559D01*
X-8407000Y3577513D01*
X-25888058Y3577513D01*
X-25833959Y4040357D01*
X-25443177Y6030144D01*
X-24899378Y7983664D01*
X-24205830Y9889170D01*
X-23366706Y11735201D01*
X-22387052Y13510655D01*
X-21272760Y15204855D01*
X-21255199Y15227513D01*
X-8407000Y15227513D01*
X-8407000Y15072487D01*
X-8376756Y14920441D01*
X-8317430Y14777216D01*
X-8231303Y14648317D01*
X-8121683Y14538697D01*
X-8012000Y14465410D01*
X-8011999Y9684591D01*
X-8121683Y9611303D01*
X-8231303Y9501683D01*
X-8317430Y9372784D01*
X-8376756Y9229559D01*
X-8407000Y9077513D01*
X-8407000Y8922487D01*
X-8376756Y8770441D01*
X-8317430Y8627216D01*
X-8231303Y8498317D01*
X-8121683Y8388697D01*
X-7992784Y8302570D01*
X-7849559Y8243244D01*
X-7697513Y8213000D01*
X-7542487Y8213000D01*
X-7390441Y8243244D01*
X-7247216Y8302570D01*
X-7118317Y8388697D01*
X-7008697Y8498317D01*
X-6985000Y8533782D01*
X-6961303Y8498317D01*
X-6851683Y8388697D01*
X-6722784Y8302570D01*
X-6579559Y8243244D01*
X-6427513Y8213000D01*
X-6272487Y8213000D01*
X-6120441Y8243244D01*
X-5977216Y8302570D01*
X-5848317Y8388697D01*
X-5738697Y8498317D01*
X-5715000Y8533782D01*
X-5691303Y8498317D01*
X-5581683Y8388697D01*
X-5452784Y8302570D01*
X-5309559Y8243244D01*
X-5157513Y8213000D01*
X-5002487Y8213000D01*
X-4850441Y8243244D01*
X-4707216Y8302570D01*
X-4578317Y8388697D01*
X-4468697Y8498317D01*
X-4445000Y8533782D01*
X-4421303Y8498317D01*
X-4311683Y8388697D01*
X-4182784Y8302570D01*
X-4039559Y8243244D01*
X-3887513Y8213000D01*
X-3732487Y8213000D01*
X-3580441Y8243244D01*
X-3437216Y8302570D01*
X-3308317Y8388697D01*
X-3198697Y8498317D01*
X-3175000Y8533782D01*
X-3151303Y8498317D01*
X-3041683Y8388697D01*
X-2912784Y8302570D01*
X-2769559Y8243244D01*
X-2617513Y8213000D01*
X-2462487Y8213000D01*
X-2310441Y8243244D01*
X-2167216Y8302570D01*
X-2038317Y8388697D01*
X-1928697Y8498317D01*
X-1905000Y8533782D01*
X-1881303Y8498317D01*
X-1771683Y8388697D01*
X-1642784Y8302570D01*
X-1499559Y8243244D01*
X-1347513Y8213000D01*
X-1192487Y8213000D01*
X-1040441Y8243244D01*
X-897216Y8302570D01*
X-768317Y8388697D01*
X-658697Y8498317D01*
X-635000Y8533782D01*
X-611303Y8498317D01*
X-501683Y8388697D01*
X-372784Y8302570D01*
X-229559Y8243244D01*
X-77513Y8213000D01*
X77513Y8213000D01*
X229559Y8243244D01*
X372784Y8302570D01*
X501683Y8388697D01*
X611303Y8498317D01*
X635000Y8533782D01*
X658697Y8498317D01*
X768317Y8388697D01*
X897216Y8302570D01*
X1040441Y8243244D01*
X1192487Y8213000D01*
X1347513Y8213000D01*
X1499559Y8243244D01*
X1642784Y8302570D01*
X1771683Y8388697D01*
X1881303Y8498317D01*
X1905000Y8533782D01*
X1928697Y8498317D01*
X2038317Y8388697D01*
X2167216Y8302570D01*
X2310441Y8243244D01*
X2462487Y8213000D01*
X2617513Y8213000D01*
X2769559Y8243244D01*
X2912784Y8302570D01*
X3041683Y8388697D01*
X3151303Y8498317D01*
X3175000Y8533782D01*
X3198697Y8498317D01*
X3308317Y8388697D01*
X3437216Y8302570D01*
X3580441Y8243244D01*
X3732487Y8213000D01*
X3887513Y8213000D01*
X4039559Y8243244D01*
X4182784Y8302570D01*
X4311683Y8388697D01*
X4421303Y8498317D01*
X4445000Y8533782D01*
X4468697Y8498317D01*
X4578317Y8388697D01*
X4707216Y8302570D01*
X4850441Y8243244D01*
X5002487Y8213000D01*
X5157513Y8213000D01*
X5309559Y8243244D01*
X5452784Y8302570D01*
X5581683Y8388697D01*
X5691303Y8498317D01*
X5715000Y8533782D01*
X5738697Y8498317D01*
X5848317Y8388697D01*
X5977216Y8302570D01*
X6120441Y8243244D01*
X6272487Y8213000D01*
X6427513Y8213000D01*
X6579559Y8243244D01*
X6722784Y8302570D01*
X6851683Y8388697D01*
X6961303Y8498317D01*
X6985000Y8533782D01*
X7008697Y8498317D01*
X7118317Y8388697D01*
X7247216Y8302570D01*
X7390441Y8243244D01*
X7542487Y8213000D01*
X7697513Y8213000D01*
X7849559Y8243244D01*
X7992784Y8302570D01*
X8121683Y8388697D01*
X8231303Y8498317D01*
X8317430Y8627216D01*
X8376756Y8770441D01*
X8407000Y8922487D01*
X8407000Y9077513D01*
X8376756Y9229559D01*
X8317430Y9372784D01*
X8231303Y9501683D01*
X8121683Y9611303D01*
X8012000Y9684590D01*
X8012000Y14465410D01*
X8121683Y14538697D01*
X8231303Y14648317D01*
X8317430Y14777216D01*
X8376756Y14920441D01*
X8407000Y15072487D01*
X8407000Y15227513D01*
X8376756Y15379559D01*
X8317430Y15522784D01*
X8231303Y15651683D01*
X8121683Y15761303D01*
X7992784Y15847430D01*
X7849559Y15906756D01*
X7697513Y15937000D01*
X7542487Y15937000D01*
X7390441Y15906756D01*
X7247216Y15847430D01*
X7118317Y15761303D01*
X7008697Y15651683D01*
X6985000Y15616218D01*
X6961303Y15651683D01*
X6851683Y15761303D01*
X6722784Y15847430D01*
X6579559Y15906756D01*
X6427513Y15937000D01*
X6272487Y15937000D01*
X6120441Y15906756D01*
X5977216Y15847430D01*
X5848317Y15761303D01*
X5738697Y15651683D01*
X5715000Y15616218D01*
X5691303Y15651683D01*
X5581683Y15761303D01*
X5452784Y15847430D01*
X5309559Y15906756D01*
X5157513Y15937000D01*
X5002487Y15937000D01*
X4850441Y15906756D01*
X4707216Y15847430D01*
X4578317Y15761303D01*
X4468697Y15651683D01*
X4445000Y15616218D01*
X4421303Y15651683D01*
X4311683Y15761303D01*
X4182784Y15847430D01*
X4039559Y15906756D01*
X3887513Y15937000D01*
X3732487Y15937000D01*
X3580441Y15906756D01*
X3437216Y15847430D01*
X3308317Y15761303D01*
X3198697Y15651683D01*
X3175000Y15616218D01*
X3151303Y15651683D01*
X3041683Y15761303D01*
X2912784Y15847430D01*
X2769559Y15906756D01*
X2617513Y15937000D01*
X2462487Y15937000D01*
X2310441Y15906756D01*
X2167216Y15847430D01*
X2038317Y15761303D01*
X1928697Y15651683D01*
X1905000Y15616218D01*
X1881303Y15651683D01*
X1771683Y15761303D01*
X1642784Y15847430D01*
X1499559Y15906756D01*
X1347513Y15937000D01*
X1192487Y15937000D01*
X1040441Y15906756D01*
X897216Y15847430D01*
X768317Y15761303D01*
X658697Y15651683D01*
X635000Y15616218D01*
X611303Y15651683D01*
X501683Y15761303D01*
X372784Y15847430D01*
X229559Y15906756D01*
X77513Y15937000D01*
X-77513Y15937000D01*
X-229559Y15906756D01*
X-372784Y15847430D01*
X-501683Y15761303D01*
X-611303Y15651683D01*
X-635000Y15616218D01*
X-658697Y15651683D01*
X-768317Y15761303D01*
X-897216Y15847430D01*
X-1040441Y15906756D01*
X-1192487Y15937000D01*
X-1347513Y15937000D01*
X-1499559Y15906756D01*
X-1642784Y15847430D01*
X-1771683Y15761303D01*
X-1881303Y15651683D01*
X-1905000Y15616218D01*
X-1928697Y15651683D01*
X-2038317Y15761303D01*
X-2167216Y15847430D01*
X-2310441Y15906756D01*
X-2462487Y15937000D01*
X-2617513Y15937000D01*
X-2769559Y15906756D01*
X-2912784Y15847430D01*
X-3041683Y15761303D01*
X-3151303Y15651683D01*
X-3175000Y15616218D01*
X-3198697Y15651683D01*
X-3308317Y15761303D01*
X-3437216Y15847430D01*
X-3580441Y15906756D01*
X-3732487Y15937000D01*
X-3887513Y15937000D01*
X-4039559Y15906756D01*
X-4182784Y15847430D01*
X-4311683Y15761303D01*
X-4421303Y15651683D01*
X-4445000Y15616218D01*
X-4468697Y15651683D01*
X-4578317Y15761303D01*
X-4707216Y15847430D01*
X-4850441Y15906756D01*
X-5002487Y15937000D01*
X-5157513Y15937000D01*
X-5309559Y15906756D01*
X-5452784Y15847430D01*
X-5581683Y15761303D01*
X-5691303Y15651683D01*
X-5715000Y15616218D01*
X-5738697Y15651683D01*
X-5848317Y15761303D01*
X-5977216Y15847430D01*
X-6120441Y15906756D01*
X-6272487Y15937000D01*
X-6427513Y15937000D01*
X-6579559Y15906756D01*
X-6722784Y15847430D01*
X-6851683Y15761303D01*
X-6961303Y15651683D01*
X-6985000Y15616218D01*
X-7008697Y15651683D01*
X-7118317Y15761303D01*
X-7247216Y15847430D01*
X-7390441Y15906756D01*
X-7542487Y15937000D01*
X-7697513Y15937000D01*
X-7849559Y15906756D01*
X-7992784Y15847430D01*
X-8121683Y15761303D01*
X-8231303Y15651683D01*
X-8317430Y15522784D01*
X-8376756Y15379559D01*
X-8407000Y15227513D01*
X-21255199Y15227513D01*
X-20030530Y16807610D01*
X-18667835Y18309283D01*
X-17192869Y19700842D01*
X-15614503Y20973917D01*
X-13942230Y22120853D01*
X-12186106Y23134751D01*
X-10356694Y24009515D01*
X-8464995Y24739882D01*
X-6522387Y25321461D01*
X-4540553Y25750753D01*
X-2531411Y26025178D01*
X-507045Y26143083D01*
X1520371Y26103762D01*
%TA.AperFunction,NonConductor*%
D13*
G36*
X1520371Y26103762D02*
G01*
X3538643Y25907449D01*
X5535633Y25555326D01*
X7499331Y25049510D01*
X9417927Y24393043D01*
X11279883Y23589874D01*
X13074000Y22644832D01*
X14789489Y21563602D01*
X16416031Y20352686D01*
X17943846Y19019366D01*
X19363745Y17571662D01*
X20667188Y16018279D01*
X21846335Y14368561D01*
X22894097Y12632428D01*
X23804170Y10820323D01*
X24571083Y8943143D01*
X25190222Y7012177D01*
X25657864Y5039040D01*
X25971197Y3035598D01*
X26128335Y1013898D01*
X26128335Y-1013898D01*
X25971197Y-3035598D01*
X25657864Y-5039040D01*
X25190222Y-7012177D01*
X24571083Y-8943143D01*
X23804170Y-10820323D01*
X22894097Y-12632428D01*
X21846335Y-14368561D01*
X20667188Y-16018279D01*
X19363745Y-17571662D01*
X17943846Y-19019366D01*
X16416031Y-20352686D01*
X14789489Y-21563602D01*
X13074000Y-22644832D01*
X11279883Y-23589874D01*
X9417927Y-24393043D01*
X7499331Y-25049510D01*
X5535633Y-25555326D01*
X3538643Y-25907449D01*
X1520371Y-26103762D01*
X-507045Y-26143083D01*
X-2531411Y-26025178D01*
X-4540553Y-25750753D01*
X-6522387Y-25321461D01*
X-8464995Y-24739882D01*
X-10356694Y-24009515D01*
X-12186106Y-23134751D01*
X-13942230Y-22120853D01*
X-15614503Y-20973917D01*
X-17192869Y-19700842D01*
X-18667835Y-18309283D01*
X-20030530Y-16807610D01*
X-21272760Y-15204855D01*
X-22387052Y-13510655D01*
X-23366706Y-11735201D01*
X-24205830Y-9889170D01*
X-24739659Y-8422487D01*
X-8407000Y-8422487D01*
X-8407000Y-8577513D01*
X-8376756Y-8729559D01*
X-8317430Y-8872784D01*
X-8231303Y-9001683D01*
X-8121683Y-9111303D01*
X-8012000Y-9184590D01*
X-8011999Y-14141144D01*
X-8012000Y-14141154D01*
X-8012000Y-14315410D01*
X-8121683Y-14388697D01*
X-8231303Y-14498317D01*
X-8317430Y-14627216D01*
X-8376756Y-14770441D01*
X-8407000Y-14922487D01*
X-8407000Y-15077513D01*
X-8376756Y-15229559D01*
X-8317430Y-15372784D01*
X-8231303Y-15501683D01*
X-8121683Y-15611303D01*
X-7992784Y-15697430D01*
X-7849559Y-15756756D01*
X-7697513Y-15787000D01*
X-7542487Y-15787000D01*
X-7390441Y-15756756D01*
X-7247216Y-15697430D01*
X-7118317Y-15611303D01*
X-7008697Y-15501683D01*
X-6985000Y-15466218D01*
X-6961303Y-15501683D01*
X-6851683Y-15611303D01*
X-6722784Y-15697430D01*
X-6579559Y-15756756D01*
X-6427513Y-15787000D01*
X-6272487Y-15787000D01*
X-6120441Y-15756756D01*
X-5977216Y-15697430D01*
X-5848317Y-15611303D01*
X-5738697Y-15501683D01*
X-5715000Y-15466218D01*
X-5691303Y-15501683D01*
X-5581683Y-15611303D01*
X-5452784Y-15697430D01*
X-5309559Y-15756756D01*
X-5157513Y-15787000D01*
X-5002487Y-15787000D01*
X-4850441Y-15756756D01*
X-4707216Y-15697430D01*
X-4578317Y-15611303D01*
X-4468697Y-15501683D01*
X-4445000Y-15466218D01*
X-4421303Y-15501683D01*
X-4311683Y-15611303D01*
X-4182784Y-15697430D01*
X-4039559Y-15756756D01*
X-3887513Y-15787000D01*
X-3732487Y-15787000D01*
X-3580441Y-15756756D01*
X-3437216Y-15697430D01*
X-3308317Y-15611303D01*
X-3198697Y-15501683D01*
X-3175000Y-15466218D01*
X-3151303Y-15501683D01*
X-3041683Y-15611303D01*
X-2912784Y-15697430D01*
X-2769559Y-15756756D01*
X-2617513Y-15787000D01*
X-2462487Y-15787000D01*
X-2310441Y-15756756D01*
X-2167216Y-15697430D01*
X-2038317Y-15611303D01*
X-1928697Y-15501683D01*
X-1905000Y-15466218D01*
X-1881303Y-15501683D01*
X-1771683Y-15611303D01*
X-1642784Y-15697430D01*
X-1499559Y-15756756D01*
X-1347513Y-15787000D01*
X-1192487Y-15787000D01*
X-1040441Y-15756756D01*
X-897216Y-15697430D01*
X-768317Y-15611303D01*
X-658697Y-15501683D01*
X-635000Y-15466218D01*
X-611303Y-15501683D01*
X-501683Y-15611303D01*
X-372784Y-15697430D01*
X-229559Y-15756756D01*
X-77513Y-15787000D01*
X77513Y-15787000D01*
X229559Y-15756756D01*
X372784Y-15697430D01*
X501683Y-15611303D01*
X611303Y-15501683D01*
X635000Y-15466218D01*
X658697Y-15501683D01*
X768317Y-15611303D01*
X897216Y-15697430D01*
X1040441Y-15756756D01*
X1192487Y-15787000D01*
X1347513Y-15787000D01*
X1499559Y-15756756D01*
X1642784Y-15697430D01*
X1771683Y-15611303D01*
X1881303Y-15501683D01*
X1905000Y-15466218D01*
X1928697Y-15501683D01*
X2038317Y-15611303D01*
X2167216Y-15697430D01*
X2310441Y-15756756D01*
X2462487Y-15787000D01*
X2617513Y-15787000D01*
X2769559Y-15756756D01*
X2912784Y-15697430D01*
X3041683Y-15611303D01*
X3151303Y-15501683D01*
X3175000Y-15466218D01*
X3198697Y-15501683D01*
X3308317Y-15611303D01*
X3437216Y-15697430D01*
X3580441Y-15756756D01*
X3732487Y-15787000D01*
X3887513Y-15787000D01*
X4039559Y-15756756D01*
X4182784Y-15697430D01*
X4311683Y-15611303D01*
X4421303Y-15501683D01*
X4445000Y-15466218D01*
X4468697Y-15501683D01*
X4578317Y-15611303D01*
X4707216Y-15697430D01*
X4850441Y-15756756D01*
X5002487Y-15787000D01*
X5157513Y-15787000D01*
X5309559Y-15756756D01*
X5452784Y-15697430D01*
X5581683Y-15611303D01*
X5691303Y-15501683D01*
X5715000Y-15466218D01*
X5738697Y-15501683D01*
X5848317Y-15611303D01*
X5977216Y-15697430D01*
X6120441Y-15756756D01*
X6272487Y-15787000D01*
X6427513Y-15787000D01*
X6579559Y-15756756D01*
X6722784Y-15697430D01*
X6851683Y-15611303D01*
X6961303Y-15501683D01*
X6985000Y-15466218D01*
X7008697Y-15501683D01*
X7118317Y-15611303D01*
X7247216Y-15697430D01*
X7390441Y-15756756D01*
X7542487Y-15787000D01*
X7697513Y-15787000D01*
X7849559Y-15756756D01*
X7992784Y-15697430D01*
X8121683Y-15611303D01*
X8231303Y-15501683D01*
X8317430Y-15372784D01*
X8376756Y-15229559D01*
X8407000Y-15077513D01*
X8407000Y-14922487D01*
X8376756Y-14770441D01*
X8317430Y-14627216D01*
X8231303Y-14498317D01*
X8121683Y-14388697D01*
X8012000Y-14315410D01*
X8012000Y-9184590D01*
X8121683Y-9111303D01*
X8231303Y-9001683D01*
X8317430Y-8872784D01*
X8376756Y-8729559D01*
X8407000Y-8577513D01*
X8407000Y-8422487D01*
X8376756Y-8270441D01*
X8317430Y-8127216D01*
X8231303Y-7998317D01*
X8121683Y-7888697D01*
X7992784Y-7802570D01*
X7849559Y-7743244D01*
X7697513Y-7713000D01*
X7542487Y-7713000D01*
X7390441Y-7743244D01*
X7247216Y-7802570D01*
X7118317Y-7888697D01*
X7008697Y-7998317D01*
X6985000Y-8033782D01*
X6961303Y-7998317D01*
X6851683Y-7888697D01*
X6722784Y-7802570D01*
X6579559Y-7743244D01*
X6427513Y-7713000D01*
X6272487Y-7713000D01*
X6120441Y-7743244D01*
X5977216Y-7802570D01*
X5848317Y-7888697D01*
X5738697Y-7998317D01*
X5715000Y-8033782D01*
X5691303Y-7998317D01*
X5581683Y-7888697D01*
X5452784Y-7802570D01*
X5309559Y-7743244D01*
X5157513Y-7713000D01*
X5002487Y-7713000D01*
X4850441Y-7743244D01*
X4707216Y-7802570D01*
X4578317Y-7888697D01*
X4468697Y-7998317D01*
X4445000Y-8033782D01*
X4421303Y-7998317D01*
X4311683Y-7888697D01*
X4182784Y-7802570D01*
X4039559Y-7743244D01*
X3887513Y-7713000D01*
X3732487Y-7713000D01*
X3580441Y-7743244D01*
X3437216Y-7802570D01*
X3308317Y-7888697D01*
X3198697Y-7998317D01*
X3175000Y-8033782D01*
X3151303Y-7998317D01*
X3041683Y-7888697D01*
X2912784Y-7802570D01*
X2769559Y-7743244D01*
X2617513Y-7713000D01*
X2462487Y-7713000D01*
X2310441Y-7743244D01*
X2167216Y-7802570D01*
X2038317Y-7888697D01*
X1928697Y-7998317D01*
X1905000Y-8033782D01*
X1881303Y-7998317D01*
X1771683Y-7888697D01*
X1642784Y-7802570D01*
X1499559Y-7743244D01*
X1347513Y-7713000D01*
X1192487Y-7713000D01*
X1040441Y-7743244D01*
X897216Y-7802570D01*
X768317Y-7888697D01*
X658697Y-7998317D01*
X635000Y-8033782D01*
X611303Y-7998317D01*
X501683Y-7888697D01*
X372784Y-7802570D01*
X229559Y-7743244D01*
X77513Y-7713000D01*
X-77513Y-7713000D01*
X-229559Y-7743244D01*
X-372784Y-7802570D01*
X-501683Y-7888697D01*
X-611303Y-7998317D01*
X-635000Y-8033782D01*
X-658697Y-7998317D01*
X-768317Y-7888697D01*
X-897216Y-7802570D01*
X-1040441Y-7743244D01*
X-1192487Y-7713000D01*
X-1347513Y-7713000D01*
X-1499559Y-7743244D01*
X-1642784Y-7802570D01*
X-1771683Y-7888697D01*
X-1881303Y-7998317D01*
X-1905000Y-8033782D01*
X-1928697Y-7998317D01*
X-2038317Y-7888697D01*
X-2167216Y-7802570D01*
X-2310441Y-7743244D01*
X-2462487Y-7713000D01*
X-2617513Y-7713000D01*
X-2769559Y-7743244D01*
X-2912784Y-7802570D01*
X-3041683Y-7888697D01*
X-3151303Y-7998317D01*
X-3175000Y-8033782D01*
X-3198697Y-7998317D01*
X-3308317Y-7888697D01*
X-3437216Y-7802570D01*
X-3580441Y-7743244D01*
X-3732487Y-7713000D01*
X-3887513Y-7713000D01*
X-4039559Y-7743244D01*
X-4182784Y-7802570D01*
X-4311683Y-7888697D01*
X-4421303Y-7998317D01*
X-4445000Y-8033782D01*
X-4468697Y-7998317D01*
X-4578317Y-7888697D01*
X-4707216Y-7802570D01*
X-4850441Y-7743244D01*
X-5002487Y-7713000D01*
X-5157513Y-7713000D01*
X-5309559Y-7743244D01*
X-5452784Y-7802570D01*
X-5581683Y-7888697D01*
X-5691303Y-7998317D01*
X-5715000Y-8033782D01*
X-5738697Y-7998317D01*
X-5848317Y-7888697D01*
X-5977216Y-7802570D01*
X-6120441Y-7743244D01*
X-6272487Y-7713000D01*
X-6427513Y-7713000D01*
X-6579559Y-7743244D01*
X-6722784Y-7802570D01*
X-6851683Y-7888697D01*
X-6961303Y-7998317D01*
X-6985000Y-8033782D01*
X-7008697Y-7998317D01*
X-7118317Y-7888697D01*
X-7247216Y-7802570D01*
X-7390441Y-7743244D01*
X-7542487Y-7713000D01*
X-7697513Y-7713000D01*
X-7849559Y-7743244D01*
X-7992784Y-7802570D01*
X-8121683Y-7888697D01*
X-8231303Y-7998317D01*
X-8317430Y-8127216D01*
X-8376756Y-8270441D01*
X-8407000Y-8422487D01*
X-24739659Y-8422487D01*
X-24899378Y-7983664D01*
X-25443177Y-6030144D01*
X-25833959Y-4040357D01*
X-26069371Y-2026272D01*
X-26148000Y0D01*
X-26069371Y2026272D01*
X-25888058Y3577513D01*
X-8407000Y3577513D01*
X-8407000Y3422487D01*
X-8376756Y3270441D01*
X-8317430Y3127216D01*
X-8231303Y2998317D01*
X-8121683Y2888697D01*
X-8012000Y2815410D01*
X-8011999Y-2315409D01*
X-8121683Y-2388697D01*
X-8231303Y-2498317D01*
X-8317430Y-2627216D01*
X-8376756Y-2770441D01*
X-8407000Y-2922487D01*
X-8407000Y-3077513D01*
X-8376756Y-3229559D01*
X-8317430Y-3372784D01*
X-8231303Y-3501683D01*
X-8121683Y-3611303D01*
X-7992784Y-3697430D01*
X-7849559Y-3756756D01*
X-7697513Y-3787000D01*
X-7542487Y-3787000D01*
X-7390441Y-3756756D01*
X-7247216Y-3697430D01*
X-7118317Y-3611303D01*
X-7008697Y-3501683D01*
X-6985000Y-3466218D01*
X-6961303Y-3501683D01*
X-6851683Y-3611303D01*
X-6722784Y-3697430D01*
X-6579559Y-3756756D01*
X-6427513Y-3787000D01*
X-6272487Y-3787000D01*
X-6120441Y-3756756D01*
X-5977216Y-3697430D01*
X-5848317Y-3611303D01*
X-5738697Y-3501683D01*
X-5715000Y-3466218D01*
X-5691303Y-3501683D01*
X-5581683Y-3611303D01*
X-5452784Y-3697430D01*
X-5309559Y-3756756D01*
X-5157513Y-3787000D01*
X-5002487Y-3787000D01*
X-4850441Y-3756756D01*
X-4707216Y-3697430D01*
X-4578317Y-3611303D01*
X-4468697Y-3501683D01*
X-4445000Y-3466218D01*
X-4421303Y-3501683D01*
X-4311683Y-3611303D01*
X-4182784Y-3697430D01*
X-4039559Y-3756756D01*
X-3887513Y-3787000D01*
X-3732487Y-3787000D01*
X-3580441Y-3756756D01*
X-3437216Y-3697430D01*
X-3308317Y-3611303D01*
X-3198697Y-3501683D01*
X-3175000Y-3466218D01*
X-3151303Y-3501683D01*
X-3041683Y-3611303D01*
X-2912784Y-3697430D01*
X-2769559Y-3756756D01*
X-2617513Y-3787000D01*
X-2462487Y-3787000D01*
X-2310441Y-3756756D01*
X-2167216Y-3697430D01*
X-2038317Y-3611303D01*
X-1928697Y-3501683D01*
X-1905000Y-3466218D01*
X-1881303Y-3501683D01*
X-1771683Y-3611303D01*
X-1642784Y-3697430D01*
X-1499559Y-3756756D01*
X-1347513Y-3787000D01*
X-1192487Y-3787000D01*
X-1040441Y-3756756D01*
X-897216Y-3697430D01*
X-768317Y-3611303D01*
X-658697Y-3501683D01*
X-635000Y-3466218D01*
X-611303Y-3501683D01*
X-501683Y-3611303D01*
X-372784Y-3697430D01*
X-229559Y-3756756D01*
X-77513Y-3787000D01*
X77513Y-3787000D01*
X229559Y-3756756D01*
X372784Y-3697430D01*
X501683Y-3611303D01*
X611303Y-3501683D01*
X635000Y-3466218D01*
X658697Y-3501683D01*
X768317Y-3611303D01*
X897216Y-3697430D01*
X1040441Y-3756756D01*
X1192487Y-3787000D01*
X1347513Y-3787000D01*
X1499559Y-3756756D01*
X1642784Y-3697430D01*
X1771683Y-3611303D01*
X1881303Y-3501683D01*
X1905000Y-3466218D01*
X1928697Y-3501683D01*
X2038317Y-3611303D01*
X2167216Y-3697430D01*
X2310441Y-3756756D01*
X2462487Y-3787000D01*
X2617513Y-3787000D01*
X2769559Y-3756756D01*
X2912784Y-3697430D01*
X3041683Y-3611303D01*
X3151303Y-3501683D01*
X3175000Y-3466218D01*
X3198697Y-3501683D01*
X3308317Y-3611303D01*
X3437216Y-3697430D01*
X3580441Y-3756756D01*
X3732487Y-3787000D01*
X3887513Y-3787000D01*
X4039559Y-3756756D01*
X4182784Y-3697430D01*
X4311683Y-3611303D01*
X4421303Y-3501683D01*
X4445000Y-3466218D01*
X4468697Y-3501683D01*
X4578317Y-3611303D01*
X4707216Y-3697430D01*
X4850441Y-3756756D01*
X5002487Y-3787000D01*
X5157513Y-3787000D01*
X5309559Y-3756756D01*
X5452784Y-3697430D01*
X5581683Y-3611303D01*
X5691303Y-3501683D01*
X5715000Y-3466218D01*
X5738697Y-3501683D01*
X5848317Y-3611303D01*
X5977216Y-3697430D01*
X6120441Y-3756756D01*
X6272487Y-3787000D01*
X6427513Y-3787000D01*
X6579559Y-3756756D01*
X6722784Y-3697430D01*
X6851683Y-3611303D01*
X6961303Y-3501683D01*
X6985000Y-3466218D01*
X7008697Y-3501683D01*
X7118317Y-3611303D01*
X7247216Y-3697430D01*
X7390441Y-3756756D01*
X7542487Y-3787000D01*
X7697513Y-3787000D01*
X7849559Y-3756756D01*
X7992784Y-3697430D01*
X8121683Y-3611303D01*
X8231303Y-3501683D01*
X8317430Y-3372784D01*
X8376756Y-3229559D01*
X8407000Y-3077513D01*
X8407000Y-2922487D01*
X8376756Y-2770441D01*
X8317430Y-2627216D01*
X8231303Y-2498317D01*
X8121683Y-2388697D01*
X8012000Y-2315410D01*
X8012000Y2815410D01*
X8121683Y2888697D01*
X8231303Y2998317D01*
X8317430Y3127216D01*
X8376756Y3270441D01*
X8407000Y3422487D01*
X8407000Y3577513D01*
X8376756Y3729559D01*
X8317430Y3872784D01*
X8231303Y4001683D01*
X8121683Y4111303D01*
X7992784Y4197430D01*
X7849559Y4256756D01*
X7697513Y4287000D01*
X7542487Y4287000D01*
X7390441Y4256756D01*
X7247216Y4197430D01*
X7118317Y4111303D01*
X7008697Y4001683D01*
X6985000Y3966218D01*
X6961303Y4001683D01*
X6851683Y4111303D01*
X6722784Y4197430D01*
X6579559Y4256756D01*
X6427513Y4287000D01*
X6272487Y4287000D01*
X6120441Y4256756D01*
X5977216Y4197430D01*
X5848317Y4111303D01*
X5738697Y4001683D01*
X5715000Y3966218D01*
X5691303Y4001683D01*
X5581683Y4111303D01*
X5452784Y4197430D01*
X5309559Y4256756D01*
X5157513Y4287000D01*
X5002487Y4287000D01*
X4850441Y4256756D01*
X4707216Y4197430D01*
X4578317Y4111303D01*
X4468697Y4001683D01*
X4445000Y3966218D01*
X4421303Y4001683D01*
X4311683Y4111303D01*
X4182784Y4197430D01*
X4039559Y4256756D01*
X3887513Y4287000D01*
X3732487Y4287000D01*
X3580441Y4256756D01*
X3437216Y4197430D01*
X3308317Y4111303D01*
X3198697Y4001683D01*
X3175000Y3966218D01*
X3151303Y4001683D01*
X3041683Y4111303D01*
X2912784Y4197430D01*
X2769559Y4256756D01*
X2617513Y4287000D01*
X2462487Y4287000D01*
X2310441Y4256756D01*
X2167216Y4197430D01*
X2038317Y4111303D01*
X1928697Y4001683D01*
X1905000Y3966218D01*
X1881303Y4001683D01*
X1771683Y4111303D01*
X1642784Y4197430D01*
X1499559Y4256756D01*
X1347513Y4287000D01*
X1192487Y4287000D01*
X1040441Y4256756D01*
X897216Y4197430D01*
X768317Y4111303D01*
X658697Y4001683D01*
X635000Y3966218D01*
X611303Y4001683D01*
X501683Y4111303D01*
X372784Y4197430D01*
X229559Y4256756D01*
X77513Y4287000D01*
X-77513Y4287000D01*
X-229559Y4256756D01*
X-372784Y4197430D01*
X-501683Y4111303D01*
X-611303Y4001683D01*
X-635000Y3966218D01*
X-658697Y4001683D01*
X-768317Y4111303D01*
X-897216Y4197430D01*
X-1040441Y4256756D01*
X-1192487Y4287000D01*
X-1347513Y4287000D01*
X-1499559Y4256756D01*
X-1642784Y4197430D01*
X-1771683Y4111303D01*
X-1881303Y4001683D01*
X-1905000Y3966218D01*
X-1928697Y4001683D01*
X-2038317Y4111303D01*
X-2167216Y4197430D01*
X-2310441Y4256756D01*
X-2462487Y4287000D01*
X-2617513Y4287000D01*
X-2769559Y4256756D01*
X-2912784Y4197430D01*
X-3041683Y4111303D01*
X-3151303Y4001683D01*
X-3175000Y3966218D01*
X-3198697Y4001683D01*
X-3308317Y4111303D01*
X-3437216Y4197430D01*
X-3580441Y4256756D01*
X-3732487Y4287000D01*
X-3887513Y4287000D01*
X-4039559Y4256756D01*
X-4182784Y4197430D01*
X-4311683Y4111303D01*
X-4421303Y4001683D01*
X-4445000Y3966218D01*
X-4468697Y4001683D01*
X-4578317Y4111303D01*
X-4707216Y4197430D01*
X-4850441Y4256756D01*
X-5002487Y4287000D01*
X-5157513Y4287000D01*
X-5309559Y4256756D01*
X-5452784Y4197430D01*
X-5581683Y4111303D01*
X-5691303Y4001683D01*
X-5715000Y3966218D01*
X-5738697Y4001683D01*
X-5848317Y4111303D01*
X-5977216Y4197430D01*
X-6120441Y4256756D01*
X-6272487Y4287000D01*
X-6427513Y4287000D01*
X-6579559Y4256756D01*
X-6722784Y4197430D01*
X-6851683Y4111303D01*
X-6961303Y4001683D01*
X-6985000Y3966218D01*
X-7008697Y4001683D01*
X-7118317Y4111303D01*
X-7247216Y4197430D01*
X-7390441Y4256756D01*
X-7542487Y4287000D01*
X-7697513Y4287000D01*
X-7849559Y4256756D01*
X-7992784Y4197430D01*
X-8121683Y4111303D01*
X-8231303Y4001683D01*
X-8317430Y3872784D01*
X-8376756Y3729559D01*
X-8407000Y3577513D01*
X-25888058Y3577513D01*
X-25833959Y4040357D01*
X-25443177Y6030144D01*
X-24899378Y7983664D01*
X-24205830Y9889170D01*
X-23366706Y11735201D01*
X-22387052Y13510655D01*
X-21272760Y15204855D01*
X-21255199Y15227513D01*
X-8407000Y15227513D01*
X-8407000Y15072487D01*
X-8376756Y14920441D01*
X-8317430Y14777216D01*
X-8231303Y14648317D01*
X-8121683Y14538697D01*
X-8012000Y14465410D01*
X-8011999Y9684591D01*
X-8121683Y9611303D01*
X-8231303Y9501683D01*
X-8317430Y9372784D01*
X-8376756Y9229559D01*
X-8407000Y9077513D01*
X-8407000Y8922487D01*
X-8376756Y8770441D01*
X-8317430Y8627216D01*
X-8231303Y8498317D01*
X-8121683Y8388697D01*
X-7992784Y8302570D01*
X-7849559Y8243244D01*
X-7697513Y8213000D01*
X-7542487Y8213000D01*
X-7390441Y8243244D01*
X-7247216Y8302570D01*
X-7118317Y8388697D01*
X-7008697Y8498317D01*
X-6985000Y8533782D01*
X-6961303Y8498317D01*
X-6851683Y8388697D01*
X-6722784Y8302570D01*
X-6579559Y8243244D01*
X-6427513Y8213000D01*
X-6272487Y8213000D01*
X-6120441Y8243244D01*
X-5977216Y8302570D01*
X-5848317Y8388697D01*
X-5738697Y8498317D01*
X-5715000Y8533782D01*
X-5691303Y8498317D01*
X-5581683Y8388697D01*
X-5452784Y8302570D01*
X-5309559Y8243244D01*
X-5157513Y8213000D01*
X-5002487Y8213000D01*
X-4850441Y8243244D01*
X-4707216Y8302570D01*
X-4578317Y8388697D01*
X-4468697Y8498317D01*
X-4445000Y8533782D01*
X-4421303Y8498317D01*
X-4311683Y8388697D01*
X-4182784Y8302570D01*
X-4039559Y8243244D01*
X-3887513Y8213000D01*
X-3732487Y8213000D01*
X-3580441Y8243244D01*
X-3437216Y8302570D01*
X-3308317Y8388697D01*
X-3198697Y8498317D01*
X-3175000Y8533782D01*
X-3151303Y8498317D01*
X-3041683Y8388697D01*
X-2912784Y8302570D01*
X-2769559Y8243244D01*
X-2617513Y8213000D01*
X-2462487Y8213000D01*
X-2310441Y8243244D01*
X-2167216Y8302570D01*
X-2038317Y8388697D01*
X-1928697Y8498317D01*
X-1905000Y8533782D01*
X-1881303Y8498317D01*
X-1771683Y8388697D01*
X-1642784Y8302570D01*
X-1499559Y8243244D01*
X-1347513Y8213000D01*
X-1192487Y8213000D01*
X-1040441Y8243244D01*
X-897216Y8302570D01*
X-768317Y8388697D01*
X-658697Y8498317D01*
X-635000Y8533782D01*
X-611303Y8498317D01*
X-501683Y8388697D01*
X-372784Y8302570D01*
X-229559Y8243244D01*
X-77513Y8213000D01*
X77513Y8213000D01*
X229559Y8243244D01*
X372784Y8302570D01*
X501683Y8388697D01*
X611303Y8498317D01*
X635000Y8533782D01*
X658697Y8498317D01*
X768317Y8388697D01*
X897216Y8302570D01*
X1040441Y8243244D01*
X1192487Y8213000D01*
X1347513Y8213000D01*
X1499559Y8243244D01*
X1642784Y8302570D01*
X1771683Y8388697D01*
X1881303Y8498317D01*
X1905000Y8533782D01*
X1928697Y8498317D01*
X2038317Y8388697D01*
X2167216Y8302570D01*
X2310441Y8243244D01*
X2462487Y8213000D01*
X2617513Y8213000D01*
X2769559Y8243244D01*
X2912784Y8302570D01*
X3041683Y8388697D01*
X3151303Y8498317D01*
X3175000Y8533782D01*
X3198697Y8498317D01*
X3308317Y8388697D01*
X3437216Y8302570D01*
X3580441Y8243244D01*
X3732487Y8213000D01*
X3887513Y8213000D01*
X4039559Y8243244D01*
X4182784Y8302570D01*
X4311683Y8388697D01*
X4421303Y8498317D01*
X4445000Y8533782D01*
X4468697Y8498317D01*
X4578317Y8388697D01*
X4707216Y8302570D01*
X4850441Y8243244D01*
X5002487Y8213000D01*
X5157513Y8213000D01*
X5309559Y8243244D01*
X5452784Y8302570D01*
X5581683Y8388697D01*
X5691303Y8498317D01*
X5715000Y8533782D01*
X5738697Y8498317D01*
X5848317Y8388697D01*
X5977216Y8302570D01*
X6120441Y8243244D01*
X6272487Y8213000D01*
X6427513Y8213000D01*
X6579559Y8243244D01*
X6722784Y8302570D01*
X6851683Y8388697D01*
X6961303Y8498317D01*
X6985000Y8533782D01*
X7008697Y8498317D01*
X7118317Y8388697D01*
X7247216Y8302570D01*
X7390441Y8243244D01*
X7542487Y8213000D01*
X7697513Y8213000D01*
X7849559Y8243244D01*
X7992784Y8302570D01*
X8121683Y8388697D01*
X8231303Y8498317D01*
X8317430Y8627216D01*
X8376756Y8770441D01*
X8407000Y8922487D01*
X8407000Y9077513D01*
X8376756Y9229559D01*
X8317430Y9372784D01*
X8231303Y9501683D01*
X8121683Y9611303D01*
X8012000Y9684590D01*
X8012000Y14465410D01*
X8121683Y14538697D01*
X8231303Y14648317D01*
X8317430Y14777216D01*
X8376756Y14920441D01*
X8407000Y15072487D01*
X8407000Y15227513D01*
X8376756Y15379559D01*
X8317430Y15522784D01*
X8231303Y15651683D01*
X8121683Y15761303D01*
X7992784Y15847430D01*
X7849559Y15906756D01*
X7697513Y15937000D01*
X7542487Y15937000D01*
X7390441Y15906756D01*
X7247216Y15847430D01*
X7118317Y15761303D01*
X7008697Y15651683D01*
X6985000Y15616218D01*
X6961303Y15651683D01*
X6851683Y15761303D01*
X6722784Y15847430D01*
X6579559Y15906756D01*
X6427513Y15937000D01*
X6272487Y15937000D01*
X6120441Y15906756D01*
X5977216Y15847430D01*
X5848317Y15761303D01*
X5738697Y15651683D01*
X5715000Y15616218D01*
X5691303Y15651683D01*
X5581683Y15761303D01*
X5452784Y15847430D01*
X5309559Y15906756D01*
X5157513Y15937000D01*
X5002487Y15937000D01*
X4850441Y15906756D01*
X4707216Y15847430D01*
X4578317Y15761303D01*
X4468697Y15651683D01*
X4445000Y15616218D01*
X4421303Y15651683D01*
X4311683Y15761303D01*
X4182784Y15847430D01*
X4039559Y15906756D01*
X3887513Y15937000D01*
X3732487Y15937000D01*
X3580441Y15906756D01*
X3437216Y15847430D01*
X3308317Y15761303D01*
X3198697Y15651683D01*
X3175000Y15616218D01*
X3151303Y15651683D01*
X3041683Y15761303D01*
X2912784Y15847430D01*
X2769559Y15906756D01*
X2617513Y15937000D01*
X2462487Y15937000D01*
X2310441Y15906756D01*
X2167216Y15847430D01*
X2038317Y15761303D01*
X1928697Y15651683D01*
X1905000Y15616218D01*
X1881303Y15651683D01*
X1771683Y15761303D01*
X1642784Y15847430D01*
X1499559Y15906756D01*
X1347513Y15937000D01*
X1192487Y15937000D01*
X1040441Y15906756D01*
X897216Y15847430D01*
X768317Y15761303D01*
X658697Y15651683D01*
X635000Y15616218D01*
X611303Y15651683D01*
X501683Y15761303D01*
X372784Y15847430D01*
X229559Y15906756D01*
X77513Y15937000D01*
X-77513Y15937000D01*
X-229559Y15906756D01*
X-372784Y15847430D01*
X-501683Y15761303D01*
X-611303Y15651683D01*
X-635000Y15616218D01*
X-658697Y15651683D01*
X-768317Y15761303D01*
X-897216Y15847430D01*
X-1040441Y15906756D01*
X-1192487Y15937000D01*
X-1347513Y15937000D01*
X-1499559Y15906756D01*
X-1642784Y15847430D01*
X-1771683Y15761303D01*
X-1881303Y15651683D01*
X-1905000Y15616218D01*
X-1928697Y15651683D01*
X-2038317Y15761303D01*
X-2167216Y15847430D01*
X-2310441Y15906756D01*
X-2462487Y15937000D01*
X-2617513Y15937000D01*
X-2769559Y15906756D01*
X-2912784Y15847430D01*
X-3041683Y15761303D01*
X-3151303Y15651683D01*
X-3175000Y15616218D01*
X-3198697Y15651683D01*
X-3308317Y15761303D01*
X-3437216Y15847430D01*
X-3580441Y15906756D01*
X-3732487Y15937000D01*
X-3887513Y15937000D01*
X-4039559Y15906756D01*
X-4182784Y15847430D01*
X-4311683Y15761303D01*
X-4421303Y15651683D01*
X-4445000Y15616218D01*
X-4468697Y15651683D01*
X-4578317Y15761303D01*
X-4707216Y15847430D01*
X-4850441Y15906756D01*
X-5002487Y15937000D01*
X-5157513Y15937000D01*
X-5309559Y15906756D01*
X-5452784Y15847430D01*
X-5581683Y15761303D01*
X-5691303Y15651683D01*
X-5715000Y15616218D01*
X-5738697Y15651683D01*
X-5848317Y15761303D01*
X-5977216Y15847430D01*
X-6120441Y15906756D01*
X-6272487Y15937000D01*
X-6427513Y15937000D01*
X-6579559Y15906756D01*
X-6722784Y15847430D01*
X-6851683Y15761303D01*
X-6961303Y15651683D01*
X-6985000Y15616218D01*
X-7008697Y15651683D01*
X-7118317Y15761303D01*
X-7247216Y15847430D01*
X-7390441Y15906756D01*
X-7542487Y15937000D01*
X-7697513Y15937000D01*
X-7849559Y15906756D01*
X-7992784Y15847430D01*
X-8121683Y15761303D01*
X-8231303Y15651683D01*
X-8317430Y15522784D01*
X-8376756Y15379559D01*
X-8407000Y15227513D01*
X-21255199Y15227513D01*
X-20030530Y16807610D01*
X-18667835Y18309283D01*
X-17192869Y19700842D01*
X-15614503Y20973917D01*
X-13942230Y22120853D01*
X-12186106Y23134751D01*
X-10356694Y24009515D01*
X-8464995Y24739882D01*
X-6522387Y25321461D01*
X-4540553Y25750753D01*
X-2531411Y26025178D01*
X-507045Y26143083D01*
X1520371Y26103762D01*
G37*
%TD.AperFunction*%
M02*
