%TF.GenerationSoftware,KiCad,Pcbnew,(5.1.10)-1*%
%TF.CreationDate,2022-07-15T13:11:57-06:00*%
%TF.ProjectId,Sub-D Micro-D 25 Pin Vacuum FeedThru,5375622d-4420-44d6-9963-726f2d442032,rev?*%
%TF.SameCoordinates,Original*%
%TF.FileFunction,Legend,Bot*%
%TF.FilePolarity,Positive*%
%FSLAX46Y46*%
G04 Gerber Fmt 4.6, Leading zero omitted, Abs format (unit mm)*
G04 Created by KiCad (PCBNEW (5.1.10)-1) date 2022-07-15 13:11:57*
%MOMM*%
%LPD*%
G01*
G04 APERTURE LIST*
%ADD10C,0.150000*%
G04 APERTURE END LIST*
D10*
X15627380Y4511904D02*
X16627380Y4178571D01*
X15627380Y3845238D01*
X16627380Y3083333D02*
X16103571Y3083333D01*
X16008333Y3130952D01*
X15960714Y3226190D01*
X15960714Y3416666D01*
X16008333Y3511904D01*
X16579761Y3083333D02*
X16627380Y3178571D01*
X16627380Y3416666D01*
X16579761Y3511904D01*
X16484523Y3559523D01*
X16389285Y3559523D01*
X16294047Y3511904D01*
X16246428Y3416666D01*
X16246428Y3178571D01*
X16198809Y3083333D01*
X16579761Y2178571D02*
X16627380Y2273809D01*
X16627380Y2464285D01*
X16579761Y2559523D01*
X16532142Y2607142D01*
X16436904Y2654761D01*
X16151190Y2654761D01*
X16055952Y2607142D01*
X16008333Y2559523D01*
X15960714Y2464285D01*
X15960714Y2273809D01*
X16008333Y2178571D01*
X15960714Y1321428D02*
X16627380Y1321428D01*
X15960714Y1750000D02*
X16484523Y1750000D01*
X16579761Y1702380D01*
X16627380Y1607142D01*
X16627380Y1464285D01*
X16579761Y1369047D01*
X16532142Y1321428D01*
X15960714Y416666D02*
X16627380Y416666D01*
X15960714Y845238D02*
X16484523Y845238D01*
X16579761Y797619D01*
X16627380Y702380D01*
X16627380Y559523D01*
X16579761Y464285D01*
X16532142Y416666D01*
X16627380Y-59523D02*
X15960714Y-59523D01*
X16055952Y-59523D02*
X16008333Y-107142D01*
X15960714Y-202380D01*
X15960714Y-345238D01*
X16008333Y-440476D01*
X16103571Y-488095D01*
X16627380Y-488095D01*
X16103571Y-488095D02*
X16008333Y-535714D01*
X15960714Y-630952D01*
X15960714Y-773809D01*
X16008333Y-869047D01*
X16103571Y-916666D01*
X16627380Y-916666D01*
X16579761Y-2107142D02*
X16627380Y-2250000D01*
X16627380Y-2488095D01*
X16579761Y-2583333D01*
X16532142Y-2630952D01*
X16436904Y-2678571D01*
X16341666Y-2678571D01*
X16246428Y-2630952D01*
X16198809Y-2583333D01*
X16151190Y-2488095D01*
X16103571Y-2297619D01*
X16055952Y-2202380D01*
X16008333Y-2154761D01*
X15913095Y-2107142D01*
X15817857Y-2107142D01*
X15722619Y-2154761D01*
X15675000Y-2202380D01*
X15627380Y-2297619D01*
X15627380Y-2535714D01*
X15675000Y-2678571D01*
X16627380Y-3107142D02*
X15960714Y-3107142D01*
X15627380Y-3107142D02*
X15675000Y-3059523D01*
X15722619Y-3107142D01*
X15675000Y-3154761D01*
X15627380Y-3107142D01*
X15722619Y-3107142D01*
X16627380Y-4011904D02*
X15627380Y-4011904D01*
X16579761Y-4011904D02*
X16627380Y-3916666D01*
X16627380Y-3726190D01*
X16579761Y-3630952D01*
X16532142Y-3583333D01*
X16436904Y-3535714D01*
X16151190Y-3535714D01*
X16055952Y-3583333D01*
X16008333Y-3630952D01*
X15960714Y-3726190D01*
X15960714Y-3916666D01*
X16008333Y-4011904D01*
X16579761Y-4869047D02*
X16627380Y-4773809D01*
X16627380Y-4583333D01*
X16579761Y-4488095D01*
X16484523Y-4440476D01*
X16103571Y-4440476D01*
X16008333Y-4488095D01*
X15960714Y-4583333D01*
X15960714Y-4773809D01*
X16008333Y-4869047D01*
X16103571Y-4916666D01*
X16198809Y-4916666D01*
X16294047Y-4440476D01*
X18277380Y10250000D02*
X17277380Y10250000D01*
X17991666Y9916666D01*
X17277380Y9583333D01*
X18277380Y9583333D01*
X18277380Y9107142D02*
X17610714Y9107142D01*
X17277380Y9107142D02*
X17325000Y9154761D01*
X17372619Y9107142D01*
X17325000Y9059523D01*
X17277380Y9107142D01*
X17372619Y9107142D01*
X18229761Y8202380D02*
X18277380Y8297619D01*
X18277380Y8488095D01*
X18229761Y8583333D01*
X18182142Y8630952D01*
X18086904Y8678571D01*
X17801190Y8678571D01*
X17705952Y8630952D01*
X17658333Y8583333D01*
X17610714Y8488095D01*
X17610714Y8297619D01*
X17658333Y8202380D01*
X18277380Y7773809D02*
X17610714Y7773809D01*
X17801190Y7773809D02*
X17705952Y7726190D01*
X17658333Y7678571D01*
X17610714Y7583333D01*
X17610714Y7488095D01*
X18277380Y7011904D02*
X18229761Y7107142D01*
X18182142Y7154761D01*
X18086904Y7202380D01*
X17801190Y7202380D01*
X17705952Y7154761D01*
X17658333Y7107142D01*
X17610714Y7011904D01*
X17610714Y6869047D01*
X17658333Y6773809D01*
X17705952Y6726190D01*
X17801190Y6678571D01*
X18086904Y6678571D01*
X18182142Y6726190D01*
X18229761Y6773809D01*
X18277380Y6869047D01*
X18277380Y7011904D01*
X18277380Y6250000D02*
X17277380Y6250000D01*
X17277380Y6011904D01*
X17325000Y5869047D01*
X17420238Y5773809D01*
X17515476Y5726190D01*
X17705952Y5678571D01*
X17848809Y5678571D01*
X18039285Y5726190D01*
X18134523Y5773809D01*
X18229761Y5869047D01*
X18277380Y6011904D01*
X18277380Y6250000D01*
X18372619Y5488095D02*
X18372619Y4726190D01*
X17277380Y4630952D02*
X18277380Y4297619D01*
X17277380Y3964285D01*
X18277380Y3202380D02*
X17753571Y3202380D01*
X17658333Y3250000D01*
X17610714Y3345238D01*
X17610714Y3535714D01*
X17658333Y3630952D01*
X18229761Y3202380D02*
X18277380Y3297619D01*
X18277380Y3535714D01*
X18229761Y3630952D01*
X18134523Y3678571D01*
X18039285Y3678571D01*
X17944047Y3630952D01*
X17896428Y3535714D01*
X17896428Y3297619D01*
X17848809Y3202380D01*
X18229761Y2297619D02*
X18277380Y2392857D01*
X18277380Y2583333D01*
X18229761Y2678571D01*
X18182142Y2726190D01*
X18086904Y2773809D01*
X17801190Y2773809D01*
X17705952Y2726190D01*
X17658333Y2678571D01*
X17610714Y2583333D01*
X17610714Y2392857D01*
X17658333Y2297619D01*
X17610714Y1440476D02*
X18277380Y1440476D01*
X17610714Y1869047D02*
X18134523Y1869047D01*
X18229761Y1821428D01*
X18277380Y1726190D01*
X18277380Y1583333D01*
X18229761Y1488095D01*
X18182142Y1440476D01*
X17610714Y535714D02*
X18277380Y535714D01*
X17610714Y964285D02*
X18134523Y964285D01*
X18229761Y916666D01*
X18277380Y821428D01*
X18277380Y678571D01*
X18229761Y583333D01*
X18182142Y535714D01*
X18277380Y59523D02*
X17610714Y59523D01*
X17705952Y59523D02*
X17658333Y11904D01*
X17610714Y-83333D01*
X17610714Y-226190D01*
X17658333Y-321428D01*
X17753571Y-369047D01*
X18277380Y-369047D01*
X17753571Y-369047D02*
X17658333Y-416666D01*
X17610714Y-511904D01*
X17610714Y-654761D01*
X17658333Y-749999D01*
X17753571Y-797619D01*
X18277380Y-797619D01*
X18372619Y-1035714D02*
X18372619Y-1797619D01*
X17753571Y-2369047D02*
X17753571Y-2035714D01*
X18277380Y-2035714D02*
X17277380Y-2035714D01*
X17277380Y-2511904D01*
X18229761Y-3273809D02*
X18277380Y-3178571D01*
X18277380Y-2988095D01*
X18229761Y-2892857D01*
X18134523Y-2845238D01*
X17753571Y-2845238D01*
X17658333Y-2892857D01*
X17610714Y-2988095D01*
X17610714Y-3178571D01*
X17658333Y-3273809D01*
X17753571Y-3321428D01*
X17848809Y-3321428D01*
X17944047Y-2845238D01*
X18229761Y-4130952D02*
X18277380Y-4035714D01*
X18277380Y-3845238D01*
X18229761Y-3749999D01*
X18134523Y-3702380D01*
X17753571Y-3702380D01*
X17658333Y-3749999D01*
X17610714Y-3845238D01*
X17610714Y-4035714D01*
X17658333Y-4130952D01*
X17753571Y-4178571D01*
X17848809Y-4178571D01*
X17944047Y-3702380D01*
X18277380Y-5035714D02*
X17277380Y-5035714D01*
X18229761Y-5035714D02*
X18277380Y-4940476D01*
X18277380Y-4749999D01*
X18229761Y-4654761D01*
X18182142Y-4607142D01*
X18086904Y-4559523D01*
X17801190Y-4559523D01*
X17705952Y-4607142D01*
X17658333Y-4654761D01*
X17610714Y-4749999D01*
X17610714Y-4940476D01*
X17658333Y-5035714D01*
X17610714Y-5369047D02*
X17610714Y-5749999D01*
X17277380Y-5511904D02*
X18134523Y-5511904D01*
X18229761Y-5559523D01*
X18277380Y-5654761D01*
X18277380Y-5749999D01*
X18277380Y-6083333D02*
X17277380Y-6083333D01*
X18277380Y-6511904D02*
X17753571Y-6511904D01*
X17658333Y-6464285D01*
X17610714Y-6369047D01*
X17610714Y-6226190D01*
X17658333Y-6130952D01*
X17705952Y-6083333D01*
X18277380Y-6988095D02*
X17610714Y-6988095D01*
X17801190Y-6988095D02*
X17705952Y-7035714D01*
X17658333Y-7083333D01*
X17610714Y-7178571D01*
X17610714Y-7273809D01*
X18277380Y-7749999D02*
X18229761Y-7654761D01*
X18182142Y-7607142D01*
X18086904Y-7559523D01*
X17801190Y-7559523D01*
X17705952Y-7607142D01*
X17658333Y-7654761D01*
X17610714Y-7749999D01*
X17610714Y-7892857D01*
X17658333Y-7988095D01*
X17705952Y-8035714D01*
X17801190Y-8083333D01*
X18086904Y-8083333D01*
X18182142Y-8035714D01*
X18229761Y-7988095D01*
X18277380Y-7892857D01*
X18277380Y-7749999D01*
X17610714Y-8940476D02*
X18277380Y-8940476D01*
X17610714Y-8511904D02*
X18134523Y-8511904D01*
X18229761Y-8559523D01*
X18277380Y-8654761D01*
X18277380Y-8797619D01*
X18229761Y-8892857D01*
X18182142Y-8940476D01*
X17610714Y-9845238D02*
X18420238Y-9845238D01*
X18515476Y-9797619D01*
X18563095Y-9749999D01*
X18610714Y-9654761D01*
X18610714Y-9511904D01*
X18563095Y-9416666D01*
X18229761Y-9845238D02*
X18277380Y-9749999D01*
X18277380Y-9559523D01*
X18229761Y-9464285D01*
X18182142Y-9416666D01*
X18086904Y-9369047D01*
X17801190Y-9369047D01*
X17705952Y-9416666D01*
X17658333Y-9464285D01*
X17610714Y-9559523D01*
X17610714Y-9749999D01*
X17658333Y-9845238D01*
X18277380Y-10321428D02*
X17277380Y-10321428D01*
X18277380Y-10749999D02*
X17753571Y-10749999D01*
X17658333Y-10702380D01*
X17610714Y-10607142D01*
X17610714Y-10464285D01*
X17658333Y-10369047D01*
X17705952Y-10321428D01*
X19927380Y5654761D02*
X19451190Y5988095D01*
X19927380Y6226190D02*
X18927380Y6226190D01*
X18927380Y5845238D01*
X18975000Y5750000D01*
X19022619Y5702380D01*
X19117857Y5654761D01*
X19260714Y5654761D01*
X19355952Y5702380D01*
X19403571Y5750000D01*
X19451190Y5845238D01*
X19451190Y6226190D01*
X19260714Y5321428D02*
X19927380Y5083333D01*
X19260714Y4845238D02*
X19927380Y5083333D01*
X20165476Y5178571D01*
X20213095Y5226190D01*
X20260714Y5321428D01*
X19927380Y4035714D02*
X19403571Y4035714D01*
X19308333Y4083333D01*
X19260714Y4178571D01*
X19260714Y4369047D01*
X19308333Y4464285D01*
X19879761Y4035714D02*
X19927380Y4130952D01*
X19927380Y4369047D01*
X19879761Y4464285D01*
X19784523Y4511904D01*
X19689285Y4511904D01*
X19594047Y4464285D01*
X19546428Y4369047D01*
X19546428Y4130952D01*
X19498809Y4035714D01*
X19260714Y3559523D02*
X19927380Y3559523D01*
X19355952Y3559523D02*
X19308333Y3511904D01*
X19260714Y3416666D01*
X19260714Y3273809D01*
X19308333Y3178571D01*
X19403571Y3130952D01*
X19927380Y3130952D01*
X19927380Y1892857D02*
X18927380Y1892857D01*
X19641666Y1559523D01*
X18927380Y1226190D01*
X19927380Y1226190D01*
X19927380Y607142D02*
X19879761Y702380D01*
X19832142Y750000D01*
X19736904Y797619D01*
X19451190Y797619D01*
X19355952Y750000D01*
X19308333Y702380D01*
X19260714Y607142D01*
X19260714Y464285D01*
X19308333Y369047D01*
X19355952Y321428D01*
X19451190Y273809D01*
X19736904Y273809D01*
X19832142Y321428D01*
X19879761Y369047D01*
X19927380Y464285D01*
X19927380Y607142D01*
X19927380Y-154761D02*
X19260714Y-154761D01*
X19451190Y-154761D02*
X19355952Y-202380D01*
X19308333Y-250000D01*
X19260714Y-345238D01*
X19260714Y-440476D01*
X19260714Y-1202380D02*
X20070238Y-1202380D01*
X20165476Y-1154761D01*
X20213095Y-1107142D01*
X20260714Y-1011904D01*
X20260714Y-869047D01*
X20213095Y-773809D01*
X19879761Y-1202380D02*
X19927380Y-1107142D01*
X19927380Y-916666D01*
X19879761Y-821428D01*
X19832142Y-773809D01*
X19736904Y-726190D01*
X19451190Y-726190D01*
X19355952Y-773809D01*
X19308333Y-821428D01*
X19260714Y-916666D01*
X19260714Y-1107142D01*
X19308333Y-1202380D01*
X19879761Y-2059523D02*
X19927380Y-1964285D01*
X19927380Y-1773809D01*
X19879761Y-1678571D01*
X19784523Y-1630952D01*
X19403571Y-1630952D01*
X19308333Y-1678571D01*
X19260714Y-1773809D01*
X19260714Y-1964285D01*
X19308333Y-2059523D01*
X19403571Y-2107142D01*
X19498809Y-2107142D01*
X19594047Y-1630952D01*
X19260714Y-2535714D02*
X19927380Y-2535714D01*
X19355952Y-2535714D02*
X19308333Y-2583333D01*
X19260714Y-2678571D01*
X19260714Y-2821428D01*
X19308333Y-2916666D01*
X19403571Y-2964285D01*
X19927380Y-2964285D01*
X19879761Y-3392857D02*
X19927380Y-3488095D01*
X19927380Y-3678571D01*
X19879761Y-3773809D01*
X19784523Y-3821428D01*
X19736904Y-3821428D01*
X19641666Y-3773809D01*
X19594047Y-3678571D01*
X19594047Y-3535714D01*
X19546428Y-3440476D01*
X19451190Y-3392857D01*
X19403571Y-3392857D01*
X19308333Y-3440476D01*
X19260714Y-3535714D01*
X19260714Y-3678571D01*
X19308333Y-3773809D01*
X19260714Y-4107142D02*
X19260714Y-4488095D01*
X18927380Y-4250000D02*
X19784523Y-4250000D01*
X19879761Y-4297619D01*
X19927380Y-4392857D01*
X19927380Y-4488095D01*
X19879761Y-5202380D02*
X19927380Y-5107142D01*
X19927380Y-4916666D01*
X19879761Y-4821428D01*
X19784523Y-4773809D01*
X19403571Y-4773809D01*
X19308333Y-4821428D01*
X19260714Y-4916666D01*
X19260714Y-5107142D01*
X19308333Y-5202380D01*
X19403571Y-5250000D01*
X19498809Y-5250000D01*
X19594047Y-4773809D01*
X19927380Y-5678571D02*
X19260714Y-5678571D01*
X19451190Y-5678571D02*
X19355952Y-5726190D01*
X19308333Y-5773809D01*
X19260714Y-5869047D01*
X19260714Y-5964285D01*
X19260714Y-6297619D02*
X19927380Y-6297619D01*
X19355952Y-6297619D02*
X19308333Y-6345238D01*
X19260714Y-6440476D01*
X19260714Y-6583333D01*
X19308333Y-6678571D01*
X19403571Y-6726190D01*
X19927380Y-6726190D01*
X20577380Y2035714D02*
X20577380Y2226190D01*
X20625000Y2321428D01*
X20672619Y2369047D01*
X20815476Y2464285D01*
X21005952Y2511904D01*
X21386904Y2511904D01*
X21482142Y2464285D01*
X21529761Y2416666D01*
X21577380Y2321428D01*
X21577380Y2130952D01*
X21529761Y2035714D01*
X21482142Y1988095D01*
X21386904Y1940476D01*
X21148809Y1940476D01*
X21053571Y1988095D01*
X21005952Y2035714D01*
X20958333Y2130952D01*
X20958333Y2321428D01*
X21005952Y2416666D01*
X21053571Y2464285D01*
X21148809Y2511904D01*
X20529761Y797619D02*
X21815476Y1654761D01*
X20577380Y559523D02*
X20577380Y-107142D01*
X21577380Y321428D01*
X20529761Y-1202380D02*
X21815476Y-345238D01*
X20672619Y-1488095D02*
X20625000Y-1535714D01*
X20577380Y-1630952D01*
X20577380Y-1869047D01*
X20625000Y-1964285D01*
X20672619Y-2011904D01*
X20767857Y-2059523D01*
X20863095Y-2059523D01*
X21005952Y-2011904D01*
X21577380Y-1440476D01*
X21577380Y-2059523D01*
X20672619Y-2440476D02*
X20625000Y-2488095D01*
X20577380Y-2583333D01*
X20577380Y-2821428D01*
X20625000Y-2916666D01*
X20672619Y-2964285D01*
X20767857Y-3011904D01*
X20863095Y-3011904D01*
X21005952Y-2964285D01*
X21577380Y-2392857D01*
X21577380Y-3011904D01*
%TO.C,J5*%
X9080000Y-7540000D02*
X-8080000Y-7540000D01*
X9080000Y-10560000D02*
X9080000Y-7540000D01*
X-9080000Y-10560000D02*
X9080000Y-10560000D01*
X-9080000Y-8540000D02*
X-9080000Y-10560000D01*
X-8080000Y-7540000D02*
X-9080000Y-8540000D01*
%TO.C,J3*%
X9080000Y4460000D02*
X-8080000Y4460000D01*
X9080000Y1440000D02*
X9080000Y4460000D01*
X-9080000Y1440000D02*
X9080000Y1440000D01*
X-9080000Y3460000D02*
X-9080000Y1440000D01*
X-8080000Y4460000D02*
X-9080000Y3460000D01*
%TO.C,J1*%
X9080000Y16110000D02*
X-8080000Y16110000D01*
X9080000Y13090000D02*
X9080000Y16110000D01*
X-9080000Y13090000D02*
X9080000Y13090000D01*
X-9080000Y15110000D02*
X-9080000Y13090000D01*
X-8080000Y16110000D02*
X-9080000Y15110000D01*
%TO.C,J6*%
X333333Y-11002380D02*
X333333Y-11716666D01*
X380952Y-11859523D01*
X476190Y-11954761D01*
X619047Y-12002380D01*
X714285Y-12002380D01*
X-571428Y-11002380D02*
X-380952Y-11002380D01*
X-285714Y-11050000D01*
X-238095Y-11097619D01*
X-142857Y-11240476D01*
X-95238Y-11430952D01*
X-95238Y-11811904D01*
X-142857Y-11907142D01*
X-190476Y-11954761D01*
X-285714Y-12002380D01*
X-476190Y-12002380D01*
X-571428Y-11954761D01*
X-619047Y-11907142D01*
X-666666Y-11811904D01*
X-666666Y-11573809D01*
X-619047Y-11478571D01*
X-571428Y-11430952D01*
X-476190Y-11383333D01*
X-285714Y-11383333D01*
X-190476Y-11430952D01*
X-142857Y-11478571D01*
X-95238Y-11573809D01*
X-7905714Y-17442380D02*
X-7334285Y-17442380D01*
X-7619999Y-17442380D02*
X-7619999Y-16442380D01*
X-7524761Y-16585238D01*
X-7429523Y-16680476D01*
X-7334285Y-16728095D01*
%TO.C,J4*%
X433333Y397619D02*
X433333Y-316666D01*
X480952Y-459523D01*
X576190Y-554761D01*
X719047Y-602380D01*
X814285Y-602380D01*
X-471428Y64285D02*
X-471428Y-602380D01*
X-233333Y445238D02*
X4761Y-269047D01*
X-614285Y-269047D01*
X-7905714Y-5442380D02*
X-7334285Y-5442380D01*
X-7619999Y-5442380D02*
X-7619999Y-4442380D01*
X-7524761Y-4585238D01*
X-7429523Y-4680476D01*
X-7334285Y-4728095D01*
%TO.C,J2*%
X483333Y12347619D02*
X483333Y11633333D01*
X530952Y11490476D01*
X626190Y11395238D01*
X769047Y11347619D01*
X864285Y11347619D01*
X54761Y12252380D02*
X7142Y12300000D01*
X-88095Y12347619D01*
X-326190Y12347619D01*
X-421428Y12300000D01*
X-469047Y12252380D01*
X-516666Y12157142D01*
X-516666Y12061904D01*
X-469047Y11919047D01*
X102380Y11347619D01*
X-516666Y11347619D01*
X-7905714Y6557619D02*
X-7334285Y6557619D01*
X-7619999Y6557619D02*
X-7619999Y7557619D01*
X-7524761Y7414761D01*
X-7429523Y7319523D01*
X-7334285Y7271904D01*
%TD*%
M02*
