M48
INCH
T1C0.0276
%
G90
G05
T1
X-0.3Y0.5945
X-0.3Y0.3543
X-0.3Y0.1575
X-0.3Y-0.1181
X-0.3Y-0.315
X-0.3Y-0.5906
X-0.2748Y0.5512
X-0.2748Y0.3976
X-0.2748Y0.1142
X-0.2748Y-0.0748
X-0.2748Y-0.3583
X-0.2748Y-0.5472
X-0.25Y0.5945
X-0.25Y0.3543
X-0.25Y0.1575
X-0.25Y-0.1181
X-0.25Y-0.315
X-0.25Y-0.5906
X-0.2248Y0.5512
X-0.2248Y0.3976
X-0.2248Y0.1142
X-0.2248Y-0.0748
X-0.2248Y-0.3583
X-0.2248Y-0.5472
X-0.2Y0.5945
X-0.2Y0.3543
X-0.2Y0.1575
X-0.2Y-0.1181
X-0.2Y-0.315
X-0.2Y-0.5906
X-0.1748Y0.5512
X-0.1748Y0.3976
X-0.1748Y0.1142
X-0.1748Y-0.0748
X-0.1748Y-0.3583
X-0.1748Y-0.5472
X-0.15Y0.5945
X-0.15Y0.3543
X-0.15Y0.1575
X-0.15Y-0.1181
X-0.15Y-0.315
X-0.15Y-0.5906
X-0.1248Y0.5512
X-0.1248Y0.3976
X-0.1248Y0.1142
X-0.1248Y-0.0748
X-0.1248Y-0.3583
X-0.1248Y-0.5472
X-0.1Y0.5945
X-0.1Y0.3543
X-0.1Y0.1575
X-0.1Y-0.1181
X-0.1Y-0.315
X-0.1Y-0.5906
X-0.0748Y0.5512
X-0.0748Y0.3976
X-0.0748Y0.1142
X-0.0748Y-0.0748
X-0.0748Y-0.3583
X-0.0748Y-0.5472
X-0.05Y0.5945
X-0.05Y0.3543
X-0.05Y0.1575
X-0.05Y-0.1181
X-0.05Y-0.315
X-0.05Y-0.5906
X-0.0248Y0.5512
X-0.0248Y0.3976
X-0.0248Y0.1142
X-0.0248Y-0.0748
X-0.0248Y-0.3583
X-0.0248Y-0.5472
X0.0Y0.5945
X0.0Y0.3543
X0.0Y0.1575
X0.0Y-0.1181
X0.0Y-0.315
X0.0Y-0.5906
X0.0252Y0.5512
X0.0252Y0.3976
X0.0252Y0.1142
X0.0252Y-0.0748
X0.0252Y-0.3583
X0.0252Y-0.5472
X0.05Y0.5945
X0.05Y0.3543
X0.05Y0.1575
X0.05Y-0.1181
X0.05Y-0.315
X0.05Y-0.5906
X0.0752Y0.5512
X0.0752Y0.3976
X0.0752Y0.1142
X0.0752Y-0.0748
X0.0752Y-0.3583
X0.0752Y-0.5472
X0.1Y0.5945
X0.1Y0.3543
X0.1Y0.1575
X0.1Y-0.1181
X0.1Y-0.315
X0.1Y-0.5906
X0.1252Y0.5512
X0.1252Y0.3976
X0.1252Y0.1142
X0.1252Y-0.0748
X0.1252Y-0.3583
X0.1252Y-0.5472
X0.15Y0.5945
X0.15Y0.3543
X0.15Y0.1575
X0.15Y-0.1181
X0.15Y-0.315
X0.15Y-0.5906
X0.1752Y0.5512
X0.1752Y0.3976
X0.1752Y0.1142
X0.1752Y-0.0748
X0.1752Y-0.3583
X0.1752Y-0.5472
X0.2Y0.5945
X0.2Y0.3543
X0.2Y0.1575
X0.2Y-0.1181
X0.2Y-0.315
X0.2Y-0.5906
X0.2252Y0.5512
X0.2252Y0.3976
X0.2252Y0.1142
X0.2252Y-0.0748
X0.2252Y-0.3583
X0.2252Y-0.5472
X0.25Y0.5945
X0.25Y0.3543
X0.25Y0.1575
X0.25Y-0.1181
X0.25Y-0.315
X0.25Y-0.5906
X0.2752Y0.5512
X0.2752Y0.3976
X0.2752Y0.1142
X0.2752Y-0.0748
X0.2752Y-0.3583
X0.2752Y-0.5472
X0.3Y0.5945
X0.3Y0.3543
X0.3Y0.1575
X0.3Y-0.1181
X0.3Y-0.315
X0.3Y-0.5906
T0
M30
