%TF.GenerationSoftware,KiCad,Pcbnew,(5.1.9)-1*%
%TF.CreationDate,2021-07-07T13:02:54-06:00*%
%TF.ProjectId,Sub-D Micro-D 25 Pin Vacuum FeedThru,5375622d-4420-44d6-9963-726f2d442032,rev?*%
%TF.SameCoordinates,Original*%
%TF.FileFunction,Copper,L2,Bot*%
%TF.FilePolarity,Positive*%
%FSLAX46Y46*%
G04 Gerber Fmt 4.6, Leading zero omitted, Abs format (unit mm)*
G04 Created by KiCad (PCBNEW (5.1.9)-1) date 2021-07-07 13:02:54*
%MOMM*%
%LPD*%
G01*
G04 APERTURE LIST*
%TA.AperFunction,ComponentPad*%
%ADD10O,0.920000X0.920000*%
%TD*%
%TA.AperFunction,Conductor*%
%ADD11C,0.090000*%
%TD*%
G04 APERTURE END LIST*
D10*
%TO.P,J6,13*%
%TO.N,Net-(J5-Pad13)*%
X7620000Y-15000000D03*
%TO.P,J6,25*%
%TO.N,Net-(J5-Pad25)*%
X6985000Y-13900000D03*
%TO.P,J6,12*%
%TO.N,Net-(J5-Pad12)*%
X6350000Y-15000000D03*
%TO.P,J6,24*%
%TO.N,Net-(J5-Pad24)*%
X5715000Y-13900000D03*
%TO.P,J6,11*%
%TO.N,Net-(J5-Pad11)*%
X5080000Y-15000000D03*
%TO.P,J6,23*%
%TO.N,Net-(J5-Pad23)*%
X4445000Y-13900000D03*
%TO.P,J6,10*%
%TO.N,Net-(J5-Pad10)*%
X3810000Y-15000000D03*
%TO.P,J6,22*%
%TO.N,Net-(J5-Pad22)*%
X3175000Y-13900000D03*
%TO.P,J6,9*%
%TO.N,Net-(J5-Pad9)*%
X2540000Y-15000000D03*
%TO.P,J6,21*%
%TO.N,Net-(J5-Pad21)*%
X1905000Y-13900000D03*
%TO.P,J6,8*%
%TO.N,Net-(J5-Pad8)*%
X1270000Y-15000000D03*
%TO.P,J6,20*%
%TO.N,Net-(J5-Pad20)*%
X635000Y-13900000D03*
%TO.P,J6,7*%
%TO.N,Net-(J5-Pad7)*%
X0Y-15000000D03*
%TO.P,J6,19*%
%TO.N,Net-(J5-Pad19)*%
X-635000Y-13900000D03*
%TO.P,J6,6*%
%TO.N,Net-(J5-Pad6)*%
X-1270000Y-15000000D03*
%TO.P,J6,18*%
%TO.N,Net-(J5-Pad18)*%
X-1905000Y-13900000D03*
%TO.P,J6,5*%
%TO.N,Net-(J5-Pad5)*%
X-2540000Y-15000000D03*
%TO.P,J6,17*%
%TO.N,Net-(J5-Pad17)*%
X-3175000Y-13900000D03*
%TO.P,J6,4*%
%TO.N,Net-(J5-Pad4)*%
X-3810000Y-15000000D03*
%TO.P,J6,16*%
%TO.N,Net-(J5-Pad16)*%
X-4445000Y-13900000D03*
%TO.P,J6,3*%
%TO.N,Net-(J5-Pad3)*%
X-5080000Y-15000000D03*
%TO.P,J6,15*%
%TO.N,Net-(J5-Pad15)*%
X-5715000Y-13900000D03*
%TO.P,J6,2*%
%TO.N,Net-(J5-Pad2)*%
X-6350000Y-15000000D03*
%TO.P,J6,14*%
%TO.N,Net-(J5-Pad14)*%
X-6985000Y-13900000D03*
%TO.P,J6,1*%
%TO.N,Net-(J5-Pad1)*%
X-7620000Y-15000000D03*
%TD*%
%TO.P,J5,13*%
%TO.N,Net-(J5-Pad13)*%
X7620000Y-8500000D03*
%TO.P,J5,25*%
%TO.N,Net-(J5-Pad25)*%
X6985000Y-9600000D03*
%TO.P,J5,12*%
%TO.N,Net-(J5-Pad12)*%
X6350000Y-8500000D03*
%TO.P,J5,24*%
%TO.N,Net-(J5-Pad24)*%
X5715000Y-9600000D03*
%TO.P,J5,11*%
%TO.N,Net-(J5-Pad11)*%
X5080000Y-8500000D03*
%TO.P,J5,23*%
%TO.N,Net-(J5-Pad23)*%
X4445000Y-9600000D03*
%TO.P,J5,10*%
%TO.N,Net-(J5-Pad10)*%
X3810000Y-8500000D03*
%TO.P,J5,22*%
%TO.N,Net-(J5-Pad22)*%
X3175000Y-9600000D03*
%TO.P,J5,9*%
%TO.N,Net-(J5-Pad9)*%
X2540000Y-8500000D03*
%TO.P,J5,21*%
%TO.N,Net-(J5-Pad21)*%
X1905000Y-9600000D03*
%TO.P,J5,8*%
%TO.N,Net-(J5-Pad8)*%
X1270000Y-8500000D03*
%TO.P,J5,20*%
%TO.N,Net-(J5-Pad20)*%
X635000Y-9600000D03*
%TO.P,J5,7*%
%TO.N,Net-(J5-Pad7)*%
X0Y-8500000D03*
%TO.P,J5,19*%
%TO.N,Net-(J5-Pad19)*%
X-635000Y-9600000D03*
%TO.P,J5,6*%
%TO.N,Net-(J5-Pad6)*%
X-1270000Y-8500000D03*
%TO.P,J5,18*%
%TO.N,Net-(J5-Pad18)*%
X-1905000Y-9600000D03*
%TO.P,J5,5*%
%TO.N,Net-(J5-Pad5)*%
X-2540000Y-8500000D03*
%TO.P,J5,17*%
%TO.N,Net-(J5-Pad17)*%
X-3175000Y-9600000D03*
%TO.P,J5,4*%
%TO.N,Net-(J5-Pad4)*%
X-3810000Y-8500000D03*
%TO.P,J5,16*%
%TO.N,Net-(J5-Pad16)*%
X-4445000Y-9600000D03*
%TO.P,J5,3*%
%TO.N,Net-(J5-Pad3)*%
X-5080000Y-8500000D03*
%TO.P,J5,15*%
%TO.N,Net-(J5-Pad15)*%
X-5715000Y-9600000D03*
%TO.P,J5,2*%
%TO.N,Net-(J5-Pad2)*%
X-6350000Y-8500000D03*
%TO.P,J5,14*%
%TO.N,Net-(J5-Pad14)*%
X-6985000Y-9600000D03*
%TO.P,J5,1*%
%TO.N,Net-(J5-Pad1)*%
X-7620000Y-8500000D03*
%TD*%
%TO.P,J4,13*%
%TO.N,Net-(J3-Pad13)*%
X7620000Y-3000000D03*
%TO.P,J4,25*%
%TO.N,Net-(J3-Pad25)*%
X6985000Y-1900000D03*
%TO.P,J4,12*%
%TO.N,Net-(J3-Pad12)*%
X6350000Y-3000000D03*
%TO.P,J4,24*%
%TO.N,Net-(J3-Pad24)*%
X5715000Y-1900000D03*
%TO.P,J4,11*%
%TO.N,Net-(J3-Pad11)*%
X5080000Y-3000000D03*
%TO.P,J4,23*%
%TO.N,Net-(J3-Pad23)*%
X4445000Y-1900000D03*
%TO.P,J4,10*%
%TO.N,Net-(J3-Pad10)*%
X3810000Y-3000000D03*
%TO.P,J4,22*%
%TO.N,Net-(J3-Pad22)*%
X3175000Y-1900000D03*
%TO.P,J4,9*%
%TO.N,Net-(J3-Pad9)*%
X2540000Y-3000000D03*
%TO.P,J4,21*%
%TO.N,Net-(J3-Pad21)*%
X1905000Y-1900000D03*
%TO.P,J4,8*%
%TO.N,Net-(J3-Pad8)*%
X1270000Y-3000000D03*
%TO.P,J4,20*%
%TO.N,Net-(J3-Pad20)*%
X635000Y-1900000D03*
%TO.P,J4,7*%
%TO.N,Net-(J3-Pad7)*%
X0Y-3000000D03*
%TO.P,J4,19*%
%TO.N,Net-(J3-Pad19)*%
X-635000Y-1900000D03*
%TO.P,J4,6*%
%TO.N,Net-(J3-Pad6)*%
X-1270000Y-3000000D03*
%TO.P,J4,18*%
%TO.N,Net-(J3-Pad18)*%
X-1905000Y-1900000D03*
%TO.P,J4,5*%
%TO.N,Net-(J3-Pad5)*%
X-2540000Y-3000000D03*
%TO.P,J4,17*%
%TO.N,Net-(J3-Pad17)*%
X-3175000Y-1900000D03*
%TO.P,J4,4*%
%TO.N,Net-(J3-Pad4)*%
X-3810000Y-3000000D03*
%TO.P,J4,16*%
%TO.N,Net-(J3-Pad16)*%
X-4445000Y-1900000D03*
%TO.P,J4,3*%
%TO.N,Net-(J3-Pad3)*%
X-5080000Y-3000000D03*
%TO.P,J4,15*%
%TO.N,Net-(J3-Pad15)*%
X-5715000Y-1900000D03*
%TO.P,J4,2*%
%TO.N,Net-(J3-Pad2)*%
X-6350000Y-3000000D03*
%TO.P,J4,14*%
%TO.N,Net-(J3-Pad14)*%
X-6985000Y-1900000D03*
%TO.P,J4,1*%
%TO.N,Net-(J3-Pad1)*%
X-7620000Y-3000000D03*
%TD*%
%TO.P,J3,13*%
%TO.N,Net-(J3-Pad13)*%
X7620000Y3500000D03*
%TO.P,J3,25*%
%TO.N,Net-(J3-Pad25)*%
X6985000Y2400000D03*
%TO.P,J3,12*%
%TO.N,Net-(J3-Pad12)*%
X6350000Y3500000D03*
%TO.P,J3,24*%
%TO.N,Net-(J3-Pad24)*%
X5715000Y2400000D03*
%TO.P,J3,11*%
%TO.N,Net-(J3-Pad11)*%
X5080000Y3500000D03*
%TO.P,J3,23*%
%TO.N,Net-(J3-Pad23)*%
X4445000Y2400000D03*
%TO.P,J3,10*%
%TO.N,Net-(J3-Pad10)*%
X3810000Y3500000D03*
%TO.P,J3,22*%
%TO.N,Net-(J3-Pad22)*%
X3175000Y2400000D03*
%TO.P,J3,9*%
%TO.N,Net-(J3-Pad9)*%
X2540000Y3500000D03*
%TO.P,J3,21*%
%TO.N,Net-(J3-Pad21)*%
X1905000Y2400000D03*
%TO.P,J3,8*%
%TO.N,Net-(J3-Pad8)*%
X1270000Y3500000D03*
%TO.P,J3,20*%
%TO.N,Net-(J3-Pad20)*%
X635000Y2400000D03*
%TO.P,J3,7*%
%TO.N,Net-(J3-Pad7)*%
X0Y3500000D03*
%TO.P,J3,19*%
%TO.N,Net-(J3-Pad19)*%
X-635000Y2400000D03*
%TO.P,J3,6*%
%TO.N,Net-(J3-Pad6)*%
X-1270000Y3500000D03*
%TO.P,J3,18*%
%TO.N,Net-(J3-Pad18)*%
X-1905000Y2400000D03*
%TO.P,J3,5*%
%TO.N,Net-(J3-Pad5)*%
X-2540000Y3500000D03*
%TO.P,J3,17*%
%TO.N,Net-(J3-Pad17)*%
X-3175000Y2400000D03*
%TO.P,J3,4*%
%TO.N,Net-(J3-Pad4)*%
X-3810000Y3500000D03*
%TO.P,J3,16*%
%TO.N,Net-(J3-Pad16)*%
X-4445000Y2400000D03*
%TO.P,J3,3*%
%TO.N,Net-(J3-Pad3)*%
X-5080000Y3500000D03*
%TO.P,J3,15*%
%TO.N,Net-(J3-Pad15)*%
X-5715000Y2400000D03*
%TO.P,J3,2*%
%TO.N,Net-(J3-Pad2)*%
X-6350000Y3500000D03*
%TO.P,J3,14*%
%TO.N,Net-(J3-Pad14)*%
X-6985000Y2400000D03*
%TO.P,J3,1*%
%TO.N,Net-(J3-Pad1)*%
X-7620000Y3500000D03*
%TD*%
%TO.P,J2,13*%
%TO.N,Net-(J1-Pad13)*%
X7620000Y9000000D03*
%TO.P,J2,25*%
%TO.N,Net-(J1-Pad25)*%
X6985000Y10100000D03*
%TO.P,J2,12*%
%TO.N,Net-(J1-Pad12)*%
X6350000Y9000000D03*
%TO.P,J2,24*%
%TO.N,Net-(J1-Pad24)*%
X5715000Y10100000D03*
%TO.P,J2,11*%
%TO.N,Net-(J1-Pad11)*%
X5080000Y9000000D03*
%TO.P,J2,23*%
%TO.N,Net-(J1-Pad23)*%
X4445000Y10100000D03*
%TO.P,J2,10*%
%TO.N,Net-(J1-Pad10)*%
X3810000Y9000000D03*
%TO.P,J2,22*%
%TO.N,Net-(J1-Pad22)*%
X3175000Y10100000D03*
%TO.P,J2,9*%
%TO.N,Net-(J1-Pad9)*%
X2540000Y9000000D03*
%TO.P,J2,21*%
%TO.N,Net-(J1-Pad21)*%
X1905000Y10100000D03*
%TO.P,J2,8*%
%TO.N,Net-(J1-Pad8)*%
X1270000Y9000000D03*
%TO.P,J2,20*%
%TO.N,Net-(J1-Pad20)*%
X635000Y10100000D03*
%TO.P,J2,7*%
%TO.N,Net-(J1-Pad7)*%
X0Y9000000D03*
%TO.P,J2,19*%
%TO.N,Net-(J1-Pad19)*%
X-635000Y10100000D03*
%TO.P,J2,6*%
%TO.N,Net-(J1-Pad6)*%
X-1270000Y9000000D03*
%TO.P,J2,18*%
%TO.N,Net-(J1-Pad18)*%
X-1905000Y10100000D03*
%TO.P,J2,5*%
%TO.N,Net-(J1-Pad5)*%
X-2540000Y9000000D03*
%TO.P,J2,17*%
%TO.N,Net-(J1-Pad17)*%
X-3175000Y10100000D03*
%TO.P,J2,4*%
%TO.N,Net-(J1-Pad4)*%
X-3810000Y9000000D03*
%TO.P,J2,16*%
%TO.N,Net-(J1-Pad16)*%
X-4445000Y10100000D03*
%TO.P,J2,3*%
%TO.N,Net-(J1-Pad3)*%
X-5080000Y9000000D03*
%TO.P,J2,15*%
%TO.N,Net-(J1-Pad15)*%
X-5715000Y10100000D03*
%TO.P,J2,2*%
%TO.N,Net-(J1-Pad2)*%
X-6350000Y9000000D03*
%TO.P,J2,14*%
%TO.N,Net-(J1-Pad14)*%
X-6985000Y10100000D03*
%TO.P,J2,1*%
%TO.N,Net-(J1-Pad1)*%
X-7620000Y9000000D03*
%TD*%
%TO.P,J1,13*%
%TO.N,Net-(J1-Pad13)*%
X7620000Y15500000D03*
%TO.P,J1,25*%
%TO.N,Net-(J1-Pad25)*%
X6985000Y14400000D03*
%TO.P,J1,12*%
%TO.N,Net-(J1-Pad12)*%
X6350000Y15500000D03*
%TO.P,J1,24*%
%TO.N,Net-(J1-Pad24)*%
X5715000Y14400000D03*
%TO.P,J1,11*%
%TO.N,Net-(J1-Pad11)*%
X5080000Y15500000D03*
%TO.P,J1,23*%
%TO.N,Net-(J1-Pad23)*%
X4445000Y14400000D03*
%TO.P,J1,10*%
%TO.N,Net-(J1-Pad10)*%
X3810000Y15500000D03*
%TO.P,J1,22*%
%TO.N,Net-(J1-Pad22)*%
X3175000Y14400000D03*
%TO.P,J1,9*%
%TO.N,Net-(J1-Pad9)*%
X2540000Y15500000D03*
%TO.P,J1,21*%
%TO.N,Net-(J1-Pad21)*%
X1905000Y14400000D03*
%TO.P,J1,8*%
%TO.N,Net-(J1-Pad8)*%
X1270000Y15500000D03*
%TO.P,J1,20*%
%TO.N,Net-(J1-Pad20)*%
X635000Y14400000D03*
%TO.P,J1,7*%
%TO.N,Net-(J1-Pad7)*%
X0Y15500000D03*
%TO.P,J1,19*%
%TO.N,Net-(J1-Pad19)*%
X-635000Y14400000D03*
%TO.P,J1,6*%
%TO.N,Net-(J1-Pad6)*%
X-1270000Y15500000D03*
%TO.P,J1,18*%
%TO.N,Net-(J1-Pad18)*%
X-1905000Y14400000D03*
%TO.P,J1,5*%
%TO.N,Net-(J1-Pad5)*%
X-2540000Y15500000D03*
%TO.P,J1,17*%
%TO.N,Net-(J1-Pad17)*%
X-3175000Y14400000D03*
%TO.P,J1,4*%
%TO.N,Net-(J1-Pad4)*%
X-3810000Y15500000D03*
%TO.P,J1,16*%
%TO.N,Net-(J1-Pad16)*%
X-4445000Y14400000D03*
%TO.P,J1,3*%
%TO.N,Net-(J1-Pad3)*%
X-5080000Y15500000D03*
%TO.P,J1,15*%
%TO.N,Net-(J1-Pad15)*%
X-5715000Y14400000D03*
%TO.P,J1,2*%
%TO.N,Net-(J1-Pad2)*%
X-6350000Y15500000D03*
%TO.P,J1,14*%
%TO.N,Net-(J1-Pad14)*%
X-6985000Y14400000D03*
%TO.P,J1,1*%
%TO.N,Net-(J1-Pad1)*%
X-7620000Y15500000D03*
%TD*%
D11*
%TO.N,Net-(J1-Pad25)*%
X6990000Y14400000D02*
X6990000Y13120000D01*
X6990000Y13620000D02*
X6990000Y10100000D01*
X6990000Y14000000D02*
X6990000Y13620000D01*
%TO.N,Net-(J1-Pad24)*%
X5720000Y14400000D02*
X5720000Y12750000D01*
X5720000Y13250000D02*
X5720000Y10100000D01*
X5720000Y14000000D02*
X5720000Y13250000D01*
%TO.N,Net-(J1-Pad23)*%
X4450000Y14400000D02*
X4450000Y12770000D01*
X4450000Y13270000D02*
X4450000Y10100000D01*
X4450000Y14000000D02*
X4450000Y13270000D01*
%TO.N,Net-(J1-Pad22)*%
X3180000Y14400000D02*
X3180000Y12730000D01*
X3180000Y13230000D02*
X3180000Y10100000D01*
X3180000Y14000000D02*
X3180000Y13230000D01*
%TO.N,Net-(J1-Pad21)*%
X1910000Y14400000D02*
X1910000Y12750000D01*
X1910000Y13250000D02*
X1910000Y10100000D01*
X1910000Y14000000D02*
X1910000Y13250000D01*
%TO.N,Net-(J1-Pad20)*%
X640000Y14400000D02*
X640000Y12740000D01*
X640000Y13240000D02*
X640000Y10100000D01*
X640000Y14000000D02*
X640000Y13240000D01*
%TO.N,Net-(J1-Pad19)*%
X-630000Y14400000D02*
X-630000Y12800000D01*
X-630000Y13300000D02*
X-630000Y10100000D01*
X-630000Y14000000D02*
X-630000Y13300000D01*
%TO.N,Net-(J1-Pad18)*%
X-1900000Y14400000D02*
X-1900000Y12840000D01*
X-1900000Y13340000D02*
X-1900000Y10100000D01*
X-1900000Y14000000D02*
X-1900000Y13340000D01*
%TO.N,Net-(J1-Pad17)*%
X-3170000Y14400000D02*
X-3170000Y12800000D01*
X-3170000Y13300000D02*
X-3170000Y10100000D01*
X-3170000Y14000000D02*
X-3170000Y13300000D01*
%TO.N,Net-(J1-Pad16)*%
X-4440000Y14400000D02*
X-4440000Y12680000D01*
X-4440000Y13180000D02*
X-4440000Y10100000D01*
X-4440000Y14000000D02*
X-4440000Y13180000D01*
%TO.N,Net-(J1-Pad15)*%
X-5710000Y14400000D02*
X-5710000Y12350000D01*
X-5710000Y12850000D02*
X-5710000Y10100000D01*
X-5710000Y14000000D02*
X-5710000Y12850000D01*
%TO.N,Net-(J1-Pad14)*%
X-6980000Y14400000D02*
X-6980000Y12190000D01*
X-6980000Y12690000D02*
X-6980000Y10100000D01*
X-6980000Y14000000D02*
X-6980000Y12690000D01*
%TO.N,Net-(J3-Pad25)*%
X6990000Y2400000D02*
X6990000Y-2400000D01*
%TO.N,Net-(J3-Pad24)*%
X5720000Y2400000D02*
X5720000Y-2400000D01*
%TO.N,Net-(J3-Pad23)*%
X4450000Y2400000D02*
X4450000Y-2400000D01*
%TO.N,Net-(J3-Pad22)*%
X3180000Y2400000D02*
X3180000Y-2400000D01*
%TO.N,Net-(J3-Pad21)*%
X1910000Y2400000D02*
X1910000Y-2400000D01*
%TO.N,Net-(J3-Pad20)*%
X640000Y2400000D02*
X640000Y-2400000D01*
%TO.N,Net-(J3-Pad19)*%
X-630000Y2400000D02*
X-630000Y-2400000D01*
%TO.N,Net-(J3-Pad18)*%
X-1900000Y2400000D02*
X-1900000Y-2400000D01*
%TO.N,Net-(J3-Pad17)*%
X-3170000Y2400000D02*
X-3170000Y-2400000D01*
%TO.N,Net-(J3-Pad16)*%
X-4440000Y2400000D02*
X-4440000Y-2400000D01*
%TO.N,Net-(J3-Pad15)*%
X-5710000Y2400000D02*
X-5710000Y-2400000D01*
%TO.N,Net-(J3-Pad14)*%
X-6980000Y2400000D02*
X-6980000Y-2400000D01*
%TO.N,Net-(J5-Pad25)*%
X6990000Y-9200000D02*
X6990000Y-14000000D01*
%TO.N,Net-(J5-Pad24)*%
X5720000Y-14000000D02*
X5720000Y-9200000D01*
%TO.N,Net-(J5-Pad23)*%
X4450000Y-9200000D02*
X4450000Y-14000000D01*
%TO.N,Net-(J5-Pad22)*%
X3180000Y-14000000D02*
X3180000Y-9200000D01*
%TO.N,Net-(J5-Pad21)*%
X1910000Y-9200000D02*
X1910000Y-14000000D01*
%TO.N,Net-(J5-Pad20)*%
X640000Y-9200000D02*
X640000Y-14000000D01*
%TO.N,Net-(J5-Pad19)*%
X-630000Y-9100000D02*
X-630000Y-13900000D01*
%TO.N,Net-(J5-Pad18)*%
X-1900000Y-9100000D02*
X-1900000Y-13900000D01*
%TO.N,Net-(J5-Pad17)*%
X-3170000Y-9100000D02*
X-3170000Y-13900000D01*
%TO.N,Net-(J5-Pad16)*%
X-4440000Y-9100000D02*
X-4440000Y-13900000D01*
%TO.N,Net-(J5-Pad15)*%
X-5710000Y-9200000D02*
X-5710000Y-14000000D01*
%TO.N,Net-(J5-Pad14)*%
X-6980000Y-9200000D02*
X-6980000Y-14000000D01*
%TD*%
M02*
