G04 #@! TF.GenerationSoftware,KiCad,Pcbnew,(6.0.6)*
G04 #@! TF.CreationDate,2023-01-18T13:06:51-07:00*
G04 #@! TF.ProjectId,Double_MicroD_25_Gateway,446f7562-6c65-45f4-9d69-63726f445f32,rev?*
G04 #@! TF.SameCoordinates,Original*
G04 #@! TF.FileFunction,Legend,Top*
G04 #@! TF.FilePolarity,Positive*
%FSLAX46Y46*%
G04 Gerber Fmt 4.6, Leading zero omitted, Abs format (unit mm)*
G04 Created by KiCad (PCBNEW (6.0.6)) date 2023-01-18 13:06:51*
%MOMM*%
%LPD*%
G01*
G04 APERTURE LIST*
%ADD10C,0.125000*%
%ADD11C,0.150000*%
%ADD12C,1.600000*%
%ADD13O,0.920000X0.920000*%
%ADD14C,2.800000*%
G04 APERTURE END LIST*
D10*
X10978571Y-1204166D02*
X10740476Y-1204166D01*
X11026190Y-1061309D02*
X10859523Y-1561309D01*
X10692857Y-1061309D01*
X10526190Y-1061309D02*
X10526190Y-1394642D01*
X10526190Y-1347023D02*
X10502380Y-1370833D01*
X10454761Y-1394642D01*
X10383333Y-1394642D01*
X10335714Y-1370833D01*
X10311904Y-1323214D01*
X10311904Y-1061309D01*
X10311904Y-1323214D02*
X10288095Y-1370833D01*
X10240476Y-1394642D01*
X10169047Y-1394642D01*
X10121428Y-1370833D01*
X10097619Y-1323214D01*
X10097619Y-1061309D01*
X9859523Y-1061309D02*
X9859523Y-1561309D01*
X9859523Y-1370833D02*
X9811904Y-1394642D01*
X9716666Y-1394642D01*
X9669047Y-1370833D01*
X9645238Y-1347023D01*
X9621428Y-1299404D01*
X9621428Y-1156547D01*
X9645238Y-1108928D01*
X9669047Y-1085119D01*
X9716666Y-1061309D01*
X9811904Y-1061309D01*
X9859523Y-1085119D01*
X9407142Y-1061309D02*
X9407142Y-1394642D01*
X9407142Y-1561309D02*
X9430952Y-1537500D01*
X9407142Y-1513690D01*
X9383333Y-1537500D01*
X9407142Y-1561309D01*
X9407142Y-1513690D01*
X8978571Y-1085119D02*
X9026190Y-1061309D01*
X9121428Y-1061309D01*
X9169047Y-1085119D01*
X9192857Y-1132738D01*
X9192857Y-1323214D01*
X9169047Y-1370833D01*
X9121428Y-1394642D01*
X9026190Y-1394642D01*
X8978571Y-1370833D01*
X8954761Y-1323214D01*
X8954761Y-1275595D01*
X9192857Y-1227976D01*
X8740476Y-1394642D02*
X8740476Y-1061309D01*
X8740476Y-1347023D02*
X8716666Y-1370833D01*
X8669047Y-1394642D01*
X8597619Y-1394642D01*
X8550000Y-1370833D01*
X8526190Y-1323214D01*
X8526190Y-1061309D01*
X8359523Y-1394642D02*
X8169047Y-1394642D01*
X8288095Y-1561309D02*
X8288095Y-1132738D01*
X8264285Y-1085119D01*
X8216666Y-1061309D01*
X8169047Y-1061309D01*
X7621428Y-1061309D02*
X7621428Y-1561309D01*
X7430952Y-1561309D01*
X7383333Y-1537500D01*
X7359523Y-1513690D01*
X7335714Y-1466071D01*
X7335714Y-1394642D01*
X7359523Y-1347023D01*
X7383333Y-1323214D01*
X7430952Y-1299404D01*
X7621428Y-1299404D01*
X7121428Y-1061309D02*
X7121428Y-1394642D01*
X7121428Y-1299404D02*
X7097619Y-1347023D01*
X7073809Y-1370833D01*
X7026190Y-1394642D01*
X6978571Y-1394642D01*
X6621428Y-1085119D02*
X6669047Y-1061309D01*
X6764285Y-1061309D01*
X6811904Y-1085119D01*
X6835714Y-1132738D01*
X6835714Y-1323214D01*
X6811904Y-1370833D01*
X6764285Y-1394642D01*
X6669047Y-1394642D01*
X6621428Y-1370833D01*
X6597619Y-1323214D01*
X6597619Y-1275595D01*
X6835714Y-1227976D01*
X6407142Y-1085119D02*
X6359523Y-1061309D01*
X6264285Y-1061309D01*
X6216666Y-1085119D01*
X6192857Y-1132738D01*
X6192857Y-1156547D01*
X6216666Y-1204166D01*
X6264285Y-1227976D01*
X6335714Y-1227976D01*
X6383333Y-1251785D01*
X6407142Y-1299404D01*
X6407142Y-1323214D01*
X6383333Y-1370833D01*
X6335714Y-1394642D01*
X6264285Y-1394642D01*
X6216666Y-1370833D01*
X6002380Y-1085119D02*
X5954761Y-1061309D01*
X5859523Y-1061309D01*
X5811904Y-1085119D01*
X5788095Y-1132738D01*
X5788095Y-1156547D01*
X5811904Y-1204166D01*
X5859523Y-1227976D01*
X5930952Y-1227976D01*
X5978571Y-1251785D01*
X6002380Y-1299404D01*
X6002380Y-1323214D01*
X5978571Y-1370833D01*
X5930952Y-1394642D01*
X5859523Y-1394642D01*
X5811904Y-1370833D01*
X5359523Y-1394642D02*
X5359523Y-1061309D01*
X5573809Y-1394642D02*
X5573809Y-1132738D01*
X5549999Y-1085119D01*
X5502380Y-1061309D01*
X5430952Y-1061309D01*
X5383333Y-1085119D01*
X5359523Y-1108928D01*
X5121428Y-1061309D02*
X5121428Y-1394642D01*
X5121428Y-1299404D02*
X5097619Y-1347023D01*
X5073809Y-1370833D01*
X5026190Y-1394642D01*
X4978571Y-1394642D01*
X4621428Y-1085119D02*
X4669047Y-1061309D01*
X4764285Y-1061309D01*
X4811904Y-1085119D01*
X4835714Y-1132738D01*
X4835714Y-1323214D01*
X4811904Y-1370833D01*
X4764285Y-1394642D01*
X4669047Y-1394642D01*
X4621428Y-1370833D01*
X4597619Y-1323214D01*
X4597619Y-1275595D01*
X4835714Y-1227976D01*
X4026190Y-1085119D02*
X3954761Y-1061309D01*
X3835714Y-1061309D01*
X3788095Y-1085119D01*
X3764285Y-1108928D01*
X3740476Y-1156547D01*
X3740476Y-1204166D01*
X3764285Y-1251785D01*
X3788095Y-1275595D01*
X3835714Y-1299404D01*
X3930952Y-1323214D01*
X3978571Y-1347023D01*
X4002380Y-1370833D01*
X4026190Y-1418452D01*
X4026190Y-1466071D01*
X4002380Y-1513690D01*
X3978571Y-1537499D01*
X3930952Y-1561309D01*
X3811904Y-1561309D01*
X3740476Y-1537499D01*
X3526190Y-1061309D02*
X3526190Y-1394642D01*
X3526190Y-1561309D02*
X3550000Y-1537499D01*
X3526190Y-1513690D01*
X3502380Y-1537499D01*
X3526190Y-1561309D01*
X3526190Y-1513690D01*
X3073809Y-1061309D02*
X3073809Y-1561309D01*
X3073809Y-1085119D02*
X3121428Y-1061309D01*
X3216666Y-1061309D01*
X3264285Y-1085119D01*
X3288095Y-1108928D01*
X3311904Y-1156547D01*
X3311904Y-1299404D01*
X3288095Y-1347023D01*
X3264285Y-1370833D01*
X3216666Y-1394642D01*
X3121428Y-1394642D01*
X3073809Y-1370833D01*
X2645238Y-1085119D02*
X2692857Y-1061309D01*
X2788095Y-1061309D01*
X2835714Y-1085119D01*
X2859523Y-1132738D01*
X2859523Y-1323214D01*
X2835714Y-1370833D01*
X2788095Y-1394642D01*
X2692857Y-1394642D01*
X2645238Y-1370833D01*
X2621428Y-1323214D01*
X2621428Y-1275595D01*
X2859523Y-1227976D01*
X16383333Y-256309D02*
X16383333Y-756309D01*
X16216666Y-399166D01*
X16050000Y-756309D01*
X16050000Y-256309D01*
X15811904Y-256309D02*
X15811904Y-589642D01*
X15811904Y-756309D02*
X15835714Y-732500D01*
X15811904Y-708690D01*
X15788095Y-732500D01*
X15811904Y-756309D01*
X15811904Y-708690D01*
X15359523Y-280119D02*
X15407142Y-256309D01*
X15502380Y-256309D01*
X15550000Y-280119D01*
X15573809Y-303928D01*
X15597619Y-351547D01*
X15597619Y-494404D01*
X15573809Y-542023D01*
X15550000Y-565833D01*
X15502380Y-589642D01*
X15407142Y-589642D01*
X15359523Y-565833D01*
X15145238Y-256309D02*
X15145238Y-589642D01*
X15145238Y-494404D02*
X15121428Y-542023D01*
X15097619Y-565833D01*
X15050000Y-589642D01*
X15002380Y-589642D01*
X14764285Y-256309D02*
X14811904Y-280119D01*
X14835714Y-303928D01*
X14859523Y-351547D01*
X14859523Y-494404D01*
X14835714Y-542023D01*
X14811904Y-565833D01*
X14764285Y-589642D01*
X14692857Y-589642D01*
X14645238Y-565833D01*
X14621428Y-542023D01*
X14597619Y-494404D01*
X14597619Y-351547D01*
X14621428Y-303928D01*
X14645238Y-280119D01*
X14692857Y-256309D01*
X14764285Y-256309D01*
X14383333Y-256309D02*
X14383333Y-756309D01*
X14264285Y-756309D01*
X14192857Y-732500D01*
X14145238Y-684880D01*
X14121428Y-637261D01*
X14097619Y-542023D01*
X14097619Y-470595D01*
X14121428Y-375357D01*
X14145238Y-327738D01*
X14192857Y-280119D01*
X14264285Y-256309D01*
X14383333Y-256309D01*
X14002380Y-208690D02*
X13621428Y-208690D01*
X13573809Y-756309D02*
X13407142Y-256309D01*
X13240476Y-756309D01*
X12859523Y-256309D02*
X12859523Y-518214D01*
X12883333Y-565833D01*
X12930952Y-589642D01*
X13026190Y-589642D01*
X13073809Y-565833D01*
X12859523Y-280119D02*
X12907142Y-256309D01*
X13026190Y-256309D01*
X13073809Y-280119D01*
X13097619Y-327738D01*
X13097619Y-375357D01*
X13073809Y-422976D01*
X13026190Y-446785D01*
X12907142Y-446785D01*
X12859523Y-470595D01*
X12407142Y-280119D02*
X12454761Y-256309D01*
X12550000Y-256309D01*
X12597619Y-280119D01*
X12621428Y-303928D01*
X12645238Y-351547D01*
X12645238Y-494404D01*
X12621428Y-542023D01*
X12597619Y-565833D01*
X12550000Y-589642D01*
X12454761Y-589642D01*
X12407142Y-565833D01*
X11978571Y-589642D02*
X11978571Y-256309D01*
X12192857Y-589642D02*
X12192857Y-327738D01*
X12169047Y-280119D01*
X12121428Y-256309D01*
X12050000Y-256309D01*
X12002380Y-280119D01*
X11978571Y-303928D01*
X11526190Y-589642D02*
X11526190Y-256309D01*
X11740476Y-589642D02*
X11740476Y-327738D01*
X11716666Y-280119D01*
X11669047Y-256309D01*
X11597619Y-256309D01*
X11550000Y-280119D01*
X11526190Y-303928D01*
X11288095Y-256309D02*
X11288095Y-589642D01*
X11288095Y-542023D02*
X11264285Y-565833D01*
X11216666Y-589642D01*
X11145238Y-589642D01*
X11097619Y-565833D01*
X11073809Y-518214D01*
X11073809Y-256309D01*
X11073809Y-518214D02*
X11050000Y-565833D01*
X11002380Y-589642D01*
X10930952Y-589642D01*
X10883333Y-565833D01*
X10859523Y-518214D01*
X10859523Y-256309D01*
X10740476Y-208690D02*
X10359523Y-208690D01*
X10073809Y-518214D02*
X10240476Y-518214D01*
X10240476Y-256309D02*
X10240476Y-756309D01*
X10002380Y-756309D01*
X9621428Y-280119D02*
X9669047Y-256309D01*
X9764285Y-256309D01*
X9811904Y-280119D01*
X9835714Y-327738D01*
X9835714Y-518214D01*
X9811904Y-565833D01*
X9764285Y-589642D01*
X9669047Y-589642D01*
X9621428Y-565833D01*
X9597619Y-518214D01*
X9597619Y-470595D01*
X9835714Y-422976D01*
X9192857Y-280119D02*
X9240476Y-256309D01*
X9335714Y-256309D01*
X9383333Y-280119D01*
X9407142Y-327738D01*
X9407142Y-518214D01*
X9383333Y-565833D01*
X9335714Y-589642D01*
X9240476Y-589642D01*
X9192857Y-565833D01*
X9169047Y-518214D01*
X9169047Y-470595D01*
X9407142Y-422976D01*
X8740476Y-256309D02*
X8740476Y-756309D01*
X8740476Y-280119D02*
X8788095Y-256309D01*
X8883333Y-256309D01*
X8930952Y-280119D01*
X8954761Y-303928D01*
X8978571Y-351547D01*
X8978571Y-494404D01*
X8954761Y-542023D01*
X8930952Y-565833D01*
X8883333Y-589642D01*
X8788095Y-589642D01*
X8740476Y-565833D01*
X8573809Y-589642D02*
X8383333Y-589642D01*
X8502380Y-756309D02*
X8502380Y-327738D01*
X8478571Y-280119D01*
X8430952Y-256309D01*
X8383333Y-256309D01*
X8216666Y-256309D02*
X8216666Y-756309D01*
X8002380Y-256309D02*
X8002380Y-518214D01*
X8026190Y-565833D01*
X8073809Y-589642D01*
X8145238Y-589642D01*
X8192857Y-565833D01*
X8216666Y-542023D01*
X7764285Y-256309D02*
X7764285Y-589642D01*
X7764285Y-494404D02*
X7740476Y-542023D01*
X7716666Y-565833D01*
X7669047Y-589642D01*
X7621428Y-589642D01*
X7383333Y-256309D02*
X7430952Y-280119D01*
X7454761Y-303928D01*
X7478571Y-351547D01*
X7478571Y-494404D01*
X7454761Y-542023D01*
X7430952Y-565833D01*
X7383333Y-589642D01*
X7311904Y-589642D01*
X7264285Y-565833D01*
X7240476Y-542023D01*
X7216666Y-494404D01*
X7216666Y-351547D01*
X7240476Y-303928D01*
X7264285Y-280119D01*
X7311904Y-256309D01*
X7383333Y-256309D01*
X6788095Y-589642D02*
X6788095Y-256309D01*
X7002380Y-589642D02*
X7002380Y-327738D01*
X6978571Y-280119D01*
X6930952Y-256309D01*
X6859523Y-256309D01*
X6811904Y-280119D01*
X6788095Y-303928D01*
X6335714Y-589642D02*
X6335714Y-184880D01*
X6359523Y-137261D01*
X6383333Y-113452D01*
X6430952Y-89642D01*
X6502380Y-89642D01*
X6550000Y-113452D01*
X6335714Y-280119D02*
X6383333Y-256309D01*
X6478571Y-256309D01*
X6526190Y-280119D01*
X6550000Y-303928D01*
X6573809Y-351547D01*
X6573809Y-494404D01*
X6550000Y-542023D01*
X6526190Y-565833D01*
X6478571Y-589642D01*
X6383333Y-589642D01*
X6335714Y-565833D01*
X6097619Y-256309D02*
X6097619Y-756309D01*
X5883333Y-256309D02*
X5883333Y-518214D01*
X5907142Y-565833D01*
X5954761Y-589642D01*
X6026190Y-589642D01*
X6073809Y-565833D01*
X6097619Y-542023D01*
X5764285Y-208690D02*
X5383333Y-208690D01*
X5264285Y-256309D02*
X5264285Y-756309D01*
X5145238Y-756309D01*
X5073809Y-732499D01*
X5026190Y-684880D01*
X5002380Y-637261D01*
X4978571Y-542023D01*
X4978571Y-470595D01*
X5002380Y-375357D01*
X5026190Y-327738D01*
X5073809Y-280119D01*
X5145238Y-256309D01*
X5264285Y-256309D01*
X4692857Y-256309D02*
X4740476Y-280119D01*
X4764285Y-303928D01*
X4788095Y-351547D01*
X4788095Y-494404D01*
X4764285Y-542023D01*
X4740476Y-565833D01*
X4692857Y-589642D01*
X4621428Y-589642D01*
X4573809Y-565833D01*
X4550000Y-542023D01*
X4526190Y-494404D01*
X4526190Y-351547D01*
X4550000Y-303928D01*
X4573809Y-280119D01*
X4621428Y-256309D01*
X4692857Y-256309D01*
X4097619Y-589642D02*
X4097619Y-256309D01*
X4311904Y-589642D02*
X4311904Y-327738D01*
X4288095Y-280119D01*
X4240476Y-256309D01*
X4169047Y-256309D01*
X4121428Y-280119D01*
X4097619Y-303928D01*
X3859523Y-256309D02*
X3859523Y-756309D01*
X3859523Y-565833D02*
X3811904Y-589642D01*
X3716666Y-589642D01*
X3669047Y-565833D01*
X3645238Y-542023D01*
X3621428Y-494404D01*
X3621428Y-351547D01*
X3645238Y-303928D01*
X3669047Y-280119D01*
X3716666Y-256309D01*
X3811904Y-256309D01*
X3859523Y-280119D01*
X3335714Y-256309D02*
X3383333Y-280119D01*
X3407142Y-327738D01*
X3407142Y-756309D01*
X2954761Y-280119D02*
X3002380Y-256309D01*
X3097619Y-256309D01*
X3145238Y-280119D01*
X3169047Y-327738D01*
X3169047Y-518214D01*
X3145238Y-565833D01*
X3097619Y-589642D01*
X3002380Y-589642D01*
X2954761Y-565833D01*
X2930952Y-518214D01*
X2930952Y-470595D01*
X3169047Y-422976D01*
X2835714Y-208690D02*
X2454761Y-208690D01*
X2335714Y-256309D02*
X2335714Y-756309D01*
X2288095Y-446785D02*
X2145238Y-256309D01*
X2145238Y-589642D02*
X2335714Y-399166D01*
X2002380Y-589642D02*
X1811904Y-589642D01*
X1930952Y-256309D02*
X1930952Y-684880D01*
X1907142Y-732499D01*
X1859523Y-756309D01*
X1811904Y-756309D01*
X1430952Y-589642D02*
X1430952Y-256309D01*
X1550000Y-780119D02*
X1669047Y-422976D01*
X1359523Y-422976D01*
X1073809Y-756309D02*
X1026190Y-756309D01*
X978571Y-732499D01*
X954761Y-708690D01*
X930952Y-661071D01*
X907142Y-565833D01*
X907142Y-446785D01*
X930952Y-351547D01*
X954761Y-303928D01*
X978571Y-280119D01*
X1026190Y-256309D01*
X1073809Y-256309D01*
X1121428Y-280119D01*
X1145238Y-303928D01*
X1169047Y-351547D01*
X1192857Y-446785D01*
X1192857Y-565833D01*
X1169047Y-661071D01*
X1145238Y-708690D01*
X1121428Y-732499D01*
X1073809Y-756309D01*
X811904Y-208690D02*
X430952Y-208690D01*
X26190Y-256309D02*
X192857Y-494404D01*
X311904Y-256309D02*
X311904Y-756309D01*
X121428Y-756309D01*
X73809Y-732499D01*
X50000Y-708690D01*
X26190Y-661071D01*
X26190Y-589642D01*
X50000Y-542023D01*
X73809Y-518214D01*
X121428Y-494404D01*
X311904Y-494404D01*
X-378571Y-280119D02*
X-330952Y-256309D01*
X-235714Y-256309D01*
X-188095Y-280119D01*
X-164285Y-327738D01*
X-164285Y-518214D01*
X-188095Y-565833D01*
X-235714Y-589642D01*
X-330952Y-589642D01*
X-378571Y-565833D01*
X-402380Y-518214D01*
X-402380Y-470595D01*
X-164285Y-422976D01*
X-569047Y-589642D02*
X-688095Y-256309D01*
X-807142Y-589642D01*
X-1188095Y-280119D02*
X-1140476Y-256309D01*
X-1045238Y-256309D01*
X-997619Y-280119D01*
X-973809Y-327738D01*
X-973809Y-518214D01*
X-997619Y-565833D01*
X-1045238Y-589642D01*
X-1140476Y-589642D01*
X-1188095Y-565833D01*
X-1211904Y-518214D01*
X-1211904Y-470595D01*
X-973809Y-422976D01*
X-1426190Y-256309D02*
X-1426190Y-589642D01*
X-1426190Y-494404D02*
X-1449999Y-542023D01*
X-1473809Y-565833D01*
X-1521428Y-589642D01*
X-1569047Y-589642D01*
X-1711904Y-280119D02*
X-1759523Y-256309D01*
X-1854761Y-256309D01*
X-1902380Y-280119D01*
X-1926190Y-327738D01*
X-1926190Y-351547D01*
X-1902380Y-399166D01*
X-1854761Y-422976D01*
X-1783333Y-422976D01*
X-1735714Y-446785D01*
X-1711904Y-494404D01*
X-1711904Y-518214D01*
X-1735714Y-565833D01*
X-1783333Y-589642D01*
X-1854761Y-589642D01*
X-1902380Y-565833D01*
X-2330952Y-280119D02*
X-2283333Y-256309D01*
X-2188095Y-256309D01*
X-2140476Y-280119D01*
X-2116666Y-327738D01*
X-2116666Y-518214D01*
X-2140476Y-565833D01*
X-2188095Y-589642D01*
X-2283333Y-589642D01*
X-2330952Y-565833D01*
X-2354761Y-518214D01*
X-2354761Y-470595D01*
X-2116666Y-422976D01*
X-2783333Y-256309D02*
X-2783333Y-756309D01*
X-2783333Y-280119D02*
X-2735714Y-256309D01*
X-2640476Y-256309D01*
X-2592857Y-280119D01*
X-2569047Y-303928D01*
X-2545238Y-351547D01*
X-2545238Y-494404D01*
X-2569047Y-542023D01*
X-2592857Y-565833D01*
X-2640476Y-589642D01*
X-2735714Y-589642D01*
X-2783333Y-565833D01*
X9752380Y548690D02*
X9919047Y310595D01*
X10038095Y548690D02*
X10038095Y48690D01*
X9847619Y48690D01*
X9800000Y72499D01*
X9776190Y96309D01*
X9752380Y143928D01*
X9752380Y215357D01*
X9776190Y262976D01*
X9800000Y286785D01*
X9847619Y310595D01*
X10038095Y310595D01*
X9585714Y215357D02*
X9466666Y548690D01*
X9347619Y215357D02*
X9466666Y548690D01*
X9514285Y667738D01*
X9538095Y691547D01*
X9585714Y715357D01*
X8942857Y548690D02*
X8942857Y286785D01*
X8966666Y239166D01*
X9014285Y215357D01*
X9109523Y215357D01*
X9157142Y239166D01*
X8942857Y524880D02*
X8990476Y548690D01*
X9109523Y548690D01*
X9157142Y524880D01*
X9180952Y477261D01*
X9180952Y429642D01*
X9157142Y382023D01*
X9109523Y358214D01*
X8990476Y358214D01*
X8942857Y334404D01*
X8704761Y215357D02*
X8704761Y548690D01*
X8704761Y262976D02*
X8680952Y239166D01*
X8633333Y215357D01*
X8561904Y215357D01*
X8514285Y239166D01*
X8490476Y286785D01*
X8490476Y548690D01*
X7871428Y548690D02*
X7871428Y48690D01*
X7704761Y405833D01*
X7538095Y48690D01*
X7538095Y548690D01*
X7228571Y548690D02*
X7276190Y524880D01*
X7300000Y501071D01*
X7323809Y453452D01*
X7323809Y310595D01*
X7300000Y262976D01*
X7276190Y239166D01*
X7228571Y215357D01*
X7157142Y215357D01*
X7109523Y239166D01*
X7085714Y262976D01*
X7061904Y310595D01*
X7061904Y453452D01*
X7085714Y501071D01*
X7109523Y524880D01*
X7157142Y548690D01*
X7228571Y548690D01*
X6847619Y548690D02*
X6847619Y215357D01*
X6847619Y310595D02*
X6823809Y262976D01*
X6800000Y239166D01*
X6752380Y215357D01*
X6704761Y215357D01*
X6323809Y215357D02*
X6323809Y620119D01*
X6347619Y667738D01*
X6371428Y691547D01*
X6419047Y715357D01*
X6490476Y715357D01*
X6538095Y691547D01*
X6323809Y524880D02*
X6371428Y548690D01*
X6466666Y548690D01*
X6514285Y524880D01*
X6538095Y501071D01*
X6561904Y453452D01*
X6561904Y310595D01*
X6538095Y262976D01*
X6514285Y239166D01*
X6466666Y215357D01*
X6371428Y215357D01*
X6323809Y239166D01*
X5895238Y524880D02*
X5942857Y548690D01*
X6038095Y548690D01*
X6085714Y524880D01*
X6109523Y477261D01*
X6109523Y286785D01*
X6085714Y239166D01*
X6038095Y215357D01*
X5942857Y215357D01*
X5895238Y239166D01*
X5871428Y286785D01*
X5871428Y334404D01*
X6109523Y382023D01*
X5657142Y215357D02*
X5657142Y548690D01*
X5657142Y262976D02*
X5633333Y239166D01*
X5585714Y215357D01*
X5514285Y215357D01*
X5466666Y239166D01*
X5442857Y286785D01*
X5442857Y548690D01*
X5228571Y524880D02*
X5180952Y548690D01*
X5085714Y548690D01*
X5038095Y524880D01*
X5014285Y477261D01*
X5014285Y453452D01*
X5038095Y405833D01*
X5085714Y382023D01*
X5157142Y382023D01*
X5204761Y358214D01*
X5228571Y310595D01*
X5228571Y286785D01*
X5204761Y239166D01*
X5157142Y215357D01*
X5085714Y215357D01*
X5038095Y239166D01*
X4871428Y215357D02*
X4680952Y215357D01*
X4800000Y48690D02*
X4800000Y477261D01*
X4776190Y524880D01*
X4728571Y548690D01*
X4680952Y548690D01*
X4323809Y524880D02*
X4371428Y548690D01*
X4466666Y548690D01*
X4514285Y524880D01*
X4538095Y477261D01*
X4538095Y286785D01*
X4514285Y239166D01*
X4466666Y215357D01*
X4371428Y215357D01*
X4323809Y239166D01*
X4300000Y286785D01*
X4300000Y334404D01*
X4538095Y382023D01*
X4085714Y548690D02*
X4085714Y215357D01*
X4085714Y310595D02*
X4061904Y262976D01*
X4038095Y239166D01*
X3990476Y215357D01*
X3942857Y215357D01*
X3776190Y215357D02*
X3776190Y548690D01*
X3776190Y262976D02*
X3752380Y239166D01*
X3704761Y215357D01*
X3633333Y215357D01*
X3585714Y239166D01*
X3561904Y286785D01*
X3561904Y548690D01*
X8133333Y1353690D02*
X8419047Y1353690D01*
X8276190Y1353690D02*
X8276190Y853690D01*
X8323809Y925119D01*
X8371428Y972738D01*
X8419047Y996547D01*
X7561904Y829880D02*
X7990476Y1472738D01*
X7133333Y1353690D02*
X7419047Y1353690D01*
X7276190Y1353690D02*
X7276190Y853690D01*
X7323809Y925119D01*
X7371428Y972738D01*
X7419047Y996547D01*
X6847619Y1067976D02*
X6895238Y1044166D01*
X6919047Y1020357D01*
X6942857Y972738D01*
X6942857Y948928D01*
X6919047Y901309D01*
X6895238Y877500D01*
X6847619Y853690D01*
X6752380Y853690D01*
X6704761Y877500D01*
X6680952Y901309D01*
X6657142Y948928D01*
X6657142Y972738D01*
X6680952Y1020357D01*
X6704761Y1044166D01*
X6752380Y1067976D01*
X6847619Y1067976D01*
X6895238Y1091785D01*
X6919047Y1115595D01*
X6942857Y1163214D01*
X6942857Y1258452D01*
X6919047Y1306071D01*
X6895238Y1329880D01*
X6847619Y1353690D01*
X6752380Y1353690D01*
X6704761Y1329880D01*
X6680952Y1306071D01*
X6657142Y1258452D01*
X6657142Y1163214D01*
X6680952Y1115595D01*
X6704761Y1091785D01*
X6752380Y1067976D01*
X6085714Y829880D02*
X6514285Y1472738D01*
X5942857Y901309D02*
X5919047Y877500D01*
X5871428Y853690D01*
X5752380Y853690D01*
X5704761Y877500D01*
X5680952Y901309D01*
X5657142Y948928D01*
X5657142Y996547D01*
X5680952Y1067976D01*
X5966666Y1353690D01*
X5657142Y1353690D01*
X5490476Y853690D02*
X5180952Y853690D01*
X5347619Y1044166D01*
X5276190Y1044166D01*
X5228571Y1067976D01*
X5204761Y1091785D01*
X5180952Y1139404D01*
X5180952Y1258452D01*
X5204761Y1306071D01*
X5228571Y1329880D01*
X5276190Y1353690D01*
X5419047Y1353690D01*
X5466666Y1329880D01*
X5490476Y1306071D01*
D11*
X-233333Y2047619D02*
X-233333Y1333333D01*
X-280952Y1190476D01*
X-376190Y1095238D01*
X-519047Y1047619D01*
X-614285Y1047619D01*
X766666Y1047619D02*
X195238Y1047619D01*
X480952Y1047619D02*
X480952Y2047619D01*
X385714Y1904761D01*
X290476Y1809523D01*
X195238Y1761904D01*
X-7334285Y5887619D02*
X-7905714Y5887619D01*
X-7620000Y5887619D02*
X-7620000Y6887619D01*
X-7715238Y6744761D01*
X-7810476Y6649523D01*
X-7905714Y6601904D01*
X-233333Y-5552380D02*
X-233333Y-6266666D01*
X-280952Y-6409523D01*
X-376190Y-6504761D01*
X-519047Y-6552380D01*
X-614285Y-6552380D01*
X147619Y-5552380D02*
X766666Y-5552380D01*
X433333Y-5933333D01*
X576190Y-5933333D01*
X671428Y-5980952D01*
X719047Y-6028571D01*
X766666Y-6123809D01*
X766666Y-6361904D01*
X719047Y-6457142D01*
X671428Y-6504761D01*
X576190Y-6552380D01*
X290476Y-6552380D01*
X195238Y-6504761D01*
X147619Y-6457142D01*
X-7334285Y-1712380D02*
X-7905714Y-1712380D01*
X-7620000Y-1712380D02*
X-7620000Y-712380D01*
X-7715238Y-855238D01*
X-7810476Y-950476D01*
X-7905714Y-998095D01*
X-9080000Y7290000D02*
X-9080000Y10310000D01*
X9080000Y7290000D02*
X-9080000Y7290000D01*
X-9080000Y10310000D02*
X8080000Y10310000D01*
X8080000Y10310000D02*
X9080000Y9310000D01*
X9080000Y9310000D02*
X9080000Y7290000D01*
X-9080000Y-7290000D02*
X8080000Y-7290000D01*
X9080000Y-8290000D02*
X9080000Y-10310000D01*
X9080000Y-10310000D02*
X-9080000Y-10310000D01*
X-9080000Y-10310000D02*
X-9080000Y-7290000D01*
X8080000Y-7290000D02*
X9080000Y-8290000D01*
%LPC*%
D12*
X18000000Y0D02*
G75*
G03*
X18000000Y0I-18000000J0D01*
G01*
D13*
X-7620000Y4350000D03*
X-6350000Y4350000D03*
X-5080000Y4350000D03*
X-3810000Y4350000D03*
X-2540000Y4350000D03*
X-1270000Y4350000D03*
X0Y4350000D03*
X1270000Y4350000D03*
X2540000Y4350000D03*
X3810000Y4350000D03*
X5080000Y4350000D03*
X6350000Y4350000D03*
X7620000Y4350000D03*
X-6985000Y3250000D03*
X-5715000Y3250000D03*
X-4445000Y3250000D03*
X-3175000Y3250000D03*
X-1905000Y3250000D03*
X-635000Y3250000D03*
X635000Y3250000D03*
X1905000Y3250000D03*
X3175000Y3250000D03*
X4445000Y3250000D03*
X5715000Y3250000D03*
X6985000Y3250000D03*
D14*
X-12275000Y3860000D03*
X12275000Y3800000D03*
X-12275000Y-3740000D03*
X12275000Y-3800000D03*
D13*
X6985000Y-4350000D03*
X5715000Y-4350000D03*
X4445000Y-4350000D03*
X3175000Y-4350000D03*
X1905000Y-4350000D03*
X635000Y-4350000D03*
X-635000Y-4350000D03*
X-1905000Y-4350000D03*
X-3175000Y-4350000D03*
X-4445000Y-4350000D03*
X-5715000Y-4350000D03*
X-6985000Y-4350000D03*
X7620000Y-3250000D03*
X6350000Y-3250000D03*
X5080000Y-3250000D03*
X3810000Y-3250000D03*
X2540000Y-3250000D03*
X1270000Y-3250000D03*
X0Y-3250000D03*
X-1270000Y-3250000D03*
X-2540000Y-3250000D03*
X-3810000Y-3250000D03*
X-5080000Y-3250000D03*
X-6350000Y-3250000D03*
X-7620000Y-3250000D03*
X7620000Y9350000D03*
X6350000Y9350000D03*
X5080000Y9350000D03*
X3810000Y9350000D03*
X2540000Y9350000D03*
X1270000Y9350000D03*
X0Y9350000D03*
X-1270000Y9350000D03*
X-2540000Y9350000D03*
X-3810000Y9350000D03*
X-5080000Y9350000D03*
X-6350000Y9350000D03*
X-7620000Y9350000D03*
X6985000Y8250000D03*
X5715000Y8250000D03*
X4445000Y8250000D03*
X3175000Y8250000D03*
X1905000Y8250000D03*
X635000Y8250000D03*
X-635000Y8250000D03*
X-1905000Y8250000D03*
X-3175000Y8250000D03*
X-4445000Y8250000D03*
X-5715000Y8250000D03*
X-6985000Y8250000D03*
X7620000Y-8250000D03*
X6350000Y-8250000D03*
X5080000Y-8250000D03*
X3810000Y-8250000D03*
X2540000Y-8250000D03*
X1270000Y-8250000D03*
X0Y-8250000D03*
X-1270000Y-8250000D03*
X-2540000Y-8250000D03*
X-3810000Y-8250000D03*
X-5080000Y-8250000D03*
X-6350000Y-8250000D03*
X-7620000Y-8250000D03*
X6985000Y-9350000D03*
X5715000Y-9350000D03*
X4445000Y-9350000D03*
X3175000Y-9350000D03*
X1905000Y-9350000D03*
X635000Y-9350000D03*
X-635000Y-9350000D03*
X-1905000Y-9350000D03*
X-3175000Y-9350000D03*
X-4445000Y-9350000D03*
X-5715000Y-9350000D03*
X-6985000Y-9350000D03*
M02*
