G04 #@! TF.GenerationSoftware,KiCad,Pcbnew,(6.0.6)*
G04 #@! TF.CreationDate,2023-01-18T13:06:51-07:00*
G04 #@! TF.ProjectId,Double_MicroD_25_Gateway,446f7562-6c65-45f4-9d69-63726f445f32,rev?*
G04 #@! TF.SameCoordinates,Original*
G04 #@! TF.FileFunction,Copper,L2,Inr*
G04 #@! TF.FilePolarity,Positive*
%FSLAX46Y46*%
G04 Gerber Fmt 4.6, Leading zero omitted, Abs format (unit mm)*
G04 Created by KiCad (PCBNEW (6.0.6)) date 2023-01-18 13:06:51*
%MOMM*%
%LPD*%
G01*
G04 APERTURE LIST*
G04 #@! TA.AperFunction,ComponentPad*
%ADD10O,0.920000X0.920000*%
G04 #@! TD*
G04 #@! TA.AperFunction,ViaPad*
%ADD11C,0.800000*%
G04 #@! TD*
G04 #@! TA.AperFunction,Conductor*
%ADD12C,0.100000*%
G04 #@! TD*
G04 APERTURE END LIST*
D10*
X-7620000Y4350000D03*
X-6350000Y4350000D03*
X-5080000Y4350000D03*
X-3810000Y4350000D03*
X-2540000Y4350000D03*
X-1270000Y4350000D03*
X0Y4350000D03*
X1270000Y4350000D03*
X2540000Y4350000D03*
X3810000Y4350000D03*
X5080000Y4350000D03*
X6350000Y4350000D03*
X7620000Y4350000D03*
X-6985000Y3250000D03*
X-5715000Y3250000D03*
X-4445000Y3250000D03*
X-3175000Y3250000D03*
X-1905000Y3250000D03*
X-635000Y3250000D03*
X635000Y3250000D03*
X1905000Y3250000D03*
X3175000Y3250000D03*
X4445000Y3250000D03*
X5715000Y3250000D03*
X6985000Y3250000D03*
X6985000Y-4350000D03*
X5715000Y-4350000D03*
X4445000Y-4350000D03*
X3175000Y-4350000D03*
X1905000Y-4350000D03*
X635000Y-4350000D03*
X-635000Y-4350000D03*
X-1905000Y-4350000D03*
X-3175000Y-4350000D03*
X-4445000Y-4350000D03*
X-5715000Y-4350000D03*
X-6985000Y-4350000D03*
X7620000Y-3250000D03*
X6350000Y-3250000D03*
X5080000Y-3250000D03*
X3810000Y-3250000D03*
X2540000Y-3250000D03*
X1270000Y-3250000D03*
X0Y-3250000D03*
X-1270000Y-3250000D03*
X-2540000Y-3250000D03*
X-3810000Y-3250000D03*
X-5080000Y-3250000D03*
X-6350000Y-3250000D03*
X-7620000Y-3250000D03*
X7620000Y9350000D03*
X6350000Y9350000D03*
X5080000Y9350000D03*
X3810000Y9350000D03*
X2540000Y9350000D03*
X1270000Y9350000D03*
X0Y9350000D03*
X-1270000Y9350000D03*
X-2540000Y9350000D03*
X-3810000Y9350000D03*
X-5080000Y9350000D03*
X-6350000Y9350000D03*
X-7620000Y9350000D03*
X6985000Y8250000D03*
X5715000Y8250000D03*
X4445000Y8250000D03*
X3175000Y8250000D03*
X1905000Y8250000D03*
X635000Y8250000D03*
X-635000Y8250000D03*
X-1905000Y8250000D03*
X-3175000Y8250000D03*
X-4445000Y8250000D03*
X-5715000Y8250000D03*
X-6985000Y8250000D03*
X7620000Y-8250000D03*
X6350000Y-8250000D03*
X5080000Y-8250000D03*
X3810000Y-8250000D03*
X2540000Y-8250000D03*
X1270000Y-8250000D03*
X0Y-8250000D03*
X-1270000Y-8250000D03*
X-2540000Y-8250000D03*
X-3810000Y-8250000D03*
X-5080000Y-8250000D03*
X-6350000Y-8250000D03*
X-7620000Y-8250000D03*
X6985000Y-9350000D03*
X5715000Y-9350000D03*
X4445000Y-9350000D03*
X3175000Y-9350000D03*
X1905000Y-9350000D03*
X635000Y-9350000D03*
X-635000Y-9350000D03*
X-1905000Y-9350000D03*
X-3175000Y-9350000D03*
X-4445000Y-9350000D03*
X-5715000Y-9350000D03*
X-6985000Y-9350000D03*
D11*
X10580100Y14562300D03*
X10580100Y-14562300D03*
X-10580100Y-14562300D03*
X17119000Y-5562300D03*
X17119000Y5562300D03*
X-14562300Y10580100D03*
X14562300Y10580100D03*
X-5562300Y17119000D03*
X14562300Y-10580100D03*
X5562300Y-17119000D03*
X0Y18000000D03*
X-14562300Y-10580100D03*
X-17119000Y5562300D03*
X-5562300Y-17119000D03*
X18000000Y0D03*
X0Y-18000000D03*
X-10580100Y14562300D03*
X-18000000Y0D03*
X-17119000Y-5562300D03*
X5562300Y17119000D03*
D12*
X1905000Y-4350000D02*
X1905000Y-9350000D01*
X2540000Y-8250000D02*
X2540000Y-3250000D01*
X3175000Y-4350000D02*
X3175000Y-9350000D01*
X3810000Y-8250000D02*
X3810000Y-3250000D01*
X4445000Y-4350000D02*
X4445000Y-9350000D01*
X5080000Y-8250000D02*
X5080000Y-3250000D01*
X5715000Y-4350000D02*
X5715000Y-9350000D01*
X6350000Y-3250000D02*
X6350000Y-8250000D01*
X6985000Y-9350000D02*
X6985000Y-4350000D01*
X7620000Y-3250000D02*
X7620000Y-8250000D01*
X1270000Y-3250000D02*
X1270000Y-8250000D01*
X635000Y-4350000D02*
X635000Y-9350000D01*
X0Y-8250000D02*
X0Y-3250000D01*
X-635000Y-4350000D02*
X-635000Y-9350000D01*
X-1270000Y-8250000D02*
X-1270000Y-3250000D01*
X-1905000Y-4350000D02*
X-1905000Y-9350000D01*
X-2540000Y-8250000D02*
X-2540000Y-3250000D01*
X-3175000Y-4350000D02*
X-3175000Y-9350000D01*
X-3810000Y-3250000D02*
X-3810000Y-8250000D01*
X-4445000Y-9350000D02*
X-4445000Y-4350000D01*
X-5080000Y-3250000D02*
X-5080000Y-8250000D01*
X-5715000Y-9350000D02*
X-5715000Y-4350000D01*
X-6350000Y-3250000D02*
X-6350000Y-8250000D01*
X-6985000Y-9350000D02*
X-6985000Y-4350000D01*
X-7620000Y-3250000D02*
X-7620000Y-8250000D01*
X7620000Y4350000D02*
X7620000Y9350000D01*
X6985000Y8250000D02*
X6985000Y3250000D01*
X6350000Y4350000D02*
X6350000Y9350000D01*
X5715000Y8250000D02*
X5715000Y3250000D01*
X5080000Y4350000D02*
X5080000Y9350000D01*
X4445000Y8250000D02*
X4445000Y3250000D01*
X3810000Y4350000D02*
X3810000Y9350000D01*
X3175000Y8250000D02*
X3175000Y3250000D01*
X2540000Y4350000D02*
X2540000Y9350000D01*
X1905000Y8250000D02*
X1905000Y3250000D01*
X1270000Y4350000D02*
X1270000Y9350000D01*
X635000Y8250000D02*
X635000Y3250000D01*
X0Y4350000D02*
X0Y9350000D01*
X-635000Y8250000D02*
X-635000Y3250000D01*
X-1270000Y4350000D02*
X-1270000Y9350000D01*
X-1905000Y8250000D02*
X-1905000Y3250000D01*
X-2540000Y9350000D02*
X-2540000Y4350000D01*
X-3175000Y3250000D02*
X-3175000Y8250000D01*
X-3810000Y9350000D02*
X-3810000Y4350000D01*
X-4445000Y3250000D02*
X-4445000Y8250000D01*
X-5080000Y9350000D02*
X-5080000Y4350000D01*
X-5715000Y3250000D02*
X-5715000Y8250000D01*
X-6350000Y9350000D02*
X-6350000Y4350000D01*
X-6985000Y8250000D02*
X-6985000Y3250000D01*
X-7620000Y9350000D02*
X-7620000Y4350000D01*
G04 #@! TA.AperFunction,Conductor*
G36*
X513021Y18469311D02*
G01*
X518736Y18469152D01*
X1350336Y18427025D01*
X1356038Y18426606D01*
X1791564Y18384670D01*
X2184864Y18346799D01*
X2190505Y18346126D01*
X2672548Y18277522D01*
X3014865Y18228803D01*
X3020505Y18227869D01*
X3838657Y18073277D01*
X3844249Y18072089D01*
X4654592Y17880532D01*
X4660125Y17879090D01*
X5460891Y17650987D01*
X5466349Y17649298D01*
X6255991Y17385088D01*
X6261351Y17383158D01*
X6746332Y17196019D01*
X7038193Y17083399D01*
X7043478Y17081220D01*
X7805890Y16746544D01*
X7811053Y16744137D01*
X8322802Y16491215D01*
X8557509Y16375215D01*
X8562576Y16372567D01*
X9291549Y15970152D01*
X9296490Y15967276D01*
X10006440Y15532219D01*
X10011245Y15529122D01*
X10700715Y15062316D01*
X10705376Y15059004D01*
X10944415Y14880830D01*
X11372997Y14561374D01*
X11377470Y14557880D01*
X11491114Y14464863D01*
X12021821Y14030484D01*
X12026162Y14026763D01*
X12645895Y13470709D01*
X12650063Y13466796D01*
X13243972Y12883163D01*
X13247957Y12879064D01*
X13814749Y12269123D01*
X13818545Y12264847D01*
X14357086Y11629820D01*
X14360684Y11625377D01*
X14869862Y10966578D01*
X14873255Y10961977D01*
X15352046Y10280728D01*
X15355226Y10275977D01*
X15802602Y9573736D01*
X15805564Y9568845D01*
X16220621Y8847038D01*
X16223358Y8842019D01*
X16260445Y8770164D01*
X16518374Y8270438D01*
X16605261Y8102097D01*
X16607760Y8096971D01*
X16820522Y7634395D01*
X16955695Y7340508D01*
X16957966Y7335261D01*
X17271231Y6563783D01*
X17273261Y6558439D01*
X17551204Y5773553D01*
X17552990Y5768121D01*
X17795044Y4971426D01*
X17796579Y4965926D01*
X17999271Y4170740D01*
X18002244Y4159075D01*
X18003527Y4153518D01*
X18075902Y3804028D01*
X18172378Y3338162D01*
X18173410Y3332539D01*
X18305099Y2510375D01*
X18305875Y2504711D01*
X18400135Y1677410D01*
X18400652Y1671726D01*
X18456225Y856568D01*
X18457285Y841016D01*
X18457544Y835325D01*
X18472109Y193482D01*
X18476453Y2073D01*
X18476478Y-2105D01*
X18472470Y-384853D01*
X18472357Y-389030D01*
X18436004Y-1221655D01*
X18435626Y-1227344D01*
X18433478Y-1251419D01*
X18361608Y-2056703D01*
X18360973Y-2062368D01*
X18326335Y-2318557D01*
X18249408Y-2887519D01*
X18248513Y-2893166D01*
X18099630Y-3712413D01*
X18098481Y-3718014D01*
X17912593Y-4529644D01*
X17911190Y-4535186D01*
X17688680Y-5337533D01*
X17687028Y-5343006D01*
X17428343Y-6134453D01*
X17426448Y-6139835D01*
X17132121Y-6918749D01*
X17129980Y-6924047D01*
X16823699Y-7635226D01*
X16800631Y-7688789D01*
X16798257Y-7693974D01*
X16444647Y-8422206D01*
X16434554Y-8442992D01*
X16431944Y-8448070D01*
X16181139Y-8909995D01*
X16034634Y-9179823D01*
X16031793Y-9184784D01*
X15601695Y-9897767D01*
X15598631Y-9902594D01*
X15136657Y-10595294D01*
X15133378Y-10599978D01*
X14640430Y-11271046D01*
X14636942Y-11275575D01*
X14114066Y-11923581D01*
X14110375Y-11927948D01*
X13558661Y-12551548D01*
X13554777Y-12555743D01*
X12975315Y-13153702D01*
X12971244Y-13157716D01*
X12365275Y-13728752D01*
X12361026Y-13732578D01*
X11729776Y-14275538D01*
X11725359Y-14279167D01*
X11070113Y-14792946D01*
X11065535Y-14796371D01*
X10387650Y-15279902D01*
X10382921Y-15283115D01*
X9683826Y-15735380D01*
X9678956Y-15738376D01*
X8960061Y-16158464D01*
X8955061Y-16161236D01*
X8217822Y-16548295D01*
X8212721Y-16550827D01*
X7976654Y-16661409D01*
X7458692Y-16904040D01*
X7453461Y-16906347D01*
X6684190Y-17224990D01*
X6678860Y-17227057D01*
X5895947Y-17510467D01*
X5890528Y-17512291D01*
X5594031Y-17604640D01*
X5095543Y-17759902D01*
X5090063Y-17761474D01*
X4284639Y-17972773D01*
X4279109Y-17974090D01*
X3625689Y-18114171D01*
X3464940Y-18148632D01*
X3459324Y-18149703D01*
X2638083Y-18287132D01*
X2632444Y-18287945D01*
X2343471Y-18322914D01*
X1805831Y-18387975D01*
X1800141Y-18388533D01*
X969854Y-18450963D01*
X964145Y-18451263D01*
X500312Y-18465029D01*
X131817Y-18475966D01*
X126120Y-18476005D01*
X-507741Y-18466047D01*
X-706403Y-18462926D01*
X-712116Y-18462707D01*
X-1543212Y-18411875D01*
X-1548909Y-18411397D01*
X-2376862Y-18322914D01*
X-2382532Y-18322177D01*
X-2766339Y-18263447D01*
X-3205611Y-18196228D01*
X-3211200Y-18195243D01*
X-3619468Y-18113663D01*
X-4027714Y-18032087D01*
X-4033294Y-18030840D01*
X-4433332Y-17931841D01*
X-4841585Y-17830808D01*
X-4847060Y-17829321D01*
X-5605571Y-17604640D01*
X-5645427Y-17592834D01*
X-5650870Y-17591087D01*
X-5895944Y-17506223D01*
X-6437703Y-17318622D01*
X-6443035Y-17316639D01*
X-6829868Y-17162699D01*
X-7216687Y-17008765D01*
X-7221950Y-17006531D01*
X-7980838Y-16663880D01*
X-7985994Y-16661409D01*
X-8323737Y-16490062D01*
X-8728537Y-16284695D01*
X-8733566Y-16281999D01*
X-8949356Y-16159911D01*
X-9458290Y-15871971D01*
X-9463179Y-15869055D01*
X-10168536Y-15426585D01*
X-10173304Y-15423442D01*
X-10857861Y-14949432D01*
X-10862463Y-14946089D01*
X-11524840Y-14441493D01*
X-11529308Y-14437926D01*
X-12168092Y-13903820D01*
X-12172393Y-13900054D01*
X-12786267Y-13337542D01*
X-12790394Y-13333585D01*
X-13378148Y-12743775D01*
X-13382090Y-12739635D01*
X-13942467Y-12123790D01*
X-13946218Y-12119475D01*
X-14270524Y-11728847D01*
X-14478091Y-11478831D01*
X-14481633Y-11474362D01*
X-14635399Y-11271046D01*
X-14983907Y-10810237D01*
X-14987244Y-10805609D01*
X-15458862Y-10119400D01*
X-15461992Y-10114616D01*
X-15830735Y-9522206D01*
X-15901985Y-9407738D01*
X-15904893Y-9402822D01*
X-16312382Y-8676683D01*
X-16315066Y-8671635D01*
X-16530631Y-8243033D01*
X-8285315Y-8243033D01*
X-8267772Y-8401933D01*
X-8265163Y-8409064D01*
X-8265162Y-8409066D01*
X-8251803Y-8445570D01*
X-8212832Y-8552063D01*
X-8208595Y-8558369D01*
X-8208593Y-8558372D01*
X-8196271Y-8576709D01*
X-8123667Y-8684754D01*
X-8118049Y-8689866D01*
X-8011046Y-8787232D01*
X-8011042Y-8787235D01*
X-8005425Y-8792346D01*
X-7998748Y-8795972D01*
X-7998747Y-8795972D01*
X-7871609Y-8865003D01*
X-7871607Y-8865004D01*
X-7864932Y-8868628D01*
X-7857583Y-8870556D01*
X-7717648Y-8907267D01*
X-7717646Y-8907267D01*
X-7710298Y-8909195D01*
X-7702698Y-8909314D01*
X-7695180Y-8910344D01*
X-7695422Y-8912110D01*
X-7636711Y-8930356D01*
X-7591068Y-8984736D01*
X-7582070Y-9055160D01*
X-7589097Y-9081039D01*
X-7629448Y-9184534D01*
X-7630440Y-9192067D01*
X-7630440Y-9192068D01*
X-7631330Y-9198832D01*
X-7650315Y-9343033D01*
X-7632772Y-9501933D01*
X-7630163Y-9509064D01*
X-7630162Y-9509066D01*
X-7625353Y-9522206D01*
X-7577832Y-9652063D01*
X-7573595Y-9658369D01*
X-7573593Y-9658372D01*
X-7532580Y-9719405D01*
X-7488667Y-9784754D01*
X-7483049Y-9789866D01*
X-7376046Y-9887232D01*
X-7376042Y-9887235D01*
X-7370425Y-9892346D01*
X-7363748Y-9895972D01*
X-7363747Y-9895972D01*
X-7236609Y-9965003D01*
X-7236607Y-9965004D01*
X-7229932Y-9968628D01*
X-7222583Y-9970556D01*
X-7082648Y-10007267D01*
X-7082646Y-10007267D01*
X-7075298Y-10009195D01*
X-6993878Y-10010474D01*
X-6923051Y-10011587D01*
X-6923048Y-10011587D01*
X-6915452Y-10011706D01*
X-6908048Y-10010010D01*
X-6908046Y-10010010D01*
X-6850478Y-9996825D01*
X-6759620Y-9976016D01*
X-6616800Y-9904185D01*
X-6611029Y-9899256D01*
X-6611026Y-9899254D01*
X-6501015Y-9805295D01*
X-6495237Y-9800360D01*
X-6452688Y-9741147D01*
X-6396693Y-9697500D01*
X-6325989Y-9691055D01*
X-6263025Y-9723858D01*
X-6245790Y-9744391D01*
X-6218667Y-9784754D01*
X-6213049Y-9789866D01*
X-6106046Y-9887232D01*
X-6106042Y-9887235D01*
X-6100425Y-9892346D01*
X-6093748Y-9895972D01*
X-6093747Y-9895972D01*
X-5966609Y-9965003D01*
X-5966607Y-9965004D01*
X-5959932Y-9968628D01*
X-5952583Y-9970556D01*
X-5812648Y-10007267D01*
X-5812646Y-10007267D01*
X-5805298Y-10009195D01*
X-5723878Y-10010474D01*
X-5653051Y-10011587D01*
X-5653048Y-10011587D01*
X-5645452Y-10011706D01*
X-5638048Y-10010010D01*
X-5638046Y-10010010D01*
X-5580478Y-9996825D01*
X-5489620Y-9976016D01*
X-5346800Y-9904185D01*
X-5341029Y-9899256D01*
X-5341026Y-9899254D01*
X-5231015Y-9805295D01*
X-5225237Y-9800360D01*
X-5182688Y-9741147D01*
X-5126693Y-9697500D01*
X-5055989Y-9691055D01*
X-4993025Y-9723858D01*
X-4975790Y-9744391D01*
X-4948667Y-9784754D01*
X-4943049Y-9789866D01*
X-4836046Y-9887232D01*
X-4836042Y-9887235D01*
X-4830425Y-9892346D01*
X-4823748Y-9895972D01*
X-4823747Y-9895972D01*
X-4696609Y-9965003D01*
X-4696607Y-9965004D01*
X-4689932Y-9968628D01*
X-4682583Y-9970556D01*
X-4542648Y-10007267D01*
X-4542646Y-10007267D01*
X-4535298Y-10009195D01*
X-4453878Y-10010474D01*
X-4383051Y-10011587D01*
X-4383048Y-10011587D01*
X-4375452Y-10011706D01*
X-4368048Y-10010010D01*
X-4368046Y-10010010D01*
X-4310478Y-9996825D01*
X-4219620Y-9976016D01*
X-4076800Y-9904185D01*
X-4071029Y-9899256D01*
X-4071026Y-9899254D01*
X-3961015Y-9805295D01*
X-3955237Y-9800360D01*
X-3912688Y-9741147D01*
X-3856693Y-9697500D01*
X-3785989Y-9691055D01*
X-3723025Y-9723858D01*
X-3705790Y-9744391D01*
X-3678667Y-9784754D01*
X-3673049Y-9789866D01*
X-3566046Y-9887232D01*
X-3566042Y-9887235D01*
X-3560425Y-9892346D01*
X-3553748Y-9895972D01*
X-3553747Y-9895972D01*
X-3426609Y-9965003D01*
X-3426607Y-9965004D01*
X-3419932Y-9968628D01*
X-3412583Y-9970556D01*
X-3272648Y-10007267D01*
X-3272646Y-10007267D01*
X-3265298Y-10009195D01*
X-3183878Y-10010474D01*
X-3113051Y-10011587D01*
X-3113048Y-10011587D01*
X-3105452Y-10011706D01*
X-3098048Y-10010010D01*
X-3098046Y-10010010D01*
X-3040478Y-9996825D01*
X-2949620Y-9976016D01*
X-2806800Y-9904185D01*
X-2801029Y-9899256D01*
X-2801026Y-9899254D01*
X-2691015Y-9805295D01*
X-2685237Y-9800360D01*
X-2642688Y-9741147D01*
X-2586693Y-9697500D01*
X-2515989Y-9691055D01*
X-2453025Y-9723858D01*
X-2435790Y-9744391D01*
X-2408667Y-9784754D01*
X-2403049Y-9789866D01*
X-2296046Y-9887232D01*
X-2296042Y-9887235D01*
X-2290425Y-9892346D01*
X-2283748Y-9895972D01*
X-2283747Y-9895972D01*
X-2156609Y-9965003D01*
X-2156607Y-9965004D01*
X-2149932Y-9968628D01*
X-2142583Y-9970556D01*
X-2002648Y-10007267D01*
X-2002646Y-10007267D01*
X-1995298Y-10009195D01*
X-1913878Y-10010474D01*
X-1843051Y-10011587D01*
X-1843048Y-10011587D01*
X-1835452Y-10011706D01*
X-1828048Y-10010010D01*
X-1828046Y-10010010D01*
X-1770478Y-9996825D01*
X-1679620Y-9976016D01*
X-1536800Y-9904185D01*
X-1531029Y-9899256D01*
X-1531026Y-9899254D01*
X-1421015Y-9805295D01*
X-1415237Y-9800360D01*
X-1372688Y-9741147D01*
X-1316693Y-9697500D01*
X-1245989Y-9691055D01*
X-1183025Y-9723858D01*
X-1165790Y-9744391D01*
X-1138667Y-9784754D01*
X-1133049Y-9789866D01*
X-1026046Y-9887232D01*
X-1026042Y-9887235D01*
X-1020425Y-9892346D01*
X-1013748Y-9895972D01*
X-1013747Y-9895972D01*
X-886609Y-9965003D01*
X-886607Y-9965004D01*
X-879932Y-9968628D01*
X-872583Y-9970556D01*
X-732648Y-10007267D01*
X-732646Y-10007267D01*
X-725298Y-10009195D01*
X-643878Y-10010474D01*
X-573051Y-10011587D01*
X-573048Y-10011587D01*
X-565452Y-10011706D01*
X-558048Y-10010010D01*
X-558046Y-10010010D01*
X-500478Y-9996825D01*
X-409620Y-9976016D01*
X-266800Y-9904185D01*
X-261029Y-9899256D01*
X-261026Y-9899254D01*
X-151015Y-9805295D01*
X-145237Y-9800360D01*
X-102688Y-9741147D01*
X-46693Y-9697500D01*
X24011Y-9691055D01*
X86975Y-9723858D01*
X104210Y-9744391D01*
X131333Y-9784754D01*
X136951Y-9789866D01*
X243954Y-9887232D01*
X243958Y-9887235D01*
X249575Y-9892346D01*
X256252Y-9895972D01*
X256253Y-9895972D01*
X383391Y-9965003D01*
X383393Y-9965004D01*
X390068Y-9968628D01*
X397417Y-9970556D01*
X537352Y-10007267D01*
X537354Y-10007267D01*
X544702Y-10009195D01*
X626122Y-10010474D01*
X696949Y-10011587D01*
X696952Y-10011587D01*
X704548Y-10011706D01*
X711952Y-10010010D01*
X711954Y-10010010D01*
X769522Y-9996825D01*
X860380Y-9976016D01*
X1003200Y-9904185D01*
X1008971Y-9899256D01*
X1008974Y-9899254D01*
X1118985Y-9805295D01*
X1124763Y-9800360D01*
X1167312Y-9741147D01*
X1223307Y-9697500D01*
X1294011Y-9691055D01*
X1356975Y-9723858D01*
X1374210Y-9744391D01*
X1401333Y-9784754D01*
X1406951Y-9789866D01*
X1513954Y-9887232D01*
X1513958Y-9887235D01*
X1519575Y-9892346D01*
X1526252Y-9895972D01*
X1526253Y-9895972D01*
X1653391Y-9965003D01*
X1653393Y-9965004D01*
X1660068Y-9968628D01*
X1667417Y-9970556D01*
X1807352Y-10007267D01*
X1807354Y-10007267D01*
X1814702Y-10009195D01*
X1896122Y-10010474D01*
X1966949Y-10011587D01*
X1966952Y-10011587D01*
X1974548Y-10011706D01*
X1981952Y-10010010D01*
X1981954Y-10010010D01*
X2039522Y-9996825D01*
X2130380Y-9976016D01*
X2273200Y-9904185D01*
X2278971Y-9899256D01*
X2278974Y-9899254D01*
X2388985Y-9805295D01*
X2394763Y-9800360D01*
X2437312Y-9741147D01*
X2493307Y-9697500D01*
X2564011Y-9691055D01*
X2626975Y-9723858D01*
X2644210Y-9744391D01*
X2671333Y-9784754D01*
X2676951Y-9789866D01*
X2783954Y-9887232D01*
X2783958Y-9887235D01*
X2789575Y-9892346D01*
X2796252Y-9895972D01*
X2796253Y-9895972D01*
X2923391Y-9965003D01*
X2923393Y-9965004D01*
X2930068Y-9968628D01*
X2937417Y-9970556D01*
X3077352Y-10007267D01*
X3077354Y-10007267D01*
X3084702Y-10009195D01*
X3166122Y-10010474D01*
X3236949Y-10011587D01*
X3236952Y-10011587D01*
X3244548Y-10011706D01*
X3251952Y-10010010D01*
X3251954Y-10010010D01*
X3309522Y-9996825D01*
X3400380Y-9976016D01*
X3543200Y-9904185D01*
X3548971Y-9899256D01*
X3548974Y-9899254D01*
X3658985Y-9805295D01*
X3664763Y-9800360D01*
X3707312Y-9741147D01*
X3763307Y-9697500D01*
X3834011Y-9691055D01*
X3896975Y-9723858D01*
X3914210Y-9744391D01*
X3941333Y-9784754D01*
X3946951Y-9789866D01*
X4053954Y-9887232D01*
X4053958Y-9887235D01*
X4059575Y-9892346D01*
X4066252Y-9895972D01*
X4066253Y-9895972D01*
X4193391Y-9965003D01*
X4193393Y-9965004D01*
X4200068Y-9968628D01*
X4207417Y-9970556D01*
X4347352Y-10007267D01*
X4347354Y-10007267D01*
X4354702Y-10009195D01*
X4436122Y-10010474D01*
X4506949Y-10011587D01*
X4506952Y-10011587D01*
X4514548Y-10011706D01*
X4521952Y-10010010D01*
X4521954Y-10010010D01*
X4579522Y-9996825D01*
X4670380Y-9976016D01*
X4813200Y-9904185D01*
X4818971Y-9899256D01*
X4818974Y-9899254D01*
X4928985Y-9805295D01*
X4934763Y-9800360D01*
X4977312Y-9741147D01*
X5033307Y-9697500D01*
X5104011Y-9691055D01*
X5166975Y-9723858D01*
X5184210Y-9744391D01*
X5211333Y-9784754D01*
X5216951Y-9789866D01*
X5323954Y-9887232D01*
X5323958Y-9887235D01*
X5329575Y-9892346D01*
X5336252Y-9895972D01*
X5336253Y-9895972D01*
X5463391Y-9965003D01*
X5463393Y-9965004D01*
X5470068Y-9968628D01*
X5477417Y-9970556D01*
X5617352Y-10007267D01*
X5617354Y-10007267D01*
X5624702Y-10009195D01*
X5706122Y-10010474D01*
X5776949Y-10011587D01*
X5776952Y-10011587D01*
X5784548Y-10011706D01*
X5791952Y-10010010D01*
X5791954Y-10010010D01*
X5849522Y-9996825D01*
X5940380Y-9976016D01*
X6083200Y-9904185D01*
X6088971Y-9899256D01*
X6088974Y-9899254D01*
X6198985Y-9805295D01*
X6204763Y-9800360D01*
X6247312Y-9741147D01*
X6303307Y-9697500D01*
X6374011Y-9691055D01*
X6436975Y-9723858D01*
X6454210Y-9744391D01*
X6481333Y-9784754D01*
X6486951Y-9789866D01*
X6593954Y-9887232D01*
X6593958Y-9887235D01*
X6599575Y-9892346D01*
X6606252Y-9895972D01*
X6606253Y-9895972D01*
X6733391Y-9965003D01*
X6733393Y-9965004D01*
X6740068Y-9968628D01*
X6747417Y-9970556D01*
X6887352Y-10007267D01*
X6887354Y-10007267D01*
X6894702Y-10009195D01*
X6976122Y-10010474D01*
X7046949Y-10011587D01*
X7046952Y-10011587D01*
X7054548Y-10011706D01*
X7061952Y-10010010D01*
X7061954Y-10010010D01*
X7119522Y-9996825D01*
X7210380Y-9976016D01*
X7353200Y-9904185D01*
X7358971Y-9899256D01*
X7358974Y-9899254D01*
X7468985Y-9805295D01*
X7474763Y-9800360D01*
X7568052Y-9670535D01*
X7627680Y-9522206D01*
X7650205Y-9363934D01*
X7650351Y-9350000D01*
X7631145Y-9191292D01*
X7589160Y-9080182D01*
X7583792Y-9009390D01*
X7617549Y-8946932D01*
X7679715Y-8912640D01*
X7685808Y-8911647D01*
X7689548Y-8911706D01*
X7845380Y-8876016D01*
X7988200Y-8804185D01*
X7993971Y-8799256D01*
X7993974Y-8799254D01*
X8103985Y-8705295D01*
X8109763Y-8700360D01*
X8203052Y-8570535D01*
X8262680Y-8422206D01*
X8285205Y-8263934D01*
X8285351Y-8250000D01*
X8266145Y-8091292D01*
X8209636Y-7941746D01*
X8119087Y-7809995D01*
X8113249Y-7804793D01*
X8088826Y-7783034D01*
X7999725Y-7703648D01*
X7971662Y-7688789D01*
X7937540Y-7670722D01*
X7886697Y-7621169D01*
X7870500Y-7559368D01*
X7870500Y-3941049D01*
X7890502Y-3872928D01*
X7939887Y-3828484D01*
X7981414Y-3807599D01*
X7981420Y-3807595D01*
X7988200Y-3804185D01*
X7993971Y-3799256D01*
X7993974Y-3799254D01*
X8103985Y-3705295D01*
X8109763Y-3700360D01*
X8203052Y-3570535D01*
X8262680Y-3422206D01*
X8285205Y-3263934D01*
X8285351Y-3250000D01*
X8266145Y-3091292D01*
X8209636Y-2941746D01*
X8187364Y-2909339D01*
X8123389Y-2816254D01*
X8123387Y-2816252D01*
X8119087Y-2809995D01*
X8113249Y-2804793D01*
X8005396Y-2708701D01*
X7999725Y-2703648D01*
X7992271Y-2699701D01*
X7865154Y-2632396D01*
X7865155Y-2632396D01*
X7858440Y-2628841D01*
X7703391Y-2589895D01*
X7695793Y-2589855D01*
X7695791Y-2589855D01*
X7628513Y-2589503D01*
X7543526Y-2589058D01*
X7536146Y-2590830D01*
X7536144Y-2590830D01*
X7395456Y-2624606D01*
X7395453Y-2624607D01*
X7388077Y-2626378D01*
X7246017Y-2699701D01*
X7125548Y-2804793D01*
X7121183Y-2811003D01*
X7121180Y-2811007D01*
X7088208Y-2857922D01*
X7032673Y-2902154D01*
X6962041Y-2909339D01*
X6898737Y-2877197D01*
X6881281Y-2856838D01*
X6853389Y-2816254D01*
X6853387Y-2816252D01*
X6849087Y-2809995D01*
X6843249Y-2804793D01*
X6735396Y-2708701D01*
X6729725Y-2703648D01*
X6722271Y-2699701D01*
X6595154Y-2632396D01*
X6595155Y-2632396D01*
X6588440Y-2628841D01*
X6433391Y-2589895D01*
X6425793Y-2589855D01*
X6425791Y-2589855D01*
X6358513Y-2589503D01*
X6273526Y-2589058D01*
X6266146Y-2590830D01*
X6266144Y-2590830D01*
X6125456Y-2624606D01*
X6125453Y-2624607D01*
X6118077Y-2626378D01*
X5976017Y-2699701D01*
X5855548Y-2804793D01*
X5851183Y-2811003D01*
X5851180Y-2811007D01*
X5818208Y-2857922D01*
X5762673Y-2902154D01*
X5692041Y-2909339D01*
X5628737Y-2877197D01*
X5611281Y-2856838D01*
X5583389Y-2816254D01*
X5583387Y-2816252D01*
X5579087Y-2809995D01*
X5573249Y-2804793D01*
X5465396Y-2708701D01*
X5459725Y-2703648D01*
X5452271Y-2699701D01*
X5325154Y-2632396D01*
X5325155Y-2632396D01*
X5318440Y-2628841D01*
X5163391Y-2589895D01*
X5155793Y-2589855D01*
X5155791Y-2589855D01*
X5088513Y-2589503D01*
X5003526Y-2589058D01*
X4996146Y-2590830D01*
X4996144Y-2590830D01*
X4855456Y-2624606D01*
X4855453Y-2624607D01*
X4848077Y-2626378D01*
X4706017Y-2699701D01*
X4585548Y-2804793D01*
X4581183Y-2811003D01*
X4581180Y-2811007D01*
X4548208Y-2857922D01*
X4492673Y-2902154D01*
X4422041Y-2909339D01*
X4358737Y-2877197D01*
X4341281Y-2856838D01*
X4313389Y-2816254D01*
X4313387Y-2816252D01*
X4309087Y-2809995D01*
X4303249Y-2804793D01*
X4195396Y-2708701D01*
X4189725Y-2703648D01*
X4182271Y-2699701D01*
X4055154Y-2632396D01*
X4055155Y-2632396D01*
X4048440Y-2628841D01*
X3893391Y-2589895D01*
X3885793Y-2589855D01*
X3885791Y-2589855D01*
X3818513Y-2589503D01*
X3733526Y-2589058D01*
X3726146Y-2590830D01*
X3726144Y-2590830D01*
X3585456Y-2624606D01*
X3585453Y-2624607D01*
X3578077Y-2626378D01*
X3436017Y-2699701D01*
X3315548Y-2804793D01*
X3311183Y-2811003D01*
X3311180Y-2811007D01*
X3278208Y-2857922D01*
X3222673Y-2902154D01*
X3152041Y-2909339D01*
X3088737Y-2877197D01*
X3071281Y-2856838D01*
X3043389Y-2816254D01*
X3043387Y-2816252D01*
X3039087Y-2809995D01*
X3033249Y-2804793D01*
X2925396Y-2708701D01*
X2919725Y-2703648D01*
X2912271Y-2699701D01*
X2785154Y-2632396D01*
X2785155Y-2632396D01*
X2778440Y-2628841D01*
X2623391Y-2589895D01*
X2615793Y-2589855D01*
X2615791Y-2589855D01*
X2548513Y-2589503D01*
X2463526Y-2589058D01*
X2456146Y-2590830D01*
X2456144Y-2590830D01*
X2315456Y-2624606D01*
X2315453Y-2624607D01*
X2308077Y-2626378D01*
X2166017Y-2699701D01*
X2045548Y-2804793D01*
X2041183Y-2811003D01*
X2041180Y-2811007D01*
X2008208Y-2857922D01*
X1952673Y-2902154D01*
X1882041Y-2909339D01*
X1818737Y-2877197D01*
X1801281Y-2856838D01*
X1773389Y-2816254D01*
X1773387Y-2816252D01*
X1769087Y-2809995D01*
X1763249Y-2804793D01*
X1655396Y-2708701D01*
X1649725Y-2703648D01*
X1642271Y-2699701D01*
X1515154Y-2632396D01*
X1515155Y-2632396D01*
X1508440Y-2628841D01*
X1353391Y-2589895D01*
X1345793Y-2589855D01*
X1345791Y-2589855D01*
X1278513Y-2589503D01*
X1193526Y-2589058D01*
X1186146Y-2590830D01*
X1186144Y-2590830D01*
X1045456Y-2624606D01*
X1045453Y-2624607D01*
X1038077Y-2626378D01*
X896017Y-2699701D01*
X775548Y-2804793D01*
X771183Y-2811003D01*
X771180Y-2811007D01*
X738208Y-2857922D01*
X682673Y-2902154D01*
X612041Y-2909339D01*
X548737Y-2877197D01*
X531281Y-2856838D01*
X503389Y-2816254D01*
X503387Y-2816252D01*
X499087Y-2809995D01*
X493249Y-2804793D01*
X385396Y-2708701D01*
X379725Y-2703648D01*
X372271Y-2699701D01*
X245154Y-2632396D01*
X245155Y-2632396D01*
X238440Y-2628841D01*
X83391Y-2589895D01*
X75793Y-2589855D01*
X75791Y-2589855D01*
X8513Y-2589503D01*
X-76474Y-2589058D01*
X-83854Y-2590830D01*
X-83856Y-2590830D01*
X-224544Y-2624606D01*
X-224547Y-2624607D01*
X-231923Y-2626378D01*
X-373983Y-2699701D01*
X-494452Y-2804793D01*
X-498817Y-2811003D01*
X-498820Y-2811007D01*
X-531792Y-2857922D01*
X-587327Y-2902154D01*
X-657959Y-2909339D01*
X-721263Y-2877197D01*
X-738719Y-2856838D01*
X-766611Y-2816254D01*
X-766613Y-2816252D01*
X-770913Y-2809995D01*
X-776751Y-2804793D01*
X-884604Y-2708701D01*
X-890275Y-2703648D01*
X-897729Y-2699701D01*
X-1024846Y-2632396D01*
X-1024845Y-2632396D01*
X-1031560Y-2628841D01*
X-1186609Y-2589895D01*
X-1194207Y-2589855D01*
X-1194209Y-2589855D01*
X-1261487Y-2589503D01*
X-1346474Y-2589058D01*
X-1353854Y-2590830D01*
X-1353856Y-2590830D01*
X-1494544Y-2624606D01*
X-1494547Y-2624607D01*
X-1501923Y-2626378D01*
X-1643983Y-2699701D01*
X-1764452Y-2804793D01*
X-1768817Y-2811003D01*
X-1768820Y-2811007D01*
X-1801792Y-2857922D01*
X-1857327Y-2902154D01*
X-1927959Y-2909339D01*
X-1991263Y-2877197D01*
X-2008719Y-2856838D01*
X-2036611Y-2816254D01*
X-2036613Y-2816252D01*
X-2040913Y-2809995D01*
X-2046751Y-2804793D01*
X-2154604Y-2708701D01*
X-2160275Y-2703648D01*
X-2167729Y-2699701D01*
X-2294846Y-2632396D01*
X-2294845Y-2632396D01*
X-2301560Y-2628841D01*
X-2456609Y-2589895D01*
X-2464207Y-2589855D01*
X-2464209Y-2589855D01*
X-2531487Y-2589503D01*
X-2616474Y-2589058D01*
X-2623854Y-2590830D01*
X-2623856Y-2590830D01*
X-2764544Y-2624606D01*
X-2764547Y-2624607D01*
X-2771923Y-2626378D01*
X-2913983Y-2699701D01*
X-3034452Y-2804793D01*
X-3038817Y-2811003D01*
X-3038820Y-2811007D01*
X-3071792Y-2857922D01*
X-3127327Y-2902154D01*
X-3197959Y-2909339D01*
X-3261263Y-2877197D01*
X-3278719Y-2856838D01*
X-3306611Y-2816254D01*
X-3306613Y-2816252D01*
X-3310913Y-2809995D01*
X-3316751Y-2804793D01*
X-3424604Y-2708701D01*
X-3430275Y-2703648D01*
X-3437729Y-2699701D01*
X-3564846Y-2632396D01*
X-3564845Y-2632396D01*
X-3571560Y-2628841D01*
X-3726609Y-2589895D01*
X-3734207Y-2589855D01*
X-3734209Y-2589855D01*
X-3801487Y-2589503D01*
X-3886474Y-2589058D01*
X-3893854Y-2590830D01*
X-3893856Y-2590830D01*
X-4034544Y-2624606D01*
X-4034547Y-2624607D01*
X-4041923Y-2626378D01*
X-4183983Y-2699701D01*
X-4304452Y-2804793D01*
X-4308817Y-2811003D01*
X-4308820Y-2811007D01*
X-4341792Y-2857922D01*
X-4397327Y-2902154D01*
X-4467959Y-2909339D01*
X-4531263Y-2877197D01*
X-4548719Y-2856838D01*
X-4576611Y-2816254D01*
X-4576613Y-2816252D01*
X-4580913Y-2809995D01*
X-4586751Y-2804793D01*
X-4694604Y-2708701D01*
X-4700275Y-2703648D01*
X-4707729Y-2699701D01*
X-4834846Y-2632396D01*
X-4834845Y-2632396D01*
X-4841560Y-2628841D01*
X-4996609Y-2589895D01*
X-5004207Y-2589855D01*
X-5004209Y-2589855D01*
X-5071487Y-2589503D01*
X-5156474Y-2589058D01*
X-5163854Y-2590830D01*
X-5163856Y-2590830D01*
X-5304544Y-2624606D01*
X-5304547Y-2624607D01*
X-5311923Y-2626378D01*
X-5453983Y-2699701D01*
X-5574452Y-2804793D01*
X-5578817Y-2811003D01*
X-5578820Y-2811007D01*
X-5611792Y-2857922D01*
X-5667327Y-2902154D01*
X-5737959Y-2909339D01*
X-5801263Y-2877197D01*
X-5818719Y-2856838D01*
X-5846611Y-2816254D01*
X-5846613Y-2816252D01*
X-5850913Y-2809995D01*
X-5856751Y-2804793D01*
X-5964604Y-2708701D01*
X-5970275Y-2703648D01*
X-5977729Y-2699701D01*
X-6104846Y-2632396D01*
X-6104845Y-2632396D01*
X-6111560Y-2628841D01*
X-6266609Y-2589895D01*
X-6274207Y-2589855D01*
X-6274209Y-2589855D01*
X-6341487Y-2589503D01*
X-6426474Y-2589058D01*
X-6433854Y-2590830D01*
X-6433856Y-2590830D01*
X-6574544Y-2624606D01*
X-6574547Y-2624607D01*
X-6581923Y-2626378D01*
X-6723983Y-2699701D01*
X-6844452Y-2804793D01*
X-6848817Y-2811003D01*
X-6848820Y-2811007D01*
X-6881792Y-2857922D01*
X-6937327Y-2902154D01*
X-7007959Y-2909339D01*
X-7071263Y-2877197D01*
X-7088719Y-2856838D01*
X-7116611Y-2816254D01*
X-7116613Y-2816252D01*
X-7120913Y-2809995D01*
X-7126751Y-2804793D01*
X-7234604Y-2708701D01*
X-7240275Y-2703648D01*
X-7247729Y-2699701D01*
X-7374846Y-2632396D01*
X-7374845Y-2632396D01*
X-7381560Y-2628841D01*
X-7536609Y-2589895D01*
X-7544207Y-2589855D01*
X-7544209Y-2589855D01*
X-7611487Y-2589503D01*
X-7696474Y-2589058D01*
X-7703854Y-2590830D01*
X-7703856Y-2590830D01*
X-7844544Y-2624606D01*
X-7844547Y-2624607D01*
X-7851923Y-2626378D01*
X-7993983Y-2699701D01*
X-8114452Y-2804793D01*
X-8118819Y-2811007D01*
X-8176561Y-2893166D01*
X-8206376Y-2935588D01*
X-8235412Y-3010061D01*
X-8255287Y-3061038D01*
X-8264448Y-3084534D01*
X-8265440Y-3092067D01*
X-8265440Y-3092068D01*
X-8272761Y-3147679D01*
X-8285315Y-3243033D01*
X-8267772Y-3401933D01*
X-8265163Y-3409064D01*
X-8265162Y-3409066D01*
X-8260353Y-3422206D01*
X-8212832Y-3552063D01*
X-8208595Y-3558369D01*
X-8208593Y-3558372D01*
X-8196271Y-3576709D01*
X-8123667Y-3684754D01*
X-8118049Y-3689866D01*
X-8011046Y-3787232D01*
X-8011042Y-3787235D01*
X-8005425Y-3792346D01*
X-7936376Y-3829837D01*
X-7886056Y-3879919D01*
X-7870500Y-3940567D01*
X-7870500Y-7559206D01*
X-7890502Y-7627327D01*
X-7938709Y-7671171D01*
X-7987232Y-7696216D01*
X-7987235Y-7696218D01*
X-7993983Y-7699701D01*
X-7999705Y-7704693D01*
X-7999707Y-7704694D01*
X-8065482Y-7762074D01*
X-8114452Y-7804793D01*
X-8118819Y-7811007D01*
X-8199089Y-7925220D01*
X-8206376Y-7935588D01*
X-8264448Y-8084534D01*
X-8265440Y-8092067D01*
X-8265440Y-8092068D01*
X-8266330Y-8098832D01*
X-8285315Y-8243033D01*
X-16530631Y-8243033D01*
X-16689191Y-7927773D01*
X-16691643Y-7922609D01*
X-16791355Y-7699701D01*
X-17031638Y-7162541D01*
X-17033851Y-7157277D01*
X-17125721Y-6924050D01*
X-17339021Y-6382556D01*
X-17340992Y-6377198D01*
X-17610707Y-5589425D01*
X-17612435Y-5583975D01*
X-17682899Y-5343006D01*
X-17846129Y-4784805D01*
X-17847606Y-4779294D01*
X-18044805Y-3970345D01*
X-18046033Y-3964762D01*
X-18206339Y-3147679D01*
X-18207312Y-3142045D01*
X-18289555Y-2591746D01*
X-18330384Y-2318551D01*
X-18331100Y-2312885D01*
X-18416692Y-1484628D01*
X-18417150Y-1478929D01*
X-18465080Y-647686D01*
X-18465280Y-641972D01*
X-18475452Y190626D01*
X-18475392Y196342D01*
X-18447786Y1028525D01*
X-18447467Y1034234D01*
X-18397295Y1671716D01*
X-18382137Y1864326D01*
X-18381559Y1870010D01*
X-18278644Y2696261D01*
X-18277809Y2701917D01*
X-18137516Y3522667D01*
X-18136425Y3528279D01*
X-17959043Y4341822D01*
X-17957698Y4347379D01*
X-17955147Y4356967D01*
X-8285315Y4356967D01*
X-8267772Y4198067D01*
X-8265163Y4190936D01*
X-8265162Y4190934D01*
X-8260353Y4177794D01*
X-8212832Y4047937D01*
X-8208595Y4041631D01*
X-8208593Y4041628D01*
X-8196271Y4023291D01*
X-8123667Y3915246D01*
X-8118049Y3910134D01*
X-8011046Y3812768D01*
X-8011042Y3812765D01*
X-8005425Y3807654D01*
X-7998748Y3804028D01*
X-7998747Y3804028D01*
X-7871609Y3734997D01*
X-7871607Y3734996D01*
X-7864932Y3731372D01*
X-7857583Y3729444D01*
X-7717648Y3692733D01*
X-7717646Y3692733D01*
X-7710298Y3690805D01*
X-7702698Y3690686D01*
X-7695180Y3689656D01*
X-7695422Y3687890D01*
X-7636711Y3669644D01*
X-7591068Y3615264D01*
X-7582070Y3544840D01*
X-7589097Y3518961D01*
X-7629448Y3415466D01*
X-7630440Y3407933D01*
X-7630440Y3407932D01*
X-7639625Y3338162D01*
X-7650315Y3256967D01*
X-7632772Y3098067D01*
X-7630163Y3090936D01*
X-7630162Y3090934D01*
X-7625353Y3077794D01*
X-7577832Y2947937D01*
X-7573595Y2941631D01*
X-7573593Y2941628D01*
X-7532580Y2880595D01*
X-7488667Y2815246D01*
X-7483049Y2810134D01*
X-7376046Y2712768D01*
X-7376042Y2712765D01*
X-7370425Y2707654D01*
X-7363748Y2704028D01*
X-7363747Y2704028D01*
X-7236609Y2634997D01*
X-7236607Y2634996D01*
X-7229932Y2631372D01*
X-7222583Y2629444D01*
X-7082648Y2592733D01*
X-7082646Y2592733D01*
X-7075298Y2590805D01*
X-6993878Y2589526D01*
X-6923051Y2588413D01*
X-6923048Y2588413D01*
X-6915452Y2588294D01*
X-6908048Y2589990D01*
X-6908046Y2589990D01*
X-6850478Y2603175D01*
X-6759620Y2623984D01*
X-6616800Y2695815D01*
X-6611029Y2700744D01*
X-6611026Y2700746D01*
X-6501015Y2794705D01*
X-6495237Y2799640D01*
X-6452688Y2858853D01*
X-6396693Y2902500D01*
X-6325989Y2908945D01*
X-6263025Y2876142D01*
X-6245790Y2855609D01*
X-6218667Y2815246D01*
X-6213049Y2810134D01*
X-6106046Y2712768D01*
X-6106042Y2712765D01*
X-6100425Y2707654D01*
X-6093748Y2704028D01*
X-6093747Y2704028D01*
X-5966609Y2634997D01*
X-5966607Y2634996D01*
X-5959932Y2631372D01*
X-5952583Y2629444D01*
X-5812648Y2592733D01*
X-5812646Y2592733D01*
X-5805298Y2590805D01*
X-5723878Y2589526D01*
X-5653051Y2588413D01*
X-5653048Y2588413D01*
X-5645452Y2588294D01*
X-5638048Y2589990D01*
X-5638046Y2589990D01*
X-5580478Y2603175D01*
X-5489620Y2623984D01*
X-5346800Y2695815D01*
X-5341029Y2700744D01*
X-5341026Y2700746D01*
X-5231015Y2794705D01*
X-5225237Y2799640D01*
X-5182688Y2858853D01*
X-5126693Y2902500D01*
X-5055989Y2908945D01*
X-4993025Y2876142D01*
X-4975790Y2855609D01*
X-4948667Y2815246D01*
X-4943049Y2810134D01*
X-4836046Y2712768D01*
X-4836042Y2712765D01*
X-4830425Y2707654D01*
X-4823748Y2704028D01*
X-4823747Y2704028D01*
X-4696609Y2634997D01*
X-4696607Y2634996D01*
X-4689932Y2631372D01*
X-4682583Y2629444D01*
X-4542648Y2592733D01*
X-4542646Y2592733D01*
X-4535298Y2590805D01*
X-4453878Y2589526D01*
X-4383051Y2588413D01*
X-4383048Y2588413D01*
X-4375452Y2588294D01*
X-4368048Y2589990D01*
X-4368046Y2589990D01*
X-4310478Y2603175D01*
X-4219620Y2623984D01*
X-4076800Y2695815D01*
X-4071029Y2700744D01*
X-4071026Y2700746D01*
X-3961015Y2794705D01*
X-3955237Y2799640D01*
X-3912688Y2858853D01*
X-3856693Y2902500D01*
X-3785989Y2908945D01*
X-3723025Y2876142D01*
X-3705790Y2855609D01*
X-3678667Y2815246D01*
X-3673049Y2810134D01*
X-3566046Y2712768D01*
X-3566042Y2712765D01*
X-3560425Y2707654D01*
X-3553748Y2704028D01*
X-3553747Y2704028D01*
X-3426609Y2634997D01*
X-3426607Y2634996D01*
X-3419932Y2631372D01*
X-3412583Y2629444D01*
X-3272648Y2592733D01*
X-3272646Y2592733D01*
X-3265298Y2590805D01*
X-3183878Y2589526D01*
X-3113051Y2588413D01*
X-3113048Y2588413D01*
X-3105452Y2588294D01*
X-3098048Y2589990D01*
X-3098046Y2589990D01*
X-3040478Y2603175D01*
X-2949620Y2623984D01*
X-2806800Y2695815D01*
X-2801029Y2700744D01*
X-2801026Y2700746D01*
X-2691015Y2794705D01*
X-2685237Y2799640D01*
X-2642688Y2858853D01*
X-2586693Y2902500D01*
X-2515989Y2908945D01*
X-2453025Y2876142D01*
X-2435790Y2855609D01*
X-2408667Y2815246D01*
X-2403049Y2810134D01*
X-2296046Y2712768D01*
X-2296042Y2712765D01*
X-2290425Y2707654D01*
X-2283748Y2704028D01*
X-2283747Y2704028D01*
X-2156609Y2634997D01*
X-2156607Y2634996D01*
X-2149932Y2631372D01*
X-2142583Y2629444D01*
X-2002648Y2592733D01*
X-2002646Y2592733D01*
X-1995298Y2590805D01*
X-1913878Y2589526D01*
X-1843051Y2588413D01*
X-1843048Y2588413D01*
X-1835452Y2588294D01*
X-1828048Y2589990D01*
X-1828046Y2589990D01*
X-1770478Y2603175D01*
X-1679620Y2623984D01*
X-1536800Y2695815D01*
X-1531029Y2700744D01*
X-1531026Y2700746D01*
X-1421015Y2794705D01*
X-1415237Y2799640D01*
X-1372688Y2858853D01*
X-1316693Y2902500D01*
X-1245989Y2908945D01*
X-1183025Y2876142D01*
X-1165790Y2855609D01*
X-1138667Y2815246D01*
X-1133049Y2810134D01*
X-1026046Y2712768D01*
X-1026042Y2712765D01*
X-1020425Y2707654D01*
X-1013748Y2704028D01*
X-1013747Y2704028D01*
X-886609Y2634997D01*
X-886607Y2634996D01*
X-879932Y2631372D01*
X-872583Y2629444D01*
X-732648Y2592733D01*
X-732646Y2592733D01*
X-725298Y2590805D01*
X-643878Y2589526D01*
X-573051Y2588413D01*
X-573048Y2588413D01*
X-565452Y2588294D01*
X-558048Y2589990D01*
X-558046Y2589990D01*
X-500478Y2603175D01*
X-409620Y2623984D01*
X-266800Y2695815D01*
X-261029Y2700744D01*
X-261026Y2700746D01*
X-151015Y2794705D01*
X-145237Y2799640D01*
X-102688Y2858853D01*
X-46693Y2902500D01*
X24011Y2908945D01*
X86975Y2876142D01*
X104210Y2855609D01*
X131333Y2815246D01*
X136951Y2810134D01*
X243954Y2712768D01*
X243958Y2712765D01*
X249575Y2707654D01*
X256252Y2704028D01*
X256253Y2704028D01*
X383391Y2634997D01*
X383393Y2634996D01*
X390068Y2631372D01*
X397417Y2629444D01*
X537352Y2592733D01*
X537354Y2592733D01*
X544702Y2590805D01*
X626122Y2589526D01*
X696949Y2588413D01*
X696952Y2588413D01*
X704548Y2588294D01*
X711952Y2589990D01*
X711954Y2589990D01*
X769522Y2603175D01*
X860380Y2623984D01*
X1003200Y2695815D01*
X1008971Y2700744D01*
X1008974Y2700746D01*
X1118985Y2794705D01*
X1124763Y2799640D01*
X1167312Y2858853D01*
X1223307Y2902500D01*
X1294011Y2908945D01*
X1356975Y2876142D01*
X1374210Y2855609D01*
X1401333Y2815246D01*
X1406951Y2810134D01*
X1513954Y2712768D01*
X1513958Y2712765D01*
X1519575Y2707654D01*
X1526252Y2704028D01*
X1526253Y2704028D01*
X1653391Y2634997D01*
X1653393Y2634996D01*
X1660068Y2631372D01*
X1667417Y2629444D01*
X1807352Y2592733D01*
X1807354Y2592733D01*
X1814702Y2590805D01*
X1896122Y2589526D01*
X1966949Y2588413D01*
X1966952Y2588413D01*
X1974548Y2588294D01*
X1981952Y2589990D01*
X1981954Y2589990D01*
X2039522Y2603175D01*
X2130380Y2623984D01*
X2273200Y2695815D01*
X2278971Y2700744D01*
X2278974Y2700746D01*
X2388985Y2794705D01*
X2394763Y2799640D01*
X2437312Y2858853D01*
X2493307Y2902500D01*
X2564011Y2908945D01*
X2626975Y2876142D01*
X2644210Y2855609D01*
X2671333Y2815246D01*
X2676951Y2810134D01*
X2783954Y2712768D01*
X2783958Y2712765D01*
X2789575Y2707654D01*
X2796252Y2704028D01*
X2796253Y2704028D01*
X2923391Y2634997D01*
X2923393Y2634996D01*
X2930068Y2631372D01*
X2937417Y2629444D01*
X3077352Y2592733D01*
X3077354Y2592733D01*
X3084702Y2590805D01*
X3166122Y2589526D01*
X3236949Y2588413D01*
X3236952Y2588413D01*
X3244548Y2588294D01*
X3251952Y2589990D01*
X3251954Y2589990D01*
X3309522Y2603175D01*
X3400380Y2623984D01*
X3543200Y2695815D01*
X3548971Y2700744D01*
X3548974Y2700746D01*
X3658985Y2794705D01*
X3664763Y2799640D01*
X3707312Y2858853D01*
X3763307Y2902500D01*
X3834011Y2908945D01*
X3896975Y2876142D01*
X3914210Y2855609D01*
X3941333Y2815246D01*
X3946951Y2810134D01*
X4053954Y2712768D01*
X4053958Y2712765D01*
X4059575Y2707654D01*
X4066252Y2704028D01*
X4066253Y2704028D01*
X4193391Y2634997D01*
X4193393Y2634996D01*
X4200068Y2631372D01*
X4207417Y2629444D01*
X4347352Y2592733D01*
X4347354Y2592733D01*
X4354702Y2590805D01*
X4436122Y2589526D01*
X4506949Y2588413D01*
X4506952Y2588413D01*
X4514548Y2588294D01*
X4521952Y2589990D01*
X4521954Y2589990D01*
X4579522Y2603175D01*
X4670380Y2623984D01*
X4813200Y2695815D01*
X4818971Y2700744D01*
X4818974Y2700746D01*
X4928985Y2794705D01*
X4934763Y2799640D01*
X4977312Y2858853D01*
X5033307Y2902500D01*
X5104011Y2908945D01*
X5166975Y2876142D01*
X5184210Y2855609D01*
X5211333Y2815246D01*
X5216951Y2810134D01*
X5323954Y2712768D01*
X5323958Y2712765D01*
X5329575Y2707654D01*
X5336252Y2704028D01*
X5336253Y2704028D01*
X5463391Y2634997D01*
X5463393Y2634996D01*
X5470068Y2631372D01*
X5477417Y2629444D01*
X5617352Y2592733D01*
X5617354Y2592733D01*
X5624702Y2590805D01*
X5706122Y2589526D01*
X5776949Y2588413D01*
X5776952Y2588413D01*
X5784548Y2588294D01*
X5791952Y2589990D01*
X5791954Y2589990D01*
X5849522Y2603175D01*
X5940380Y2623984D01*
X6083200Y2695815D01*
X6088971Y2700744D01*
X6088974Y2700746D01*
X6198985Y2794705D01*
X6204763Y2799640D01*
X6247312Y2858853D01*
X6303307Y2902500D01*
X6374011Y2908945D01*
X6436975Y2876142D01*
X6454210Y2855609D01*
X6481333Y2815246D01*
X6486951Y2810134D01*
X6593954Y2712768D01*
X6593958Y2712765D01*
X6599575Y2707654D01*
X6606252Y2704028D01*
X6606253Y2704028D01*
X6733391Y2634997D01*
X6733393Y2634996D01*
X6740068Y2631372D01*
X6747417Y2629444D01*
X6887352Y2592733D01*
X6887354Y2592733D01*
X6894702Y2590805D01*
X6976122Y2589526D01*
X7046949Y2588413D01*
X7046952Y2588413D01*
X7054548Y2588294D01*
X7061952Y2589990D01*
X7061954Y2589990D01*
X7119522Y2603175D01*
X7210380Y2623984D01*
X7353200Y2695815D01*
X7358971Y2700744D01*
X7358974Y2700746D01*
X7468985Y2794705D01*
X7474763Y2799640D01*
X7568052Y2929465D01*
X7627680Y3077794D01*
X7650205Y3236066D01*
X7650351Y3250000D01*
X7631145Y3408708D01*
X7589160Y3519818D01*
X7583792Y3590610D01*
X7617549Y3653068D01*
X7679715Y3687360D01*
X7685808Y3688353D01*
X7689548Y3688294D01*
X7845380Y3723984D01*
X7988200Y3795815D01*
X7993971Y3800744D01*
X7993974Y3800746D01*
X8103985Y3894705D01*
X8109763Y3899640D01*
X8203052Y4029465D01*
X8262680Y4177794D01*
X8285205Y4336066D01*
X8285282Y4343417D01*
X8285308Y4345880D01*
X8285308Y4345883D01*
X8285351Y4350000D01*
X8266145Y4508708D01*
X8209636Y4658254D01*
X8119087Y4790005D01*
X8113249Y4795207D01*
X8088826Y4816966D01*
X7999725Y4896352D01*
X7985689Y4903784D01*
X7937540Y4929278D01*
X7886697Y4978831D01*
X7870500Y5040632D01*
X7870500Y8658951D01*
X7890502Y8727072D01*
X7939887Y8771516D01*
X7981414Y8792401D01*
X7981420Y8792405D01*
X7988200Y8795815D01*
X7993971Y8800744D01*
X7993974Y8800746D01*
X8103985Y8894705D01*
X8109763Y8899640D01*
X8203052Y9029465D01*
X8262680Y9177794D01*
X8285205Y9336066D01*
X8285351Y9350000D01*
X8266145Y9508708D01*
X8209636Y9658254D01*
X8187364Y9690661D01*
X8123389Y9783746D01*
X8123387Y9783748D01*
X8119087Y9790005D01*
X8113249Y9795207D01*
X8005396Y9891299D01*
X7999725Y9896352D01*
X7992271Y9900299D01*
X7865154Y9967604D01*
X7865155Y9967604D01*
X7858440Y9971159D01*
X7703391Y10010105D01*
X7695793Y10010145D01*
X7695791Y10010145D01*
X7628513Y10010497D01*
X7543526Y10010942D01*
X7536146Y10009170D01*
X7536144Y10009170D01*
X7395456Y9975394D01*
X7395453Y9975393D01*
X7388077Y9973622D01*
X7246017Y9900299D01*
X7125548Y9795207D01*
X7121183Y9788997D01*
X7121180Y9788993D01*
X7088208Y9742078D01*
X7032673Y9697846D01*
X6962041Y9690661D01*
X6898737Y9722803D01*
X6881281Y9743162D01*
X6853389Y9783746D01*
X6853387Y9783748D01*
X6849087Y9790005D01*
X6843249Y9795207D01*
X6735396Y9891299D01*
X6729725Y9896352D01*
X6722271Y9900299D01*
X6595154Y9967604D01*
X6595155Y9967604D01*
X6588440Y9971159D01*
X6433391Y10010105D01*
X6425793Y10010145D01*
X6425791Y10010145D01*
X6358513Y10010497D01*
X6273526Y10010942D01*
X6266146Y10009170D01*
X6266144Y10009170D01*
X6125456Y9975394D01*
X6125453Y9975393D01*
X6118077Y9973622D01*
X5976017Y9900299D01*
X5855548Y9795207D01*
X5851183Y9788997D01*
X5851180Y9788993D01*
X5818208Y9742078D01*
X5762673Y9697846D01*
X5692041Y9690661D01*
X5628737Y9722803D01*
X5611281Y9743162D01*
X5583389Y9783746D01*
X5583387Y9783748D01*
X5579087Y9790005D01*
X5573249Y9795207D01*
X5465396Y9891299D01*
X5459725Y9896352D01*
X5452271Y9900299D01*
X5325154Y9967604D01*
X5325155Y9967604D01*
X5318440Y9971159D01*
X5163391Y10010105D01*
X5155793Y10010145D01*
X5155791Y10010145D01*
X5088513Y10010497D01*
X5003526Y10010942D01*
X4996146Y10009170D01*
X4996144Y10009170D01*
X4855456Y9975394D01*
X4855453Y9975393D01*
X4848077Y9973622D01*
X4706017Y9900299D01*
X4585548Y9795207D01*
X4581183Y9788997D01*
X4581180Y9788993D01*
X4548208Y9742078D01*
X4492673Y9697846D01*
X4422041Y9690661D01*
X4358737Y9722803D01*
X4341281Y9743162D01*
X4313389Y9783746D01*
X4313387Y9783748D01*
X4309087Y9790005D01*
X4303249Y9795207D01*
X4195396Y9891299D01*
X4189725Y9896352D01*
X4182271Y9900299D01*
X4055154Y9967604D01*
X4055155Y9967604D01*
X4048440Y9971159D01*
X3893391Y10010105D01*
X3885793Y10010145D01*
X3885791Y10010145D01*
X3818513Y10010497D01*
X3733526Y10010942D01*
X3726146Y10009170D01*
X3726144Y10009170D01*
X3585456Y9975394D01*
X3585453Y9975393D01*
X3578077Y9973622D01*
X3436017Y9900299D01*
X3315548Y9795207D01*
X3311183Y9788997D01*
X3311180Y9788993D01*
X3278208Y9742078D01*
X3222673Y9697846D01*
X3152041Y9690661D01*
X3088737Y9722803D01*
X3071281Y9743162D01*
X3043389Y9783746D01*
X3043387Y9783748D01*
X3039087Y9790005D01*
X3033249Y9795207D01*
X2925396Y9891299D01*
X2919725Y9896352D01*
X2912271Y9900299D01*
X2785154Y9967604D01*
X2785155Y9967604D01*
X2778440Y9971159D01*
X2623391Y10010105D01*
X2615793Y10010145D01*
X2615791Y10010145D01*
X2548513Y10010497D01*
X2463526Y10010942D01*
X2456146Y10009170D01*
X2456144Y10009170D01*
X2315456Y9975394D01*
X2315453Y9975393D01*
X2308077Y9973622D01*
X2166017Y9900299D01*
X2045548Y9795207D01*
X2041183Y9788997D01*
X2041180Y9788993D01*
X2008208Y9742078D01*
X1952673Y9697846D01*
X1882041Y9690661D01*
X1818737Y9722803D01*
X1801281Y9743162D01*
X1773389Y9783746D01*
X1773387Y9783748D01*
X1769087Y9790005D01*
X1763249Y9795207D01*
X1655396Y9891299D01*
X1649725Y9896352D01*
X1642271Y9900299D01*
X1515154Y9967604D01*
X1515155Y9967604D01*
X1508440Y9971159D01*
X1353391Y10010105D01*
X1345793Y10010145D01*
X1345791Y10010145D01*
X1278513Y10010497D01*
X1193526Y10010942D01*
X1186146Y10009170D01*
X1186144Y10009170D01*
X1045456Y9975394D01*
X1045453Y9975393D01*
X1038077Y9973622D01*
X896017Y9900299D01*
X775548Y9795207D01*
X771183Y9788997D01*
X771180Y9788993D01*
X738208Y9742078D01*
X682673Y9697846D01*
X612041Y9690661D01*
X548737Y9722803D01*
X531281Y9743162D01*
X503389Y9783746D01*
X503387Y9783748D01*
X499087Y9790005D01*
X493249Y9795207D01*
X385396Y9891299D01*
X379725Y9896352D01*
X372271Y9900299D01*
X245154Y9967604D01*
X245155Y9967604D01*
X238440Y9971159D01*
X83391Y10010105D01*
X75793Y10010145D01*
X75791Y10010145D01*
X8513Y10010497D01*
X-76474Y10010942D01*
X-83854Y10009170D01*
X-83856Y10009170D01*
X-224544Y9975394D01*
X-224547Y9975393D01*
X-231923Y9973622D01*
X-373983Y9900299D01*
X-494452Y9795207D01*
X-498817Y9788997D01*
X-498820Y9788993D01*
X-531792Y9742078D01*
X-587327Y9697846D01*
X-657959Y9690661D01*
X-721263Y9722803D01*
X-738719Y9743162D01*
X-766611Y9783746D01*
X-766613Y9783748D01*
X-770913Y9790005D01*
X-776751Y9795207D01*
X-884604Y9891299D01*
X-890275Y9896352D01*
X-897729Y9900299D01*
X-1024846Y9967604D01*
X-1024845Y9967604D01*
X-1031560Y9971159D01*
X-1186609Y10010105D01*
X-1194207Y10010145D01*
X-1194209Y10010145D01*
X-1261487Y10010497D01*
X-1346474Y10010942D01*
X-1353854Y10009170D01*
X-1353856Y10009170D01*
X-1494544Y9975394D01*
X-1494547Y9975393D01*
X-1501923Y9973622D01*
X-1643983Y9900299D01*
X-1764452Y9795207D01*
X-1768817Y9788997D01*
X-1768820Y9788993D01*
X-1801792Y9742078D01*
X-1857327Y9697846D01*
X-1927959Y9690661D01*
X-1991263Y9722803D01*
X-2008719Y9743162D01*
X-2036611Y9783746D01*
X-2036613Y9783748D01*
X-2040913Y9790005D01*
X-2046751Y9795207D01*
X-2154604Y9891299D01*
X-2160275Y9896352D01*
X-2167729Y9900299D01*
X-2294846Y9967604D01*
X-2294845Y9967604D01*
X-2301560Y9971159D01*
X-2456609Y10010105D01*
X-2464207Y10010145D01*
X-2464209Y10010145D01*
X-2531487Y10010497D01*
X-2616474Y10010942D01*
X-2623854Y10009170D01*
X-2623856Y10009170D01*
X-2764544Y9975394D01*
X-2764547Y9975393D01*
X-2771923Y9973622D01*
X-2913983Y9900299D01*
X-3034452Y9795207D01*
X-3038817Y9788997D01*
X-3038820Y9788993D01*
X-3071792Y9742078D01*
X-3127327Y9697846D01*
X-3197959Y9690661D01*
X-3261263Y9722803D01*
X-3278719Y9743162D01*
X-3306611Y9783746D01*
X-3306613Y9783748D01*
X-3310913Y9790005D01*
X-3316751Y9795207D01*
X-3424604Y9891299D01*
X-3430275Y9896352D01*
X-3437729Y9900299D01*
X-3564846Y9967604D01*
X-3564845Y9967604D01*
X-3571560Y9971159D01*
X-3726609Y10010105D01*
X-3734207Y10010145D01*
X-3734209Y10010145D01*
X-3801487Y10010497D01*
X-3886474Y10010942D01*
X-3893854Y10009170D01*
X-3893856Y10009170D01*
X-4034544Y9975394D01*
X-4034547Y9975393D01*
X-4041923Y9973622D01*
X-4183983Y9900299D01*
X-4304452Y9795207D01*
X-4308817Y9788997D01*
X-4308820Y9788993D01*
X-4341792Y9742078D01*
X-4397327Y9697846D01*
X-4467959Y9690661D01*
X-4531263Y9722803D01*
X-4548719Y9743162D01*
X-4576611Y9783746D01*
X-4576613Y9783748D01*
X-4580913Y9790005D01*
X-4586751Y9795207D01*
X-4694604Y9891299D01*
X-4700275Y9896352D01*
X-4707729Y9900299D01*
X-4834846Y9967604D01*
X-4834845Y9967604D01*
X-4841560Y9971159D01*
X-4996609Y10010105D01*
X-5004207Y10010145D01*
X-5004209Y10010145D01*
X-5071487Y10010497D01*
X-5156474Y10010942D01*
X-5163854Y10009170D01*
X-5163856Y10009170D01*
X-5304544Y9975394D01*
X-5304547Y9975393D01*
X-5311923Y9973622D01*
X-5453983Y9900299D01*
X-5574452Y9795207D01*
X-5578817Y9788997D01*
X-5578820Y9788993D01*
X-5611792Y9742078D01*
X-5667327Y9697846D01*
X-5737959Y9690661D01*
X-5801263Y9722803D01*
X-5818719Y9743162D01*
X-5846611Y9783746D01*
X-5846613Y9783748D01*
X-5850913Y9790005D01*
X-5856751Y9795207D01*
X-5964604Y9891299D01*
X-5970275Y9896352D01*
X-5977729Y9900299D01*
X-6104846Y9967604D01*
X-6104845Y9967604D01*
X-6111560Y9971159D01*
X-6266609Y10010105D01*
X-6274207Y10010145D01*
X-6274209Y10010145D01*
X-6341487Y10010497D01*
X-6426474Y10010942D01*
X-6433854Y10009170D01*
X-6433856Y10009170D01*
X-6574544Y9975394D01*
X-6574547Y9975393D01*
X-6581923Y9973622D01*
X-6723983Y9900299D01*
X-6844452Y9795207D01*
X-6848817Y9788997D01*
X-6848820Y9788993D01*
X-6881792Y9742078D01*
X-6937327Y9697846D01*
X-7007959Y9690661D01*
X-7071263Y9722803D01*
X-7088719Y9743162D01*
X-7116611Y9783746D01*
X-7116613Y9783748D01*
X-7120913Y9790005D01*
X-7126751Y9795207D01*
X-7234604Y9891299D01*
X-7240275Y9896352D01*
X-7247729Y9900299D01*
X-7374846Y9967604D01*
X-7374845Y9967604D01*
X-7381560Y9971159D01*
X-7536609Y10010105D01*
X-7544207Y10010145D01*
X-7544209Y10010145D01*
X-7611487Y10010497D01*
X-7696474Y10010942D01*
X-7703854Y10009170D01*
X-7703856Y10009170D01*
X-7844544Y9975394D01*
X-7844547Y9975393D01*
X-7851923Y9973622D01*
X-7993983Y9900299D01*
X-8114452Y9795207D01*
X-8206376Y9664412D01*
X-8209136Y9657332D01*
X-8255287Y9538962D01*
X-8264448Y9515466D01*
X-8265440Y9507933D01*
X-8265440Y9507932D01*
X-8266330Y9501168D01*
X-8285315Y9356967D01*
X-8276543Y9277517D01*
X-8269313Y9212029D01*
X-8267772Y9198067D01*
X-8265163Y9190936D01*
X-8265162Y9190934D01*
X-8260353Y9177794D01*
X-8212832Y9047937D01*
X-8208595Y9041631D01*
X-8208593Y9041628D01*
X-8196271Y9023291D01*
X-8123667Y8915246D01*
X-8118049Y8910134D01*
X-8011046Y8812768D01*
X-8011042Y8812765D01*
X-8005425Y8807654D01*
X-7936376Y8770163D01*
X-7886056Y8720081D01*
X-7870500Y8659433D01*
X-7870500Y5040794D01*
X-7890502Y4972673D01*
X-7938709Y4928829D01*
X-7987232Y4903784D01*
X-7987235Y4903782D01*
X-7993983Y4900299D01*
X-7999705Y4895307D01*
X-7999707Y4895306D01*
X-8065482Y4837926D01*
X-8114452Y4795207D01*
X-8206376Y4664412D01*
X-8264448Y4515466D01*
X-8265440Y4507933D01*
X-8265440Y4507932D01*
X-8266330Y4501168D01*
X-8285315Y4356967D01*
X-17955147Y4356967D01*
X-17743601Y5152016D01*
X-17742006Y5157506D01*
X-17491627Y5951607D01*
X-17489785Y5957019D01*
X-17203636Y6738960D01*
X-17201550Y6744283D01*
X-16880222Y7512443D01*
X-16877896Y7517666D01*
X-16821667Y7636618D01*
X-16522062Y8270439D01*
X-16519502Y8275550D01*
X-16129886Y9011406D01*
X-16127097Y9016397D01*
X-15837561Y9507932D01*
X-15704498Y9733828D01*
X-15701488Y9738683D01*
X-15664739Y9795056D01*
X-15246751Y10436250D01*
X-15243529Y10440953D01*
X-15198028Y10504273D01*
X-14757659Y11117111D01*
X-14754225Y11121669D01*
X-14688212Y11205255D01*
X-14352911Y11629820D01*
X-14238161Y11775118D01*
X-14234517Y11779523D01*
X-13689348Y12408884D01*
X-13685507Y12413120D01*
X-13428651Y12683790D01*
X-13112334Y13017119D01*
X-13108360Y13021122D01*
X-12508343Y13598531D01*
X-12504146Y13602389D01*
X-11878620Y14151926D01*
X-11874241Y14155601D01*
X-11224417Y14676210D01*
X-11219875Y14679683D01*
X-10547098Y15170279D01*
X-10542403Y15173542D01*
X-9848063Y15633117D01*
X-9843236Y15636156D01*
X-9128763Y16063759D01*
X-9123810Y16066573D01*
X-8390677Y16461324D01*
X-8385587Y16463918D01*
X-7635293Y16825011D01*
X-7630094Y16827369D01*
X-6864193Y17154052D01*
X-6858913Y17156164D01*
X-6078961Y17447777D01*
X-6073602Y17449643D01*
X-5281211Y17705578D01*
X-5275780Y17707197D01*
X-4472618Y17926917D01*
X-4467090Y17928295D01*
X-3960002Y18042573D01*
X-3654802Y18111352D01*
X-3649197Y18112482D01*
X-2829465Y18258499D01*
X-2823815Y18259374D01*
X-1998298Y18368055D01*
X-1992615Y18368672D01*
X-1162976Y18439798D01*
X-1157286Y18440156D01*
X-416498Y18469909D01*
X-325321Y18473571D01*
X-319604Y18473671D01*
X513021Y18469311D01*
G37*
G04 #@! TD.AperFunction*
G04 #@! TA.AperFunction,Conductor*
G36*
X513021Y18469311D02*
G01*
X518736Y18469152D01*
X1350336Y18427025D01*
X1356038Y18426606D01*
X1791564Y18384670D01*
X2184864Y18346799D01*
X2190505Y18346126D01*
X2672548Y18277522D01*
X3014865Y18228803D01*
X3020505Y18227869D01*
X3838657Y18073277D01*
X3844249Y18072089D01*
X4654592Y17880532D01*
X4660125Y17879090D01*
X5460891Y17650987D01*
X5466349Y17649298D01*
X6255991Y17385088D01*
X6261351Y17383158D01*
X6746332Y17196019D01*
X7038193Y17083399D01*
X7043478Y17081220D01*
X7805890Y16746544D01*
X7811053Y16744137D01*
X8322802Y16491215D01*
X8557509Y16375215D01*
X8562576Y16372567D01*
X9291549Y15970152D01*
X9296490Y15967276D01*
X10006440Y15532219D01*
X10011245Y15529122D01*
X10700715Y15062316D01*
X10705376Y15059004D01*
X10944415Y14880830D01*
X11372997Y14561374D01*
X11377470Y14557880D01*
X11491114Y14464863D01*
X12021821Y14030484D01*
X12026162Y14026763D01*
X12645895Y13470709D01*
X12650063Y13466796D01*
X13243972Y12883163D01*
X13247957Y12879064D01*
X13814749Y12269123D01*
X13818545Y12264847D01*
X14357086Y11629820D01*
X14360684Y11625377D01*
X14869862Y10966578D01*
X14873255Y10961977D01*
X15352046Y10280728D01*
X15355226Y10275977D01*
X15802602Y9573736D01*
X15805564Y9568845D01*
X16220621Y8847038D01*
X16223358Y8842019D01*
X16260445Y8770164D01*
X16518374Y8270438D01*
X16605261Y8102097D01*
X16607760Y8096971D01*
X16820522Y7634395D01*
X16955695Y7340508D01*
X16957966Y7335261D01*
X17271231Y6563783D01*
X17273261Y6558439D01*
X17551204Y5773553D01*
X17552990Y5768121D01*
X17795044Y4971426D01*
X17796579Y4965926D01*
X17999271Y4170740D01*
X18002244Y4159075D01*
X18003527Y4153518D01*
X18075902Y3804028D01*
X18172378Y3338162D01*
X18173410Y3332539D01*
X18305099Y2510375D01*
X18305875Y2504711D01*
X18400135Y1677410D01*
X18400652Y1671726D01*
X18456225Y856568D01*
X18457285Y841016D01*
X18457544Y835325D01*
X18472109Y193482D01*
X18476453Y2073D01*
X18476478Y-2105D01*
X18472470Y-384853D01*
X18472357Y-389030D01*
X18436004Y-1221655D01*
X18435626Y-1227344D01*
X18433478Y-1251419D01*
X18361608Y-2056703D01*
X18360973Y-2062368D01*
X18326335Y-2318557D01*
X18249408Y-2887519D01*
X18248513Y-2893166D01*
X18099630Y-3712413D01*
X18098481Y-3718014D01*
X17912593Y-4529644D01*
X17911190Y-4535186D01*
X17688680Y-5337533D01*
X17687028Y-5343006D01*
X17428343Y-6134453D01*
X17426448Y-6139835D01*
X17132121Y-6918749D01*
X17129980Y-6924047D01*
X16823699Y-7635226D01*
X16800631Y-7688789D01*
X16798257Y-7693974D01*
X16444647Y-8422206D01*
X16434554Y-8442992D01*
X16431944Y-8448070D01*
X16181139Y-8909995D01*
X16034634Y-9179823D01*
X16031793Y-9184784D01*
X15601695Y-9897767D01*
X15598631Y-9902594D01*
X15136657Y-10595294D01*
X15133378Y-10599978D01*
X14640430Y-11271046D01*
X14636942Y-11275575D01*
X14114066Y-11923581D01*
X14110375Y-11927948D01*
X13558661Y-12551548D01*
X13554777Y-12555743D01*
X12975315Y-13153702D01*
X12971244Y-13157716D01*
X12365275Y-13728752D01*
X12361026Y-13732578D01*
X11729776Y-14275538D01*
X11725359Y-14279167D01*
X11070113Y-14792946D01*
X11065535Y-14796371D01*
X10387650Y-15279902D01*
X10382921Y-15283115D01*
X9683826Y-15735380D01*
X9678956Y-15738376D01*
X8960061Y-16158464D01*
X8955061Y-16161236D01*
X8217822Y-16548295D01*
X8212721Y-16550827D01*
X7976654Y-16661409D01*
X7458692Y-16904040D01*
X7453461Y-16906347D01*
X6684190Y-17224990D01*
X6678860Y-17227057D01*
X5895947Y-17510467D01*
X5890528Y-17512291D01*
X5594031Y-17604640D01*
X5095543Y-17759902D01*
X5090063Y-17761474D01*
X4284639Y-17972773D01*
X4279109Y-17974090D01*
X3625689Y-18114171D01*
X3464940Y-18148632D01*
X3459324Y-18149703D01*
X2638083Y-18287132D01*
X2632444Y-18287945D01*
X2343471Y-18322914D01*
X1805831Y-18387975D01*
X1800141Y-18388533D01*
X969854Y-18450963D01*
X964145Y-18451263D01*
X500312Y-18465029D01*
X131817Y-18475966D01*
X126120Y-18476005D01*
X-507741Y-18466047D01*
X-706403Y-18462926D01*
X-712116Y-18462707D01*
X-1543212Y-18411875D01*
X-1548909Y-18411397D01*
X-2376862Y-18322914D01*
X-2382532Y-18322177D01*
X-2766339Y-18263447D01*
X-3205611Y-18196228D01*
X-3211200Y-18195243D01*
X-3619468Y-18113663D01*
X-4027714Y-18032087D01*
X-4033294Y-18030840D01*
X-4433332Y-17931841D01*
X-4841585Y-17830808D01*
X-4847060Y-17829321D01*
X-5605571Y-17604640D01*
X-5645427Y-17592834D01*
X-5650870Y-17591087D01*
X-5895944Y-17506223D01*
X-6437703Y-17318622D01*
X-6443035Y-17316639D01*
X-6829868Y-17162699D01*
X-7216687Y-17008765D01*
X-7221950Y-17006531D01*
X-7980838Y-16663880D01*
X-7985994Y-16661409D01*
X-8323737Y-16490062D01*
X-8728537Y-16284695D01*
X-8733566Y-16281999D01*
X-8949356Y-16159911D01*
X-9458290Y-15871971D01*
X-9463179Y-15869055D01*
X-10168536Y-15426585D01*
X-10173304Y-15423442D01*
X-10857861Y-14949432D01*
X-10862463Y-14946089D01*
X-11524840Y-14441493D01*
X-11529308Y-14437926D01*
X-12168092Y-13903820D01*
X-12172393Y-13900054D01*
X-12786267Y-13337542D01*
X-12790394Y-13333585D01*
X-13378148Y-12743775D01*
X-13382090Y-12739635D01*
X-13942467Y-12123790D01*
X-13946218Y-12119475D01*
X-14270524Y-11728847D01*
X-14478091Y-11478831D01*
X-14481633Y-11474362D01*
X-14635399Y-11271046D01*
X-14983907Y-10810237D01*
X-14987244Y-10805609D01*
X-15458862Y-10119400D01*
X-15461992Y-10114616D01*
X-15830735Y-9522206D01*
X-15901985Y-9407738D01*
X-15904893Y-9402822D01*
X-16312382Y-8676683D01*
X-16315066Y-8671635D01*
X-16530631Y-8243033D01*
X-8285315Y-8243033D01*
X-8267772Y-8401933D01*
X-8265163Y-8409064D01*
X-8265162Y-8409066D01*
X-8251803Y-8445570D01*
X-8212832Y-8552063D01*
X-8208595Y-8558369D01*
X-8208593Y-8558372D01*
X-8196271Y-8576709D01*
X-8123667Y-8684754D01*
X-8118049Y-8689866D01*
X-8011046Y-8787232D01*
X-8011042Y-8787235D01*
X-8005425Y-8792346D01*
X-7998748Y-8795972D01*
X-7998747Y-8795972D01*
X-7871609Y-8865003D01*
X-7871607Y-8865004D01*
X-7864932Y-8868628D01*
X-7857583Y-8870556D01*
X-7717648Y-8907267D01*
X-7717646Y-8907267D01*
X-7710298Y-8909195D01*
X-7702698Y-8909314D01*
X-7695180Y-8910344D01*
X-7695422Y-8912110D01*
X-7636711Y-8930356D01*
X-7591068Y-8984736D01*
X-7582070Y-9055160D01*
X-7589097Y-9081039D01*
X-7629448Y-9184534D01*
X-7630440Y-9192067D01*
X-7630440Y-9192068D01*
X-7631330Y-9198832D01*
X-7650315Y-9343033D01*
X-7632772Y-9501933D01*
X-7630163Y-9509064D01*
X-7630162Y-9509066D01*
X-7625353Y-9522206D01*
X-7577832Y-9652063D01*
X-7573595Y-9658369D01*
X-7573593Y-9658372D01*
X-7532580Y-9719405D01*
X-7488667Y-9784754D01*
X-7483049Y-9789866D01*
X-7376046Y-9887232D01*
X-7376042Y-9887235D01*
X-7370425Y-9892346D01*
X-7363748Y-9895972D01*
X-7363747Y-9895972D01*
X-7236609Y-9965003D01*
X-7236607Y-9965004D01*
X-7229932Y-9968628D01*
X-7222583Y-9970556D01*
X-7082648Y-10007267D01*
X-7082646Y-10007267D01*
X-7075298Y-10009195D01*
X-6993878Y-10010474D01*
X-6923051Y-10011587D01*
X-6923048Y-10011587D01*
X-6915452Y-10011706D01*
X-6908048Y-10010010D01*
X-6908046Y-10010010D01*
X-6850478Y-9996825D01*
X-6759620Y-9976016D01*
X-6616800Y-9904185D01*
X-6611029Y-9899256D01*
X-6611026Y-9899254D01*
X-6501015Y-9805295D01*
X-6495237Y-9800360D01*
X-6452688Y-9741147D01*
X-6396693Y-9697500D01*
X-6325989Y-9691055D01*
X-6263025Y-9723858D01*
X-6245790Y-9744391D01*
X-6218667Y-9784754D01*
X-6213049Y-9789866D01*
X-6106046Y-9887232D01*
X-6106042Y-9887235D01*
X-6100425Y-9892346D01*
X-6093748Y-9895972D01*
X-6093747Y-9895972D01*
X-5966609Y-9965003D01*
X-5966607Y-9965004D01*
X-5959932Y-9968628D01*
X-5952583Y-9970556D01*
X-5812648Y-10007267D01*
X-5812646Y-10007267D01*
X-5805298Y-10009195D01*
X-5723878Y-10010474D01*
X-5653051Y-10011587D01*
X-5653048Y-10011587D01*
X-5645452Y-10011706D01*
X-5638048Y-10010010D01*
X-5638046Y-10010010D01*
X-5580478Y-9996825D01*
X-5489620Y-9976016D01*
X-5346800Y-9904185D01*
X-5341029Y-9899256D01*
X-5341026Y-9899254D01*
X-5231015Y-9805295D01*
X-5225237Y-9800360D01*
X-5182688Y-9741147D01*
X-5126693Y-9697500D01*
X-5055989Y-9691055D01*
X-4993025Y-9723858D01*
X-4975790Y-9744391D01*
X-4948667Y-9784754D01*
X-4943049Y-9789866D01*
X-4836046Y-9887232D01*
X-4836042Y-9887235D01*
X-4830425Y-9892346D01*
X-4823748Y-9895972D01*
X-4823747Y-9895972D01*
X-4696609Y-9965003D01*
X-4696607Y-9965004D01*
X-4689932Y-9968628D01*
X-4682583Y-9970556D01*
X-4542648Y-10007267D01*
X-4542646Y-10007267D01*
X-4535298Y-10009195D01*
X-4453878Y-10010474D01*
X-4383051Y-10011587D01*
X-4383048Y-10011587D01*
X-4375452Y-10011706D01*
X-4368048Y-10010010D01*
X-4368046Y-10010010D01*
X-4310478Y-9996825D01*
X-4219620Y-9976016D01*
X-4076800Y-9904185D01*
X-4071029Y-9899256D01*
X-4071026Y-9899254D01*
X-3961015Y-9805295D01*
X-3955237Y-9800360D01*
X-3912688Y-9741147D01*
X-3856693Y-9697500D01*
X-3785989Y-9691055D01*
X-3723025Y-9723858D01*
X-3705790Y-9744391D01*
X-3678667Y-9784754D01*
X-3673049Y-9789866D01*
X-3566046Y-9887232D01*
X-3566042Y-9887235D01*
X-3560425Y-9892346D01*
X-3553748Y-9895972D01*
X-3553747Y-9895972D01*
X-3426609Y-9965003D01*
X-3426607Y-9965004D01*
X-3419932Y-9968628D01*
X-3412583Y-9970556D01*
X-3272648Y-10007267D01*
X-3272646Y-10007267D01*
X-3265298Y-10009195D01*
X-3183878Y-10010474D01*
X-3113051Y-10011587D01*
X-3113048Y-10011587D01*
X-3105452Y-10011706D01*
X-3098048Y-10010010D01*
X-3098046Y-10010010D01*
X-3040478Y-9996825D01*
X-2949620Y-9976016D01*
X-2806800Y-9904185D01*
X-2801029Y-9899256D01*
X-2801026Y-9899254D01*
X-2691015Y-9805295D01*
X-2685237Y-9800360D01*
X-2642688Y-9741147D01*
X-2586693Y-9697500D01*
X-2515989Y-9691055D01*
X-2453025Y-9723858D01*
X-2435790Y-9744391D01*
X-2408667Y-9784754D01*
X-2403049Y-9789866D01*
X-2296046Y-9887232D01*
X-2296042Y-9887235D01*
X-2290425Y-9892346D01*
X-2283748Y-9895972D01*
X-2283747Y-9895972D01*
X-2156609Y-9965003D01*
X-2156607Y-9965004D01*
X-2149932Y-9968628D01*
X-2142583Y-9970556D01*
X-2002648Y-10007267D01*
X-2002646Y-10007267D01*
X-1995298Y-10009195D01*
X-1913878Y-10010474D01*
X-1843051Y-10011587D01*
X-1843048Y-10011587D01*
X-1835452Y-10011706D01*
X-1828048Y-10010010D01*
X-1828046Y-10010010D01*
X-1770478Y-9996825D01*
X-1679620Y-9976016D01*
X-1536800Y-9904185D01*
X-1531029Y-9899256D01*
X-1531026Y-9899254D01*
X-1421015Y-9805295D01*
X-1415237Y-9800360D01*
X-1372688Y-9741147D01*
X-1316693Y-9697500D01*
X-1245989Y-9691055D01*
X-1183025Y-9723858D01*
X-1165790Y-9744391D01*
X-1138667Y-9784754D01*
X-1133049Y-9789866D01*
X-1026046Y-9887232D01*
X-1026042Y-9887235D01*
X-1020425Y-9892346D01*
X-1013748Y-9895972D01*
X-1013747Y-9895972D01*
X-886609Y-9965003D01*
X-886607Y-9965004D01*
X-879932Y-9968628D01*
X-872583Y-9970556D01*
X-732648Y-10007267D01*
X-732646Y-10007267D01*
X-725298Y-10009195D01*
X-643878Y-10010474D01*
X-573051Y-10011587D01*
X-573048Y-10011587D01*
X-565452Y-10011706D01*
X-558048Y-10010010D01*
X-558046Y-10010010D01*
X-500478Y-9996825D01*
X-409620Y-9976016D01*
X-266800Y-9904185D01*
X-261029Y-9899256D01*
X-261026Y-9899254D01*
X-151015Y-9805295D01*
X-145237Y-9800360D01*
X-102688Y-9741147D01*
X-46693Y-9697500D01*
X24011Y-9691055D01*
X86975Y-9723858D01*
X104210Y-9744391D01*
X131333Y-9784754D01*
X136951Y-9789866D01*
X243954Y-9887232D01*
X243958Y-9887235D01*
X249575Y-9892346D01*
X256252Y-9895972D01*
X256253Y-9895972D01*
X383391Y-9965003D01*
X383393Y-9965004D01*
X390068Y-9968628D01*
X397417Y-9970556D01*
X537352Y-10007267D01*
X537354Y-10007267D01*
X544702Y-10009195D01*
X626122Y-10010474D01*
X696949Y-10011587D01*
X696952Y-10011587D01*
X704548Y-10011706D01*
X711952Y-10010010D01*
X711954Y-10010010D01*
X769522Y-9996825D01*
X860380Y-9976016D01*
X1003200Y-9904185D01*
X1008971Y-9899256D01*
X1008974Y-9899254D01*
X1118985Y-9805295D01*
X1124763Y-9800360D01*
X1167312Y-9741147D01*
X1223307Y-9697500D01*
X1294011Y-9691055D01*
X1356975Y-9723858D01*
X1374210Y-9744391D01*
X1401333Y-9784754D01*
X1406951Y-9789866D01*
X1513954Y-9887232D01*
X1513958Y-9887235D01*
X1519575Y-9892346D01*
X1526252Y-9895972D01*
X1526253Y-9895972D01*
X1653391Y-9965003D01*
X1653393Y-9965004D01*
X1660068Y-9968628D01*
X1667417Y-9970556D01*
X1807352Y-10007267D01*
X1807354Y-10007267D01*
X1814702Y-10009195D01*
X1896122Y-10010474D01*
X1966949Y-10011587D01*
X1966952Y-10011587D01*
X1974548Y-10011706D01*
X1981952Y-10010010D01*
X1981954Y-10010010D01*
X2039522Y-9996825D01*
X2130380Y-9976016D01*
X2273200Y-9904185D01*
X2278971Y-9899256D01*
X2278974Y-9899254D01*
X2388985Y-9805295D01*
X2394763Y-9800360D01*
X2437312Y-9741147D01*
X2493307Y-9697500D01*
X2564011Y-9691055D01*
X2626975Y-9723858D01*
X2644210Y-9744391D01*
X2671333Y-9784754D01*
X2676951Y-9789866D01*
X2783954Y-9887232D01*
X2783958Y-9887235D01*
X2789575Y-9892346D01*
X2796252Y-9895972D01*
X2796253Y-9895972D01*
X2923391Y-9965003D01*
X2923393Y-9965004D01*
X2930068Y-9968628D01*
X2937417Y-9970556D01*
X3077352Y-10007267D01*
X3077354Y-10007267D01*
X3084702Y-10009195D01*
X3166122Y-10010474D01*
X3236949Y-10011587D01*
X3236952Y-10011587D01*
X3244548Y-10011706D01*
X3251952Y-10010010D01*
X3251954Y-10010010D01*
X3309522Y-9996825D01*
X3400380Y-9976016D01*
X3543200Y-9904185D01*
X3548971Y-9899256D01*
X3548974Y-9899254D01*
X3658985Y-9805295D01*
X3664763Y-9800360D01*
X3707312Y-9741147D01*
X3763307Y-9697500D01*
X3834011Y-9691055D01*
X3896975Y-9723858D01*
X3914210Y-9744391D01*
X3941333Y-9784754D01*
X3946951Y-9789866D01*
X4053954Y-9887232D01*
X4053958Y-9887235D01*
X4059575Y-9892346D01*
X4066252Y-9895972D01*
X4066253Y-9895972D01*
X4193391Y-9965003D01*
X4193393Y-9965004D01*
X4200068Y-9968628D01*
X4207417Y-9970556D01*
X4347352Y-10007267D01*
X4347354Y-10007267D01*
X4354702Y-10009195D01*
X4436122Y-10010474D01*
X4506949Y-10011587D01*
X4506952Y-10011587D01*
X4514548Y-10011706D01*
X4521952Y-10010010D01*
X4521954Y-10010010D01*
X4579522Y-9996825D01*
X4670380Y-9976016D01*
X4813200Y-9904185D01*
X4818971Y-9899256D01*
X4818974Y-9899254D01*
X4928985Y-9805295D01*
X4934763Y-9800360D01*
X4977312Y-9741147D01*
X5033307Y-9697500D01*
X5104011Y-9691055D01*
X5166975Y-9723858D01*
X5184210Y-9744391D01*
X5211333Y-9784754D01*
X5216951Y-9789866D01*
X5323954Y-9887232D01*
X5323958Y-9887235D01*
X5329575Y-9892346D01*
X5336252Y-9895972D01*
X5336253Y-9895972D01*
X5463391Y-9965003D01*
X5463393Y-9965004D01*
X5470068Y-9968628D01*
X5477417Y-9970556D01*
X5617352Y-10007267D01*
X5617354Y-10007267D01*
X5624702Y-10009195D01*
X5706122Y-10010474D01*
X5776949Y-10011587D01*
X5776952Y-10011587D01*
X5784548Y-10011706D01*
X5791952Y-10010010D01*
X5791954Y-10010010D01*
X5849522Y-9996825D01*
X5940380Y-9976016D01*
X6083200Y-9904185D01*
X6088971Y-9899256D01*
X6088974Y-9899254D01*
X6198985Y-9805295D01*
X6204763Y-9800360D01*
X6247312Y-9741147D01*
X6303307Y-9697500D01*
X6374011Y-9691055D01*
X6436975Y-9723858D01*
X6454210Y-9744391D01*
X6481333Y-9784754D01*
X6486951Y-9789866D01*
X6593954Y-9887232D01*
X6593958Y-9887235D01*
X6599575Y-9892346D01*
X6606252Y-9895972D01*
X6606253Y-9895972D01*
X6733391Y-9965003D01*
X6733393Y-9965004D01*
X6740068Y-9968628D01*
X6747417Y-9970556D01*
X6887352Y-10007267D01*
X6887354Y-10007267D01*
X6894702Y-10009195D01*
X6976122Y-10010474D01*
X7046949Y-10011587D01*
X7046952Y-10011587D01*
X7054548Y-10011706D01*
X7061952Y-10010010D01*
X7061954Y-10010010D01*
X7119522Y-9996825D01*
X7210380Y-9976016D01*
X7353200Y-9904185D01*
X7358971Y-9899256D01*
X7358974Y-9899254D01*
X7468985Y-9805295D01*
X7474763Y-9800360D01*
X7568052Y-9670535D01*
X7627680Y-9522206D01*
X7650205Y-9363934D01*
X7650351Y-9350000D01*
X7631145Y-9191292D01*
X7589160Y-9080182D01*
X7583792Y-9009390D01*
X7617549Y-8946932D01*
X7679715Y-8912640D01*
X7685808Y-8911647D01*
X7689548Y-8911706D01*
X7845380Y-8876016D01*
X7988200Y-8804185D01*
X7993971Y-8799256D01*
X7993974Y-8799254D01*
X8103985Y-8705295D01*
X8109763Y-8700360D01*
X8203052Y-8570535D01*
X8262680Y-8422206D01*
X8285205Y-8263934D01*
X8285351Y-8250000D01*
X8266145Y-8091292D01*
X8209636Y-7941746D01*
X8119087Y-7809995D01*
X8113249Y-7804793D01*
X8088826Y-7783034D01*
X7999725Y-7703648D01*
X7971662Y-7688789D01*
X7937540Y-7670722D01*
X7886697Y-7621169D01*
X7870500Y-7559368D01*
X7870500Y-3941049D01*
X7890502Y-3872928D01*
X7939887Y-3828484D01*
X7981414Y-3807599D01*
X7981420Y-3807595D01*
X7988200Y-3804185D01*
X7993971Y-3799256D01*
X7993974Y-3799254D01*
X8103985Y-3705295D01*
X8109763Y-3700360D01*
X8203052Y-3570535D01*
X8262680Y-3422206D01*
X8285205Y-3263934D01*
X8285351Y-3250000D01*
X8266145Y-3091292D01*
X8209636Y-2941746D01*
X8187364Y-2909339D01*
X8123389Y-2816254D01*
X8123387Y-2816252D01*
X8119087Y-2809995D01*
X8113249Y-2804793D01*
X8005396Y-2708701D01*
X7999725Y-2703648D01*
X7992271Y-2699701D01*
X7865154Y-2632396D01*
X7865155Y-2632396D01*
X7858440Y-2628841D01*
X7703391Y-2589895D01*
X7695793Y-2589855D01*
X7695791Y-2589855D01*
X7628513Y-2589503D01*
X7543526Y-2589058D01*
X7536146Y-2590830D01*
X7536144Y-2590830D01*
X7395456Y-2624606D01*
X7395453Y-2624607D01*
X7388077Y-2626378D01*
X7246017Y-2699701D01*
X7125548Y-2804793D01*
X7121183Y-2811003D01*
X7121180Y-2811007D01*
X7088208Y-2857922D01*
X7032673Y-2902154D01*
X6962041Y-2909339D01*
X6898737Y-2877197D01*
X6881281Y-2856838D01*
X6853389Y-2816254D01*
X6853387Y-2816252D01*
X6849087Y-2809995D01*
X6843249Y-2804793D01*
X6735396Y-2708701D01*
X6729725Y-2703648D01*
X6722271Y-2699701D01*
X6595154Y-2632396D01*
X6595155Y-2632396D01*
X6588440Y-2628841D01*
X6433391Y-2589895D01*
X6425793Y-2589855D01*
X6425791Y-2589855D01*
X6358513Y-2589503D01*
X6273526Y-2589058D01*
X6266146Y-2590830D01*
X6266144Y-2590830D01*
X6125456Y-2624606D01*
X6125453Y-2624607D01*
X6118077Y-2626378D01*
X5976017Y-2699701D01*
X5855548Y-2804793D01*
X5851183Y-2811003D01*
X5851180Y-2811007D01*
X5818208Y-2857922D01*
X5762673Y-2902154D01*
X5692041Y-2909339D01*
X5628737Y-2877197D01*
X5611281Y-2856838D01*
X5583389Y-2816254D01*
X5583387Y-2816252D01*
X5579087Y-2809995D01*
X5573249Y-2804793D01*
X5465396Y-2708701D01*
X5459725Y-2703648D01*
X5452271Y-2699701D01*
X5325154Y-2632396D01*
X5325155Y-2632396D01*
X5318440Y-2628841D01*
X5163391Y-2589895D01*
X5155793Y-2589855D01*
X5155791Y-2589855D01*
X5088513Y-2589503D01*
X5003526Y-2589058D01*
X4996146Y-2590830D01*
X4996144Y-2590830D01*
X4855456Y-2624606D01*
X4855453Y-2624607D01*
X4848077Y-2626378D01*
X4706017Y-2699701D01*
X4585548Y-2804793D01*
X4581183Y-2811003D01*
X4581180Y-2811007D01*
X4548208Y-2857922D01*
X4492673Y-2902154D01*
X4422041Y-2909339D01*
X4358737Y-2877197D01*
X4341281Y-2856838D01*
X4313389Y-2816254D01*
X4313387Y-2816252D01*
X4309087Y-2809995D01*
X4303249Y-2804793D01*
X4195396Y-2708701D01*
X4189725Y-2703648D01*
X4182271Y-2699701D01*
X4055154Y-2632396D01*
X4055155Y-2632396D01*
X4048440Y-2628841D01*
X3893391Y-2589895D01*
X3885793Y-2589855D01*
X3885791Y-2589855D01*
X3818513Y-2589503D01*
X3733526Y-2589058D01*
X3726146Y-2590830D01*
X3726144Y-2590830D01*
X3585456Y-2624606D01*
X3585453Y-2624607D01*
X3578077Y-2626378D01*
X3436017Y-2699701D01*
X3315548Y-2804793D01*
X3311183Y-2811003D01*
X3311180Y-2811007D01*
X3278208Y-2857922D01*
X3222673Y-2902154D01*
X3152041Y-2909339D01*
X3088737Y-2877197D01*
X3071281Y-2856838D01*
X3043389Y-2816254D01*
X3043387Y-2816252D01*
X3039087Y-2809995D01*
X3033249Y-2804793D01*
X2925396Y-2708701D01*
X2919725Y-2703648D01*
X2912271Y-2699701D01*
X2785154Y-2632396D01*
X2785155Y-2632396D01*
X2778440Y-2628841D01*
X2623391Y-2589895D01*
X2615793Y-2589855D01*
X2615791Y-2589855D01*
X2548513Y-2589503D01*
X2463526Y-2589058D01*
X2456146Y-2590830D01*
X2456144Y-2590830D01*
X2315456Y-2624606D01*
X2315453Y-2624607D01*
X2308077Y-2626378D01*
X2166017Y-2699701D01*
X2045548Y-2804793D01*
X2041183Y-2811003D01*
X2041180Y-2811007D01*
X2008208Y-2857922D01*
X1952673Y-2902154D01*
X1882041Y-2909339D01*
X1818737Y-2877197D01*
X1801281Y-2856838D01*
X1773389Y-2816254D01*
X1773387Y-2816252D01*
X1769087Y-2809995D01*
X1763249Y-2804793D01*
X1655396Y-2708701D01*
X1649725Y-2703648D01*
X1642271Y-2699701D01*
X1515154Y-2632396D01*
X1515155Y-2632396D01*
X1508440Y-2628841D01*
X1353391Y-2589895D01*
X1345793Y-2589855D01*
X1345791Y-2589855D01*
X1278513Y-2589503D01*
X1193526Y-2589058D01*
X1186146Y-2590830D01*
X1186144Y-2590830D01*
X1045456Y-2624606D01*
X1045453Y-2624607D01*
X1038077Y-2626378D01*
X896017Y-2699701D01*
X775548Y-2804793D01*
X771183Y-2811003D01*
X771180Y-2811007D01*
X738208Y-2857922D01*
X682673Y-2902154D01*
X612041Y-2909339D01*
X548737Y-2877197D01*
X531281Y-2856838D01*
X503389Y-2816254D01*
X503387Y-2816252D01*
X499087Y-2809995D01*
X493249Y-2804793D01*
X385396Y-2708701D01*
X379725Y-2703648D01*
X372271Y-2699701D01*
X245154Y-2632396D01*
X245155Y-2632396D01*
X238440Y-2628841D01*
X83391Y-2589895D01*
X75793Y-2589855D01*
X75791Y-2589855D01*
X8513Y-2589503D01*
X-76474Y-2589058D01*
X-83854Y-2590830D01*
X-83856Y-2590830D01*
X-224544Y-2624606D01*
X-224547Y-2624607D01*
X-231923Y-2626378D01*
X-373983Y-2699701D01*
X-494452Y-2804793D01*
X-498817Y-2811003D01*
X-498820Y-2811007D01*
X-531792Y-2857922D01*
X-587327Y-2902154D01*
X-657959Y-2909339D01*
X-721263Y-2877197D01*
X-738719Y-2856838D01*
X-766611Y-2816254D01*
X-766613Y-2816252D01*
X-770913Y-2809995D01*
X-776751Y-2804793D01*
X-884604Y-2708701D01*
X-890275Y-2703648D01*
X-897729Y-2699701D01*
X-1024846Y-2632396D01*
X-1024845Y-2632396D01*
X-1031560Y-2628841D01*
X-1186609Y-2589895D01*
X-1194207Y-2589855D01*
X-1194209Y-2589855D01*
X-1261487Y-2589503D01*
X-1346474Y-2589058D01*
X-1353854Y-2590830D01*
X-1353856Y-2590830D01*
X-1494544Y-2624606D01*
X-1494547Y-2624607D01*
X-1501923Y-2626378D01*
X-1643983Y-2699701D01*
X-1764452Y-2804793D01*
X-1768817Y-2811003D01*
X-1768820Y-2811007D01*
X-1801792Y-2857922D01*
X-1857327Y-2902154D01*
X-1927959Y-2909339D01*
X-1991263Y-2877197D01*
X-2008719Y-2856838D01*
X-2036611Y-2816254D01*
X-2036613Y-2816252D01*
X-2040913Y-2809995D01*
X-2046751Y-2804793D01*
X-2154604Y-2708701D01*
X-2160275Y-2703648D01*
X-2167729Y-2699701D01*
X-2294846Y-2632396D01*
X-2294845Y-2632396D01*
X-2301560Y-2628841D01*
X-2456609Y-2589895D01*
X-2464207Y-2589855D01*
X-2464209Y-2589855D01*
X-2531487Y-2589503D01*
X-2616474Y-2589058D01*
X-2623854Y-2590830D01*
X-2623856Y-2590830D01*
X-2764544Y-2624606D01*
X-2764547Y-2624607D01*
X-2771923Y-2626378D01*
X-2913983Y-2699701D01*
X-3034452Y-2804793D01*
X-3038817Y-2811003D01*
X-3038820Y-2811007D01*
X-3071792Y-2857922D01*
X-3127327Y-2902154D01*
X-3197959Y-2909339D01*
X-3261263Y-2877197D01*
X-3278719Y-2856838D01*
X-3306611Y-2816254D01*
X-3306613Y-2816252D01*
X-3310913Y-2809995D01*
X-3316751Y-2804793D01*
X-3424604Y-2708701D01*
X-3430275Y-2703648D01*
X-3437729Y-2699701D01*
X-3564846Y-2632396D01*
X-3564845Y-2632396D01*
X-3571560Y-2628841D01*
X-3726609Y-2589895D01*
X-3734207Y-2589855D01*
X-3734209Y-2589855D01*
X-3801487Y-2589503D01*
X-3886474Y-2589058D01*
X-3893854Y-2590830D01*
X-3893856Y-2590830D01*
X-4034544Y-2624606D01*
X-4034547Y-2624607D01*
X-4041923Y-2626378D01*
X-4183983Y-2699701D01*
X-4304452Y-2804793D01*
X-4308817Y-2811003D01*
X-4308820Y-2811007D01*
X-4341792Y-2857922D01*
X-4397327Y-2902154D01*
X-4467959Y-2909339D01*
X-4531263Y-2877197D01*
X-4548719Y-2856838D01*
X-4576611Y-2816254D01*
X-4576613Y-2816252D01*
X-4580913Y-2809995D01*
X-4586751Y-2804793D01*
X-4694604Y-2708701D01*
X-4700275Y-2703648D01*
X-4707729Y-2699701D01*
X-4834846Y-2632396D01*
X-4834845Y-2632396D01*
X-4841560Y-2628841D01*
X-4996609Y-2589895D01*
X-5004207Y-2589855D01*
X-5004209Y-2589855D01*
X-5071487Y-2589503D01*
X-5156474Y-2589058D01*
X-5163854Y-2590830D01*
X-5163856Y-2590830D01*
X-5304544Y-2624606D01*
X-5304547Y-2624607D01*
X-5311923Y-2626378D01*
X-5453983Y-2699701D01*
X-5574452Y-2804793D01*
X-5578817Y-2811003D01*
X-5578820Y-2811007D01*
X-5611792Y-2857922D01*
X-5667327Y-2902154D01*
X-5737959Y-2909339D01*
X-5801263Y-2877197D01*
X-5818719Y-2856838D01*
X-5846611Y-2816254D01*
X-5846613Y-2816252D01*
X-5850913Y-2809995D01*
X-5856751Y-2804793D01*
X-5964604Y-2708701D01*
X-5970275Y-2703648D01*
X-5977729Y-2699701D01*
X-6104846Y-2632396D01*
X-6104845Y-2632396D01*
X-6111560Y-2628841D01*
X-6266609Y-2589895D01*
X-6274207Y-2589855D01*
X-6274209Y-2589855D01*
X-6341487Y-2589503D01*
X-6426474Y-2589058D01*
X-6433854Y-2590830D01*
X-6433856Y-2590830D01*
X-6574544Y-2624606D01*
X-6574547Y-2624607D01*
X-6581923Y-2626378D01*
X-6723983Y-2699701D01*
X-6844452Y-2804793D01*
X-6848817Y-2811003D01*
X-6848820Y-2811007D01*
X-6881792Y-2857922D01*
X-6937327Y-2902154D01*
X-7007959Y-2909339D01*
X-7071263Y-2877197D01*
X-7088719Y-2856838D01*
X-7116611Y-2816254D01*
X-7116613Y-2816252D01*
X-7120913Y-2809995D01*
X-7126751Y-2804793D01*
X-7234604Y-2708701D01*
X-7240275Y-2703648D01*
X-7247729Y-2699701D01*
X-7374846Y-2632396D01*
X-7374845Y-2632396D01*
X-7381560Y-2628841D01*
X-7536609Y-2589895D01*
X-7544207Y-2589855D01*
X-7544209Y-2589855D01*
X-7611487Y-2589503D01*
X-7696474Y-2589058D01*
X-7703854Y-2590830D01*
X-7703856Y-2590830D01*
X-7844544Y-2624606D01*
X-7844547Y-2624607D01*
X-7851923Y-2626378D01*
X-7993983Y-2699701D01*
X-8114452Y-2804793D01*
X-8118819Y-2811007D01*
X-8176561Y-2893166D01*
X-8206376Y-2935588D01*
X-8235412Y-3010061D01*
X-8255287Y-3061038D01*
X-8264448Y-3084534D01*
X-8265440Y-3092067D01*
X-8265440Y-3092068D01*
X-8272761Y-3147679D01*
X-8285315Y-3243033D01*
X-8267772Y-3401933D01*
X-8265163Y-3409064D01*
X-8265162Y-3409066D01*
X-8260353Y-3422206D01*
X-8212832Y-3552063D01*
X-8208595Y-3558369D01*
X-8208593Y-3558372D01*
X-8196271Y-3576709D01*
X-8123667Y-3684754D01*
X-8118049Y-3689866D01*
X-8011046Y-3787232D01*
X-8011042Y-3787235D01*
X-8005425Y-3792346D01*
X-7936376Y-3829837D01*
X-7886056Y-3879919D01*
X-7870500Y-3940567D01*
X-7870500Y-7559206D01*
X-7890502Y-7627327D01*
X-7938709Y-7671171D01*
X-7987232Y-7696216D01*
X-7987235Y-7696218D01*
X-7993983Y-7699701D01*
X-7999705Y-7704693D01*
X-7999707Y-7704694D01*
X-8065482Y-7762074D01*
X-8114452Y-7804793D01*
X-8118819Y-7811007D01*
X-8199089Y-7925220D01*
X-8206376Y-7935588D01*
X-8264448Y-8084534D01*
X-8265440Y-8092067D01*
X-8265440Y-8092068D01*
X-8266330Y-8098832D01*
X-8285315Y-8243033D01*
X-16530631Y-8243033D01*
X-16689191Y-7927773D01*
X-16691643Y-7922609D01*
X-16791355Y-7699701D01*
X-17031638Y-7162541D01*
X-17033851Y-7157277D01*
X-17125721Y-6924050D01*
X-17339021Y-6382556D01*
X-17340992Y-6377198D01*
X-17610707Y-5589425D01*
X-17612435Y-5583975D01*
X-17682899Y-5343006D01*
X-17846129Y-4784805D01*
X-17847606Y-4779294D01*
X-18044805Y-3970345D01*
X-18046033Y-3964762D01*
X-18206339Y-3147679D01*
X-18207312Y-3142045D01*
X-18289555Y-2591746D01*
X-18330384Y-2318551D01*
X-18331100Y-2312885D01*
X-18416692Y-1484628D01*
X-18417150Y-1478929D01*
X-18465080Y-647686D01*
X-18465280Y-641972D01*
X-18475452Y190626D01*
X-18475392Y196342D01*
X-18447786Y1028525D01*
X-18447467Y1034234D01*
X-18397295Y1671716D01*
X-18382137Y1864326D01*
X-18381559Y1870010D01*
X-18278644Y2696261D01*
X-18277809Y2701917D01*
X-18137516Y3522667D01*
X-18136425Y3528279D01*
X-17959043Y4341822D01*
X-17957698Y4347379D01*
X-17955147Y4356967D01*
X-8285315Y4356967D01*
X-8267772Y4198067D01*
X-8265163Y4190936D01*
X-8265162Y4190934D01*
X-8260353Y4177794D01*
X-8212832Y4047937D01*
X-8208595Y4041631D01*
X-8208593Y4041628D01*
X-8196271Y4023291D01*
X-8123667Y3915246D01*
X-8118049Y3910134D01*
X-8011046Y3812768D01*
X-8011042Y3812765D01*
X-8005425Y3807654D01*
X-7998748Y3804028D01*
X-7998747Y3804028D01*
X-7871609Y3734997D01*
X-7871607Y3734996D01*
X-7864932Y3731372D01*
X-7857583Y3729444D01*
X-7717648Y3692733D01*
X-7717646Y3692733D01*
X-7710298Y3690805D01*
X-7702698Y3690686D01*
X-7695180Y3689656D01*
X-7695422Y3687890D01*
X-7636711Y3669644D01*
X-7591068Y3615264D01*
X-7582070Y3544840D01*
X-7589097Y3518961D01*
X-7629448Y3415466D01*
X-7630440Y3407933D01*
X-7630440Y3407932D01*
X-7639625Y3338162D01*
X-7650315Y3256967D01*
X-7632772Y3098067D01*
X-7630163Y3090936D01*
X-7630162Y3090934D01*
X-7625353Y3077794D01*
X-7577832Y2947937D01*
X-7573595Y2941631D01*
X-7573593Y2941628D01*
X-7532580Y2880595D01*
X-7488667Y2815246D01*
X-7483049Y2810134D01*
X-7376046Y2712768D01*
X-7376042Y2712765D01*
X-7370425Y2707654D01*
X-7363748Y2704028D01*
X-7363747Y2704028D01*
X-7236609Y2634997D01*
X-7236607Y2634996D01*
X-7229932Y2631372D01*
X-7222583Y2629444D01*
X-7082648Y2592733D01*
X-7082646Y2592733D01*
X-7075298Y2590805D01*
X-6993878Y2589526D01*
X-6923051Y2588413D01*
X-6923048Y2588413D01*
X-6915452Y2588294D01*
X-6908048Y2589990D01*
X-6908046Y2589990D01*
X-6850478Y2603175D01*
X-6759620Y2623984D01*
X-6616800Y2695815D01*
X-6611029Y2700744D01*
X-6611026Y2700746D01*
X-6501015Y2794705D01*
X-6495237Y2799640D01*
X-6452688Y2858853D01*
X-6396693Y2902500D01*
X-6325989Y2908945D01*
X-6263025Y2876142D01*
X-6245790Y2855609D01*
X-6218667Y2815246D01*
X-6213049Y2810134D01*
X-6106046Y2712768D01*
X-6106042Y2712765D01*
X-6100425Y2707654D01*
X-6093748Y2704028D01*
X-6093747Y2704028D01*
X-5966609Y2634997D01*
X-5966607Y2634996D01*
X-5959932Y2631372D01*
X-5952583Y2629444D01*
X-5812648Y2592733D01*
X-5812646Y2592733D01*
X-5805298Y2590805D01*
X-5723878Y2589526D01*
X-5653051Y2588413D01*
X-5653048Y2588413D01*
X-5645452Y2588294D01*
X-5638048Y2589990D01*
X-5638046Y2589990D01*
X-5580478Y2603175D01*
X-5489620Y2623984D01*
X-5346800Y2695815D01*
X-5341029Y2700744D01*
X-5341026Y2700746D01*
X-5231015Y2794705D01*
X-5225237Y2799640D01*
X-5182688Y2858853D01*
X-5126693Y2902500D01*
X-5055989Y2908945D01*
X-4993025Y2876142D01*
X-4975790Y2855609D01*
X-4948667Y2815246D01*
X-4943049Y2810134D01*
X-4836046Y2712768D01*
X-4836042Y2712765D01*
X-4830425Y2707654D01*
X-4823748Y2704028D01*
X-4823747Y2704028D01*
X-4696609Y2634997D01*
X-4696607Y2634996D01*
X-4689932Y2631372D01*
X-4682583Y2629444D01*
X-4542648Y2592733D01*
X-4542646Y2592733D01*
X-4535298Y2590805D01*
X-4453878Y2589526D01*
X-4383051Y2588413D01*
X-4383048Y2588413D01*
X-4375452Y2588294D01*
X-4368048Y2589990D01*
X-4368046Y2589990D01*
X-4310478Y2603175D01*
X-4219620Y2623984D01*
X-4076800Y2695815D01*
X-4071029Y2700744D01*
X-4071026Y2700746D01*
X-3961015Y2794705D01*
X-3955237Y2799640D01*
X-3912688Y2858853D01*
X-3856693Y2902500D01*
X-3785989Y2908945D01*
X-3723025Y2876142D01*
X-3705790Y2855609D01*
X-3678667Y2815246D01*
X-3673049Y2810134D01*
X-3566046Y2712768D01*
X-3566042Y2712765D01*
X-3560425Y2707654D01*
X-3553748Y2704028D01*
X-3553747Y2704028D01*
X-3426609Y2634997D01*
X-3426607Y2634996D01*
X-3419932Y2631372D01*
X-3412583Y2629444D01*
X-3272648Y2592733D01*
X-3272646Y2592733D01*
X-3265298Y2590805D01*
X-3183878Y2589526D01*
X-3113051Y2588413D01*
X-3113048Y2588413D01*
X-3105452Y2588294D01*
X-3098048Y2589990D01*
X-3098046Y2589990D01*
X-3040478Y2603175D01*
X-2949620Y2623984D01*
X-2806800Y2695815D01*
X-2801029Y2700744D01*
X-2801026Y2700746D01*
X-2691015Y2794705D01*
X-2685237Y2799640D01*
X-2642688Y2858853D01*
X-2586693Y2902500D01*
X-2515989Y2908945D01*
X-2453025Y2876142D01*
X-2435790Y2855609D01*
X-2408667Y2815246D01*
X-2403049Y2810134D01*
X-2296046Y2712768D01*
X-2296042Y2712765D01*
X-2290425Y2707654D01*
X-2283748Y2704028D01*
X-2283747Y2704028D01*
X-2156609Y2634997D01*
X-2156607Y2634996D01*
X-2149932Y2631372D01*
X-2142583Y2629444D01*
X-2002648Y2592733D01*
X-2002646Y2592733D01*
X-1995298Y2590805D01*
X-1913878Y2589526D01*
X-1843051Y2588413D01*
X-1843048Y2588413D01*
X-1835452Y2588294D01*
X-1828048Y2589990D01*
X-1828046Y2589990D01*
X-1770478Y2603175D01*
X-1679620Y2623984D01*
X-1536800Y2695815D01*
X-1531029Y2700744D01*
X-1531026Y2700746D01*
X-1421015Y2794705D01*
X-1415237Y2799640D01*
X-1372688Y2858853D01*
X-1316693Y2902500D01*
X-1245989Y2908945D01*
X-1183025Y2876142D01*
X-1165790Y2855609D01*
X-1138667Y2815246D01*
X-1133049Y2810134D01*
X-1026046Y2712768D01*
X-1026042Y2712765D01*
X-1020425Y2707654D01*
X-1013748Y2704028D01*
X-1013747Y2704028D01*
X-886609Y2634997D01*
X-886607Y2634996D01*
X-879932Y2631372D01*
X-872583Y2629444D01*
X-732648Y2592733D01*
X-732646Y2592733D01*
X-725298Y2590805D01*
X-643878Y2589526D01*
X-573051Y2588413D01*
X-573048Y2588413D01*
X-565452Y2588294D01*
X-558048Y2589990D01*
X-558046Y2589990D01*
X-500478Y2603175D01*
X-409620Y2623984D01*
X-266800Y2695815D01*
X-261029Y2700744D01*
X-261026Y2700746D01*
X-151015Y2794705D01*
X-145237Y2799640D01*
X-102688Y2858853D01*
X-46693Y2902500D01*
X24011Y2908945D01*
X86975Y2876142D01*
X104210Y2855609D01*
X131333Y2815246D01*
X136951Y2810134D01*
X243954Y2712768D01*
X243958Y2712765D01*
X249575Y2707654D01*
X256252Y2704028D01*
X256253Y2704028D01*
X383391Y2634997D01*
X383393Y2634996D01*
X390068Y2631372D01*
X397417Y2629444D01*
X537352Y2592733D01*
X537354Y2592733D01*
X544702Y2590805D01*
X626122Y2589526D01*
X696949Y2588413D01*
X696952Y2588413D01*
X704548Y2588294D01*
X711952Y2589990D01*
X711954Y2589990D01*
X769522Y2603175D01*
X860380Y2623984D01*
X1003200Y2695815D01*
X1008971Y2700744D01*
X1008974Y2700746D01*
X1118985Y2794705D01*
X1124763Y2799640D01*
X1167312Y2858853D01*
X1223307Y2902500D01*
X1294011Y2908945D01*
X1356975Y2876142D01*
X1374210Y2855609D01*
X1401333Y2815246D01*
X1406951Y2810134D01*
X1513954Y2712768D01*
X1513958Y2712765D01*
X1519575Y2707654D01*
X1526252Y2704028D01*
X1526253Y2704028D01*
X1653391Y2634997D01*
X1653393Y2634996D01*
X1660068Y2631372D01*
X1667417Y2629444D01*
X1807352Y2592733D01*
X1807354Y2592733D01*
X1814702Y2590805D01*
X1896122Y2589526D01*
X1966949Y2588413D01*
X1966952Y2588413D01*
X1974548Y2588294D01*
X1981952Y2589990D01*
X1981954Y2589990D01*
X2039522Y2603175D01*
X2130380Y2623984D01*
X2273200Y2695815D01*
X2278971Y2700744D01*
X2278974Y2700746D01*
X2388985Y2794705D01*
X2394763Y2799640D01*
X2437312Y2858853D01*
X2493307Y2902500D01*
X2564011Y2908945D01*
X2626975Y2876142D01*
X2644210Y2855609D01*
X2671333Y2815246D01*
X2676951Y2810134D01*
X2783954Y2712768D01*
X2783958Y2712765D01*
X2789575Y2707654D01*
X2796252Y2704028D01*
X2796253Y2704028D01*
X2923391Y2634997D01*
X2923393Y2634996D01*
X2930068Y2631372D01*
X2937417Y2629444D01*
X3077352Y2592733D01*
X3077354Y2592733D01*
X3084702Y2590805D01*
X3166122Y2589526D01*
X3236949Y2588413D01*
X3236952Y2588413D01*
X3244548Y2588294D01*
X3251952Y2589990D01*
X3251954Y2589990D01*
X3309522Y2603175D01*
X3400380Y2623984D01*
X3543200Y2695815D01*
X3548971Y2700744D01*
X3548974Y2700746D01*
X3658985Y2794705D01*
X3664763Y2799640D01*
X3707312Y2858853D01*
X3763307Y2902500D01*
X3834011Y2908945D01*
X3896975Y2876142D01*
X3914210Y2855609D01*
X3941333Y2815246D01*
X3946951Y2810134D01*
X4053954Y2712768D01*
X4053958Y2712765D01*
X4059575Y2707654D01*
X4066252Y2704028D01*
X4066253Y2704028D01*
X4193391Y2634997D01*
X4193393Y2634996D01*
X4200068Y2631372D01*
X4207417Y2629444D01*
X4347352Y2592733D01*
X4347354Y2592733D01*
X4354702Y2590805D01*
X4436122Y2589526D01*
X4506949Y2588413D01*
X4506952Y2588413D01*
X4514548Y2588294D01*
X4521952Y2589990D01*
X4521954Y2589990D01*
X4579522Y2603175D01*
X4670380Y2623984D01*
X4813200Y2695815D01*
X4818971Y2700744D01*
X4818974Y2700746D01*
X4928985Y2794705D01*
X4934763Y2799640D01*
X4977312Y2858853D01*
X5033307Y2902500D01*
X5104011Y2908945D01*
X5166975Y2876142D01*
X5184210Y2855609D01*
X5211333Y2815246D01*
X5216951Y2810134D01*
X5323954Y2712768D01*
X5323958Y2712765D01*
X5329575Y2707654D01*
X5336252Y2704028D01*
X5336253Y2704028D01*
X5463391Y2634997D01*
X5463393Y2634996D01*
X5470068Y2631372D01*
X5477417Y2629444D01*
X5617352Y2592733D01*
X5617354Y2592733D01*
X5624702Y2590805D01*
X5706122Y2589526D01*
X5776949Y2588413D01*
X5776952Y2588413D01*
X5784548Y2588294D01*
X5791952Y2589990D01*
X5791954Y2589990D01*
X5849522Y2603175D01*
X5940380Y2623984D01*
X6083200Y2695815D01*
X6088971Y2700744D01*
X6088974Y2700746D01*
X6198985Y2794705D01*
X6204763Y2799640D01*
X6247312Y2858853D01*
X6303307Y2902500D01*
X6374011Y2908945D01*
X6436975Y2876142D01*
X6454210Y2855609D01*
X6481333Y2815246D01*
X6486951Y2810134D01*
X6593954Y2712768D01*
X6593958Y2712765D01*
X6599575Y2707654D01*
X6606252Y2704028D01*
X6606253Y2704028D01*
X6733391Y2634997D01*
X6733393Y2634996D01*
X6740068Y2631372D01*
X6747417Y2629444D01*
X6887352Y2592733D01*
X6887354Y2592733D01*
X6894702Y2590805D01*
X6976122Y2589526D01*
X7046949Y2588413D01*
X7046952Y2588413D01*
X7054548Y2588294D01*
X7061952Y2589990D01*
X7061954Y2589990D01*
X7119522Y2603175D01*
X7210380Y2623984D01*
X7353200Y2695815D01*
X7358971Y2700744D01*
X7358974Y2700746D01*
X7468985Y2794705D01*
X7474763Y2799640D01*
X7568052Y2929465D01*
X7627680Y3077794D01*
X7650205Y3236066D01*
X7650351Y3250000D01*
X7631145Y3408708D01*
X7589160Y3519818D01*
X7583792Y3590610D01*
X7617549Y3653068D01*
X7679715Y3687360D01*
X7685808Y3688353D01*
X7689548Y3688294D01*
X7845380Y3723984D01*
X7988200Y3795815D01*
X7993971Y3800744D01*
X7993974Y3800746D01*
X8103985Y3894705D01*
X8109763Y3899640D01*
X8203052Y4029465D01*
X8262680Y4177794D01*
X8285205Y4336066D01*
X8285282Y4343417D01*
X8285308Y4345880D01*
X8285308Y4345883D01*
X8285351Y4350000D01*
X8266145Y4508708D01*
X8209636Y4658254D01*
X8119087Y4790005D01*
X8113249Y4795207D01*
X8088826Y4816966D01*
X7999725Y4896352D01*
X7985689Y4903784D01*
X7937540Y4929278D01*
X7886697Y4978831D01*
X7870500Y5040632D01*
X7870500Y8658951D01*
X7890502Y8727072D01*
X7939887Y8771516D01*
X7981414Y8792401D01*
X7981420Y8792405D01*
X7988200Y8795815D01*
X7993971Y8800744D01*
X7993974Y8800746D01*
X8103985Y8894705D01*
X8109763Y8899640D01*
X8203052Y9029465D01*
X8262680Y9177794D01*
X8285205Y9336066D01*
X8285351Y9350000D01*
X8266145Y9508708D01*
X8209636Y9658254D01*
X8187364Y9690661D01*
X8123389Y9783746D01*
X8123387Y9783748D01*
X8119087Y9790005D01*
X8113249Y9795207D01*
X8005396Y9891299D01*
X7999725Y9896352D01*
X7992271Y9900299D01*
X7865154Y9967604D01*
X7865155Y9967604D01*
X7858440Y9971159D01*
X7703391Y10010105D01*
X7695793Y10010145D01*
X7695791Y10010145D01*
X7628513Y10010497D01*
X7543526Y10010942D01*
X7536146Y10009170D01*
X7536144Y10009170D01*
X7395456Y9975394D01*
X7395453Y9975393D01*
X7388077Y9973622D01*
X7246017Y9900299D01*
X7125548Y9795207D01*
X7121183Y9788997D01*
X7121180Y9788993D01*
X7088208Y9742078D01*
X7032673Y9697846D01*
X6962041Y9690661D01*
X6898737Y9722803D01*
X6881281Y9743162D01*
X6853389Y9783746D01*
X6853387Y9783748D01*
X6849087Y9790005D01*
X6843249Y9795207D01*
X6735396Y9891299D01*
X6729725Y9896352D01*
X6722271Y9900299D01*
X6595154Y9967604D01*
X6595155Y9967604D01*
X6588440Y9971159D01*
X6433391Y10010105D01*
X6425793Y10010145D01*
X6425791Y10010145D01*
X6358513Y10010497D01*
X6273526Y10010942D01*
X6266146Y10009170D01*
X6266144Y10009170D01*
X6125456Y9975394D01*
X6125453Y9975393D01*
X6118077Y9973622D01*
X5976017Y9900299D01*
X5855548Y9795207D01*
X5851183Y9788997D01*
X5851180Y9788993D01*
X5818208Y9742078D01*
X5762673Y9697846D01*
X5692041Y9690661D01*
X5628737Y9722803D01*
X5611281Y9743162D01*
X5583389Y9783746D01*
X5583387Y9783748D01*
X5579087Y9790005D01*
X5573249Y9795207D01*
X5465396Y9891299D01*
X5459725Y9896352D01*
X5452271Y9900299D01*
X5325154Y9967604D01*
X5325155Y9967604D01*
X5318440Y9971159D01*
X5163391Y10010105D01*
X5155793Y10010145D01*
X5155791Y10010145D01*
X5088513Y10010497D01*
X5003526Y10010942D01*
X4996146Y10009170D01*
X4996144Y10009170D01*
X4855456Y9975394D01*
X4855453Y9975393D01*
X4848077Y9973622D01*
X4706017Y9900299D01*
X4585548Y9795207D01*
X4581183Y9788997D01*
X4581180Y9788993D01*
X4548208Y9742078D01*
X4492673Y9697846D01*
X4422041Y9690661D01*
X4358737Y9722803D01*
X4341281Y9743162D01*
X4313389Y9783746D01*
X4313387Y9783748D01*
X4309087Y9790005D01*
X4303249Y9795207D01*
X4195396Y9891299D01*
X4189725Y9896352D01*
X4182271Y9900299D01*
X4055154Y9967604D01*
X4055155Y9967604D01*
X4048440Y9971159D01*
X3893391Y10010105D01*
X3885793Y10010145D01*
X3885791Y10010145D01*
X3818513Y10010497D01*
X3733526Y10010942D01*
X3726146Y10009170D01*
X3726144Y10009170D01*
X3585456Y9975394D01*
X3585453Y9975393D01*
X3578077Y9973622D01*
X3436017Y9900299D01*
X3315548Y9795207D01*
X3311183Y9788997D01*
X3311180Y9788993D01*
X3278208Y9742078D01*
X3222673Y9697846D01*
X3152041Y9690661D01*
X3088737Y9722803D01*
X3071281Y9743162D01*
X3043389Y9783746D01*
X3043387Y9783748D01*
X3039087Y9790005D01*
X3033249Y9795207D01*
X2925396Y9891299D01*
X2919725Y9896352D01*
X2912271Y9900299D01*
X2785154Y9967604D01*
X2785155Y9967604D01*
X2778440Y9971159D01*
X2623391Y10010105D01*
X2615793Y10010145D01*
X2615791Y10010145D01*
X2548513Y10010497D01*
X2463526Y10010942D01*
X2456146Y10009170D01*
X2456144Y10009170D01*
X2315456Y9975394D01*
X2315453Y9975393D01*
X2308077Y9973622D01*
X2166017Y9900299D01*
X2045548Y9795207D01*
X2041183Y9788997D01*
X2041180Y9788993D01*
X2008208Y9742078D01*
X1952673Y9697846D01*
X1882041Y9690661D01*
X1818737Y9722803D01*
X1801281Y9743162D01*
X1773389Y9783746D01*
X1773387Y9783748D01*
X1769087Y9790005D01*
X1763249Y9795207D01*
X1655396Y9891299D01*
X1649725Y9896352D01*
X1642271Y9900299D01*
X1515154Y9967604D01*
X1515155Y9967604D01*
X1508440Y9971159D01*
X1353391Y10010105D01*
X1345793Y10010145D01*
X1345791Y10010145D01*
X1278513Y10010497D01*
X1193526Y10010942D01*
X1186146Y10009170D01*
X1186144Y10009170D01*
X1045456Y9975394D01*
X1045453Y9975393D01*
X1038077Y9973622D01*
X896017Y9900299D01*
X775548Y9795207D01*
X771183Y9788997D01*
X771180Y9788993D01*
X738208Y9742078D01*
X682673Y9697846D01*
X612041Y9690661D01*
X548737Y9722803D01*
X531281Y9743162D01*
X503389Y9783746D01*
X503387Y9783748D01*
X499087Y9790005D01*
X493249Y9795207D01*
X385396Y9891299D01*
X379725Y9896352D01*
X372271Y9900299D01*
X245154Y9967604D01*
X245155Y9967604D01*
X238440Y9971159D01*
X83391Y10010105D01*
X75793Y10010145D01*
X75791Y10010145D01*
X8513Y10010497D01*
X-76474Y10010942D01*
X-83854Y10009170D01*
X-83856Y10009170D01*
X-224544Y9975394D01*
X-224547Y9975393D01*
X-231923Y9973622D01*
X-373983Y9900299D01*
X-494452Y9795207D01*
X-498817Y9788997D01*
X-498820Y9788993D01*
X-531792Y9742078D01*
X-587327Y9697846D01*
X-657959Y9690661D01*
X-721263Y9722803D01*
X-738719Y9743162D01*
X-766611Y9783746D01*
X-766613Y9783748D01*
X-770913Y9790005D01*
X-776751Y9795207D01*
X-884604Y9891299D01*
X-890275Y9896352D01*
X-897729Y9900299D01*
X-1024846Y9967604D01*
X-1024845Y9967604D01*
X-1031560Y9971159D01*
X-1186609Y10010105D01*
X-1194207Y10010145D01*
X-1194209Y10010145D01*
X-1261487Y10010497D01*
X-1346474Y10010942D01*
X-1353854Y10009170D01*
X-1353856Y10009170D01*
X-1494544Y9975394D01*
X-1494547Y9975393D01*
X-1501923Y9973622D01*
X-1643983Y9900299D01*
X-1764452Y9795207D01*
X-1768817Y9788997D01*
X-1768820Y9788993D01*
X-1801792Y9742078D01*
X-1857327Y9697846D01*
X-1927959Y9690661D01*
X-1991263Y9722803D01*
X-2008719Y9743162D01*
X-2036611Y9783746D01*
X-2036613Y9783748D01*
X-2040913Y9790005D01*
X-2046751Y9795207D01*
X-2154604Y9891299D01*
X-2160275Y9896352D01*
X-2167729Y9900299D01*
X-2294846Y9967604D01*
X-2294845Y9967604D01*
X-2301560Y9971159D01*
X-2456609Y10010105D01*
X-2464207Y10010145D01*
X-2464209Y10010145D01*
X-2531487Y10010497D01*
X-2616474Y10010942D01*
X-2623854Y10009170D01*
X-2623856Y10009170D01*
X-2764544Y9975394D01*
X-2764547Y9975393D01*
X-2771923Y9973622D01*
X-2913983Y9900299D01*
X-3034452Y9795207D01*
X-3038817Y9788997D01*
X-3038820Y9788993D01*
X-3071792Y9742078D01*
X-3127327Y9697846D01*
X-3197959Y9690661D01*
X-3261263Y9722803D01*
X-3278719Y9743162D01*
X-3306611Y9783746D01*
X-3306613Y9783748D01*
X-3310913Y9790005D01*
X-3316751Y9795207D01*
X-3424604Y9891299D01*
X-3430275Y9896352D01*
X-3437729Y9900299D01*
X-3564846Y9967604D01*
X-3564845Y9967604D01*
X-3571560Y9971159D01*
X-3726609Y10010105D01*
X-3734207Y10010145D01*
X-3734209Y10010145D01*
X-3801487Y10010497D01*
X-3886474Y10010942D01*
X-3893854Y10009170D01*
X-3893856Y10009170D01*
X-4034544Y9975394D01*
X-4034547Y9975393D01*
X-4041923Y9973622D01*
X-4183983Y9900299D01*
X-4304452Y9795207D01*
X-4308817Y9788997D01*
X-4308820Y9788993D01*
X-4341792Y9742078D01*
X-4397327Y9697846D01*
X-4467959Y9690661D01*
X-4531263Y9722803D01*
X-4548719Y9743162D01*
X-4576611Y9783746D01*
X-4576613Y9783748D01*
X-4580913Y9790005D01*
X-4586751Y9795207D01*
X-4694604Y9891299D01*
X-4700275Y9896352D01*
X-4707729Y9900299D01*
X-4834846Y9967604D01*
X-4834845Y9967604D01*
X-4841560Y9971159D01*
X-4996609Y10010105D01*
X-5004207Y10010145D01*
X-5004209Y10010145D01*
X-5071487Y10010497D01*
X-5156474Y10010942D01*
X-5163854Y10009170D01*
X-5163856Y10009170D01*
X-5304544Y9975394D01*
X-5304547Y9975393D01*
X-5311923Y9973622D01*
X-5453983Y9900299D01*
X-5574452Y9795207D01*
X-5578817Y9788997D01*
X-5578820Y9788993D01*
X-5611792Y9742078D01*
X-5667327Y9697846D01*
X-5737959Y9690661D01*
X-5801263Y9722803D01*
X-5818719Y9743162D01*
X-5846611Y9783746D01*
X-5846613Y9783748D01*
X-5850913Y9790005D01*
X-5856751Y9795207D01*
X-5964604Y9891299D01*
X-5970275Y9896352D01*
X-5977729Y9900299D01*
X-6104846Y9967604D01*
X-6104845Y9967604D01*
X-6111560Y9971159D01*
X-6266609Y10010105D01*
X-6274207Y10010145D01*
X-6274209Y10010145D01*
X-6341487Y10010497D01*
X-6426474Y10010942D01*
X-6433854Y10009170D01*
X-6433856Y10009170D01*
X-6574544Y9975394D01*
X-6574547Y9975393D01*
X-6581923Y9973622D01*
X-6723983Y9900299D01*
X-6844452Y9795207D01*
X-6848817Y9788997D01*
X-6848820Y9788993D01*
X-6881792Y9742078D01*
X-6937327Y9697846D01*
X-7007959Y9690661D01*
X-7071263Y9722803D01*
X-7088719Y9743162D01*
X-7116611Y9783746D01*
X-7116613Y9783748D01*
X-7120913Y9790005D01*
X-7126751Y9795207D01*
X-7234604Y9891299D01*
X-7240275Y9896352D01*
X-7247729Y9900299D01*
X-7374846Y9967604D01*
X-7374845Y9967604D01*
X-7381560Y9971159D01*
X-7536609Y10010105D01*
X-7544207Y10010145D01*
X-7544209Y10010145D01*
X-7611487Y10010497D01*
X-7696474Y10010942D01*
X-7703854Y10009170D01*
X-7703856Y10009170D01*
X-7844544Y9975394D01*
X-7844547Y9975393D01*
X-7851923Y9973622D01*
X-7993983Y9900299D01*
X-8114452Y9795207D01*
X-8206376Y9664412D01*
X-8209136Y9657332D01*
X-8255287Y9538962D01*
X-8264448Y9515466D01*
X-8265440Y9507933D01*
X-8265440Y9507932D01*
X-8266330Y9501168D01*
X-8285315Y9356967D01*
X-8276543Y9277517D01*
X-8269313Y9212029D01*
X-8267772Y9198067D01*
X-8265163Y9190936D01*
X-8265162Y9190934D01*
X-8260353Y9177794D01*
X-8212832Y9047937D01*
X-8208595Y9041631D01*
X-8208593Y9041628D01*
X-8196271Y9023291D01*
X-8123667Y8915246D01*
X-8118049Y8910134D01*
X-8011046Y8812768D01*
X-8011042Y8812765D01*
X-8005425Y8807654D01*
X-7936376Y8770163D01*
X-7886056Y8720081D01*
X-7870500Y8659433D01*
X-7870500Y5040794D01*
X-7890502Y4972673D01*
X-7938709Y4928829D01*
X-7987232Y4903784D01*
X-7987235Y4903782D01*
X-7993983Y4900299D01*
X-7999705Y4895307D01*
X-7999707Y4895306D01*
X-8065482Y4837926D01*
X-8114452Y4795207D01*
X-8206376Y4664412D01*
X-8264448Y4515466D01*
X-8265440Y4507933D01*
X-8265440Y4507932D01*
X-8266330Y4501168D01*
X-8285315Y4356967D01*
X-17955147Y4356967D01*
X-17743601Y5152016D01*
X-17742006Y5157506D01*
X-17491627Y5951607D01*
X-17489785Y5957019D01*
X-17203636Y6738960D01*
X-17201550Y6744283D01*
X-16880222Y7512443D01*
X-16877896Y7517666D01*
X-16821667Y7636618D01*
X-16522062Y8270439D01*
X-16519502Y8275550D01*
X-16129886Y9011406D01*
X-16127097Y9016397D01*
X-15837561Y9507932D01*
X-15704498Y9733828D01*
X-15701488Y9738683D01*
X-15664739Y9795056D01*
X-15246751Y10436250D01*
X-15243529Y10440953D01*
X-15198028Y10504273D01*
X-14757659Y11117111D01*
X-14754225Y11121669D01*
X-14688212Y11205255D01*
X-14352911Y11629820D01*
X-14238161Y11775118D01*
X-14234517Y11779523D01*
X-13689348Y12408884D01*
X-13685507Y12413120D01*
X-13428651Y12683790D01*
X-13112334Y13017119D01*
X-13108360Y13021122D01*
X-12508343Y13598531D01*
X-12504146Y13602389D01*
X-11878620Y14151926D01*
X-11874241Y14155601D01*
X-11224417Y14676210D01*
X-11219875Y14679683D01*
X-10547098Y15170279D01*
X-10542403Y15173542D01*
X-9848063Y15633117D01*
X-9843236Y15636156D01*
X-9128763Y16063759D01*
X-9123810Y16066573D01*
X-8390677Y16461324D01*
X-8385587Y16463918D01*
X-7635293Y16825011D01*
X-7630094Y16827369D01*
X-6864193Y17154052D01*
X-6858913Y17156164D01*
X-6078961Y17447777D01*
X-6073602Y17449643D01*
X-5281211Y17705578D01*
X-5275780Y17707197D01*
X-4472618Y17926917D01*
X-4467090Y17928295D01*
X-3960002Y18042573D01*
X-3654802Y18111352D01*
X-3649197Y18112482D01*
X-2829465Y18258499D01*
X-2823815Y18259374D01*
X-1998298Y18368055D01*
X-1992615Y18368672D01*
X-1162976Y18439798D01*
X-1157286Y18440156D01*
X-416498Y18469909D01*
X-325321Y18473571D01*
X-319604Y18473671D01*
X513021Y18469311D01*
G37*
G04 #@! TD.AperFunction*
M02*
