G04 #@! TF.GenerationSoftware,KiCad,Pcbnew,(6.0.5)*
G04 #@! TF.CreationDate,2022-09-27T11:09:55-06:00*
G04 #@! TF.ProjectId,Double_MicroD_25_Gateway,446f7562-6c65-45f4-9d69-63726f445f32,rev?*
G04 #@! TF.SameCoordinates,Original*
G04 #@! TF.FileFunction,Legend,Bot*
G04 #@! TF.FilePolarity,Positive*
%FSLAX46Y46*%
G04 Gerber Fmt 4.6, Leading zero omitted, Abs format (unit mm)*
G04 Created by KiCad (PCBNEW (6.0.5)) date 2022-09-27 11:09:55*
%MOMM*%
%LPD*%
G01*
G04 APERTURE LIST*
%ADD10C,0.125000*%
%ADD11C,0.150000*%
%ADD12C,1.600000*%
%ADD13O,0.920000X0.920000*%
%ADD14C,2.800000*%
G04 APERTURE END LIST*
D10*
X4369047Y-1611309D02*
X4535714Y-1111309D01*
X4702380Y-1611309D01*
X5083333Y-1111309D02*
X5083333Y-1373214D01*
X5059523Y-1420833D01*
X5011904Y-1444642D01*
X4916666Y-1444642D01*
X4869047Y-1420833D01*
X5083333Y-1135119D02*
X5035714Y-1111309D01*
X4916666Y-1111309D01*
X4869047Y-1135119D01*
X4845238Y-1182738D01*
X4845238Y-1230357D01*
X4869047Y-1277976D01*
X4916666Y-1301785D01*
X5035714Y-1301785D01*
X5083333Y-1325595D01*
X5535714Y-1135119D02*
X5488095Y-1111309D01*
X5392857Y-1111309D01*
X5345238Y-1135119D01*
X5321428Y-1158928D01*
X5297619Y-1206547D01*
X5297619Y-1349404D01*
X5321428Y-1397023D01*
X5345238Y-1420833D01*
X5392857Y-1444642D01*
X5488095Y-1444642D01*
X5535714Y-1420833D01*
X5964285Y-1444642D02*
X5964285Y-1111309D01*
X5750000Y-1444642D02*
X5750000Y-1182738D01*
X5773809Y-1135119D01*
X5821428Y-1111309D01*
X5892857Y-1111309D01*
X5940476Y-1135119D01*
X5964285Y-1158928D01*
X6416666Y-1444642D02*
X6416666Y-1111309D01*
X6202380Y-1444642D02*
X6202380Y-1182738D01*
X6226190Y-1135119D01*
X6273809Y-1111309D01*
X6345238Y-1111309D01*
X6392857Y-1135119D01*
X6416666Y-1158928D01*
X6654761Y-1111309D02*
X6654761Y-1444642D01*
X6654761Y-1397023D02*
X6678571Y-1420833D01*
X6726190Y-1444642D01*
X6797619Y-1444642D01*
X6845238Y-1420833D01*
X6869047Y-1373214D01*
X6869047Y-1111309D01*
X6869047Y-1373214D02*
X6892857Y-1420833D01*
X6940476Y-1444642D01*
X7011904Y-1444642D01*
X7059523Y-1420833D01*
X7083333Y-1373214D01*
X7083333Y-1111309D01*
X7678571Y-1135119D02*
X7750000Y-1111309D01*
X7869047Y-1111309D01*
X7916666Y-1135119D01*
X7940476Y-1158928D01*
X7964285Y-1206547D01*
X7964285Y-1254166D01*
X7940476Y-1301785D01*
X7916666Y-1325595D01*
X7869047Y-1349404D01*
X7773809Y-1373214D01*
X7726190Y-1397023D01*
X7702380Y-1420833D01*
X7678571Y-1468452D01*
X7678571Y-1516071D01*
X7702380Y-1563690D01*
X7726190Y-1587500D01*
X7773809Y-1611309D01*
X7892857Y-1611309D01*
X7964285Y-1587500D01*
X8178571Y-1111309D02*
X8178571Y-1444642D01*
X8178571Y-1611309D02*
X8154761Y-1587500D01*
X8178571Y-1563690D01*
X8202380Y-1587500D01*
X8178571Y-1611309D01*
X8178571Y-1563690D01*
X8630952Y-1111309D02*
X8630952Y-1611309D01*
X8630952Y-1135119D02*
X8583333Y-1111309D01*
X8488095Y-1111309D01*
X8440476Y-1135119D01*
X8416666Y-1158928D01*
X8392857Y-1206547D01*
X8392857Y-1349404D01*
X8416666Y-1397023D01*
X8440476Y-1420833D01*
X8488095Y-1444642D01*
X8583333Y-1444642D01*
X8630952Y-1420833D01*
X9059523Y-1135119D02*
X9011904Y-1111309D01*
X8916666Y-1111309D01*
X8869047Y-1135119D01*
X8845238Y-1182738D01*
X8845238Y-1373214D01*
X8869047Y-1420833D01*
X8916666Y-1444642D01*
X9011904Y-1444642D01*
X9059523Y-1420833D01*
X9083333Y-1373214D01*
X9083333Y-1325595D01*
X8845238Y-1277976D01*
X-976190Y-306309D02*
X-976190Y-806309D01*
X-809523Y-449166D01*
X-642857Y-806309D01*
X-642857Y-306309D01*
X-404761Y-306309D02*
X-404761Y-639642D01*
X-404761Y-806309D02*
X-428571Y-782499D01*
X-404761Y-758690D01*
X-380952Y-782499D01*
X-404761Y-806309D01*
X-404761Y-758690D01*
X47619Y-330119D02*
X0Y-306309D01*
X-95238Y-306309D01*
X-142857Y-330119D01*
X-166666Y-353928D01*
X-190476Y-401547D01*
X-190476Y-544404D01*
X-166666Y-592023D01*
X-142857Y-615833D01*
X-95238Y-639642D01*
X0Y-639642D01*
X47619Y-615833D01*
X261904Y-306309D02*
X261904Y-639642D01*
X261904Y-544404D02*
X285714Y-592023D01*
X309523Y-615833D01*
X357142Y-639642D01*
X404761Y-639642D01*
X642857Y-306309D02*
X595238Y-330119D01*
X571428Y-353928D01*
X547619Y-401547D01*
X547619Y-544404D01*
X571428Y-592023D01*
X595238Y-615833D01*
X642857Y-639642D01*
X714285Y-639642D01*
X761904Y-615833D01*
X785714Y-592023D01*
X809523Y-544404D01*
X809523Y-401547D01*
X785714Y-353928D01*
X761904Y-330119D01*
X714285Y-306309D01*
X642857Y-306309D01*
X1023809Y-306309D02*
X1023809Y-806309D01*
X1142857Y-806309D01*
X1214285Y-782499D01*
X1261904Y-734880D01*
X1285714Y-687261D01*
X1309523Y-592023D01*
X1309523Y-520595D01*
X1285714Y-425357D01*
X1261904Y-377738D01*
X1214285Y-330119D01*
X1142857Y-306309D01*
X1023809Y-306309D01*
X1404761Y-258690D02*
X1785714Y-258690D01*
X1833333Y-806309D02*
X1999999Y-306309D01*
X2166666Y-806309D01*
X2547619Y-306309D02*
X2547619Y-568214D01*
X2523809Y-615833D01*
X2476190Y-639642D01*
X2380952Y-639642D01*
X2333333Y-615833D01*
X2547619Y-330119D02*
X2499999Y-306309D01*
X2380952Y-306309D01*
X2333333Y-330119D01*
X2309523Y-377738D01*
X2309523Y-425357D01*
X2333333Y-472976D01*
X2380952Y-496785D01*
X2499999Y-496785D01*
X2547619Y-520595D01*
X2999999Y-330119D02*
X2952380Y-306309D01*
X2857142Y-306309D01*
X2809523Y-330119D01*
X2785714Y-353928D01*
X2761904Y-401547D01*
X2761904Y-544404D01*
X2785714Y-592023D01*
X2809523Y-615833D01*
X2857142Y-639642D01*
X2952380Y-639642D01*
X2999999Y-615833D01*
X3428571Y-639642D02*
X3428571Y-306309D01*
X3214285Y-639642D02*
X3214285Y-377738D01*
X3238095Y-330119D01*
X3285714Y-306309D01*
X3357142Y-306309D01*
X3404761Y-330119D01*
X3428571Y-353928D01*
X3880952Y-639642D02*
X3880952Y-306309D01*
X3666666Y-639642D02*
X3666666Y-377738D01*
X3690476Y-330119D01*
X3738095Y-306309D01*
X3809523Y-306309D01*
X3857142Y-330119D01*
X3880952Y-353928D01*
X4119047Y-306309D02*
X4119047Y-639642D01*
X4119047Y-592023D02*
X4142857Y-615833D01*
X4190476Y-639642D01*
X4261904Y-639642D01*
X4309523Y-615833D01*
X4333333Y-568214D01*
X4333333Y-306309D01*
X4333333Y-568214D02*
X4357142Y-615833D01*
X4404761Y-639642D01*
X4476190Y-639642D01*
X4523809Y-615833D01*
X4547619Y-568214D01*
X4547619Y-306309D01*
X4666666Y-258690D02*
X5047619Y-258690D01*
X5333333Y-568214D02*
X5166666Y-568214D01*
X5166666Y-306309D02*
X5166666Y-806309D01*
X5404761Y-806309D01*
X5785714Y-330119D02*
X5738095Y-306309D01*
X5642857Y-306309D01*
X5595238Y-330119D01*
X5571428Y-377738D01*
X5571428Y-568214D01*
X5595238Y-615833D01*
X5642857Y-639642D01*
X5738095Y-639642D01*
X5785714Y-615833D01*
X5809523Y-568214D01*
X5809523Y-520595D01*
X5571428Y-472976D01*
X6214285Y-330119D02*
X6166666Y-306309D01*
X6071428Y-306309D01*
X6023809Y-330119D01*
X5999999Y-377738D01*
X5999999Y-568214D01*
X6023809Y-615833D01*
X6071428Y-639642D01*
X6166666Y-639642D01*
X6214285Y-615833D01*
X6238095Y-568214D01*
X6238095Y-520595D01*
X5999999Y-472976D01*
X6666666Y-306309D02*
X6666666Y-806309D01*
X6666666Y-330119D02*
X6619047Y-306309D01*
X6523809Y-306309D01*
X6476190Y-330119D01*
X6452380Y-353928D01*
X6428571Y-401547D01*
X6428571Y-544404D01*
X6452380Y-592023D01*
X6476190Y-615833D01*
X6523809Y-639642D01*
X6619047Y-639642D01*
X6666666Y-615833D01*
X6833333Y-639642D02*
X7023809Y-639642D01*
X6904761Y-806309D02*
X6904761Y-377738D01*
X6928571Y-330119D01*
X6976190Y-306309D01*
X7023809Y-306309D01*
X7190476Y-306309D02*
X7190476Y-806309D01*
X7404761Y-306309D02*
X7404761Y-568214D01*
X7380952Y-615833D01*
X7333333Y-639642D01*
X7261904Y-639642D01*
X7214285Y-615833D01*
X7190476Y-592023D01*
X7642857Y-306309D02*
X7642857Y-639642D01*
X7642857Y-544404D02*
X7666666Y-592023D01*
X7690476Y-615833D01*
X7738095Y-639642D01*
X7785714Y-639642D01*
X8023809Y-306309D02*
X7976190Y-330119D01*
X7952380Y-353928D01*
X7928571Y-401547D01*
X7928571Y-544404D01*
X7952380Y-592023D01*
X7976190Y-615833D01*
X8023809Y-639642D01*
X8095238Y-639642D01*
X8142857Y-615833D01*
X8166666Y-592023D01*
X8190476Y-544404D01*
X8190476Y-401547D01*
X8166666Y-353928D01*
X8142857Y-330119D01*
X8095238Y-306309D01*
X8023809Y-306309D01*
X8619047Y-639642D02*
X8619047Y-306309D01*
X8404761Y-639642D02*
X8404761Y-377738D01*
X8428571Y-330119D01*
X8476190Y-306309D01*
X8547619Y-306309D01*
X8595238Y-330119D01*
X8619047Y-353928D01*
X9071428Y-639642D02*
X9071428Y-234880D01*
X9047619Y-187261D01*
X9023809Y-163452D01*
X8976190Y-139642D01*
X8904761Y-139642D01*
X8857142Y-163452D01*
X9071428Y-330119D02*
X9023809Y-306309D01*
X8928571Y-306309D01*
X8880952Y-330119D01*
X8857142Y-353928D01*
X8833333Y-401547D01*
X8833333Y-544404D01*
X8857142Y-592023D01*
X8880952Y-615833D01*
X8928571Y-639642D01*
X9023809Y-639642D01*
X9071428Y-615833D01*
X9309523Y-306309D02*
X9309523Y-806309D01*
X9523809Y-306309D02*
X9523809Y-568214D01*
X9499999Y-615833D01*
X9452380Y-639642D01*
X9380952Y-639642D01*
X9333333Y-615833D01*
X9309523Y-592023D01*
X9642857Y-258690D02*
X10023809Y-258690D01*
X10142857Y-306309D02*
X10142857Y-806309D01*
X10261904Y-806309D01*
X10333333Y-782500D01*
X10380952Y-734880D01*
X10404761Y-687261D01*
X10428571Y-592023D01*
X10428571Y-520595D01*
X10404761Y-425357D01*
X10380952Y-377738D01*
X10333333Y-330119D01*
X10261904Y-306309D01*
X10142857Y-306309D01*
X10714285Y-306309D02*
X10666666Y-330119D01*
X10642857Y-353928D01*
X10619047Y-401547D01*
X10619047Y-544404D01*
X10642857Y-592023D01*
X10666666Y-615833D01*
X10714285Y-639642D01*
X10785714Y-639642D01*
X10833333Y-615833D01*
X10857142Y-592023D01*
X10880952Y-544404D01*
X10880952Y-401547D01*
X10857142Y-353928D01*
X10833333Y-330119D01*
X10785714Y-306309D01*
X10714285Y-306309D01*
X11309523Y-639642D02*
X11309523Y-306309D01*
X11095238Y-639642D02*
X11095238Y-377738D01*
X11119047Y-330119D01*
X11166666Y-306309D01*
X11238095Y-306309D01*
X11285714Y-330119D01*
X11309523Y-353928D01*
X11547619Y-306309D02*
X11547619Y-806309D01*
X11547619Y-615833D02*
X11595238Y-639642D01*
X11690476Y-639642D01*
X11738095Y-615833D01*
X11761904Y-592023D01*
X11785714Y-544404D01*
X11785714Y-401547D01*
X11761904Y-353928D01*
X11738095Y-330119D01*
X11690476Y-306309D01*
X11595238Y-306309D01*
X11547619Y-330119D01*
X12071428Y-306309D02*
X12023809Y-330119D01*
X11999999Y-377738D01*
X11999999Y-806309D01*
X12452380Y-330119D02*
X12404761Y-306309D01*
X12309523Y-306309D01*
X12261904Y-330119D01*
X12238095Y-377738D01*
X12238095Y-568214D01*
X12261904Y-615833D01*
X12309523Y-639642D01*
X12404761Y-639642D01*
X12452380Y-615833D01*
X12476190Y-568214D01*
X12476190Y-520595D01*
X12238095Y-472976D01*
X12571428Y-258690D02*
X12952380Y-258690D01*
X13071428Y-306309D02*
X13071428Y-806309D01*
X13119047Y-496785D02*
X13261904Y-306309D01*
X13261904Y-639642D02*
X13071428Y-449166D01*
X13404761Y-639642D02*
X13595238Y-639642D01*
X13476190Y-306309D02*
X13476190Y-734880D01*
X13499999Y-782500D01*
X13547619Y-806309D01*
X13595238Y-806309D01*
X13976190Y-639642D02*
X13976190Y-306309D01*
X13857142Y-830119D02*
X13738095Y-472976D01*
X14047619Y-472976D01*
X14333333Y-806309D02*
X14380952Y-806309D01*
X14428571Y-782500D01*
X14452380Y-758690D01*
X14476190Y-711071D01*
X14499999Y-615833D01*
X14499999Y-496785D01*
X14476190Y-401547D01*
X14452380Y-353928D01*
X14428571Y-330119D01*
X14380952Y-306309D01*
X14333333Y-306309D01*
X14285714Y-330119D01*
X14261904Y-353928D01*
X14238095Y-401547D01*
X14214285Y-496785D01*
X14214285Y-615833D01*
X14238095Y-711071D01*
X14261904Y-758690D01*
X14285714Y-782500D01*
X14333333Y-806309D01*
X3797619Y498690D02*
X3630952Y260595D01*
X3511904Y498690D02*
X3511904Y-1309D01*
X3702380Y-1309D01*
X3750000Y22500D01*
X3773809Y46309D01*
X3797619Y93928D01*
X3797619Y165357D01*
X3773809Y212976D01*
X3750000Y236785D01*
X3702380Y260595D01*
X3511904Y260595D01*
X3964285Y165357D02*
X4083333Y498690D01*
X4202380Y165357D02*
X4083333Y498690D01*
X4035714Y617738D01*
X4011904Y641547D01*
X3964285Y665357D01*
X4607142Y498690D02*
X4607142Y236785D01*
X4583333Y189166D01*
X4535714Y165357D01*
X4440476Y165357D01*
X4392857Y189166D01*
X4607142Y474880D02*
X4559523Y498690D01*
X4440476Y498690D01*
X4392857Y474880D01*
X4369047Y427261D01*
X4369047Y379642D01*
X4392857Y332023D01*
X4440476Y308214D01*
X4559523Y308214D01*
X4607142Y284404D01*
X4845238Y165357D02*
X4845238Y498690D01*
X4845238Y212976D02*
X4869047Y189166D01*
X4916666Y165357D01*
X4988095Y165357D01*
X5035714Y189166D01*
X5059523Y236785D01*
X5059523Y498690D01*
X5678571Y498690D02*
X5678571Y-1309D01*
X5845238Y355833D01*
X6011904Y-1309D01*
X6011904Y498690D01*
X6321428Y498690D02*
X6273809Y474880D01*
X6249999Y451071D01*
X6226190Y403452D01*
X6226190Y260595D01*
X6249999Y212976D01*
X6273809Y189166D01*
X6321428Y165357D01*
X6392857Y165357D01*
X6440476Y189166D01*
X6464285Y212976D01*
X6488095Y260595D01*
X6488095Y403452D01*
X6464285Y451071D01*
X6440476Y474880D01*
X6392857Y498690D01*
X6321428Y498690D01*
X6702380Y498690D02*
X6702380Y165357D01*
X6702380Y260595D02*
X6726190Y212976D01*
X6749999Y189166D01*
X6797619Y165357D01*
X6845238Y165357D01*
X7226190Y165357D02*
X7226190Y570119D01*
X7202380Y617738D01*
X7178571Y641547D01*
X7130952Y665357D01*
X7059523Y665357D01*
X7011904Y641547D01*
X7226190Y474880D02*
X7178571Y498690D01*
X7083333Y498690D01*
X7035714Y474880D01*
X7011904Y451071D01*
X6988095Y403452D01*
X6988095Y260595D01*
X7011904Y212976D01*
X7035714Y189166D01*
X7083333Y165357D01*
X7178571Y165357D01*
X7226190Y189166D01*
X7654761Y474880D02*
X7607142Y498690D01*
X7511904Y498690D01*
X7464285Y474880D01*
X7440476Y427261D01*
X7440476Y236785D01*
X7464285Y189166D01*
X7511904Y165357D01*
X7607142Y165357D01*
X7654761Y189166D01*
X7678571Y236785D01*
X7678571Y284404D01*
X7440476Y332023D01*
X7892857Y165357D02*
X7892857Y498690D01*
X7892857Y212976D02*
X7916666Y189166D01*
X7964285Y165357D01*
X8035714Y165357D01*
X8083333Y189166D01*
X8107142Y236785D01*
X8107142Y498690D01*
X8321428Y474880D02*
X8369047Y498690D01*
X8464285Y498690D01*
X8511904Y474880D01*
X8535714Y427261D01*
X8535714Y403452D01*
X8511904Y355833D01*
X8464285Y332023D01*
X8392857Y332023D01*
X8345238Y308214D01*
X8321428Y260595D01*
X8321428Y236785D01*
X8345238Y189166D01*
X8392857Y165357D01*
X8464285Y165357D01*
X8511904Y189166D01*
X8678571Y165357D02*
X8869047Y165357D01*
X8750000Y-1309D02*
X8750000Y427261D01*
X8773809Y474880D01*
X8821428Y498690D01*
X8869047Y498690D01*
X9226190Y474880D02*
X9178571Y498690D01*
X9083333Y498690D01*
X9035714Y474880D01*
X9011904Y427261D01*
X9011904Y236785D01*
X9035714Y189166D01*
X9083333Y165357D01*
X9178571Y165357D01*
X9226190Y189166D01*
X9250000Y236785D01*
X9250000Y284404D01*
X9011904Y332023D01*
X9464285Y498690D02*
X9464285Y165357D01*
X9464285Y260595D02*
X9488095Y212976D01*
X9511904Y189166D01*
X9559523Y165357D01*
X9607142Y165357D01*
X9773809Y165357D02*
X9773809Y498690D01*
X9773809Y212976D02*
X9797619Y189166D01*
X9845238Y165357D01*
X9916666Y165357D01*
X9964285Y189166D01*
X9988095Y236785D01*
X9988095Y498690D01*
X5178571Y1303690D02*
X5273809Y1303690D01*
X5321428Y1279880D01*
X5345238Y1256071D01*
X5392857Y1184642D01*
X5416666Y1089404D01*
X5416666Y898928D01*
X5392857Y851309D01*
X5369047Y827500D01*
X5321428Y803690D01*
X5226190Y803690D01*
X5178571Y827500D01*
X5154761Y851309D01*
X5130952Y898928D01*
X5130952Y1017976D01*
X5154761Y1065595D01*
X5178571Y1089404D01*
X5226190Y1113214D01*
X5321428Y1113214D01*
X5369047Y1089404D01*
X5392857Y1065595D01*
X5416666Y1017976D01*
X5988095Y779880D02*
X5559523Y1422738D01*
X6130952Y851309D02*
X6154761Y827500D01*
X6202380Y803690D01*
X6321428Y803690D01*
X6369047Y827500D01*
X6392857Y851309D01*
X6416666Y898928D01*
X6416666Y946547D01*
X6392857Y1017976D01*
X6107142Y1303690D01*
X6416666Y1303690D01*
X6726190Y803690D02*
X6773809Y803690D01*
X6821428Y827500D01*
X6845238Y851309D01*
X6869047Y898928D01*
X6892857Y994166D01*
X6892857Y1113214D01*
X6869047Y1208452D01*
X6845238Y1256071D01*
X6821428Y1279880D01*
X6773809Y1303690D01*
X6726190Y1303690D01*
X6678571Y1279880D01*
X6654761Y1256071D01*
X6630952Y1208452D01*
X6607142Y1113214D01*
X6607142Y994166D01*
X6630952Y898928D01*
X6654761Y851309D01*
X6678571Y827500D01*
X6726190Y803690D01*
X7464285Y779880D02*
X7035714Y1422738D01*
X7607142Y851309D02*
X7630952Y827499D01*
X7678571Y803690D01*
X7797619Y803690D01*
X7845238Y827499D01*
X7869047Y851309D01*
X7892857Y898928D01*
X7892857Y946547D01*
X7869047Y1017976D01*
X7583333Y1303690D01*
X7892857Y1303690D01*
X8083333Y851309D02*
X8107142Y827499D01*
X8154761Y803690D01*
X8273809Y803690D01*
X8321428Y827499D01*
X8345238Y851309D01*
X8369047Y898928D01*
X8369047Y946547D01*
X8345238Y1017976D01*
X8059523Y1303690D01*
X8369047Y1303690D01*
D11*
X433333Y11647619D02*
X433333Y10933333D01*
X480952Y10790476D01*
X576190Y10695238D01*
X719047Y10647619D01*
X814285Y10647619D01*
X4761Y11552380D02*
X-42857Y11600000D01*
X-138095Y11647619D01*
X-376190Y11647619D01*
X-471428Y11600000D01*
X-519047Y11552380D01*
X-566666Y11457142D01*
X-566666Y11361904D01*
X-519047Y11219047D01*
X52380Y10647619D01*
X-566666Y10647619D01*
X-7905714Y5807619D02*
X-7334285Y5807619D01*
X-7619999Y5807619D02*
X-7619999Y6807619D01*
X-7524761Y6664761D01*
X-7429523Y6569523D01*
X-7334285Y6521904D01*
X433333Y-5952380D02*
X433333Y-6666666D01*
X480952Y-6809523D01*
X576190Y-6904761D01*
X719047Y-6952380D01*
X814285Y-6952380D01*
X-471428Y-6285714D02*
X-471428Y-6952380D01*
X-233333Y-5904761D02*
X4761Y-6619047D01*
X-614285Y-6619047D01*
X-7905714Y-11792380D02*
X-7334285Y-11792380D01*
X-7619999Y-11792380D02*
X-7619999Y-10792380D01*
X-7524761Y-10935238D01*
X-7429523Y-11030476D01*
X-7334285Y-11078095D01*
X9080000Y2290000D02*
X9080000Y5310000D01*
X-9080000Y4310000D02*
X-9080000Y2290000D01*
X-9080000Y2290000D02*
X9080000Y2290000D01*
X9080000Y5310000D02*
X-8080000Y5310000D01*
X-8080000Y5310000D02*
X-9080000Y4310000D01*
X9080000Y-5310000D02*
X9080000Y-2290000D01*
X9080000Y-2290000D02*
X-8080000Y-2290000D01*
X-8080000Y-2290000D02*
X-9080000Y-3290000D01*
X-9080000Y-5310000D02*
X9080000Y-5310000D01*
X-9080000Y-3290000D02*
X-9080000Y-5310000D01*
%LPC*%
D12*
X18000000Y0D02*
G75*
G03*
X18000000Y0I-18000000J0D01*
G01*
D13*
X-7620000Y4350000D03*
X-6350000Y4350000D03*
X-5080000Y4350000D03*
X-3810000Y4350000D03*
X-2540000Y4350000D03*
X-1270000Y4350000D03*
X0Y4350000D03*
X1270000Y4350000D03*
X2540000Y4350000D03*
X3810000Y4350000D03*
X5080000Y4350000D03*
X6350000Y4350000D03*
X7620000Y4350000D03*
X-6985000Y3250000D03*
X-5715000Y3250000D03*
X-4445000Y3250000D03*
X-3175000Y3250000D03*
X-1905000Y3250000D03*
X-635000Y3250000D03*
X635000Y3250000D03*
X1905000Y3250000D03*
X3175000Y3250000D03*
X4445000Y3250000D03*
X5715000Y3250000D03*
X6985000Y3250000D03*
X-7620000Y-3250000D03*
X-6350000Y-3250000D03*
X-5080000Y-3250000D03*
X-3810000Y-3250000D03*
X-2540000Y-3250000D03*
X-1270000Y-3250000D03*
X0Y-3250000D03*
X1270000Y-3250000D03*
X2540000Y-3250000D03*
X3810000Y-3250000D03*
X5080000Y-3250000D03*
X6350000Y-3250000D03*
X7620000Y-3250000D03*
X-6985000Y-4350000D03*
X-5715000Y-4350000D03*
X-4445000Y-4350000D03*
X-3175000Y-4350000D03*
X-1905000Y-4350000D03*
X-635000Y-4350000D03*
X635000Y-4350000D03*
X1905000Y-4350000D03*
X3175000Y-4350000D03*
X4445000Y-4350000D03*
X5715000Y-4350000D03*
X6985000Y-4350000D03*
X-7620000Y8250000D03*
X-6350000Y8250000D03*
X-5080000Y8250000D03*
X-3810000Y8250000D03*
X-2540000Y8250000D03*
X-1270000Y8250000D03*
X0Y8250000D03*
X1270000Y8250000D03*
X2540000Y8250000D03*
X3810000Y8250000D03*
X5080000Y8250000D03*
X6350000Y8250000D03*
X7620000Y8250000D03*
X-6985000Y9350000D03*
X-5715000Y9350000D03*
X-4445000Y9350000D03*
X-3175000Y9350000D03*
X-1905000Y9350000D03*
X-635000Y9350000D03*
X635000Y9350000D03*
X1905000Y9350000D03*
X3175000Y9350000D03*
X4445000Y9350000D03*
X5715000Y9350000D03*
X6985000Y9350000D03*
D14*
X12275000Y8800000D03*
X-12275000Y8740000D03*
D13*
X-7620000Y-9350000D03*
X-6350000Y-9350000D03*
X-5080000Y-9350000D03*
X-3810000Y-9350000D03*
X-2540000Y-9350000D03*
X-1270000Y-9350000D03*
X0Y-9350000D03*
X1270000Y-9350000D03*
X2540000Y-9350000D03*
X3810000Y-9350000D03*
X5080000Y-9350000D03*
X6350000Y-9350000D03*
X7620000Y-9350000D03*
X-6985000Y-8250000D03*
X-5715000Y-8250000D03*
X-4445000Y-8250000D03*
X-3175000Y-8250000D03*
X-1905000Y-8250000D03*
X-635000Y-8250000D03*
X635000Y-8250000D03*
X1905000Y-8250000D03*
X3175000Y-8250000D03*
X4445000Y-8250000D03*
X5715000Y-8250000D03*
X6985000Y-8250000D03*
D14*
X-12275000Y-8860000D03*
X12275000Y-8800000D03*
M02*
