G04 #@! TF.GenerationSoftware,KiCad,Pcbnew,(6.0.6)*
G04 #@! TF.CreationDate,2023-01-18T13:06:51-07:00*
G04 #@! TF.ProjectId,Double_MicroD_25_Gateway,446f7562-6c65-45f4-9d69-63726f445f32,rev?*
G04 #@! TF.SameCoordinates,Original*
G04 #@! TF.FileFunction,Soldermask,Top*
G04 #@! TF.FilePolarity,Negative*
%FSLAX46Y46*%
G04 Gerber Fmt 4.6, Leading zero omitted, Abs format (unit mm)*
G04 Created by KiCad (PCBNEW (6.0.6)) date 2023-01-18 13:06:51*
%MOMM*%
%LPD*%
G01*
G04 APERTURE LIST*
%ADD10C,1.600000*%
%ADD11O,0.920000X0.920000*%
%ADD12C,2.800000*%
G04 APERTURE END LIST*
D10*
X18000000Y0D02*
G75*
G03*
X18000000Y0I-18000000J0D01*
G01*
D11*
X-7620000Y4350000D03*
X-6350000Y4350000D03*
X-5080000Y4350000D03*
X-3810000Y4350000D03*
X-2540000Y4350000D03*
X-1270000Y4350000D03*
X0Y4350000D03*
X1270000Y4350000D03*
X2540000Y4350000D03*
X3810000Y4350000D03*
X5080000Y4350000D03*
X6350000Y4350000D03*
X7620000Y4350000D03*
X-6985000Y3250000D03*
X-5715000Y3250000D03*
X-4445000Y3250000D03*
X-3175000Y3250000D03*
X-1905000Y3250000D03*
X-635000Y3250000D03*
X635000Y3250000D03*
X1905000Y3250000D03*
X3175000Y3250000D03*
X4445000Y3250000D03*
X5715000Y3250000D03*
X6985000Y3250000D03*
D12*
X-12275000Y3860000D03*
X12275000Y3800000D03*
X-12275000Y-3740000D03*
X12275000Y-3800000D03*
D11*
X6985000Y-4350000D03*
X5715000Y-4350000D03*
X4445000Y-4350000D03*
X3175000Y-4350000D03*
X1905000Y-4350000D03*
X635000Y-4350000D03*
X-635000Y-4350000D03*
X-1905000Y-4350000D03*
X-3175000Y-4350000D03*
X-4445000Y-4350000D03*
X-5715000Y-4350000D03*
X-6985000Y-4350000D03*
X7620000Y-3250000D03*
X6350000Y-3250000D03*
X5080000Y-3250000D03*
X3810000Y-3250000D03*
X2540000Y-3250000D03*
X1270000Y-3250000D03*
X0Y-3250000D03*
X-1270000Y-3250000D03*
X-2540000Y-3250000D03*
X-3810000Y-3250000D03*
X-5080000Y-3250000D03*
X-6350000Y-3250000D03*
X-7620000Y-3250000D03*
X7620000Y9350000D03*
X6350000Y9350000D03*
X5080000Y9350000D03*
X3810000Y9350000D03*
X2540000Y9350000D03*
X1270000Y9350000D03*
X0Y9350000D03*
X-1270000Y9350000D03*
X-2540000Y9350000D03*
X-3810000Y9350000D03*
X-5080000Y9350000D03*
X-6350000Y9350000D03*
X-7620000Y9350000D03*
X6985000Y8250000D03*
X5715000Y8250000D03*
X4445000Y8250000D03*
X3175000Y8250000D03*
X1905000Y8250000D03*
X635000Y8250000D03*
X-635000Y8250000D03*
X-1905000Y8250000D03*
X-3175000Y8250000D03*
X-4445000Y8250000D03*
X-5715000Y8250000D03*
X-6985000Y8250000D03*
X7620000Y-8250000D03*
X6350000Y-8250000D03*
X5080000Y-8250000D03*
X3810000Y-8250000D03*
X2540000Y-8250000D03*
X1270000Y-8250000D03*
X0Y-8250000D03*
X-1270000Y-8250000D03*
X-2540000Y-8250000D03*
X-3810000Y-8250000D03*
X-5080000Y-8250000D03*
X-6350000Y-8250000D03*
X-7620000Y-8250000D03*
X6985000Y-9350000D03*
X5715000Y-9350000D03*
X4445000Y-9350000D03*
X3175000Y-9350000D03*
X1905000Y-9350000D03*
X635000Y-9350000D03*
X-635000Y-9350000D03*
X-1905000Y-9350000D03*
X-3175000Y-9350000D03*
X-4445000Y-9350000D03*
X-5715000Y-9350000D03*
X-6985000Y-9350000D03*
M02*
