G04 #@! TF.GenerationSoftware,KiCad,Pcbnew,(6.0.5)*
G04 #@! TF.CreationDate,2022-09-27T11:09:55-06:00*
G04 #@! TF.ProjectId,Double_MicroD_25_Gateway,446f7562-6c65-45f4-9d69-63726f445f32,rev?*
G04 #@! TF.SameCoordinates,Original*
G04 #@! TF.FileFunction,Copper,L4,Bot*
G04 #@! TF.FilePolarity,Positive*
%FSLAX46Y46*%
G04 Gerber Fmt 4.6, Leading zero omitted, Abs format (unit mm)*
G04 Created by KiCad (PCBNEW (6.0.5)) date 2022-09-27 11:09:55*
%MOMM*%
%LPD*%
G01*
G04 APERTURE LIST*
G04 #@! TA.AperFunction,ComponentPad*
%ADD10O,0.920000X0.920000*%
G04 #@! TD*
G04 #@! TA.AperFunction,SMDPad,CuDef*
%ADD11C,2.800000*%
G04 #@! TD*
G04 #@! TA.AperFunction,ViaPad*
%ADD12C,0.800000*%
G04 #@! TD*
G04 APERTURE END LIST*
D10*
X-7620000Y4350000D03*
X-6350000Y4350000D03*
X-5080000Y4350000D03*
X-3810000Y4350000D03*
X-2540000Y4350000D03*
X-1270000Y4350000D03*
X0Y4350000D03*
X1270000Y4350000D03*
X2540000Y4350000D03*
X3810000Y4350000D03*
X5080000Y4350000D03*
X6350000Y4350000D03*
X7620000Y4350000D03*
X-6985000Y3250000D03*
X-5715000Y3250000D03*
X-4445000Y3250000D03*
X-3175000Y3250000D03*
X-1905000Y3250000D03*
X-635000Y3250000D03*
X635000Y3250000D03*
X1905000Y3250000D03*
X3175000Y3250000D03*
X4445000Y3250000D03*
X5715000Y3250000D03*
X6985000Y3250000D03*
X-7620000Y-3250000D03*
X-6350000Y-3250000D03*
X-5080000Y-3250000D03*
X-3810000Y-3250000D03*
X-2540000Y-3250000D03*
X-1270000Y-3250000D03*
X0Y-3250000D03*
X1270000Y-3250000D03*
X2540000Y-3250000D03*
X3810000Y-3250000D03*
X5080000Y-3250000D03*
X6350000Y-3250000D03*
X7620000Y-3250000D03*
X-6985000Y-4350000D03*
X-5715000Y-4350000D03*
X-4445000Y-4350000D03*
X-3175000Y-4350000D03*
X-1905000Y-4350000D03*
X-635000Y-4350000D03*
X635000Y-4350000D03*
X1905000Y-4350000D03*
X3175000Y-4350000D03*
X4445000Y-4350000D03*
X5715000Y-4350000D03*
X6985000Y-4350000D03*
X-7620000Y8250000D03*
X-6350000Y8250000D03*
X-5080000Y8250000D03*
X-3810000Y8250000D03*
X-2540000Y8250000D03*
X-1270000Y8250000D03*
X0Y8250000D03*
X1270000Y8250000D03*
X2540000Y8250000D03*
X3810000Y8250000D03*
X5080000Y8250000D03*
X6350000Y8250000D03*
X7620000Y8250000D03*
X-6985000Y9350000D03*
X-5715000Y9350000D03*
X-4445000Y9350000D03*
X-3175000Y9350000D03*
X-1905000Y9350000D03*
X-635000Y9350000D03*
X635000Y9350000D03*
X1905000Y9350000D03*
X3175000Y9350000D03*
X4445000Y9350000D03*
X5715000Y9350000D03*
X6985000Y9350000D03*
D11*
X12275000Y8800000D03*
X-12275000Y8740000D03*
D10*
X-7620000Y-9350000D03*
X-6350000Y-9350000D03*
X-5080000Y-9350000D03*
X-3810000Y-9350000D03*
X-2540000Y-9350000D03*
X-1270000Y-9350000D03*
X0Y-9350000D03*
X1270000Y-9350000D03*
X2540000Y-9350000D03*
X3810000Y-9350000D03*
X5080000Y-9350000D03*
X6350000Y-9350000D03*
X7620000Y-9350000D03*
X-6985000Y-8250000D03*
X-5715000Y-8250000D03*
X-4445000Y-8250000D03*
X-3175000Y-8250000D03*
X-1905000Y-8250000D03*
X-635000Y-8250000D03*
X635000Y-8250000D03*
X1905000Y-8250000D03*
X3175000Y-8250000D03*
X4445000Y-8250000D03*
X5715000Y-8250000D03*
X6985000Y-8250000D03*
D11*
X-12275000Y-8860000D03*
X12275000Y-8800000D03*
D12*
X10580135Y14562306D03*
X10580135Y-14562306D03*
X-10580135Y-14562306D03*
X17119017Y-5562306D03*
X17119017Y5562306D03*
X-14562306Y10580135D03*
X14562306Y10580135D03*
X-5562306Y17119017D03*
X14562306Y-10580135D03*
X5562306Y-17119017D03*
X0Y18000000D03*
X-14562306Y-10580135D03*
X-17119017Y5562306D03*
X-5562306Y-17119017D03*
X18000000Y0D03*
X0Y-18000000D03*
X-10580135Y14562306D03*
X-18000000Y0D03*
X-17119017Y-5562306D03*
X5562306Y17119017D03*
G04 #@! TA.AperFunction,Conductor*
G36*
X513021Y18469311D02*
G01*
X518736Y18469152D01*
X1350336Y18427025D01*
X1356038Y18426606D01*
X1791564Y18384670D01*
X2184864Y18346799D01*
X2190505Y18346126D01*
X2672548Y18277522D01*
X3014865Y18228803D01*
X3020505Y18227869D01*
X3838657Y18073277D01*
X3844249Y18072089D01*
X4654592Y17880532D01*
X4660125Y17879090D01*
X5460891Y17650987D01*
X5466349Y17649298D01*
X6255991Y17385088D01*
X6261351Y17383158D01*
X6746332Y17196019D01*
X7038193Y17083399D01*
X7043478Y17081220D01*
X7805890Y16746544D01*
X7811053Y16744137D01*
X8322802Y16491215D01*
X8557509Y16375215D01*
X8562576Y16372567D01*
X9291549Y15970152D01*
X9296490Y15967276D01*
X10006440Y15532219D01*
X10011245Y15529122D01*
X10700715Y15062316D01*
X10705376Y15059004D01*
X10944415Y14880830D01*
X11372997Y14561374D01*
X11377470Y14557880D01*
X11491114Y14464863D01*
X12021821Y14030484D01*
X12026162Y14026763D01*
X12645895Y13470709D01*
X12650063Y13466796D01*
X13243972Y12883163D01*
X13247957Y12879064D01*
X13814749Y12269123D01*
X13818545Y12264847D01*
X14357086Y11629820D01*
X14360684Y11625377D01*
X14869862Y10966578D01*
X14873255Y10961977D01*
X15352046Y10280728D01*
X15355226Y10275977D01*
X15802602Y9573736D01*
X15805564Y9568845D01*
X16220621Y8847038D01*
X16223358Y8842019D01*
X16382060Y8534541D01*
X16518374Y8270438D01*
X16605261Y8102097D01*
X16607760Y8096971D01*
X16840571Y7590805D01*
X16955695Y7340508D01*
X16957963Y7335268D01*
X17036891Y7140893D01*
X17271231Y6563783D01*
X17273261Y6558439D01*
X17551204Y5773553D01*
X17552989Y5768123D01*
X17783577Y5009170D01*
X17795044Y4971426D01*
X17796579Y4965926D01*
X17999271Y4170740D01*
X18002244Y4159075D01*
X18003527Y4153518D01*
X18075902Y3804028D01*
X18172378Y3338162D01*
X18173410Y3332539D01*
X18305099Y2510375D01*
X18305875Y2504711D01*
X18400135Y1677410D01*
X18400652Y1671726D01*
X18456225Y856568D01*
X18457285Y841016D01*
X18457544Y835325D01*
X18472109Y193482D01*
X18476453Y2073D01*
X18476478Y-2105D01*
X18472470Y-384853D01*
X18472357Y-389030D01*
X18436004Y-1221655D01*
X18435626Y-1227344D01*
X18433478Y-1251419D01*
X18361608Y-2056703D01*
X18360973Y-2062368D01*
X18326335Y-2318557D01*
X18249408Y-2887519D01*
X18248513Y-2893166D01*
X18099630Y-3712413D01*
X18098481Y-3718014D01*
X17912593Y-4529644D01*
X17911190Y-4535186D01*
X17688680Y-5337533D01*
X17687028Y-5343006D01*
X17428343Y-6134453D01*
X17426448Y-6139835D01*
X17143889Y-6887606D01*
X17132121Y-6918749D01*
X17129980Y-6924047D01*
X16814833Y-7655813D01*
X16800631Y-7688789D01*
X16798257Y-7693974D01*
X16444647Y-8422206D01*
X16434554Y-8442992D01*
X16431944Y-8448070D01*
X16181139Y-8909995D01*
X16034634Y-9179823D01*
X16031793Y-9184784D01*
X15601695Y-9897767D01*
X15598631Y-9902594D01*
X15136657Y-10595294D01*
X15133378Y-10599978D01*
X14640430Y-11271046D01*
X14636942Y-11275575D01*
X14114066Y-11923581D01*
X14110375Y-11927948D01*
X13558661Y-12551548D01*
X13554777Y-12555743D01*
X12975315Y-13153702D01*
X12971244Y-13157716D01*
X12365275Y-13728752D01*
X12361026Y-13732578D01*
X11729776Y-14275538D01*
X11725359Y-14279167D01*
X11070113Y-14792946D01*
X11065535Y-14796371D01*
X10387650Y-15279902D01*
X10382921Y-15283115D01*
X9683826Y-15735380D01*
X9678956Y-15738376D01*
X8960061Y-16158464D01*
X8955061Y-16161236D01*
X8217822Y-16548295D01*
X8212721Y-16550827D01*
X7976654Y-16661409D01*
X7458692Y-16904040D01*
X7453461Y-16906347D01*
X6684190Y-17224990D01*
X6678860Y-17227057D01*
X5895947Y-17510467D01*
X5890528Y-17512291D01*
X5594031Y-17604640D01*
X5095543Y-17759902D01*
X5090063Y-17761474D01*
X4284639Y-17972773D01*
X4279109Y-17974090D01*
X3625689Y-18114171D01*
X3464940Y-18148632D01*
X3459324Y-18149703D01*
X2638083Y-18287132D01*
X2632444Y-18287945D01*
X2343471Y-18322914D01*
X1805831Y-18387975D01*
X1800141Y-18388533D01*
X969854Y-18450963D01*
X964145Y-18451263D01*
X500312Y-18465029D01*
X131817Y-18475966D01*
X126120Y-18476005D01*
X-507741Y-18466047D01*
X-706403Y-18462926D01*
X-712116Y-18462707D01*
X-1543212Y-18411875D01*
X-1548909Y-18411397D01*
X-2376862Y-18322914D01*
X-2382532Y-18322177D01*
X-2766339Y-18263447D01*
X-3205611Y-18196228D01*
X-3211200Y-18195243D01*
X-3619468Y-18113663D01*
X-4027714Y-18032087D01*
X-4033294Y-18030840D01*
X-4433332Y-17931841D01*
X-4841585Y-17830808D01*
X-4847060Y-17829321D01*
X-5605571Y-17604640D01*
X-5645427Y-17592834D01*
X-5650870Y-17591087D01*
X-5895944Y-17506223D01*
X-6437703Y-17318622D01*
X-6443035Y-17316639D01*
X-6829868Y-17162699D01*
X-7216687Y-17008765D01*
X-7221950Y-17006531D01*
X-7980838Y-16663880D01*
X-7985994Y-16661409D01*
X-8323737Y-16490062D01*
X-8728537Y-16284695D01*
X-8733566Y-16281999D01*
X-8949356Y-16159911D01*
X-9458290Y-15871971D01*
X-9463179Y-15869055D01*
X-10168536Y-15426585D01*
X-10173304Y-15423442D01*
X-10857861Y-14949432D01*
X-10862463Y-14946089D01*
X-11524840Y-14441493D01*
X-11529308Y-14437926D01*
X-12168092Y-13903820D01*
X-12172393Y-13900054D01*
X-12786267Y-13337542D01*
X-12790394Y-13333585D01*
X-13378148Y-12743775D01*
X-13382090Y-12739635D01*
X-13942467Y-12123790D01*
X-13946218Y-12119475D01*
X-14270524Y-11728847D01*
X-14478091Y-11478831D01*
X-14481633Y-11474362D01*
X-14635399Y-11271046D01*
X-14983907Y-10810237D01*
X-14987244Y-10805609D01*
X-15016079Y-10763653D01*
X-15281265Y-10377806D01*
X-13427639Y-10377806D01*
X-13420249Y-10388108D01*
X-13378370Y-10422203D01*
X-13371091Y-10427318D01*
X-13147244Y-10562085D01*
X-13139330Y-10566118D01*
X-12898714Y-10668006D01*
X-12890309Y-10670883D01*
X-12637743Y-10737850D01*
X-12629011Y-10739516D01*
X-12369526Y-10770227D01*
X-12360660Y-10770645D01*
X-12099439Y-10764490D01*
X-12090586Y-10763653D01*
X-11832838Y-10720752D01*
X-11824204Y-10718679D01*
X-11575070Y-10639888D01*
X-11566808Y-10636617D01*
X-11331269Y-10523513D01*
X-11323545Y-10519107D01*
X-11129732Y-10389606D01*
X-11121444Y-10379688D01*
X-11128701Y-10365509D01*
X-11176404Y-10317806D01*
X11122361Y-10317806D01*
X11129751Y-10328108D01*
X11171630Y-10362203D01*
X11178909Y-10367318D01*
X11402756Y-10502085D01*
X11410670Y-10506118D01*
X11651286Y-10608006D01*
X11659691Y-10610883D01*
X11912257Y-10677850D01*
X11920989Y-10679516D01*
X12180474Y-10710227D01*
X12189340Y-10710645D01*
X12450561Y-10704490D01*
X12459414Y-10703653D01*
X12717162Y-10660752D01*
X12725796Y-10658679D01*
X12974930Y-10579888D01*
X12983192Y-10576617D01*
X13218731Y-10463513D01*
X13226455Y-10459107D01*
X13420268Y-10329606D01*
X13428556Y-10319688D01*
X13421299Y-10305509D01*
X12287812Y-9172022D01*
X12273868Y-9164408D01*
X12272035Y-9164539D01*
X12265420Y-9168790D01*
X11129527Y-10304683D01*
X11122361Y-10317806D01*
X-11176404Y-10317806D01*
X-12262188Y-9232022D01*
X-12276132Y-9224408D01*
X-12277965Y-9224539D01*
X-12284580Y-9228790D01*
X-13420473Y-10364683D01*
X-13427639Y-10377806D01*
X-15281265Y-10377806D01*
X-15321208Y-10319688D01*
X-15458862Y-10119400D01*
X-15461992Y-10114616D01*
X-15826344Y-9529260D01*
X-15901985Y-9407738D01*
X-15904893Y-9402822D01*
X-15978681Y-9271332D01*
X-16038684Y-9164408D01*
X-16240729Y-8804367D01*
X-14186755Y-8804367D01*
X-14176497Y-9065459D01*
X-14175522Y-9074288D01*
X-14128578Y-9331332D01*
X-14126369Y-9339934D01*
X-14043676Y-9587796D01*
X-14040272Y-9596014D01*
X-13923481Y-9829750D01*
X-13918957Y-9837398D01*
X-13803648Y-10004235D01*
X-13793327Y-10012589D01*
X-13779677Y-10005467D01*
X-12647022Y-8872812D01*
X-12640644Y-8861132D01*
X-11910592Y-8861132D01*
X-11910461Y-8862965D01*
X-11906210Y-8869580D01*
X-10769483Y-10006307D01*
X-10756083Y-10013624D01*
X-10746179Y-10006637D01*
X-10730314Y-9987763D01*
X-10725095Y-9980580D01*
X-10586829Y-9758876D01*
X-10582667Y-9751017D01*
X-10477012Y-9512030D01*
X-10474006Y-9503680D01*
X-10428699Y-9343033D01*
X-8285315Y-9343033D01*
X-8280778Y-9384130D01*
X-8273281Y-9452030D01*
X-8267772Y-9501933D01*
X-8265163Y-9509064D01*
X-8265162Y-9509066D01*
X-8257772Y-9529260D01*
X-8212832Y-9652063D01*
X-8208595Y-9658369D01*
X-8208593Y-9658372D01*
X-8181375Y-9698876D01*
X-8123667Y-9784754D01*
X-8118049Y-9789866D01*
X-8011046Y-9887232D01*
X-8011042Y-9887235D01*
X-8005425Y-9892346D01*
X-7998748Y-9895972D01*
X-7998747Y-9895972D01*
X-7871609Y-9965003D01*
X-7871607Y-9965004D01*
X-7864932Y-9968628D01*
X-7857583Y-9970556D01*
X-7717648Y-10007267D01*
X-7717646Y-10007267D01*
X-7710298Y-10009195D01*
X-7628878Y-10010474D01*
X-7558051Y-10011587D01*
X-7558048Y-10011587D01*
X-7550452Y-10011706D01*
X-7543048Y-10010010D01*
X-7543046Y-10010010D01*
X-7445911Y-9987763D01*
X-7394620Y-9976016D01*
X-7251800Y-9904185D01*
X-7246029Y-9899256D01*
X-7246026Y-9899254D01*
X-7136015Y-9805295D01*
X-7130237Y-9800360D01*
X-7087688Y-9741147D01*
X-7031693Y-9697500D01*
X-6960989Y-9691055D01*
X-6898025Y-9723858D01*
X-6880790Y-9744391D01*
X-6853667Y-9784754D01*
X-6848049Y-9789866D01*
X-6741046Y-9887232D01*
X-6741042Y-9887235D01*
X-6735425Y-9892346D01*
X-6728748Y-9895972D01*
X-6728747Y-9895972D01*
X-6601609Y-9965003D01*
X-6601607Y-9965004D01*
X-6594932Y-9968628D01*
X-6587583Y-9970556D01*
X-6447648Y-10007267D01*
X-6447646Y-10007267D01*
X-6440298Y-10009195D01*
X-6358878Y-10010474D01*
X-6288051Y-10011587D01*
X-6288048Y-10011587D01*
X-6280452Y-10011706D01*
X-6273048Y-10010010D01*
X-6273046Y-10010010D01*
X-6175911Y-9987763D01*
X-6124620Y-9976016D01*
X-5981800Y-9904185D01*
X-5976029Y-9899256D01*
X-5976026Y-9899254D01*
X-5866015Y-9805295D01*
X-5860237Y-9800360D01*
X-5817688Y-9741147D01*
X-5761693Y-9697500D01*
X-5690989Y-9691055D01*
X-5628025Y-9723858D01*
X-5610790Y-9744391D01*
X-5583667Y-9784754D01*
X-5578049Y-9789866D01*
X-5471046Y-9887232D01*
X-5471042Y-9887235D01*
X-5465425Y-9892346D01*
X-5458748Y-9895972D01*
X-5458747Y-9895972D01*
X-5331609Y-9965003D01*
X-5331607Y-9965004D01*
X-5324932Y-9968628D01*
X-5317583Y-9970556D01*
X-5177648Y-10007267D01*
X-5177646Y-10007267D01*
X-5170298Y-10009195D01*
X-5088878Y-10010474D01*
X-5018051Y-10011587D01*
X-5018048Y-10011587D01*
X-5010452Y-10011706D01*
X-5003048Y-10010010D01*
X-5003046Y-10010010D01*
X-4905911Y-9987763D01*
X-4854620Y-9976016D01*
X-4711800Y-9904185D01*
X-4706029Y-9899256D01*
X-4706026Y-9899254D01*
X-4596015Y-9805295D01*
X-4590237Y-9800360D01*
X-4547688Y-9741147D01*
X-4491693Y-9697500D01*
X-4420989Y-9691055D01*
X-4358025Y-9723858D01*
X-4340790Y-9744391D01*
X-4313667Y-9784754D01*
X-4308049Y-9789866D01*
X-4201046Y-9887232D01*
X-4201042Y-9887235D01*
X-4195425Y-9892346D01*
X-4188748Y-9895972D01*
X-4188747Y-9895972D01*
X-4061609Y-9965003D01*
X-4061607Y-9965004D01*
X-4054932Y-9968628D01*
X-4047583Y-9970556D01*
X-3907648Y-10007267D01*
X-3907646Y-10007267D01*
X-3900298Y-10009195D01*
X-3818878Y-10010474D01*
X-3748051Y-10011587D01*
X-3748048Y-10011587D01*
X-3740452Y-10011706D01*
X-3733048Y-10010010D01*
X-3733046Y-10010010D01*
X-3635911Y-9987763D01*
X-3584620Y-9976016D01*
X-3441800Y-9904185D01*
X-3436029Y-9899256D01*
X-3436026Y-9899254D01*
X-3326015Y-9805295D01*
X-3320237Y-9800360D01*
X-3277688Y-9741147D01*
X-3221693Y-9697500D01*
X-3150989Y-9691055D01*
X-3088025Y-9723858D01*
X-3070790Y-9744391D01*
X-3043667Y-9784754D01*
X-3038049Y-9789866D01*
X-2931046Y-9887232D01*
X-2931042Y-9887235D01*
X-2925425Y-9892346D01*
X-2918748Y-9895972D01*
X-2918747Y-9895972D01*
X-2791609Y-9965003D01*
X-2791607Y-9965004D01*
X-2784932Y-9968628D01*
X-2777583Y-9970556D01*
X-2637648Y-10007267D01*
X-2637646Y-10007267D01*
X-2630298Y-10009195D01*
X-2548878Y-10010474D01*
X-2478051Y-10011587D01*
X-2478048Y-10011587D01*
X-2470452Y-10011706D01*
X-2463048Y-10010010D01*
X-2463046Y-10010010D01*
X-2365911Y-9987763D01*
X-2314620Y-9976016D01*
X-2171800Y-9904185D01*
X-2166029Y-9899256D01*
X-2166026Y-9899254D01*
X-2056015Y-9805295D01*
X-2050237Y-9800360D01*
X-2007688Y-9741147D01*
X-1951693Y-9697500D01*
X-1880989Y-9691055D01*
X-1818025Y-9723858D01*
X-1800790Y-9744391D01*
X-1773667Y-9784754D01*
X-1768049Y-9789866D01*
X-1661046Y-9887232D01*
X-1661042Y-9887235D01*
X-1655425Y-9892346D01*
X-1648748Y-9895972D01*
X-1648747Y-9895972D01*
X-1521609Y-9965003D01*
X-1521607Y-9965004D01*
X-1514932Y-9968628D01*
X-1507583Y-9970556D01*
X-1367648Y-10007267D01*
X-1367646Y-10007267D01*
X-1360298Y-10009195D01*
X-1278878Y-10010474D01*
X-1208051Y-10011587D01*
X-1208048Y-10011587D01*
X-1200452Y-10011706D01*
X-1193048Y-10010010D01*
X-1193046Y-10010010D01*
X-1095911Y-9987763D01*
X-1044620Y-9976016D01*
X-901800Y-9904185D01*
X-896029Y-9899256D01*
X-896026Y-9899254D01*
X-786015Y-9805295D01*
X-780237Y-9800360D01*
X-737688Y-9741147D01*
X-681693Y-9697500D01*
X-610989Y-9691055D01*
X-548025Y-9723858D01*
X-530790Y-9744391D01*
X-503667Y-9784754D01*
X-498049Y-9789866D01*
X-391046Y-9887232D01*
X-391042Y-9887235D01*
X-385425Y-9892346D01*
X-378748Y-9895972D01*
X-378747Y-9895972D01*
X-251609Y-9965003D01*
X-251607Y-9965004D01*
X-244932Y-9968628D01*
X-237583Y-9970556D01*
X-97648Y-10007267D01*
X-97646Y-10007267D01*
X-90298Y-10009195D01*
X-8878Y-10010474D01*
X61949Y-10011587D01*
X61952Y-10011587D01*
X69548Y-10011706D01*
X76952Y-10010010D01*
X76954Y-10010010D01*
X174089Y-9987763D01*
X225380Y-9976016D01*
X368200Y-9904185D01*
X373971Y-9899256D01*
X373974Y-9899254D01*
X483985Y-9805295D01*
X489763Y-9800360D01*
X532312Y-9741147D01*
X588307Y-9697500D01*
X659011Y-9691055D01*
X721975Y-9723858D01*
X739210Y-9744391D01*
X766333Y-9784754D01*
X771951Y-9789866D01*
X878954Y-9887232D01*
X878958Y-9887235D01*
X884575Y-9892346D01*
X891252Y-9895972D01*
X891253Y-9895972D01*
X1018391Y-9965003D01*
X1018393Y-9965004D01*
X1025068Y-9968628D01*
X1032417Y-9970556D01*
X1172352Y-10007267D01*
X1172354Y-10007267D01*
X1179702Y-10009195D01*
X1261122Y-10010474D01*
X1331949Y-10011587D01*
X1331952Y-10011587D01*
X1339548Y-10011706D01*
X1346952Y-10010010D01*
X1346954Y-10010010D01*
X1444089Y-9987763D01*
X1495380Y-9976016D01*
X1638200Y-9904185D01*
X1643971Y-9899256D01*
X1643974Y-9899254D01*
X1753985Y-9805295D01*
X1759763Y-9800360D01*
X1802312Y-9741147D01*
X1858307Y-9697500D01*
X1929011Y-9691055D01*
X1991975Y-9723858D01*
X2009210Y-9744391D01*
X2036333Y-9784754D01*
X2041951Y-9789866D01*
X2148954Y-9887232D01*
X2148958Y-9887235D01*
X2154575Y-9892346D01*
X2161252Y-9895972D01*
X2161253Y-9895972D01*
X2288391Y-9965003D01*
X2288393Y-9965004D01*
X2295068Y-9968628D01*
X2302417Y-9970556D01*
X2442352Y-10007267D01*
X2442354Y-10007267D01*
X2449702Y-10009195D01*
X2531122Y-10010474D01*
X2601949Y-10011587D01*
X2601952Y-10011587D01*
X2609548Y-10011706D01*
X2616952Y-10010010D01*
X2616954Y-10010010D01*
X2714089Y-9987763D01*
X2765380Y-9976016D01*
X2908200Y-9904185D01*
X2913971Y-9899256D01*
X2913974Y-9899254D01*
X3023985Y-9805295D01*
X3029763Y-9800360D01*
X3072312Y-9741147D01*
X3128307Y-9697500D01*
X3199011Y-9691055D01*
X3261975Y-9723858D01*
X3279210Y-9744391D01*
X3306333Y-9784754D01*
X3311951Y-9789866D01*
X3418954Y-9887232D01*
X3418958Y-9887235D01*
X3424575Y-9892346D01*
X3431252Y-9895972D01*
X3431253Y-9895972D01*
X3558391Y-9965003D01*
X3558393Y-9965004D01*
X3565068Y-9968628D01*
X3572417Y-9970556D01*
X3712352Y-10007267D01*
X3712354Y-10007267D01*
X3719702Y-10009195D01*
X3801122Y-10010474D01*
X3871949Y-10011587D01*
X3871952Y-10011587D01*
X3879548Y-10011706D01*
X3886952Y-10010010D01*
X3886954Y-10010010D01*
X3984089Y-9987763D01*
X4035380Y-9976016D01*
X4178200Y-9904185D01*
X4183971Y-9899256D01*
X4183974Y-9899254D01*
X4293985Y-9805295D01*
X4299763Y-9800360D01*
X4342312Y-9741147D01*
X4398307Y-9697500D01*
X4469011Y-9691055D01*
X4531975Y-9723858D01*
X4549210Y-9744391D01*
X4576333Y-9784754D01*
X4581951Y-9789866D01*
X4688954Y-9887232D01*
X4688958Y-9887235D01*
X4694575Y-9892346D01*
X4701252Y-9895972D01*
X4701253Y-9895972D01*
X4828391Y-9965003D01*
X4828393Y-9965004D01*
X4835068Y-9968628D01*
X4842417Y-9970556D01*
X4982352Y-10007267D01*
X4982354Y-10007267D01*
X4989702Y-10009195D01*
X5071122Y-10010474D01*
X5141949Y-10011587D01*
X5141952Y-10011587D01*
X5149548Y-10011706D01*
X5156952Y-10010010D01*
X5156954Y-10010010D01*
X5254089Y-9987763D01*
X5305380Y-9976016D01*
X5448200Y-9904185D01*
X5453971Y-9899256D01*
X5453974Y-9899254D01*
X5563985Y-9805295D01*
X5569763Y-9800360D01*
X5612312Y-9741147D01*
X5668307Y-9697500D01*
X5739011Y-9691055D01*
X5801975Y-9723858D01*
X5819210Y-9744391D01*
X5846333Y-9784754D01*
X5851951Y-9789866D01*
X5958954Y-9887232D01*
X5958958Y-9887235D01*
X5964575Y-9892346D01*
X5971252Y-9895972D01*
X5971253Y-9895972D01*
X6098391Y-9965003D01*
X6098393Y-9965004D01*
X6105068Y-9968628D01*
X6112417Y-9970556D01*
X6252352Y-10007267D01*
X6252354Y-10007267D01*
X6259702Y-10009195D01*
X6341122Y-10010474D01*
X6411949Y-10011587D01*
X6411952Y-10011587D01*
X6419548Y-10011706D01*
X6426952Y-10010010D01*
X6426954Y-10010010D01*
X6524089Y-9987763D01*
X6575380Y-9976016D01*
X6718200Y-9904185D01*
X6723971Y-9899256D01*
X6723974Y-9899254D01*
X6833985Y-9805295D01*
X6839763Y-9800360D01*
X6882312Y-9741147D01*
X6938307Y-9697500D01*
X7009011Y-9691055D01*
X7071975Y-9723858D01*
X7089210Y-9744391D01*
X7116333Y-9784754D01*
X7121951Y-9789866D01*
X7228954Y-9887232D01*
X7228958Y-9887235D01*
X7234575Y-9892346D01*
X7241252Y-9895972D01*
X7241253Y-9895972D01*
X7368391Y-9965003D01*
X7368393Y-9965004D01*
X7375068Y-9968628D01*
X7382417Y-9970556D01*
X7522352Y-10007267D01*
X7522354Y-10007267D01*
X7529702Y-10009195D01*
X7611122Y-10010474D01*
X7681949Y-10011587D01*
X7681952Y-10011587D01*
X7689548Y-10011706D01*
X7696952Y-10010010D01*
X7696954Y-10010010D01*
X7794089Y-9987763D01*
X7845380Y-9976016D01*
X7988200Y-9904185D01*
X7993971Y-9899256D01*
X7993974Y-9899254D01*
X8103985Y-9805295D01*
X8109763Y-9800360D01*
X8203052Y-9670535D01*
X8262680Y-9522206D01*
X8285205Y-9363934D01*
X8285351Y-9350000D01*
X8266145Y-9191292D01*
X8209636Y-9041746D01*
X8169462Y-8983292D01*
X8123389Y-8916254D01*
X8123387Y-8916252D01*
X8119087Y-8909995D01*
X8113249Y-8904793D01*
X8052221Y-8850420D01*
X7999725Y-8803648D01*
X7992271Y-8799701D01*
X7887763Y-8744367D01*
X10363245Y-8744367D01*
X10373503Y-9005459D01*
X10374478Y-9014288D01*
X10421422Y-9271332D01*
X10423631Y-9279934D01*
X10506324Y-9527796D01*
X10509728Y-9536014D01*
X10626519Y-9769750D01*
X10631043Y-9777398D01*
X10746352Y-9944235D01*
X10756673Y-9952589D01*
X10770323Y-9945467D01*
X11902978Y-8812812D01*
X11909356Y-8801132D01*
X12639408Y-8801132D01*
X12639539Y-8802965D01*
X12643790Y-8809580D01*
X13780517Y-9946307D01*
X13793917Y-9953624D01*
X13803821Y-9946637D01*
X13819686Y-9927763D01*
X13824905Y-9920580D01*
X13963171Y-9698876D01*
X13967333Y-9691017D01*
X14072988Y-9452030D01*
X14075994Y-9443680D01*
X14146921Y-9192192D01*
X14148722Y-9183499D01*
X14183672Y-8923292D01*
X14184200Y-8916899D01*
X14187773Y-8803222D01*
X14187646Y-8796779D01*
X14169106Y-8534923D01*
X14167853Y-8526119D01*
X14112858Y-8270677D01*
X14110379Y-8262144D01*
X14019941Y-8017002D01*
X14016286Y-8008907D01*
X13892206Y-7778947D01*
X13887447Y-7771449D01*
X13802759Y-7656790D01*
X13791631Y-7648348D01*
X13779038Y-7655172D01*
X12647022Y-8787188D01*
X12639408Y-8801132D01*
X11909356Y-8801132D01*
X11910592Y-8798868D01*
X11910461Y-8797035D01*
X11906210Y-8790420D01*
X10770819Y-7655029D01*
X10757978Y-7648017D01*
X10747289Y-7655813D01*
X10695663Y-7721299D01*
X10690658Y-7728663D01*
X10559420Y-7954605D01*
X10555516Y-7962575D01*
X10457420Y-8204763D01*
X10454676Y-8213207D01*
X10391683Y-8466800D01*
X10390156Y-8475551D01*
X10363524Y-8735483D01*
X10363245Y-8744367D01*
X7887763Y-8744367D01*
X7865154Y-8732396D01*
X7865155Y-8732396D01*
X7858440Y-8728841D01*
X7703391Y-8689895D01*
X7695790Y-8689855D01*
X7690611Y-8689201D01*
X7625534Y-8660820D01*
X7586132Y-8601761D01*
X7584914Y-8530775D01*
X7589494Y-8517198D01*
X7624844Y-8429263D01*
X7624846Y-8429256D01*
X7627680Y-8422206D01*
X7648885Y-8273207D01*
X7649624Y-8268018D01*
X7649624Y-8268015D01*
X7650205Y-8263934D01*
X7650351Y-8250000D01*
X7631145Y-8091292D01*
X7574636Y-7941746D01*
X7552364Y-7909339D01*
X7488389Y-7816254D01*
X7488387Y-7816252D01*
X7484087Y-7809995D01*
X7478249Y-7804793D01*
X7379475Y-7716790D01*
X7364725Y-7703648D01*
X7357271Y-7699701D01*
X7230154Y-7632396D01*
X7230155Y-7632396D01*
X7223440Y-7628841D01*
X7068391Y-7589895D01*
X7060793Y-7589855D01*
X7060791Y-7589855D01*
X6993513Y-7589503D01*
X6908526Y-7589058D01*
X6901146Y-7590830D01*
X6901144Y-7590830D01*
X6760456Y-7624606D01*
X6760453Y-7624607D01*
X6753077Y-7626378D01*
X6710511Y-7648348D01*
X6622088Y-7693987D01*
X6611017Y-7699701D01*
X6605295Y-7704693D01*
X6605293Y-7704694D01*
X6577817Y-7728663D01*
X6490548Y-7804793D01*
X6486183Y-7811003D01*
X6486180Y-7811007D01*
X6453208Y-7857922D01*
X6397673Y-7902154D01*
X6327041Y-7909339D01*
X6263737Y-7877197D01*
X6246281Y-7856838D01*
X6218389Y-7816254D01*
X6218387Y-7816252D01*
X6214087Y-7809995D01*
X6208249Y-7804793D01*
X6109475Y-7716790D01*
X6094725Y-7703648D01*
X6087271Y-7699701D01*
X5960154Y-7632396D01*
X5960155Y-7632396D01*
X5953440Y-7628841D01*
X5798391Y-7589895D01*
X5790793Y-7589855D01*
X5790791Y-7589855D01*
X5723513Y-7589503D01*
X5638526Y-7589058D01*
X5631146Y-7590830D01*
X5631144Y-7590830D01*
X5490456Y-7624606D01*
X5490453Y-7624607D01*
X5483077Y-7626378D01*
X5440511Y-7648348D01*
X5352088Y-7693987D01*
X5341017Y-7699701D01*
X5335295Y-7704693D01*
X5335293Y-7704694D01*
X5307817Y-7728663D01*
X5220548Y-7804793D01*
X5216183Y-7811003D01*
X5216180Y-7811007D01*
X5183208Y-7857922D01*
X5127673Y-7902154D01*
X5057041Y-7909339D01*
X4993737Y-7877197D01*
X4976281Y-7856838D01*
X4948389Y-7816254D01*
X4948387Y-7816252D01*
X4944087Y-7809995D01*
X4938249Y-7804793D01*
X4839475Y-7716790D01*
X4824725Y-7703648D01*
X4817271Y-7699701D01*
X4690154Y-7632396D01*
X4690155Y-7632396D01*
X4683440Y-7628841D01*
X4528391Y-7589895D01*
X4520793Y-7589855D01*
X4520791Y-7589855D01*
X4453513Y-7589503D01*
X4368526Y-7589058D01*
X4361146Y-7590830D01*
X4361144Y-7590830D01*
X4220456Y-7624606D01*
X4220453Y-7624607D01*
X4213077Y-7626378D01*
X4170511Y-7648348D01*
X4082088Y-7693987D01*
X4071017Y-7699701D01*
X4065295Y-7704693D01*
X4065293Y-7704694D01*
X4037817Y-7728663D01*
X3950548Y-7804793D01*
X3946183Y-7811003D01*
X3946180Y-7811007D01*
X3913208Y-7857922D01*
X3857673Y-7902154D01*
X3787041Y-7909339D01*
X3723737Y-7877197D01*
X3706281Y-7856838D01*
X3678389Y-7816254D01*
X3678387Y-7816252D01*
X3674087Y-7809995D01*
X3668249Y-7804793D01*
X3569475Y-7716790D01*
X3554725Y-7703648D01*
X3547271Y-7699701D01*
X3420154Y-7632396D01*
X3420155Y-7632396D01*
X3413440Y-7628841D01*
X3258391Y-7589895D01*
X3250793Y-7589855D01*
X3250791Y-7589855D01*
X3183513Y-7589503D01*
X3098526Y-7589058D01*
X3091146Y-7590830D01*
X3091144Y-7590830D01*
X2950456Y-7624606D01*
X2950453Y-7624607D01*
X2943077Y-7626378D01*
X2900511Y-7648348D01*
X2812088Y-7693987D01*
X2801017Y-7699701D01*
X2795295Y-7704693D01*
X2795293Y-7704694D01*
X2767817Y-7728663D01*
X2680548Y-7804793D01*
X2676183Y-7811003D01*
X2676180Y-7811007D01*
X2643208Y-7857922D01*
X2587673Y-7902154D01*
X2517041Y-7909339D01*
X2453737Y-7877197D01*
X2436281Y-7856838D01*
X2408389Y-7816254D01*
X2408387Y-7816252D01*
X2404087Y-7809995D01*
X2398249Y-7804793D01*
X2299475Y-7716790D01*
X2284725Y-7703648D01*
X2277271Y-7699701D01*
X2150154Y-7632396D01*
X2150155Y-7632396D01*
X2143440Y-7628841D01*
X1988391Y-7589895D01*
X1980793Y-7589855D01*
X1980791Y-7589855D01*
X1913513Y-7589503D01*
X1828526Y-7589058D01*
X1821146Y-7590830D01*
X1821144Y-7590830D01*
X1680456Y-7624606D01*
X1680453Y-7624607D01*
X1673077Y-7626378D01*
X1630511Y-7648348D01*
X1542088Y-7693987D01*
X1531017Y-7699701D01*
X1525295Y-7704693D01*
X1525293Y-7704694D01*
X1497817Y-7728663D01*
X1410548Y-7804793D01*
X1406183Y-7811003D01*
X1406180Y-7811007D01*
X1373208Y-7857922D01*
X1317673Y-7902154D01*
X1247041Y-7909339D01*
X1183737Y-7877197D01*
X1166281Y-7856838D01*
X1138389Y-7816254D01*
X1138387Y-7816252D01*
X1134087Y-7809995D01*
X1128249Y-7804793D01*
X1029475Y-7716790D01*
X1014725Y-7703648D01*
X1007271Y-7699701D01*
X880154Y-7632396D01*
X880155Y-7632396D01*
X873440Y-7628841D01*
X718391Y-7589895D01*
X710793Y-7589855D01*
X710791Y-7589855D01*
X643513Y-7589503D01*
X558526Y-7589058D01*
X551146Y-7590830D01*
X551144Y-7590830D01*
X410456Y-7624606D01*
X410453Y-7624607D01*
X403077Y-7626378D01*
X360511Y-7648348D01*
X272088Y-7693987D01*
X261017Y-7699701D01*
X255295Y-7704693D01*
X255293Y-7704694D01*
X227817Y-7728663D01*
X140548Y-7804793D01*
X136183Y-7811003D01*
X136180Y-7811007D01*
X103208Y-7857922D01*
X47673Y-7902154D01*
X-22959Y-7909339D01*
X-86263Y-7877197D01*
X-103719Y-7856838D01*
X-131611Y-7816254D01*
X-131613Y-7816252D01*
X-135913Y-7809995D01*
X-141751Y-7804793D01*
X-240525Y-7716790D01*
X-255275Y-7703648D01*
X-262729Y-7699701D01*
X-389846Y-7632396D01*
X-389845Y-7632396D01*
X-396560Y-7628841D01*
X-551609Y-7589895D01*
X-559207Y-7589855D01*
X-559209Y-7589855D01*
X-626487Y-7589503D01*
X-711474Y-7589058D01*
X-718854Y-7590830D01*
X-718856Y-7590830D01*
X-859544Y-7624606D01*
X-859547Y-7624607D01*
X-866923Y-7626378D01*
X-909489Y-7648348D01*
X-997912Y-7693987D01*
X-1008983Y-7699701D01*
X-1014705Y-7704693D01*
X-1014707Y-7704694D01*
X-1042183Y-7728663D01*
X-1129452Y-7804793D01*
X-1133817Y-7811003D01*
X-1133820Y-7811007D01*
X-1166792Y-7857922D01*
X-1222327Y-7902154D01*
X-1292959Y-7909339D01*
X-1356263Y-7877197D01*
X-1373719Y-7856838D01*
X-1401611Y-7816254D01*
X-1401613Y-7816252D01*
X-1405913Y-7809995D01*
X-1411751Y-7804793D01*
X-1510525Y-7716790D01*
X-1525275Y-7703648D01*
X-1532729Y-7699701D01*
X-1659846Y-7632396D01*
X-1659845Y-7632396D01*
X-1666560Y-7628841D01*
X-1821609Y-7589895D01*
X-1829207Y-7589855D01*
X-1829209Y-7589855D01*
X-1896487Y-7589503D01*
X-1981474Y-7589058D01*
X-1988854Y-7590830D01*
X-1988856Y-7590830D01*
X-2129544Y-7624606D01*
X-2129547Y-7624607D01*
X-2136923Y-7626378D01*
X-2179489Y-7648348D01*
X-2267912Y-7693987D01*
X-2278983Y-7699701D01*
X-2284705Y-7704693D01*
X-2284707Y-7704694D01*
X-2312183Y-7728663D01*
X-2399452Y-7804793D01*
X-2403817Y-7811003D01*
X-2403820Y-7811007D01*
X-2436792Y-7857922D01*
X-2492327Y-7902154D01*
X-2562959Y-7909339D01*
X-2626263Y-7877197D01*
X-2643719Y-7856838D01*
X-2671611Y-7816254D01*
X-2671613Y-7816252D01*
X-2675913Y-7809995D01*
X-2681751Y-7804793D01*
X-2780525Y-7716790D01*
X-2795275Y-7703648D01*
X-2802729Y-7699701D01*
X-2929846Y-7632396D01*
X-2929845Y-7632396D01*
X-2936560Y-7628841D01*
X-3091609Y-7589895D01*
X-3099207Y-7589855D01*
X-3099209Y-7589855D01*
X-3166487Y-7589503D01*
X-3251474Y-7589058D01*
X-3258854Y-7590830D01*
X-3258856Y-7590830D01*
X-3399544Y-7624606D01*
X-3399547Y-7624607D01*
X-3406923Y-7626378D01*
X-3449489Y-7648348D01*
X-3537912Y-7693987D01*
X-3548983Y-7699701D01*
X-3554705Y-7704693D01*
X-3554707Y-7704694D01*
X-3582183Y-7728663D01*
X-3669452Y-7804793D01*
X-3673817Y-7811003D01*
X-3673820Y-7811007D01*
X-3706792Y-7857922D01*
X-3762327Y-7902154D01*
X-3832959Y-7909339D01*
X-3896263Y-7877197D01*
X-3913719Y-7856838D01*
X-3941611Y-7816254D01*
X-3941613Y-7816252D01*
X-3945913Y-7809995D01*
X-3951751Y-7804793D01*
X-4050525Y-7716790D01*
X-4065275Y-7703648D01*
X-4072729Y-7699701D01*
X-4199846Y-7632396D01*
X-4199845Y-7632396D01*
X-4206560Y-7628841D01*
X-4361609Y-7589895D01*
X-4369207Y-7589855D01*
X-4369209Y-7589855D01*
X-4436487Y-7589503D01*
X-4521474Y-7589058D01*
X-4528854Y-7590830D01*
X-4528856Y-7590830D01*
X-4669544Y-7624606D01*
X-4669547Y-7624607D01*
X-4676923Y-7626378D01*
X-4719489Y-7648348D01*
X-4807912Y-7693987D01*
X-4818983Y-7699701D01*
X-4824705Y-7704693D01*
X-4824707Y-7704694D01*
X-4852183Y-7728663D01*
X-4939452Y-7804793D01*
X-4943817Y-7811003D01*
X-4943820Y-7811007D01*
X-4976792Y-7857922D01*
X-5032327Y-7902154D01*
X-5102959Y-7909339D01*
X-5166263Y-7877197D01*
X-5183719Y-7856838D01*
X-5211611Y-7816254D01*
X-5211613Y-7816252D01*
X-5215913Y-7809995D01*
X-5221751Y-7804793D01*
X-5320525Y-7716790D01*
X-5335275Y-7703648D01*
X-5342729Y-7699701D01*
X-5469846Y-7632396D01*
X-5469845Y-7632396D01*
X-5476560Y-7628841D01*
X-5631609Y-7589895D01*
X-5639207Y-7589855D01*
X-5639209Y-7589855D01*
X-5706487Y-7589503D01*
X-5791474Y-7589058D01*
X-5798854Y-7590830D01*
X-5798856Y-7590830D01*
X-5939544Y-7624606D01*
X-5939547Y-7624607D01*
X-5946923Y-7626378D01*
X-5989489Y-7648348D01*
X-6077912Y-7693987D01*
X-6088983Y-7699701D01*
X-6094705Y-7704693D01*
X-6094707Y-7704694D01*
X-6122183Y-7728663D01*
X-6209452Y-7804793D01*
X-6213817Y-7811003D01*
X-6213820Y-7811007D01*
X-6246792Y-7857922D01*
X-6302327Y-7902154D01*
X-6372959Y-7909339D01*
X-6436263Y-7877197D01*
X-6453719Y-7856838D01*
X-6481611Y-7816254D01*
X-6481613Y-7816252D01*
X-6485913Y-7809995D01*
X-6491751Y-7804793D01*
X-6590525Y-7716790D01*
X-6605275Y-7703648D01*
X-6612729Y-7699701D01*
X-6739846Y-7632396D01*
X-6739845Y-7632396D01*
X-6746560Y-7628841D01*
X-6901609Y-7589895D01*
X-6909207Y-7589855D01*
X-6909209Y-7589855D01*
X-6976487Y-7589503D01*
X-7061474Y-7589058D01*
X-7068854Y-7590830D01*
X-7068856Y-7590830D01*
X-7209544Y-7624606D01*
X-7209547Y-7624607D01*
X-7216923Y-7626378D01*
X-7259489Y-7648348D01*
X-7347912Y-7693987D01*
X-7358983Y-7699701D01*
X-7364705Y-7704693D01*
X-7364707Y-7704694D01*
X-7392183Y-7728663D01*
X-7479452Y-7804793D01*
X-7483819Y-7811007D01*
X-7564089Y-7925220D01*
X-7571376Y-7935588D01*
X-7574136Y-7942668D01*
X-7626511Y-8077002D01*
X-7629448Y-8084534D01*
X-7630440Y-8092067D01*
X-7630440Y-8092068D01*
X-7646388Y-8213207D01*
X-7650315Y-8243033D01*
X-7632772Y-8401933D01*
X-7630163Y-8409064D01*
X-7630162Y-8409066D01*
X-7589160Y-8521109D01*
X-7584534Y-8591955D01*
X-7618944Y-8654055D01*
X-7681465Y-8687694D01*
X-7690040Y-8689092D01*
X-7696474Y-8689058D01*
X-7773715Y-8707602D01*
X-7844544Y-8724606D01*
X-7844547Y-8724607D01*
X-7851923Y-8726378D01*
X-7886776Y-8744367D01*
X-7976001Y-8790420D01*
X-7993983Y-8799701D01*
X-7999705Y-8804693D01*
X-7999707Y-8804694D01*
X-8048418Y-8847188D01*
X-8114452Y-8904793D01*
X-8206376Y-9035588D01*
X-8235412Y-9110061D01*
X-8256652Y-9164539D01*
X-8264448Y-9184534D01*
X-8265440Y-9192067D01*
X-8265440Y-9192068D01*
X-8275875Y-9271332D01*
X-8285315Y-9343033D01*
X-10428699Y-9343033D01*
X-10403079Y-9252192D01*
X-10401278Y-9243499D01*
X-10366328Y-8983292D01*
X-10365800Y-8976899D01*
X-10362227Y-8863222D01*
X-10362354Y-8856779D01*
X-10380894Y-8594923D01*
X-10382147Y-8586119D01*
X-10437142Y-8330677D01*
X-10439621Y-8322144D01*
X-10530059Y-8077002D01*
X-10533714Y-8068907D01*
X-10657794Y-7838947D01*
X-10662553Y-7831449D01*
X-10747241Y-7716790D01*
X-10758369Y-7708348D01*
X-10770962Y-7715172D01*
X-11902978Y-8847188D01*
X-11910592Y-8861132D01*
X-12640644Y-8861132D01*
X-12639408Y-8858868D01*
X-12639539Y-8857035D01*
X-12643790Y-8850420D01*
X-13779181Y-7715029D01*
X-13792022Y-7708017D01*
X-13802711Y-7715813D01*
X-13854337Y-7781299D01*
X-13859342Y-7788663D01*
X-13990580Y-8014605D01*
X-13994484Y-8022575D01*
X-14092580Y-8264763D01*
X-14095324Y-8273207D01*
X-14158317Y-8526800D01*
X-14159844Y-8535551D01*
X-14186476Y-8795483D01*
X-14186755Y-8804367D01*
X-16240729Y-8804367D01*
X-16312382Y-8676683D01*
X-16315066Y-8671635D01*
X-16689191Y-7927773D01*
X-16691643Y-7922609D01*
X-16793911Y-7693987D01*
X-16951054Y-7342688D01*
X-13426955Y-7342688D01*
X-13419975Y-7355815D01*
X-12287812Y-8487978D01*
X-12273868Y-8495592D01*
X-12272035Y-8495461D01*
X-12265420Y-8491210D01*
X-11130196Y-7355986D01*
X-11123342Y-7343434D01*
X-11131550Y-7332363D01*
X-11196641Y-7282688D01*
X11123045Y-7282688D01*
X11130025Y-7295815D01*
X12262188Y-8427978D01*
X12276132Y-8435592D01*
X12277965Y-8435461D01*
X12284580Y-8431210D01*
X13419804Y-7295986D01*
X13426658Y-7283434D01*
X13418450Y-7272363D01*
X13328762Y-7203916D01*
X13321313Y-7199023D01*
X13093353Y-7071359D01*
X13085303Y-7067571D01*
X12841617Y-6973295D01*
X12833127Y-6970683D01*
X12578578Y-6911683D01*
X12569800Y-6910293D01*
X12309478Y-6887746D01*
X12300607Y-6887606D01*
X12039696Y-6901965D01*
X12030886Y-6903079D01*
X11774607Y-6954055D01*
X11766050Y-6956396D01*
X11519496Y-7042980D01*
X11511362Y-7046500D01*
X11279477Y-7166955D01*
X11271905Y-7171594D01*
X11131447Y-7271967D01*
X11123045Y-7282688D01*
X-11196641Y-7282688D01*
X-11221238Y-7263916D01*
X-11228687Y-7259023D01*
X-11456647Y-7131359D01*
X-11464697Y-7127571D01*
X-11708383Y-7033295D01*
X-11716873Y-7030683D01*
X-11971422Y-6971683D01*
X-11980200Y-6970293D01*
X-12240522Y-6947746D01*
X-12249393Y-6947606D01*
X-12510304Y-6961965D01*
X-12519114Y-6963079D01*
X-12775393Y-7014055D01*
X-12783950Y-7016396D01*
X-13030504Y-7102980D01*
X-13038638Y-7106500D01*
X-13270523Y-7226955D01*
X-13278095Y-7231594D01*
X-13418553Y-7331967D01*
X-13426955Y-7342688D01*
X-16951054Y-7342688D01*
X-17031638Y-7162541D01*
X-17033851Y-7157277D01*
X-17045552Y-7127571D01*
X-17339021Y-6382556D01*
X-17340992Y-6377198D01*
X-17610707Y-5589425D01*
X-17612435Y-5583975D01*
X-17682899Y-5343006D01*
X-17846129Y-4784805D01*
X-17847606Y-4779294D01*
X-17847810Y-4778454D01*
X-17949865Y-4359809D01*
X-18044805Y-3970345D01*
X-18046033Y-3964762D01*
X-18187631Y-3243033D01*
X-8285315Y-3243033D01*
X-8267772Y-3401933D01*
X-8265163Y-3409064D01*
X-8265162Y-3409066D01*
X-8260353Y-3422206D01*
X-8212832Y-3552063D01*
X-8208595Y-3558369D01*
X-8208593Y-3558372D01*
X-8196271Y-3576709D01*
X-8123667Y-3684754D01*
X-8118049Y-3689866D01*
X-8011046Y-3787232D01*
X-8011042Y-3787235D01*
X-8005425Y-3792346D01*
X-7998748Y-3795972D01*
X-7998747Y-3795972D01*
X-7871609Y-3865003D01*
X-7871607Y-3865004D01*
X-7864932Y-3868628D01*
X-7857583Y-3870556D01*
X-7717648Y-3907267D01*
X-7717646Y-3907267D01*
X-7710298Y-3909195D01*
X-7702698Y-3909314D01*
X-7695180Y-3910344D01*
X-7695422Y-3912110D01*
X-7636711Y-3930356D01*
X-7591068Y-3984736D01*
X-7582070Y-4055160D01*
X-7589097Y-4081039D01*
X-7629448Y-4184534D01*
X-7630440Y-4192067D01*
X-7630440Y-4192068D01*
X-7631330Y-4198832D01*
X-7650315Y-4343033D01*
X-7632772Y-4501933D01*
X-7630163Y-4509064D01*
X-7630162Y-4509066D01*
X-7625353Y-4522206D01*
X-7577832Y-4652063D01*
X-7573595Y-4658369D01*
X-7573593Y-4658372D01*
X-7532580Y-4719405D01*
X-7488667Y-4784754D01*
X-7483049Y-4789866D01*
X-7376046Y-4887232D01*
X-7376042Y-4887235D01*
X-7370425Y-4892346D01*
X-7363748Y-4895972D01*
X-7363747Y-4895972D01*
X-7236609Y-4965003D01*
X-7236607Y-4965004D01*
X-7229932Y-4968628D01*
X-7222583Y-4970556D01*
X-7082648Y-5007267D01*
X-7082646Y-5007267D01*
X-7075298Y-5009195D01*
X-6993878Y-5010474D01*
X-6923051Y-5011587D01*
X-6923048Y-5011587D01*
X-6915452Y-5011706D01*
X-6908048Y-5010010D01*
X-6908046Y-5010010D01*
X-6850478Y-4996825D01*
X-6759620Y-4976016D01*
X-6616800Y-4904185D01*
X-6611029Y-4899256D01*
X-6611026Y-4899254D01*
X-6501015Y-4805295D01*
X-6495237Y-4800360D01*
X-6452688Y-4741147D01*
X-6396693Y-4697500D01*
X-6325989Y-4691055D01*
X-6263025Y-4723858D01*
X-6245790Y-4744391D01*
X-6218667Y-4784754D01*
X-6213049Y-4789866D01*
X-6106046Y-4887232D01*
X-6106042Y-4887235D01*
X-6100425Y-4892346D01*
X-6093748Y-4895972D01*
X-6093747Y-4895972D01*
X-5966609Y-4965003D01*
X-5966607Y-4965004D01*
X-5959932Y-4968628D01*
X-5952583Y-4970556D01*
X-5812648Y-5007267D01*
X-5812646Y-5007267D01*
X-5805298Y-5009195D01*
X-5723878Y-5010474D01*
X-5653051Y-5011587D01*
X-5653048Y-5011587D01*
X-5645452Y-5011706D01*
X-5638048Y-5010010D01*
X-5638046Y-5010010D01*
X-5580478Y-4996825D01*
X-5489620Y-4976016D01*
X-5346800Y-4904185D01*
X-5341029Y-4899256D01*
X-5341026Y-4899254D01*
X-5231015Y-4805295D01*
X-5225237Y-4800360D01*
X-5182688Y-4741147D01*
X-5126693Y-4697500D01*
X-5055989Y-4691055D01*
X-4993025Y-4723858D01*
X-4975790Y-4744391D01*
X-4948667Y-4784754D01*
X-4943049Y-4789866D01*
X-4836046Y-4887232D01*
X-4836042Y-4887235D01*
X-4830425Y-4892346D01*
X-4823748Y-4895972D01*
X-4823747Y-4895972D01*
X-4696609Y-4965003D01*
X-4696607Y-4965004D01*
X-4689932Y-4968628D01*
X-4682583Y-4970556D01*
X-4542648Y-5007267D01*
X-4542646Y-5007267D01*
X-4535298Y-5009195D01*
X-4453878Y-5010474D01*
X-4383051Y-5011587D01*
X-4383048Y-5011587D01*
X-4375452Y-5011706D01*
X-4368048Y-5010010D01*
X-4368046Y-5010010D01*
X-4310478Y-4996825D01*
X-4219620Y-4976016D01*
X-4076800Y-4904185D01*
X-4071029Y-4899256D01*
X-4071026Y-4899254D01*
X-3961015Y-4805295D01*
X-3955237Y-4800360D01*
X-3912688Y-4741147D01*
X-3856693Y-4697500D01*
X-3785989Y-4691055D01*
X-3723025Y-4723858D01*
X-3705790Y-4744391D01*
X-3678667Y-4784754D01*
X-3673049Y-4789866D01*
X-3566046Y-4887232D01*
X-3566042Y-4887235D01*
X-3560425Y-4892346D01*
X-3553748Y-4895972D01*
X-3553747Y-4895972D01*
X-3426609Y-4965003D01*
X-3426607Y-4965004D01*
X-3419932Y-4968628D01*
X-3412583Y-4970556D01*
X-3272648Y-5007267D01*
X-3272646Y-5007267D01*
X-3265298Y-5009195D01*
X-3183878Y-5010474D01*
X-3113051Y-5011587D01*
X-3113048Y-5011587D01*
X-3105452Y-5011706D01*
X-3098048Y-5010010D01*
X-3098046Y-5010010D01*
X-3040478Y-4996825D01*
X-2949620Y-4976016D01*
X-2806800Y-4904185D01*
X-2801029Y-4899256D01*
X-2801026Y-4899254D01*
X-2691015Y-4805295D01*
X-2685237Y-4800360D01*
X-2642688Y-4741147D01*
X-2586693Y-4697500D01*
X-2515989Y-4691055D01*
X-2453025Y-4723858D01*
X-2435790Y-4744391D01*
X-2408667Y-4784754D01*
X-2403049Y-4789866D01*
X-2296046Y-4887232D01*
X-2296042Y-4887235D01*
X-2290425Y-4892346D01*
X-2283748Y-4895972D01*
X-2283747Y-4895972D01*
X-2156609Y-4965003D01*
X-2156607Y-4965004D01*
X-2149932Y-4968628D01*
X-2142583Y-4970556D01*
X-2002648Y-5007267D01*
X-2002646Y-5007267D01*
X-1995298Y-5009195D01*
X-1913878Y-5010474D01*
X-1843051Y-5011587D01*
X-1843048Y-5011587D01*
X-1835452Y-5011706D01*
X-1828048Y-5010010D01*
X-1828046Y-5010010D01*
X-1770478Y-4996825D01*
X-1679620Y-4976016D01*
X-1536800Y-4904185D01*
X-1531029Y-4899256D01*
X-1531026Y-4899254D01*
X-1421015Y-4805295D01*
X-1415237Y-4800360D01*
X-1372688Y-4741147D01*
X-1316693Y-4697500D01*
X-1245989Y-4691055D01*
X-1183025Y-4723858D01*
X-1165790Y-4744391D01*
X-1138667Y-4784754D01*
X-1133049Y-4789866D01*
X-1026046Y-4887232D01*
X-1026042Y-4887235D01*
X-1020425Y-4892346D01*
X-1013748Y-4895972D01*
X-1013747Y-4895972D01*
X-886609Y-4965003D01*
X-886607Y-4965004D01*
X-879932Y-4968628D01*
X-872583Y-4970556D01*
X-732648Y-5007267D01*
X-732646Y-5007267D01*
X-725298Y-5009195D01*
X-643878Y-5010474D01*
X-573051Y-5011587D01*
X-573048Y-5011587D01*
X-565452Y-5011706D01*
X-558048Y-5010010D01*
X-558046Y-5010010D01*
X-500478Y-4996825D01*
X-409620Y-4976016D01*
X-266800Y-4904185D01*
X-261029Y-4899256D01*
X-261026Y-4899254D01*
X-151015Y-4805295D01*
X-145237Y-4800360D01*
X-102688Y-4741147D01*
X-46693Y-4697500D01*
X24011Y-4691055D01*
X86975Y-4723858D01*
X104210Y-4744391D01*
X131333Y-4784754D01*
X136951Y-4789866D01*
X243954Y-4887232D01*
X243958Y-4887235D01*
X249575Y-4892346D01*
X256252Y-4895972D01*
X256253Y-4895972D01*
X383391Y-4965003D01*
X383393Y-4965004D01*
X390068Y-4968628D01*
X397417Y-4970556D01*
X537352Y-5007267D01*
X537354Y-5007267D01*
X544702Y-5009195D01*
X626122Y-5010474D01*
X696949Y-5011587D01*
X696952Y-5011587D01*
X704548Y-5011706D01*
X711952Y-5010010D01*
X711954Y-5010010D01*
X769522Y-4996825D01*
X860380Y-4976016D01*
X1003200Y-4904185D01*
X1008971Y-4899256D01*
X1008974Y-4899254D01*
X1118985Y-4805295D01*
X1124763Y-4800360D01*
X1167312Y-4741147D01*
X1223307Y-4697500D01*
X1294011Y-4691055D01*
X1356975Y-4723858D01*
X1374210Y-4744391D01*
X1401333Y-4784754D01*
X1406951Y-4789866D01*
X1513954Y-4887232D01*
X1513958Y-4887235D01*
X1519575Y-4892346D01*
X1526252Y-4895972D01*
X1526253Y-4895972D01*
X1653391Y-4965003D01*
X1653393Y-4965004D01*
X1660068Y-4968628D01*
X1667417Y-4970556D01*
X1807352Y-5007267D01*
X1807354Y-5007267D01*
X1814702Y-5009195D01*
X1896122Y-5010474D01*
X1966949Y-5011587D01*
X1966952Y-5011587D01*
X1974548Y-5011706D01*
X1981952Y-5010010D01*
X1981954Y-5010010D01*
X2039522Y-4996825D01*
X2130380Y-4976016D01*
X2273200Y-4904185D01*
X2278971Y-4899256D01*
X2278974Y-4899254D01*
X2388985Y-4805295D01*
X2394763Y-4800360D01*
X2437312Y-4741147D01*
X2493307Y-4697500D01*
X2564011Y-4691055D01*
X2626975Y-4723858D01*
X2644210Y-4744391D01*
X2671333Y-4784754D01*
X2676951Y-4789866D01*
X2783954Y-4887232D01*
X2783958Y-4887235D01*
X2789575Y-4892346D01*
X2796252Y-4895972D01*
X2796253Y-4895972D01*
X2923391Y-4965003D01*
X2923393Y-4965004D01*
X2930068Y-4968628D01*
X2937417Y-4970556D01*
X3077352Y-5007267D01*
X3077354Y-5007267D01*
X3084702Y-5009195D01*
X3166122Y-5010474D01*
X3236949Y-5011587D01*
X3236952Y-5011587D01*
X3244548Y-5011706D01*
X3251952Y-5010010D01*
X3251954Y-5010010D01*
X3309522Y-4996825D01*
X3400380Y-4976016D01*
X3543200Y-4904185D01*
X3548971Y-4899256D01*
X3548974Y-4899254D01*
X3658985Y-4805295D01*
X3664763Y-4800360D01*
X3707312Y-4741147D01*
X3763307Y-4697500D01*
X3834011Y-4691055D01*
X3896975Y-4723858D01*
X3914210Y-4744391D01*
X3941333Y-4784754D01*
X3946951Y-4789866D01*
X4053954Y-4887232D01*
X4053958Y-4887235D01*
X4059575Y-4892346D01*
X4066252Y-4895972D01*
X4066253Y-4895972D01*
X4193391Y-4965003D01*
X4193393Y-4965004D01*
X4200068Y-4968628D01*
X4207417Y-4970556D01*
X4347352Y-5007267D01*
X4347354Y-5007267D01*
X4354702Y-5009195D01*
X4436122Y-5010474D01*
X4506949Y-5011587D01*
X4506952Y-5011587D01*
X4514548Y-5011706D01*
X4521952Y-5010010D01*
X4521954Y-5010010D01*
X4579522Y-4996825D01*
X4670380Y-4976016D01*
X4813200Y-4904185D01*
X4818971Y-4899256D01*
X4818974Y-4899254D01*
X4928985Y-4805295D01*
X4934763Y-4800360D01*
X4977312Y-4741147D01*
X5033307Y-4697500D01*
X5104011Y-4691055D01*
X5166975Y-4723858D01*
X5184210Y-4744391D01*
X5211333Y-4784754D01*
X5216951Y-4789866D01*
X5323954Y-4887232D01*
X5323958Y-4887235D01*
X5329575Y-4892346D01*
X5336252Y-4895972D01*
X5336253Y-4895972D01*
X5463391Y-4965003D01*
X5463393Y-4965004D01*
X5470068Y-4968628D01*
X5477417Y-4970556D01*
X5617352Y-5007267D01*
X5617354Y-5007267D01*
X5624702Y-5009195D01*
X5706122Y-5010474D01*
X5776949Y-5011587D01*
X5776952Y-5011587D01*
X5784548Y-5011706D01*
X5791952Y-5010010D01*
X5791954Y-5010010D01*
X5849522Y-4996825D01*
X5940380Y-4976016D01*
X6083200Y-4904185D01*
X6088971Y-4899256D01*
X6088974Y-4899254D01*
X6198985Y-4805295D01*
X6204763Y-4800360D01*
X6247312Y-4741147D01*
X6303307Y-4697500D01*
X6374011Y-4691055D01*
X6436975Y-4723858D01*
X6454210Y-4744391D01*
X6481333Y-4784754D01*
X6486951Y-4789866D01*
X6593954Y-4887232D01*
X6593958Y-4887235D01*
X6599575Y-4892346D01*
X6606252Y-4895972D01*
X6606253Y-4895972D01*
X6733391Y-4965003D01*
X6733393Y-4965004D01*
X6740068Y-4968628D01*
X6747417Y-4970556D01*
X6887352Y-5007267D01*
X6887354Y-5007267D01*
X6894702Y-5009195D01*
X6976122Y-5010474D01*
X7046949Y-5011587D01*
X7046952Y-5011587D01*
X7054548Y-5011706D01*
X7061952Y-5010010D01*
X7061954Y-5010010D01*
X7119522Y-4996825D01*
X7210380Y-4976016D01*
X7353200Y-4904185D01*
X7358971Y-4899256D01*
X7358974Y-4899254D01*
X7468985Y-4805295D01*
X7474763Y-4800360D01*
X7568052Y-4670535D01*
X7627680Y-4522206D01*
X7650205Y-4363934D01*
X7650351Y-4350000D01*
X7631145Y-4191292D01*
X7589160Y-4080182D01*
X7583792Y-4009390D01*
X7617549Y-3946932D01*
X7679715Y-3912640D01*
X7685808Y-3911647D01*
X7689548Y-3911706D01*
X7845380Y-3876016D01*
X7988200Y-3804185D01*
X7993971Y-3799256D01*
X7993974Y-3799254D01*
X8103985Y-3705295D01*
X8109763Y-3700360D01*
X8203052Y-3570535D01*
X8262680Y-3422206D01*
X8285205Y-3263934D01*
X8285351Y-3250000D01*
X8266145Y-3091292D01*
X8209636Y-2941746D01*
X8187364Y-2909339D01*
X8123389Y-2816254D01*
X8123387Y-2816252D01*
X8119087Y-2809995D01*
X8113249Y-2804793D01*
X8005396Y-2708701D01*
X7999725Y-2703648D01*
X7992271Y-2699701D01*
X7865154Y-2632396D01*
X7865155Y-2632396D01*
X7858440Y-2628841D01*
X7703391Y-2589895D01*
X7695793Y-2589855D01*
X7695791Y-2589855D01*
X7628513Y-2589503D01*
X7543526Y-2589058D01*
X7536146Y-2590830D01*
X7536144Y-2590830D01*
X7395456Y-2624606D01*
X7395453Y-2624607D01*
X7388077Y-2626378D01*
X7246017Y-2699701D01*
X7125548Y-2804793D01*
X7121183Y-2811003D01*
X7121180Y-2811007D01*
X7088208Y-2857922D01*
X7032673Y-2902154D01*
X6962041Y-2909339D01*
X6898737Y-2877197D01*
X6881281Y-2856838D01*
X6853389Y-2816254D01*
X6853387Y-2816252D01*
X6849087Y-2809995D01*
X6843249Y-2804793D01*
X6735396Y-2708701D01*
X6729725Y-2703648D01*
X6722271Y-2699701D01*
X6595154Y-2632396D01*
X6595155Y-2632396D01*
X6588440Y-2628841D01*
X6433391Y-2589895D01*
X6425793Y-2589855D01*
X6425791Y-2589855D01*
X6358513Y-2589503D01*
X6273526Y-2589058D01*
X6266146Y-2590830D01*
X6266144Y-2590830D01*
X6125456Y-2624606D01*
X6125453Y-2624607D01*
X6118077Y-2626378D01*
X5976017Y-2699701D01*
X5855548Y-2804793D01*
X5851183Y-2811003D01*
X5851180Y-2811007D01*
X5818208Y-2857922D01*
X5762673Y-2902154D01*
X5692041Y-2909339D01*
X5628737Y-2877197D01*
X5611281Y-2856838D01*
X5583389Y-2816254D01*
X5583387Y-2816252D01*
X5579087Y-2809995D01*
X5573249Y-2804793D01*
X5465396Y-2708701D01*
X5459725Y-2703648D01*
X5452271Y-2699701D01*
X5325154Y-2632396D01*
X5325155Y-2632396D01*
X5318440Y-2628841D01*
X5163391Y-2589895D01*
X5155793Y-2589855D01*
X5155791Y-2589855D01*
X5088513Y-2589503D01*
X5003526Y-2589058D01*
X4996146Y-2590830D01*
X4996144Y-2590830D01*
X4855456Y-2624606D01*
X4855453Y-2624607D01*
X4848077Y-2626378D01*
X4706017Y-2699701D01*
X4585548Y-2804793D01*
X4581183Y-2811003D01*
X4581180Y-2811007D01*
X4548208Y-2857922D01*
X4492673Y-2902154D01*
X4422041Y-2909339D01*
X4358737Y-2877197D01*
X4341281Y-2856838D01*
X4313389Y-2816254D01*
X4313387Y-2816252D01*
X4309087Y-2809995D01*
X4303249Y-2804793D01*
X4195396Y-2708701D01*
X4189725Y-2703648D01*
X4182271Y-2699701D01*
X4055154Y-2632396D01*
X4055155Y-2632396D01*
X4048440Y-2628841D01*
X3893391Y-2589895D01*
X3885793Y-2589855D01*
X3885791Y-2589855D01*
X3818513Y-2589503D01*
X3733526Y-2589058D01*
X3726146Y-2590830D01*
X3726144Y-2590830D01*
X3585456Y-2624606D01*
X3585453Y-2624607D01*
X3578077Y-2626378D01*
X3436017Y-2699701D01*
X3315548Y-2804793D01*
X3311183Y-2811003D01*
X3311180Y-2811007D01*
X3278208Y-2857922D01*
X3222673Y-2902154D01*
X3152041Y-2909339D01*
X3088737Y-2877197D01*
X3071281Y-2856838D01*
X3043389Y-2816254D01*
X3043387Y-2816252D01*
X3039087Y-2809995D01*
X3033249Y-2804793D01*
X2925396Y-2708701D01*
X2919725Y-2703648D01*
X2912271Y-2699701D01*
X2785154Y-2632396D01*
X2785155Y-2632396D01*
X2778440Y-2628841D01*
X2623391Y-2589895D01*
X2615793Y-2589855D01*
X2615791Y-2589855D01*
X2548513Y-2589503D01*
X2463526Y-2589058D01*
X2456146Y-2590830D01*
X2456144Y-2590830D01*
X2315456Y-2624606D01*
X2315453Y-2624607D01*
X2308077Y-2626378D01*
X2166017Y-2699701D01*
X2045548Y-2804793D01*
X2041183Y-2811003D01*
X2041180Y-2811007D01*
X2008208Y-2857922D01*
X1952673Y-2902154D01*
X1882041Y-2909339D01*
X1818737Y-2877197D01*
X1801281Y-2856838D01*
X1773389Y-2816254D01*
X1773387Y-2816252D01*
X1769087Y-2809995D01*
X1763249Y-2804793D01*
X1655396Y-2708701D01*
X1649725Y-2703648D01*
X1642271Y-2699701D01*
X1515154Y-2632396D01*
X1515155Y-2632396D01*
X1508440Y-2628841D01*
X1353391Y-2589895D01*
X1345793Y-2589855D01*
X1345791Y-2589855D01*
X1278513Y-2589503D01*
X1193526Y-2589058D01*
X1186146Y-2590830D01*
X1186144Y-2590830D01*
X1045456Y-2624606D01*
X1045453Y-2624607D01*
X1038077Y-2626378D01*
X896017Y-2699701D01*
X775548Y-2804793D01*
X771183Y-2811003D01*
X771180Y-2811007D01*
X738208Y-2857922D01*
X682673Y-2902154D01*
X612041Y-2909339D01*
X548737Y-2877197D01*
X531281Y-2856838D01*
X503389Y-2816254D01*
X503387Y-2816252D01*
X499087Y-2809995D01*
X493249Y-2804793D01*
X385396Y-2708701D01*
X379725Y-2703648D01*
X372271Y-2699701D01*
X245154Y-2632396D01*
X245155Y-2632396D01*
X238440Y-2628841D01*
X83391Y-2589895D01*
X75793Y-2589855D01*
X75791Y-2589855D01*
X8513Y-2589503D01*
X-76474Y-2589058D01*
X-83854Y-2590830D01*
X-83856Y-2590830D01*
X-224544Y-2624606D01*
X-224547Y-2624607D01*
X-231923Y-2626378D01*
X-373983Y-2699701D01*
X-494452Y-2804793D01*
X-498817Y-2811003D01*
X-498820Y-2811007D01*
X-531792Y-2857922D01*
X-587327Y-2902154D01*
X-657959Y-2909339D01*
X-721263Y-2877197D01*
X-738719Y-2856838D01*
X-766611Y-2816254D01*
X-766613Y-2816252D01*
X-770913Y-2809995D01*
X-776751Y-2804793D01*
X-884604Y-2708701D01*
X-890275Y-2703648D01*
X-897729Y-2699701D01*
X-1024846Y-2632396D01*
X-1024845Y-2632396D01*
X-1031560Y-2628841D01*
X-1186609Y-2589895D01*
X-1194207Y-2589855D01*
X-1194209Y-2589855D01*
X-1261487Y-2589503D01*
X-1346474Y-2589058D01*
X-1353854Y-2590830D01*
X-1353856Y-2590830D01*
X-1494544Y-2624606D01*
X-1494547Y-2624607D01*
X-1501923Y-2626378D01*
X-1643983Y-2699701D01*
X-1764452Y-2804793D01*
X-1768817Y-2811003D01*
X-1768820Y-2811007D01*
X-1801792Y-2857922D01*
X-1857327Y-2902154D01*
X-1927959Y-2909339D01*
X-1991263Y-2877197D01*
X-2008719Y-2856838D01*
X-2036611Y-2816254D01*
X-2036613Y-2816252D01*
X-2040913Y-2809995D01*
X-2046751Y-2804793D01*
X-2154604Y-2708701D01*
X-2160275Y-2703648D01*
X-2167729Y-2699701D01*
X-2294846Y-2632396D01*
X-2294845Y-2632396D01*
X-2301560Y-2628841D01*
X-2456609Y-2589895D01*
X-2464207Y-2589855D01*
X-2464209Y-2589855D01*
X-2531487Y-2589503D01*
X-2616474Y-2589058D01*
X-2623854Y-2590830D01*
X-2623856Y-2590830D01*
X-2764544Y-2624606D01*
X-2764547Y-2624607D01*
X-2771923Y-2626378D01*
X-2913983Y-2699701D01*
X-3034452Y-2804793D01*
X-3038817Y-2811003D01*
X-3038820Y-2811007D01*
X-3071792Y-2857922D01*
X-3127327Y-2902154D01*
X-3197959Y-2909339D01*
X-3261263Y-2877197D01*
X-3278719Y-2856838D01*
X-3306611Y-2816254D01*
X-3306613Y-2816252D01*
X-3310913Y-2809995D01*
X-3316751Y-2804793D01*
X-3424604Y-2708701D01*
X-3430275Y-2703648D01*
X-3437729Y-2699701D01*
X-3564846Y-2632396D01*
X-3564845Y-2632396D01*
X-3571560Y-2628841D01*
X-3726609Y-2589895D01*
X-3734207Y-2589855D01*
X-3734209Y-2589855D01*
X-3801487Y-2589503D01*
X-3886474Y-2589058D01*
X-3893854Y-2590830D01*
X-3893856Y-2590830D01*
X-4034544Y-2624606D01*
X-4034547Y-2624607D01*
X-4041923Y-2626378D01*
X-4183983Y-2699701D01*
X-4304452Y-2804793D01*
X-4308817Y-2811003D01*
X-4308820Y-2811007D01*
X-4341792Y-2857922D01*
X-4397327Y-2902154D01*
X-4467959Y-2909339D01*
X-4531263Y-2877197D01*
X-4548719Y-2856838D01*
X-4576611Y-2816254D01*
X-4576613Y-2816252D01*
X-4580913Y-2809995D01*
X-4586751Y-2804793D01*
X-4694604Y-2708701D01*
X-4700275Y-2703648D01*
X-4707729Y-2699701D01*
X-4834846Y-2632396D01*
X-4834845Y-2632396D01*
X-4841560Y-2628841D01*
X-4996609Y-2589895D01*
X-5004207Y-2589855D01*
X-5004209Y-2589855D01*
X-5071487Y-2589503D01*
X-5156474Y-2589058D01*
X-5163854Y-2590830D01*
X-5163856Y-2590830D01*
X-5304544Y-2624606D01*
X-5304547Y-2624607D01*
X-5311923Y-2626378D01*
X-5453983Y-2699701D01*
X-5574452Y-2804793D01*
X-5578817Y-2811003D01*
X-5578820Y-2811007D01*
X-5611792Y-2857922D01*
X-5667327Y-2902154D01*
X-5737959Y-2909339D01*
X-5801263Y-2877197D01*
X-5818719Y-2856838D01*
X-5846611Y-2816254D01*
X-5846613Y-2816252D01*
X-5850913Y-2809995D01*
X-5856751Y-2804793D01*
X-5964604Y-2708701D01*
X-5970275Y-2703648D01*
X-5977729Y-2699701D01*
X-6104846Y-2632396D01*
X-6104845Y-2632396D01*
X-6111560Y-2628841D01*
X-6266609Y-2589895D01*
X-6274207Y-2589855D01*
X-6274209Y-2589855D01*
X-6341487Y-2589503D01*
X-6426474Y-2589058D01*
X-6433854Y-2590830D01*
X-6433856Y-2590830D01*
X-6574544Y-2624606D01*
X-6574547Y-2624607D01*
X-6581923Y-2626378D01*
X-6723983Y-2699701D01*
X-6844452Y-2804793D01*
X-6848817Y-2811003D01*
X-6848820Y-2811007D01*
X-6881792Y-2857922D01*
X-6937327Y-2902154D01*
X-7007959Y-2909339D01*
X-7071263Y-2877197D01*
X-7088719Y-2856838D01*
X-7116611Y-2816254D01*
X-7116613Y-2816252D01*
X-7120913Y-2809995D01*
X-7126751Y-2804793D01*
X-7234604Y-2708701D01*
X-7240275Y-2703648D01*
X-7247729Y-2699701D01*
X-7374846Y-2632396D01*
X-7374845Y-2632396D01*
X-7381560Y-2628841D01*
X-7536609Y-2589895D01*
X-7544207Y-2589855D01*
X-7544209Y-2589855D01*
X-7611487Y-2589503D01*
X-7696474Y-2589058D01*
X-7703854Y-2590830D01*
X-7703856Y-2590830D01*
X-7844544Y-2624606D01*
X-7844547Y-2624607D01*
X-7851923Y-2626378D01*
X-7993983Y-2699701D01*
X-8114452Y-2804793D01*
X-8118819Y-2811007D01*
X-8176561Y-2893166D01*
X-8206376Y-2935588D01*
X-8235412Y-3010061D01*
X-8255287Y-3061038D01*
X-8264448Y-3084534D01*
X-8265440Y-3092067D01*
X-8265440Y-3092068D01*
X-8272761Y-3147679D01*
X-8285315Y-3243033D01*
X-18187631Y-3243033D01*
X-18206339Y-3147679D01*
X-18207312Y-3142045D01*
X-18289555Y-2591746D01*
X-18330384Y-2318551D01*
X-18331100Y-2312885D01*
X-18416692Y-1484628D01*
X-18417150Y-1478929D01*
X-18465080Y-647686D01*
X-18465280Y-641972D01*
X-18475452Y190626D01*
X-18475392Y196342D01*
X-18447786Y1028525D01*
X-18447467Y1034234D01*
X-18397295Y1671716D01*
X-18382137Y1864326D01*
X-18381559Y1870010D01*
X-18278644Y2696261D01*
X-18277809Y2701917D01*
X-18137516Y3522667D01*
X-18136425Y3528279D01*
X-17959043Y4341822D01*
X-17957698Y4347379D01*
X-17955147Y4356967D01*
X-8285315Y4356967D01*
X-8267772Y4198067D01*
X-8265163Y4190936D01*
X-8265162Y4190934D01*
X-8260353Y4177794D01*
X-8212832Y4047937D01*
X-8208595Y4041631D01*
X-8208593Y4041628D01*
X-8196271Y4023291D01*
X-8123667Y3915246D01*
X-8118049Y3910134D01*
X-8011046Y3812768D01*
X-8011042Y3812765D01*
X-8005425Y3807654D01*
X-7998748Y3804028D01*
X-7998747Y3804028D01*
X-7871609Y3734997D01*
X-7871607Y3734996D01*
X-7864932Y3731372D01*
X-7857583Y3729444D01*
X-7717648Y3692733D01*
X-7717646Y3692733D01*
X-7710298Y3690805D01*
X-7702698Y3690686D01*
X-7695180Y3689656D01*
X-7695422Y3687890D01*
X-7636711Y3669644D01*
X-7591068Y3615264D01*
X-7582070Y3544840D01*
X-7589097Y3518961D01*
X-7629448Y3415466D01*
X-7630440Y3407933D01*
X-7630440Y3407932D01*
X-7639625Y3338162D01*
X-7650315Y3256967D01*
X-7632772Y3098067D01*
X-7630163Y3090936D01*
X-7630162Y3090934D01*
X-7625353Y3077794D01*
X-7577832Y2947937D01*
X-7573595Y2941631D01*
X-7573593Y2941628D01*
X-7532580Y2880595D01*
X-7488667Y2815246D01*
X-7483049Y2810134D01*
X-7376046Y2712768D01*
X-7376042Y2712765D01*
X-7370425Y2707654D01*
X-7363748Y2704028D01*
X-7363747Y2704028D01*
X-7236609Y2634997D01*
X-7236607Y2634996D01*
X-7229932Y2631372D01*
X-7222583Y2629444D01*
X-7082648Y2592733D01*
X-7082646Y2592733D01*
X-7075298Y2590805D01*
X-6993878Y2589526D01*
X-6923051Y2588413D01*
X-6923048Y2588413D01*
X-6915452Y2588294D01*
X-6908048Y2589990D01*
X-6908046Y2589990D01*
X-6850478Y2603175D01*
X-6759620Y2623984D01*
X-6616800Y2695815D01*
X-6611029Y2700744D01*
X-6611026Y2700746D01*
X-6501015Y2794705D01*
X-6495237Y2799640D01*
X-6452688Y2858853D01*
X-6396693Y2902500D01*
X-6325989Y2908945D01*
X-6263025Y2876142D01*
X-6245790Y2855609D01*
X-6218667Y2815246D01*
X-6213049Y2810134D01*
X-6106046Y2712768D01*
X-6106042Y2712765D01*
X-6100425Y2707654D01*
X-6093748Y2704028D01*
X-6093747Y2704028D01*
X-5966609Y2634997D01*
X-5966607Y2634996D01*
X-5959932Y2631372D01*
X-5952583Y2629444D01*
X-5812648Y2592733D01*
X-5812646Y2592733D01*
X-5805298Y2590805D01*
X-5723878Y2589526D01*
X-5653051Y2588413D01*
X-5653048Y2588413D01*
X-5645452Y2588294D01*
X-5638048Y2589990D01*
X-5638046Y2589990D01*
X-5580478Y2603175D01*
X-5489620Y2623984D01*
X-5346800Y2695815D01*
X-5341029Y2700744D01*
X-5341026Y2700746D01*
X-5231015Y2794705D01*
X-5225237Y2799640D01*
X-5182688Y2858853D01*
X-5126693Y2902500D01*
X-5055989Y2908945D01*
X-4993025Y2876142D01*
X-4975790Y2855609D01*
X-4948667Y2815246D01*
X-4943049Y2810134D01*
X-4836046Y2712768D01*
X-4836042Y2712765D01*
X-4830425Y2707654D01*
X-4823748Y2704028D01*
X-4823747Y2704028D01*
X-4696609Y2634997D01*
X-4696607Y2634996D01*
X-4689932Y2631372D01*
X-4682583Y2629444D01*
X-4542648Y2592733D01*
X-4542646Y2592733D01*
X-4535298Y2590805D01*
X-4453878Y2589526D01*
X-4383051Y2588413D01*
X-4383048Y2588413D01*
X-4375452Y2588294D01*
X-4368048Y2589990D01*
X-4368046Y2589990D01*
X-4310478Y2603175D01*
X-4219620Y2623984D01*
X-4076800Y2695815D01*
X-4071029Y2700744D01*
X-4071026Y2700746D01*
X-3961015Y2794705D01*
X-3955237Y2799640D01*
X-3912688Y2858853D01*
X-3856693Y2902500D01*
X-3785989Y2908945D01*
X-3723025Y2876142D01*
X-3705790Y2855609D01*
X-3678667Y2815246D01*
X-3673049Y2810134D01*
X-3566046Y2712768D01*
X-3566042Y2712765D01*
X-3560425Y2707654D01*
X-3553748Y2704028D01*
X-3553747Y2704028D01*
X-3426609Y2634997D01*
X-3426607Y2634996D01*
X-3419932Y2631372D01*
X-3412583Y2629444D01*
X-3272648Y2592733D01*
X-3272646Y2592733D01*
X-3265298Y2590805D01*
X-3183878Y2589526D01*
X-3113051Y2588413D01*
X-3113048Y2588413D01*
X-3105452Y2588294D01*
X-3098048Y2589990D01*
X-3098046Y2589990D01*
X-3040478Y2603175D01*
X-2949620Y2623984D01*
X-2806800Y2695815D01*
X-2801029Y2700744D01*
X-2801026Y2700746D01*
X-2691015Y2794705D01*
X-2685237Y2799640D01*
X-2642688Y2858853D01*
X-2586693Y2902500D01*
X-2515989Y2908945D01*
X-2453025Y2876142D01*
X-2435790Y2855609D01*
X-2408667Y2815246D01*
X-2403049Y2810134D01*
X-2296046Y2712768D01*
X-2296042Y2712765D01*
X-2290425Y2707654D01*
X-2283748Y2704028D01*
X-2283747Y2704028D01*
X-2156609Y2634997D01*
X-2156607Y2634996D01*
X-2149932Y2631372D01*
X-2142583Y2629444D01*
X-2002648Y2592733D01*
X-2002646Y2592733D01*
X-1995298Y2590805D01*
X-1913878Y2589526D01*
X-1843051Y2588413D01*
X-1843048Y2588413D01*
X-1835452Y2588294D01*
X-1828048Y2589990D01*
X-1828046Y2589990D01*
X-1770478Y2603175D01*
X-1679620Y2623984D01*
X-1536800Y2695815D01*
X-1531029Y2700744D01*
X-1531026Y2700746D01*
X-1421015Y2794705D01*
X-1415237Y2799640D01*
X-1372688Y2858853D01*
X-1316693Y2902500D01*
X-1245989Y2908945D01*
X-1183025Y2876142D01*
X-1165790Y2855609D01*
X-1138667Y2815246D01*
X-1133049Y2810134D01*
X-1026046Y2712768D01*
X-1026042Y2712765D01*
X-1020425Y2707654D01*
X-1013748Y2704028D01*
X-1013747Y2704028D01*
X-886609Y2634997D01*
X-886607Y2634996D01*
X-879932Y2631372D01*
X-872583Y2629444D01*
X-732648Y2592733D01*
X-732646Y2592733D01*
X-725298Y2590805D01*
X-643878Y2589526D01*
X-573051Y2588413D01*
X-573048Y2588413D01*
X-565452Y2588294D01*
X-558048Y2589990D01*
X-558046Y2589990D01*
X-500478Y2603175D01*
X-409620Y2623984D01*
X-266800Y2695815D01*
X-261029Y2700744D01*
X-261026Y2700746D01*
X-151015Y2794705D01*
X-145237Y2799640D01*
X-102688Y2858853D01*
X-46693Y2902500D01*
X24011Y2908945D01*
X86975Y2876142D01*
X104210Y2855609D01*
X131333Y2815246D01*
X136951Y2810134D01*
X243954Y2712768D01*
X243958Y2712765D01*
X249575Y2707654D01*
X256252Y2704028D01*
X256253Y2704028D01*
X383391Y2634997D01*
X383393Y2634996D01*
X390068Y2631372D01*
X397417Y2629444D01*
X537352Y2592733D01*
X537354Y2592733D01*
X544702Y2590805D01*
X626122Y2589526D01*
X696949Y2588413D01*
X696952Y2588413D01*
X704548Y2588294D01*
X711952Y2589990D01*
X711954Y2589990D01*
X769522Y2603175D01*
X860380Y2623984D01*
X1003200Y2695815D01*
X1008971Y2700744D01*
X1008974Y2700746D01*
X1118985Y2794705D01*
X1124763Y2799640D01*
X1167312Y2858853D01*
X1223307Y2902500D01*
X1294011Y2908945D01*
X1356975Y2876142D01*
X1374210Y2855609D01*
X1401333Y2815246D01*
X1406951Y2810134D01*
X1513954Y2712768D01*
X1513958Y2712765D01*
X1519575Y2707654D01*
X1526252Y2704028D01*
X1526253Y2704028D01*
X1653391Y2634997D01*
X1653393Y2634996D01*
X1660068Y2631372D01*
X1667417Y2629444D01*
X1807352Y2592733D01*
X1807354Y2592733D01*
X1814702Y2590805D01*
X1896122Y2589526D01*
X1966949Y2588413D01*
X1966952Y2588413D01*
X1974548Y2588294D01*
X1981952Y2589990D01*
X1981954Y2589990D01*
X2039522Y2603175D01*
X2130380Y2623984D01*
X2273200Y2695815D01*
X2278971Y2700744D01*
X2278974Y2700746D01*
X2388985Y2794705D01*
X2394763Y2799640D01*
X2437312Y2858853D01*
X2493307Y2902500D01*
X2564011Y2908945D01*
X2626975Y2876142D01*
X2644210Y2855609D01*
X2671333Y2815246D01*
X2676951Y2810134D01*
X2783954Y2712768D01*
X2783958Y2712765D01*
X2789575Y2707654D01*
X2796252Y2704028D01*
X2796253Y2704028D01*
X2923391Y2634997D01*
X2923393Y2634996D01*
X2930068Y2631372D01*
X2937417Y2629444D01*
X3077352Y2592733D01*
X3077354Y2592733D01*
X3084702Y2590805D01*
X3166122Y2589526D01*
X3236949Y2588413D01*
X3236952Y2588413D01*
X3244548Y2588294D01*
X3251952Y2589990D01*
X3251954Y2589990D01*
X3309522Y2603175D01*
X3400380Y2623984D01*
X3543200Y2695815D01*
X3548971Y2700744D01*
X3548974Y2700746D01*
X3658985Y2794705D01*
X3664763Y2799640D01*
X3707312Y2858853D01*
X3763307Y2902500D01*
X3834011Y2908945D01*
X3896975Y2876142D01*
X3914210Y2855609D01*
X3941333Y2815246D01*
X3946951Y2810134D01*
X4053954Y2712768D01*
X4053958Y2712765D01*
X4059575Y2707654D01*
X4066252Y2704028D01*
X4066253Y2704028D01*
X4193391Y2634997D01*
X4193393Y2634996D01*
X4200068Y2631372D01*
X4207417Y2629444D01*
X4347352Y2592733D01*
X4347354Y2592733D01*
X4354702Y2590805D01*
X4436122Y2589526D01*
X4506949Y2588413D01*
X4506952Y2588413D01*
X4514548Y2588294D01*
X4521952Y2589990D01*
X4521954Y2589990D01*
X4579522Y2603175D01*
X4670380Y2623984D01*
X4813200Y2695815D01*
X4818971Y2700744D01*
X4818974Y2700746D01*
X4928985Y2794705D01*
X4934763Y2799640D01*
X4977312Y2858853D01*
X5033307Y2902500D01*
X5104011Y2908945D01*
X5166975Y2876142D01*
X5184210Y2855609D01*
X5211333Y2815246D01*
X5216951Y2810134D01*
X5323954Y2712768D01*
X5323958Y2712765D01*
X5329575Y2707654D01*
X5336252Y2704028D01*
X5336253Y2704028D01*
X5463391Y2634997D01*
X5463393Y2634996D01*
X5470068Y2631372D01*
X5477417Y2629444D01*
X5617352Y2592733D01*
X5617354Y2592733D01*
X5624702Y2590805D01*
X5706122Y2589526D01*
X5776949Y2588413D01*
X5776952Y2588413D01*
X5784548Y2588294D01*
X5791952Y2589990D01*
X5791954Y2589990D01*
X5849522Y2603175D01*
X5940380Y2623984D01*
X6083200Y2695815D01*
X6088971Y2700744D01*
X6088974Y2700746D01*
X6198985Y2794705D01*
X6204763Y2799640D01*
X6247312Y2858853D01*
X6303307Y2902500D01*
X6374011Y2908945D01*
X6436975Y2876142D01*
X6454210Y2855609D01*
X6481333Y2815246D01*
X6486951Y2810134D01*
X6593954Y2712768D01*
X6593958Y2712765D01*
X6599575Y2707654D01*
X6606252Y2704028D01*
X6606253Y2704028D01*
X6733391Y2634997D01*
X6733393Y2634996D01*
X6740068Y2631372D01*
X6747417Y2629444D01*
X6887352Y2592733D01*
X6887354Y2592733D01*
X6894702Y2590805D01*
X6976122Y2589526D01*
X7046949Y2588413D01*
X7046952Y2588413D01*
X7054548Y2588294D01*
X7061952Y2589990D01*
X7061954Y2589990D01*
X7119522Y2603175D01*
X7210380Y2623984D01*
X7353200Y2695815D01*
X7358971Y2700744D01*
X7358974Y2700746D01*
X7468985Y2794705D01*
X7474763Y2799640D01*
X7568052Y2929465D01*
X7627680Y3077794D01*
X7650205Y3236066D01*
X7650351Y3250000D01*
X7631145Y3408708D01*
X7589160Y3519818D01*
X7583792Y3590610D01*
X7617549Y3653068D01*
X7679715Y3687360D01*
X7685808Y3688353D01*
X7689548Y3688294D01*
X7845380Y3723984D01*
X7988200Y3795815D01*
X7993971Y3800744D01*
X7993974Y3800746D01*
X8103985Y3894705D01*
X8109763Y3899640D01*
X8203052Y4029465D01*
X8262680Y4177794D01*
X8285205Y4336066D01*
X8285282Y4343417D01*
X8285308Y4345880D01*
X8285308Y4345883D01*
X8285351Y4350000D01*
X8266145Y4508708D01*
X8209636Y4658254D01*
X8187364Y4690661D01*
X8123389Y4783746D01*
X8123387Y4783748D01*
X8119087Y4790005D01*
X8113249Y4795207D01*
X8005396Y4891299D01*
X7999725Y4896352D01*
X7992271Y4900299D01*
X7865154Y4967604D01*
X7865155Y4967604D01*
X7858440Y4971159D01*
X7703391Y5010105D01*
X7695793Y5010145D01*
X7695791Y5010145D01*
X7628513Y5010497D01*
X7543526Y5010942D01*
X7536146Y5009170D01*
X7536144Y5009170D01*
X7395456Y4975394D01*
X7395453Y4975393D01*
X7388077Y4973622D01*
X7246017Y4900299D01*
X7125548Y4795207D01*
X7121183Y4788997D01*
X7121180Y4788993D01*
X7088208Y4742078D01*
X7032673Y4697846D01*
X6962041Y4690661D01*
X6898737Y4722803D01*
X6881281Y4743162D01*
X6853389Y4783746D01*
X6853387Y4783748D01*
X6849087Y4790005D01*
X6843249Y4795207D01*
X6735396Y4891299D01*
X6729725Y4896352D01*
X6722271Y4900299D01*
X6595154Y4967604D01*
X6595155Y4967604D01*
X6588440Y4971159D01*
X6433391Y5010105D01*
X6425793Y5010145D01*
X6425791Y5010145D01*
X6358513Y5010497D01*
X6273526Y5010942D01*
X6266146Y5009170D01*
X6266144Y5009170D01*
X6125456Y4975394D01*
X6125453Y4975393D01*
X6118077Y4973622D01*
X5976017Y4900299D01*
X5855548Y4795207D01*
X5851183Y4788997D01*
X5851180Y4788993D01*
X5818208Y4742078D01*
X5762673Y4697846D01*
X5692041Y4690661D01*
X5628737Y4722803D01*
X5611281Y4743162D01*
X5583389Y4783746D01*
X5583387Y4783748D01*
X5579087Y4790005D01*
X5573249Y4795207D01*
X5465396Y4891299D01*
X5459725Y4896352D01*
X5452271Y4900299D01*
X5325154Y4967604D01*
X5325155Y4967604D01*
X5318440Y4971159D01*
X5163391Y5010105D01*
X5155793Y5010145D01*
X5155791Y5010145D01*
X5088513Y5010497D01*
X5003526Y5010942D01*
X4996146Y5009170D01*
X4996144Y5009170D01*
X4855456Y4975394D01*
X4855453Y4975393D01*
X4848077Y4973622D01*
X4706017Y4900299D01*
X4585548Y4795207D01*
X4581183Y4788997D01*
X4581180Y4788993D01*
X4548208Y4742078D01*
X4492673Y4697846D01*
X4422041Y4690661D01*
X4358737Y4722803D01*
X4341281Y4743162D01*
X4313389Y4783746D01*
X4313387Y4783748D01*
X4309087Y4790005D01*
X4303249Y4795207D01*
X4195396Y4891299D01*
X4189725Y4896352D01*
X4182271Y4900299D01*
X4055154Y4967604D01*
X4055155Y4967604D01*
X4048440Y4971159D01*
X3893391Y5010105D01*
X3885793Y5010145D01*
X3885791Y5010145D01*
X3818513Y5010497D01*
X3733526Y5010942D01*
X3726146Y5009170D01*
X3726144Y5009170D01*
X3585456Y4975394D01*
X3585453Y4975393D01*
X3578077Y4973622D01*
X3436017Y4900299D01*
X3315548Y4795207D01*
X3311183Y4788997D01*
X3311180Y4788993D01*
X3278208Y4742078D01*
X3222673Y4697846D01*
X3152041Y4690661D01*
X3088737Y4722803D01*
X3071281Y4743162D01*
X3043389Y4783746D01*
X3043387Y4783748D01*
X3039087Y4790005D01*
X3033249Y4795207D01*
X2925396Y4891299D01*
X2919725Y4896352D01*
X2912271Y4900299D01*
X2785154Y4967604D01*
X2785155Y4967604D01*
X2778440Y4971159D01*
X2623391Y5010105D01*
X2615793Y5010145D01*
X2615791Y5010145D01*
X2548513Y5010497D01*
X2463526Y5010942D01*
X2456146Y5009170D01*
X2456144Y5009170D01*
X2315456Y4975394D01*
X2315453Y4975393D01*
X2308077Y4973622D01*
X2166017Y4900299D01*
X2045548Y4795207D01*
X2041183Y4788997D01*
X2041180Y4788993D01*
X2008208Y4742078D01*
X1952673Y4697846D01*
X1882041Y4690661D01*
X1818737Y4722803D01*
X1801281Y4743162D01*
X1773389Y4783746D01*
X1773387Y4783748D01*
X1769087Y4790005D01*
X1763249Y4795207D01*
X1655396Y4891299D01*
X1649725Y4896352D01*
X1642271Y4900299D01*
X1515154Y4967604D01*
X1515155Y4967604D01*
X1508440Y4971159D01*
X1353391Y5010105D01*
X1345793Y5010145D01*
X1345791Y5010145D01*
X1278513Y5010497D01*
X1193526Y5010942D01*
X1186146Y5009170D01*
X1186144Y5009170D01*
X1045456Y4975394D01*
X1045453Y4975393D01*
X1038077Y4973622D01*
X896017Y4900299D01*
X775548Y4795207D01*
X771183Y4788997D01*
X771180Y4788993D01*
X738208Y4742078D01*
X682673Y4697846D01*
X612041Y4690661D01*
X548737Y4722803D01*
X531281Y4743162D01*
X503389Y4783746D01*
X503387Y4783748D01*
X499087Y4790005D01*
X493249Y4795207D01*
X385396Y4891299D01*
X379725Y4896352D01*
X372271Y4900299D01*
X245154Y4967604D01*
X245155Y4967604D01*
X238440Y4971159D01*
X83391Y5010105D01*
X75793Y5010145D01*
X75791Y5010145D01*
X8513Y5010497D01*
X-76474Y5010942D01*
X-83854Y5009170D01*
X-83856Y5009170D01*
X-224544Y4975394D01*
X-224547Y4975393D01*
X-231923Y4973622D01*
X-373983Y4900299D01*
X-494452Y4795207D01*
X-498817Y4788997D01*
X-498820Y4788993D01*
X-531792Y4742078D01*
X-587327Y4697846D01*
X-657959Y4690661D01*
X-721263Y4722803D01*
X-738719Y4743162D01*
X-766611Y4783746D01*
X-766613Y4783748D01*
X-770913Y4790005D01*
X-776751Y4795207D01*
X-884604Y4891299D01*
X-890275Y4896352D01*
X-897729Y4900299D01*
X-1024846Y4967604D01*
X-1024845Y4967604D01*
X-1031560Y4971159D01*
X-1186609Y5010105D01*
X-1194207Y5010145D01*
X-1194209Y5010145D01*
X-1261487Y5010497D01*
X-1346474Y5010942D01*
X-1353854Y5009170D01*
X-1353856Y5009170D01*
X-1494544Y4975394D01*
X-1494547Y4975393D01*
X-1501923Y4973622D01*
X-1643983Y4900299D01*
X-1764452Y4795207D01*
X-1768817Y4788997D01*
X-1768820Y4788993D01*
X-1801792Y4742078D01*
X-1857327Y4697846D01*
X-1927959Y4690661D01*
X-1991263Y4722803D01*
X-2008719Y4743162D01*
X-2036611Y4783746D01*
X-2036613Y4783748D01*
X-2040913Y4790005D01*
X-2046751Y4795207D01*
X-2154604Y4891299D01*
X-2160275Y4896352D01*
X-2167729Y4900299D01*
X-2294846Y4967604D01*
X-2294845Y4967604D01*
X-2301560Y4971159D01*
X-2456609Y5010105D01*
X-2464207Y5010145D01*
X-2464209Y5010145D01*
X-2531487Y5010497D01*
X-2616474Y5010942D01*
X-2623854Y5009170D01*
X-2623856Y5009170D01*
X-2764544Y4975394D01*
X-2764547Y4975393D01*
X-2771923Y4973622D01*
X-2913983Y4900299D01*
X-3034452Y4795207D01*
X-3038817Y4788997D01*
X-3038820Y4788993D01*
X-3071792Y4742078D01*
X-3127327Y4697846D01*
X-3197959Y4690661D01*
X-3261263Y4722803D01*
X-3278719Y4743162D01*
X-3306611Y4783746D01*
X-3306613Y4783748D01*
X-3310913Y4790005D01*
X-3316751Y4795207D01*
X-3424604Y4891299D01*
X-3430275Y4896352D01*
X-3437729Y4900299D01*
X-3564846Y4967604D01*
X-3564845Y4967604D01*
X-3571560Y4971159D01*
X-3726609Y5010105D01*
X-3734207Y5010145D01*
X-3734209Y5010145D01*
X-3801487Y5010497D01*
X-3886474Y5010942D01*
X-3893854Y5009170D01*
X-3893856Y5009170D01*
X-4034544Y4975394D01*
X-4034547Y4975393D01*
X-4041923Y4973622D01*
X-4183983Y4900299D01*
X-4304452Y4795207D01*
X-4308817Y4788997D01*
X-4308820Y4788993D01*
X-4341792Y4742078D01*
X-4397327Y4697846D01*
X-4467959Y4690661D01*
X-4531263Y4722803D01*
X-4548719Y4743162D01*
X-4576611Y4783746D01*
X-4576613Y4783748D01*
X-4580913Y4790005D01*
X-4586751Y4795207D01*
X-4694604Y4891299D01*
X-4700275Y4896352D01*
X-4707729Y4900299D01*
X-4834846Y4967604D01*
X-4834845Y4967604D01*
X-4841560Y4971159D01*
X-4996609Y5010105D01*
X-5004207Y5010145D01*
X-5004209Y5010145D01*
X-5071487Y5010497D01*
X-5156474Y5010942D01*
X-5163854Y5009170D01*
X-5163856Y5009170D01*
X-5304544Y4975394D01*
X-5304547Y4975393D01*
X-5311923Y4973622D01*
X-5453983Y4900299D01*
X-5574452Y4795207D01*
X-5578817Y4788997D01*
X-5578820Y4788993D01*
X-5611792Y4742078D01*
X-5667327Y4697846D01*
X-5737959Y4690661D01*
X-5801263Y4722803D01*
X-5818719Y4743162D01*
X-5846611Y4783746D01*
X-5846613Y4783748D01*
X-5850913Y4790005D01*
X-5856751Y4795207D01*
X-5964604Y4891299D01*
X-5970275Y4896352D01*
X-5977729Y4900299D01*
X-6104846Y4967604D01*
X-6104845Y4967604D01*
X-6111560Y4971159D01*
X-6266609Y5010105D01*
X-6274207Y5010145D01*
X-6274209Y5010145D01*
X-6341487Y5010497D01*
X-6426474Y5010942D01*
X-6433854Y5009170D01*
X-6433856Y5009170D01*
X-6574544Y4975394D01*
X-6574547Y4975393D01*
X-6581923Y4973622D01*
X-6723983Y4900299D01*
X-6844452Y4795207D01*
X-6848817Y4788997D01*
X-6848820Y4788993D01*
X-6881792Y4742078D01*
X-6937327Y4697846D01*
X-7007959Y4690661D01*
X-7071263Y4722803D01*
X-7088719Y4743162D01*
X-7116611Y4783746D01*
X-7116613Y4783748D01*
X-7120913Y4790005D01*
X-7126751Y4795207D01*
X-7234604Y4891299D01*
X-7240275Y4896352D01*
X-7247729Y4900299D01*
X-7374846Y4967604D01*
X-7374845Y4967604D01*
X-7381560Y4971159D01*
X-7536609Y5010105D01*
X-7544207Y5010145D01*
X-7544209Y5010145D01*
X-7611487Y5010497D01*
X-7696474Y5010942D01*
X-7703854Y5009170D01*
X-7703856Y5009170D01*
X-7844544Y4975394D01*
X-7844547Y4975393D01*
X-7851923Y4973622D01*
X-7993983Y4900299D01*
X-8114452Y4795207D01*
X-8206376Y4664412D01*
X-8209136Y4657332D01*
X-8255287Y4538962D01*
X-8264448Y4515466D01*
X-8265440Y4507933D01*
X-8265440Y4507932D01*
X-8266330Y4501168D01*
X-8285315Y4356967D01*
X-17955147Y4356967D01*
X-17743601Y5152016D01*
X-17742006Y5157506D01*
X-17491627Y5951607D01*
X-17489785Y5957019D01*
X-17203636Y6738960D01*
X-17201550Y6744283D01*
X-17111267Y6960112D01*
X-17001636Y7222194D01*
X-13427639Y7222194D01*
X-13420249Y7211892D01*
X-13378370Y7177797D01*
X-13371091Y7172682D01*
X-13147244Y7037915D01*
X-13139330Y7033882D01*
X-12898714Y6931994D01*
X-12890309Y6929117D01*
X-12637743Y6862150D01*
X-12629011Y6860484D01*
X-12369526Y6829773D01*
X-12360660Y6829355D01*
X-12099439Y6835510D01*
X-12090586Y6836347D01*
X-11832838Y6879248D01*
X-11824204Y6881321D01*
X-11575070Y6960112D01*
X-11566808Y6963383D01*
X-11331269Y7076487D01*
X-11323545Y7080893D01*
X-11129732Y7210394D01*
X-11121444Y7220312D01*
X-11128701Y7234491D01*
X-11176404Y7282194D01*
X11122361Y7282194D01*
X11129751Y7271892D01*
X11171630Y7237797D01*
X11178909Y7232682D01*
X11402756Y7097915D01*
X11410670Y7093882D01*
X11651286Y6991994D01*
X11659691Y6989117D01*
X11912257Y6922150D01*
X11920989Y6920484D01*
X12180474Y6889773D01*
X12189340Y6889355D01*
X12450561Y6895510D01*
X12459414Y6896347D01*
X12717162Y6939248D01*
X12725796Y6941321D01*
X12974930Y7020112D01*
X12983192Y7023383D01*
X13218731Y7136487D01*
X13226455Y7140893D01*
X13420268Y7270394D01*
X13428556Y7280312D01*
X13421299Y7294491D01*
X12287812Y8427978D01*
X12273868Y8435592D01*
X12272035Y8435461D01*
X12265420Y8431210D01*
X11129527Y7295317D01*
X11122361Y7282194D01*
X-11176404Y7282194D01*
X-12262188Y8367978D01*
X-12276132Y8375592D01*
X-12277965Y8375461D01*
X-12284580Y8371210D01*
X-13420473Y7235317D01*
X-13427639Y7222194D01*
X-17001636Y7222194D01*
X-16880220Y7512447D01*
X-16877896Y7517666D01*
X-16843708Y7589990D01*
X-16522062Y8270439D01*
X-16519502Y8275550D01*
X-16244132Y8795633D01*
X-14186755Y8795633D01*
X-14176497Y8534541D01*
X-14175522Y8525712D01*
X-14128578Y8268668D01*
X-14126369Y8260066D01*
X-14043676Y8012204D01*
X-14040272Y8003986D01*
X-13923481Y7770250D01*
X-13918957Y7762602D01*
X-13803648Y7595765D01*
X-13793327Y7587411D01*
X-13779677Y7594533D01*
X-12647022Y8727188D01*
X-12640644Y8738868D01*
X-11910592Y8738868D01*
X-11910461Y8737035D01*
X-11906210Y8730420D01*
X-10769483Y7593693D01*
X-10756083Y7586376D01*
X-10746179Y7593363D01*
X-10730314Y7612237D01*
X-10725095Y7619420D01*
X-10586829Y7841124D01*
X-10582667Y7848983D01*
X-10477012Y8087970D01*
X-10474006Y8096320D01*
X-10428699Y8256967D01*
X-8285315Y8256967D01*
X-8276544Y8177517D01*
X-8273281Y8147970D01*
X-8267772Y8098067D01*
X-8265163Y8090936D01*
X-8265162Y8090934D01*
X-8257772Y8070740D01*
X-8212832Y7947937D01*
X-8208595Y7941631D01*
X-8208593Y7941628D01*
X-8181375Y7901124D01*
X-8123667Y7815246D01*
X-8118049Y7810134D01*
X-8011046Y7712768D01*
X-8011042Y7712765D01*
X-8005425Y7707654D01*
X-7998748Y7704028D01*
X-7998747Y7704028D01*
X-7871609Y7634997D01*
X-7871607Y7634996D01*
X-7864932Y7631372D01*
X-7857583Y7629444D01*
X-7717648Y7592733D01*
X-7717646Y7592733D01*
X-7710298Y7590805D01*
X-7628878Y7589526D01*
X-7558051Y7588413D01*
X-7558048Y7588413D01*
X-7550452Y7588294D01*
X-7543048Y7589990D01*
X-7543046Y7589990D01*
X-7445911Y7612237D01*
X-7394620Y7623984D01*
X-7251800Y7695815D01*
X-7246029Y7700744D01*
X-7246026Y7700746D01*
X-7136015Y7794705D01*
X-7130237Y7799640D01*
X-7087688Y7858853D01*
X-7031693Y7902500D01*
X-6960989Y7908945D01*
X-6898025Y7876142D01*
X-6880790Y7855609D01*
X-6853667Y7815246D01*
X-6848049Y7810134D01*
X-6741046Y7712768D01*
X-6741042Y7712765D01*
X-6735425Y7707654D01*
X-6728748Y7704028D01*
X-6728747Y7704028D01*
X-6601609Y7634997D01*
X-6601607Y7634996D01*
X-6594932Y7631372D01*
X-6587583Y7629444D01*
X-6447648Y7592733D01*
X-6447646Y7592733D01*
X-6440298Y7590805D01*
X-6358878Y7589526D01*
X-6288051Y7588413D01*
X-6288048Y7588413D01*
X-6280452Y7588294D01*
X-6273048Y7589990D01*
X-6273046Y7589990D01*
X-6175911Y7612237D01*
X-6124620Y7623984D01*
X-5981800Y7695815D01*
X-5976029Y7700744D01*
X-5976026Y7700746D01*
X-5866015Y7794705D01*
X-5860237Y7799640D01*
X-5817688Y7858853D01*
X-5761693Y7902500D01*
X-5690989Y7908945D01*
X-5628025Y7876142D01*
X-5610790Y7855609D01*
X-5583667Y7815246D01*
X-5578049Y7810134D01*
X-5471046Y7712768D01*
X-5471042Y7712765D01*
X-5465425Y7707654D01*
X-5458748Y7704028D01*
X-5458747Y7704028D01*
X-5331609Y7634997D01*
X-5331607Y7634996D01*
X-5324932Y7631372D01*
X-5317583Y7629444D01*
X-5177648Y7592733D01*
X-5177646Y7592733D01*
X-5170298Y7590805D01*
X-5088878Y7589526D01*
X-5018051Y7588413D01*
X-5018048Y7588413D01*
X-5010452Y7588294D01*
X-5003048Y7589990D01*
X-5003046Y7589990D01*
X-4905911Y7612237D01*
X-4854620Y7623984D01*
X-4711800Y7695815D01*
X-4706029Y7700744D01*
X-4706026Y7700746D01*
X-4596015Y7794705D01*
X-4590237Y7799640D01*
X-4547688Y7858853D01*
X-4491693Y7902500D01*
X-4420989Y7908945D01*
X-4358025Y7876142D01*
X-4340790Y7855609D01*
X-4313667Y7815246D01*
X-4308049Y7810134D01*
X-4201046Y7712768D01*
X-4201042Y7712765D01*
X-4195425Y7707654D01*
X-4188748Y7704028D01*
X-4188747Y7704028D01*
X-4061609Y7634997D01*
X-4061607Y7634996D01*
X-4054932Y7631372D01*
X-4047583Y7629444D01*
X-3907648Y7592733D01*
X-3907646Y7592733D01*
X-3900298Y7590805D01*
X-3818878Y7589526D01*
X-3748051Y7588413D01*
X-3748048Y7588413D01*
X-3740452Y7588294D01*
X-3733048Y7589990D01*
X-3733046Y7589990D01*
X-3635911Y7612237D01*
X-3584620Y7623984D01*
X-3441800Y7695815D01*
X-3436029Y7700744D01*
X-3436026Y7700746D01*
X-3326015Y7794705D01*
X-3320237Y7799640D01*
X-3277688Y7858853D01*
X-3221693Y7902500D01*
X-3150989Y7908945D01*
X-3088025Y7876142D01*
X-3070790Y7855609D01*
X-3043667Y7815246D01*
X-3038049Y7810134D01*
X-2931046Y7712768D01*
X-2931042Y7712765D01*
X-2925425Y7707654D01*
X-2918748Y7704028D01*
X-2918747Y7704028D01*
X-2791609Y7634997D01*
X-2791607Y7634996D01*
X-2784932Y7631372D01*
X-2777583Y7629444D01*
X-2637648Y7592733D01*
X-2637646Y7592733D01*
X-2630298Y7590805D01*
X-2548878Y7589526D01*
X-2478051Y7588413D01*
X-2478048Y7588413D01*
X-2470452Y7588294D01*
X-2463048Y7589990D01*
X-2463046Y7589990D01*
X-2365911Y7612237D01*
X-2314620Y7623984D01*
X-2171800Y7695815D01*
X-2166029Y7700744D01*
X-2166026Y7700746D01*
X-2056015Y7794705D01*
X-2050237Y7799640D01*
X-2007688Y7858853D01*
X-1951693Y7902500D01*
X-1880989Y7908945D01*
X-1818025Y7876142D01*
X-1800790Y7855609D01*
X-1773667Y7815246D01*
X-1768049Y7810134D01*
X-1661046Y7712768D01*
X-1661042Y7712765D01*
X-1655425Y7707654D01*
X-1648748Y7704028D01*
X-1648747Y7704028D01*
X-1521609Y7634997D01*
X-1521607Y7634996D01*
X-1514932Y7631372D01*
X-1507583Y7629444D01*
X-1367648Y7592733D01*
X-1367646Y7592733D01*
X-1360298Y7590805D01*
X-1278878Y7589526D01*
X-1208051Y7588413D01*
X-1208048Y7588413D01*
X-1200452Y7588294D01*
X-1193048Y7589990D01*
X-1193046Y7589990D01*
X-1095911Y7612237D01*
X-1044620Y7623984D01*
X-901800Y7695815D01*
X-896029Y7700744D01*
X-896026Y7700746D01*
X-786015Y7794705D01*
X-780237Y7799640D01*
X-737688Y7858853D01*
X-681693Y7902500D01*
X-610989Y7908945D01*
X-548025Y7876142D01*
X-530790Y7855609D01*
X-503667Y7815246D01*
X-498049Y7810134D01*
X-391046Y7712768D01*
X-391042Y7712765D01*
X-385425Y7707654D01*
X-378748Y7704028D01*
X-378747Y7704028D01*
X-251609Y7634997D01*
X-251607Y7634996D01*
X-244932Y7631372D01*
X-237583Y7629444D01*
X-97648Y7592733D01*
X-97646Y7592733D01*
X-90298Y7590805D01*
X-8878Y7589526D01*
X61949Y7588413D01*
X61952Y7588413D01*
X69548Y7588294D01*
X76952Y7589990D01*
X76954Y7589990D01*
X174089Y7612237D01*
X225380Y7623984D01*
X368200Y7695815D01*
X373971Y7700744D01*
X373974Y7700746D01*
X483985Y7794705D01*
X489763Y7799640D01*
X532312Y7858853D01*
X588307Y7902500D01*
X659011Y7908945D01*
X721975Y7876142D01*
X739210Y7855609D01*
X766333Y7815246D01*
X771951Y7810134D01*
X878954Y7712768D01*
X878958Y7712765D01*
X884575Y7707654D01*
X891252Y7704028D01*
X891253Y7704028D01*
X1018391Y7634997D01*
X1018393Y7634996D01*
X1025068Y7631372D01*
X1032417Y7629444D01*
X1172352Y7592733D01*
X1172354Y7592733D01*
X1179702Y7590805D01*
X1261122Y7589526D01*
X1331949Y7588413D01*
X1331952Y7588413D01*
X1339548Y7588294D01*
X1346952Y7589990D01*
X1346954Y7589990D01*
X1444089Y7612237D01*
X1495380Y7623984D01*
X1638200Y7695815D01*
X1643971Y7700744D01*
X1643974Y7700746D01*
X1753985Y7794705D01*
X1759763Y7799640D01*
X1802312Y7858853D01*
X1858307Y7902500D01*
X1929011Y7908945D01*
X1991975Y7876142D01*
X2009210Y7855609D01*
X2036333Y7815246D01*
X2041951Y7810134D01*
X2148954Y7712768D01*
X2148958Y7712765D01*
X2154575Y7707654D01*
X2161252Y7704028D01*
X2161253Y7704028D01*
X2288391Y7634997D01*
X2288393Y7634996D01*
X2295068Y7631372D01*
X2302417Y7629444D01*
X2442352Y7592733D01*
X2442354Y7592733D01*
X2449702Y7590805D01*
X2531122Y7589526D01*
X2601949Y7588413D01*
X2601952Y7588413D01*
X2609548Y7588294D01*
X2616952Y7589990D01*
X2616954Y7589990D01*
X2714089Y7612237D01*
X2765380Y7623984D01*
X2908200Y7695815D01*
X2913971Y7700744D01*
X2913974Y7700746D01*
X3023985Y7794705D01*
X3029763Y7799640D01*
X3072312Y7858853D01*
X3128307Y7902500D01*
X3199011Y7908945D01*
X3261975Y7876142D01*
X3279210Y7855609D01*
X3306333Y7815246D01*
X3311951Y7810134D01*
X3418954Y7712768D01*
X3418958Y7712765D01*
X3424575Y7707654D01*
X3431252Y7704028D01*
X3431253Y7704028D01*
X3558391Y7634997D01*
X3558393Y7634996D01*
X3565068Y7631372D01*
X3572417Y7629444D01*
X3712352Y7592733D01*
X3712354Y7592733D01*
X3719702Y7590805D01*
X3801122Y7589526D01*
X3871949Y7588413D01*
X3871952Y7588413D01*
X3879548Y7588294D01*
X3886952Y7589990D01*
X3886954Y7589990D01*
X3984089Y7612237D01*
X4035380Y7623984D01*
X4178200Y7695815D01*
X4183971Y7700744D01*
X4183974Y7700746D01*
X4293985Y7794705D01*
X4299763Y7799640D01*
X4342312Y7858853D01*
X4398307Y7902500D01*
X4469011Y7908945D01*
X4531975Y7876142D01*
X4549210Y7855609D01*
X4576333Y7815246D01*
X4581951Y7810134D01*
X4688954Y7712768D01*
X4688958Y7712765D01*
X4694575Y7707654D01*
X4701252Y7704028D01*
X4701253Y7704028D01*
X4828391Y7634997D01*
X4828393Y7634996D01*
X4835068Y7631372D01*
X4842417Y7629444D01*
X4982352Y7592733D01*
X4982354Y7592733D01*
X4989702Y7590805D01*
X5071122Y7589526D01*
X5141949Y7588413D01*
X5141952Y7588413D01*
X5149548Y7588294D01*
X5156952Y7589990D01*
X5156954Y7589990D01*
X5254089Y7612237D01*
X5305380Y7623984D01*
X5448200Y7695815D01*
X5453971Y7700744D01*
X5453974Y7700746D01*
X5563985Y7794705D01*
X5569763Y7799640D01*
X5612312Y7858853D01*
X5668307Y7902500D01*
X5739011Y7908945D01*
X5801975Y7876142D01*
X5819210Y7855609D01*
X5846333Y7815246D01*
X5851951Y7810134D01*
X5958954Y7712768D01*
X5958958Y7712765D01*
X5964575Y7707654D01*
X5971252Y7704028D01*
X5971253Y7704028D01*
X6098391Y7634997D01*
X6098393Y7634996D01*
X6105068Y7631372D01*
X6112417Y7629444D01*
X6252352Y7592733D01*
X6252354Y7592733D01*
X6259702Y7590805D01*
X6341122Y7589526D01*
X6411949Y7588413D01*
X6411952Y7588413D01*
X6419548Y7588294D01*
X6426952Y7589990D01*
X6426954Y7589990D01*
X6524089Y7612237D01*
X6575380Y7623984D01*
X6718200Y7695815D01*
X6723971Y7700744D01*
X6723974Y7700746D01*
X6833985Y7794705D01*
X6839763Y7799640D01*
X6882312Y7858853D01*
X6938307Y7902500D01*
X7009011Y7908945D01*
X7071975Y7876142D01*
X7089210Y7855609D01*
X7116333Y7815246D01*
X7121951Y7810134D01*
X7228954Y7712768D01*
X7228958Y7712765D01*
X7234575Y7707654D01*
X7241252Y7704028D01*
X7241253Y7704028D01*
X7368391Y7634997D01*
X7368393Y7634996D01*
X7375068Y7631372D01*
X7382417Y7629444D01*
X7522352Y7592733D01*
X7522354Y7592733D01*
X7529702Y7590805D01*
X7611122Y7589526D01*
X7681949Y7588413D01*
X7681952Y7588413D01*
X7689548Y7588294D01*
X7696952Y7589990D01*
X7696954Y7589990D01*
X7794089Y7612237D01*
X7845380Y7623984D01*
X7988200Y7695815D01*
X7993971Y7700744D01*
X7993974Y7700746D01*
X8103985Y7794705D01*
X8109763Y7799640D01*
X8203052Y7929465D01*
X8262680Y8077794D01*
X8285205Y8236066D01*
X8285351Y8250000D01*
X8266145Y8408708D01*
X8209636Y8558254D01*
X8169462Y8616708D01*
X8123389Y8683746D01*
X8123387Y8683748D01*
X8119087Y8690005D01*
X8113249Y8695207D01*
X8052221Y8749580D01*
X7999725Y8796352D01*
X7992271Y8800299D01*
X7956213Y8819391D01*
X7887764Y8855633D01*
X10363245Y8855633D01*
X10373503Y8594541D01*
X10374478Y8585712D01*
X10421422Y8328668D01*
X10423631Y8320066D01*
X10506324Y8072204D01*
X10509728Y8063986D01*
X10626519Y7830250D01*
X10631043Y7822602D01*
X10746352Y7655765D01*
X10756673Y7647411D01*
X10770323Y7654533D01*
X11902978Y8787188D01*
X11909356Y8798868D01*
X12639408Y8798868D01*
X12639539Y8797035D01*
X12643790Y8790420D01*
X13780517Y7653693D01*
X13793917Y7646376D01*
X13803821Y7653363D01*
X13819686Y7672237D01*
X13824905Y7679420D01*
X13963171Y7901124D01*
X13967333Y7908983D01*
X14072988Y8147970D01*
X14075994Y8156320D01*
X14146921Y8407808D01*
X14148722Y8416501D01*
X14183672Y8676708D01*
X14184200Y8683101D01*
X14187773Y8796778D01*
X14187646Y8803221D01*
X14169106Y9065077D01*
X14167853Y9073881D01*
X14112858Y9329323D01*
X14110379Y9337856D01*
X14019941Y9582998D01*
X14016286Y9591093D01*
X13892206Y9821053D01*
X13887447Y9828551D01*
X13802759Y9943210D01*
X13791631Y9951652D01*
X13779038Y9944828D01*
X12647022Y8812812D01*
X12639408Y8798868D01*
X11909356Y8798868D01*
X11910592Y8801132D01*
X11910461Y8802965D01*
X11906210Y8809580D01*
X10770819Y9944971D01*
X10757978Y9951983D01*
X10747289Y9944187D01*
X10695663Y9878701D01*
X10690658Y9871337D01*
X10559420Y9645395D01*
X10555516Y9637425D01*
X10457420Y9395237D01*
X10454676Y9386793D01*
X10391683Y9133200D01*
X10390156Y9124449D01*
X10363524Y8864517D01*
X10363245Y8855633D01*
X7887764Y8855633D01*
X7858440Y8871159D01*
X7703391Y8910105D01*
X7695790Y8910145D01*
X7690611Y8910799D01*
X7625534Y8939180D01*
X7586132Y8998239D01*
X7584914Y9069225D01*
X7589494Y9082802D01*
X7624844Y9170737D01*
X7624846Y9170744D01*
X7627680Y9177794D01*
X7648885Y9326793D01*
X7649624Y9331982D01*
X7649624Y9331985D01*
X7650205Y9336066D01*
X7650351Y9350000D01*
X7631145Y9508708D01*
X7574636Y9658254D01*
X7552364Y9690661D01*
X7488389Y9783746D01*
X7488387Y9783748D01*
X7484087Y9790005D01*
X7478249Y9795207D01*
X7379475Y9883210D01*
X7364725Y9896352D01*
X7357271Y9900299D01*
X7230154Y9967604D01*
X7230155Y9967604D01*
X7223440Y9971159D01*
X7068391Y10010105D01*
X7060793Y10010145D01*
X7060791Y10010145D01*
X6993513Y10010497D01*
X6908526Y10010942D01*
X6901146Y10009170D01*
X6901144Y10009170D01*
X6760456Y9975394D01*
X6760453Y9975393D01*
X6753077Y9973622D01*
X6611017Y9900299D01*
X6605295Y9895307D01*
X6605293Y9895306D01*
X6577817Y9871337D01*
X6490548Y9795207D01*
X6486183Y9788997D01*
X6486180Y9788993D01*
X6453208Y9742078D01*
X6397673Y9697846D01*
X6327041Y9690661D01*
X6263737Y9722803D01*
X6246281Y9743162D01*
X6218389Y9783746D01*
X6218387Y9783748D01*
X6214087Y9790005D01*
X6208249Y9795207D01*
X6109475Y9883210D01*
X6094725Y9896352D01*
X6087271Y9900299D01*
X5960154Y9967604D01*
X5960155Y9967604D01*
X5953440Y9971159D01*
X5798391Y10010105D01*
X5790793Y10010145D01*
X5790791Y10010145D01*
X5723513Y10010497D01*
X5638526Y10010942D01*
X5631146Y10009170D01*
X5631144Y10009170D01*
X5490456Y9975394D01*
X5490453Y9975393D01*
X5483077Y9973622D01*
X5341017Y9900299D01*
X5335295Y9895307D01*
X5335293Y9895306D01*
X5307817Y9871337D01*
X5220548Y9795207D01*
X5216183Y9788997D01*
X5216180Y9788993D01*
X5183208Y9742078D01*
X5127673Y9697846D01*
X5057041Y9690661D01*
X4993737Y9722803D01*
X4976281Y9743162D01*
X4948389Y9783746D01*
X4948387Y9783748D01*
X4944087Y9790005D01*
X4938249Y9795207D01*
X4839475Y9883210D01*
X4824725Y9896352D01*
X4817271Y9900299D01*
X4690154Y9967604D01*
X4690155Y9967604D01*
X4683440Y9971159D01*
X4528391Y10010105D01*
X4520793Y10010145D01*
X4520791Y10010145D01*
X4453513Y10010497D01*
X4368526Y10010942D01*
X4361146Y10009170D01*
X4361144Y10009170D01*
X4220456Y9975394D01*
X4220453Y9975393D01*
X4213077Y9973622D01*
X4071017Y9900299D01*
X4065295Y9895307D01*
X4065293Y9895306D01*
X4037817Y9871337D01*
X3950548Y9795207D01*
X3946183Y9788997D01*
X3946180Y9788993D01*
X3913208Y9742078D01*
X3857673Y9697846D01*
X3787041Y9690661D01*
X3723737Y9722803D01*
X3706281Y9743162D01*
X3678389Y9783746D01*
X3678387Y9783748D01*
X3674087Y9790005D01*
X3668249Y9795207D01*
X3569475Y9883210D01*
X3554725Y9896352D01*
X3547271Y9900299D01*
X3420154Y9967604D01*
X3420155Y9967604D01*
X3413440Y9971159D01*
X3258391Y10010105D01*
X3250793Y10010145D01*
X3250791Y10010145D01*
X3183513Y10010497D01*
X3098526Y10010942D01*
X3091146Y10009170D01*
X3091144Y10009170D01*
X2950456Y9975394D01*
X2950453Y9975393D01*
X2943077Y9973622D01*
X2801017Y9900299D01*
X2795295Y9895307D01*
X2795293Y9895306D01*
X2767817Y9871337D01*
X2680548Y9795207D01*
X2676183Y9788997D01*
X2676180Y9788993D01*
X2643208Y9742078D01*
X2587673Y9697846D01*
X2517041Y9690661D01*
X2453737Y9722803D01*
X2436281Y9743162D01*
X2408389Y9783746D01*
X2408387Y9783748D01*
X2404087Y9790005D01*
X2398249Y9795207D01*
X2299475Y9883210D01*
X2284725Y9896352D01*
X2277271Y9900299D01*
X2150154Y9967604D01*
X2150155Y9967604D01*
X2143440Y9971159D01*
X1988391Y10010105D01*
X1980793Y10010145D01*
X1980791Y10010145D01*
X1913513Y10010497D01*
X1828526Y10010942D01*
X1821146Y10009170D01*
X1821144Y10009170D01*
X1680456Y9975394D01*
X1680453Y9975393D01*
X1673077Y9973622D01*
X1531017Y9900299D01*
X1525295Y9895307D01*
X1525293Y9895306D01*
X1497817Y9871337D01*
X1410548Y9795207D01*
X1406183Y9788997D01*
X1406180Y9788993D01*
X1373208Y9742078D01*
X1317673Y9697846D01*
X1247041Y9690661D01*
X1183737Y9722803D01*
X1166281Y9743162D01*
X1138389Y9783746D01*
X1138387Y9783748D01*
X1134087Y9790005D01*
X1128249Y9795207D01*
X1029475Y9883210D01*
X1014725Y9896352D01*
X1007271Y9900299D01*
X880154Y9967604D01*
X880155Y9967604D01*
X873440Y9971159D01*
X718391Y10010105D01*
X710793Y10010145D01*
X710791Y10010145D01*
X643513Y10010497D01*
X558526Y10010942D01*
X551146Y10009170D01*
X551144Y10009170D01*
X410456Y9975394D01*
X410453Y9975393D01*
X403077Y9973622D01*
X261017Y9900299D01*
X255295Y9895307D01*
X255293Y9895306D01*
X227817Y9871337D01*
X140548Y9795207D01*
X136183Y9788997D01*
X136180Y9788993D01*
X103208Y9742078D01*
X47673Y9697846D01*
X-22959Y9690661D01*
X-86263Y9722803D01*
X-103719Y9743162D01*
X-131611Y9783746D01*
X-131613Y9783748D01*
X-135913Y9790005D01*
X-141751Y9795207D01*
X-240525Y9883210D01*
X-255275Y9896352D01*
X-262729Y9900299D01*
X-389846Y9967604D01*
X-389845Y9967604D01*
X-396560Y9971159D01*
X-551609Y10010105D01*
X-559207Y10010145D01*
X-559209Y10010145D01*
X-626487Y10010497D01*
X-711474Y10010942D01*
X-718854Y10009170D01*
X-718856Y10009170D01*
X-859544Y9975394D01*
X-859547Y9975393D01*
X-866923Y9973622D01*
X-1008983Y9900299D01*
X-1014705Y9895307D01*
X-1014707Y9895306D01*
X-1042183Y9871337D01*
X-1129452Y9795207D01*
X-1133817Y9788997D01*
X-1133820Y9788993D01*
X-1166792Y9742078D01*
X-1222327Y9697846D01*
X-1292959Y9690661D01*
X-1356263Y9722803D01*
X-1373719Y9743162D01*
X-1401611Y9783746D01*
X-1401613Y9783748D01*
X-1405913Y9790005D01*
X-1411751Y9795207D01*
X-1510525Y9883210D01*
X-1525275Y9896352D01*
X-1532729Y9900299D01*
X-1659846Y9967604D01*
X-1659845Y9967604D01*
X-1666560Y9971159D01*
X-1821609Y10010105D01*
X-1829207Y10010145D01*
X-1829209Y10010145D01*
X-1896487Y10010497D01*
X-1981474Y10010942D01*
X-1988854Y10009170D01*
X-1988856Y10009170D01*
X-2129544Y9975394D01*
X-2129547Y9975393D01*
X-2136923Y9973622D01*
X-2278983Y9900299D01*
X-2284705Y9895307D01*
X-2284707Y9895306D01*
X-2312183Y9871337D01*
X-2399452Y9795207D01*
X-2403817Y9788997D01*
X-2403820Y9788993D01*
X-2436792Y9742078D01*
X-2492327Y9697846D01*
X-2562959Y9690661D01*
X-2626263Y9722803D01*
X-2643719Y9743162D01*
X-2671611Y9783746D01*
X-2671613Y9783748D01*
X-2675913Y9790005D01*
X-2681751Y9795207D01*
X-2780525Y9883210D01*
X-2795275Y9896352D01*
X-2802729Y9900299D01*
X-2929846Y9967604D01*
X-2929845Y9967604D01*
X-2936560Y9971159D01*
X-3091609Y10010105D01*
X-3099207Y10010145D01*
X-3099209Y10010145D01*
X-3166487Y10010497D01*
X-3251474Y10010942D01*
X-3258854Y10009170D01*
X-3258856Y10009170D01*
X-3399544Y9975394D01*
X-3399547Y9975393D01*
X-3406923Y9973622D01*
X-3548983Y9900299D01*
X-3554705Y9895307D01*
X-3554707Y9895306D01*
X-3582183Y9871337D01*
X-3669452Y9795207D01*
X-3673817Y9788997D01*
X-3673820Y9788993D01*
X-3706792Y9742078D01*
X-3762327Y9697846D01*
X-3832959Y9690661D01*
X-3896263Y9722803D01*
X-3913719Y9743162D01*
X-3941611Y9783746D01*
X-3941613Y9783748D01*
X-3945913Y9790005D01*
X-3951751Y9795207D01*
X-4050525Y9883210D01*
X-4065275Y9896352D01*
X-4072729Y9900299D01*
X-4199846Y9967604D01*
X-4199845Y9967604D01*
X-4206560Y9971159D01*
X-4361609Y10010105D01*
X-4369207Y10010145D01*
X-4369209Y10010145D01*
X-4436487Y10010497D01*
X-4521474Y10010942D01*
X-4528854Y10009170D01*
X-4528856Y10009170D01*
X-4669544Y9975394D01*
X-4669547Y9975393D01*
X-4676923Y9973622D01*
X-4818983Y9900299D01*
X-4824705Y9895307D01*
X-4824707Y9895306D01*
X-4852183Y9871337D01*
X-4939452Y9795207D01*
X-4943817Y9788997D01*
X-4943820Y9788993D01*
X-4976792Y9742078D01*
X-5032327Y9697846D01*
X-5102959Y9690661D01*
X-5166263Y9722803D01*
X-5183719Y9743162D01*
X-5211611Y9783746D01*
X-5211613Y9783748D01*
X-5215913Y9790005D01*
X-5221751Y9795207D01*
X-5320525Y9883210D01*
X-5335275Y9896352D01*
X-5342729Y9900299D01*
X-5469846Y9967604D01*
X-5469845Y9967604D01*
X-5476560Y9971159D01*
X-5631609Y10010105D01*
X-5639207Y10010145D01*
X-5639209Y10010145D01*
X-5706487Y10010497D01*
X-5791474Y10010942D01*
X-5798854Y10009170D01*
X-5798856Y10009170D01*
X-5939544Y9975394D01*
X-5939547Y9975393D01*
X-5946923Y9973622D01*
X-6088983Y9900299D01*
X-6094705Y9895307D01*
X-6094707Y9895306D01*
X-6122183Y9871337D01*
X-6209452Y9795207D01*
X-6213817Y9788997D01*
X-6213820Y9788993D01*
X-6246792Y9742078D01*
X-6302327Y9697846D01*
X-6372959Y9690661D01*
X-6436263Y9722803D01*
X-6453719Y9743162D01*
X-6481611Y9783746D01*
X-6481613Y9783748D01*
X-6485913Y9790005D01*
X-6491751Y9795207D01*
X-6590525Y9883210D01*
X-6605275Y9896352D01*
X-6612729Y9900299D01*
X-6739846Y9967604D01*
X-6739845Y9967604D01*
X-6746560Y9971159D01*
X-6901609Y10010105D01*
X-6909207Y10010145D01*
X-6909209Y10010145D01*
X-6976487Y10010497D01*
X-7061474Y10010942D01*
X-7068854Y10009170D01*
X-7068856Y10009170D01*
X-7209544Y9975394D01*
X-7209547Y9975393D01*
X-7216923Y9973622D01*
X-7358983Y9900299D01*
X-7364705Y9895307D01*
X-7364707Y9895306D01*
X-7392183Y9871337D01*
X-7479452Y9795207D01*
X-7571376Y9664412D01*
X-7574136Y9657332D01*
X-7626511Y9522998D01*
X-7629448Y9515466D01*
X-7630440Y9507933D01*
X-7630440Y9507932D01*
X-7646388Y9386793D01*
X-7650315Y9356967D01*
X-7641581Y9277856D01*
X-7634313Y9212029D01*
X-7632772Y9198067D01*
X-7630163Y9190936D01*
X-7630162Y9190934D01*
X-7589160Y9078891D01*
X-7584534Y9008045D01*
X-7618944Y8945945D01*
X-7681465Y8912306D01*
X-7690040Y8910908D01*
X-7696474Y8910942D01*
X-7773715Y8892398D01*
X-7844544Y8875394D01*
X-7844547Y8875393D01*
X-7851923Y8873622D01*
X-7886776Y8855633D01*
X-7976001Y8809580D01*
X-7993983Y8800299D01*
X-7999705Y8795307D01*
X-7999707Y8795306D01*
X-8048418Y8752812D01*
X-8114452Y8695207D01*
X-8206376Y8564412D01*
X-8235412Y8489939D01*
X-8256652Y8435461D01*
X-8264448Y8415466D01*
X-8265440Y8407933D01*
X-8265440Y8407932D01*
X-8283541Y8270438D01*
X-8285315Y8256967D01*
X-10428699Y8256967D01*
X-10403079Y8347808D01*
X-10401278Y8356501D01*
X-10366328Y8616708D01*
X-10365800Y8623101D01*
X-10362227Y8736778D01*
X-10362354Y8743221D01*
X-10380894Y9005077D01*
X-10382147Y9013881D01*
X-10437142Y9269323D01*
X-10439621Y9277856D01*
X-10530059Y9522998D01*
X-10533714Y9531093D01*
X-10657794Y9761053D01*
X-10662553Y9768551D01*
X-10747241Y9883210D01*
X-10758369Y9891652D01*
X-10770962Y9884828D01*
X-11902978Y8752812D01*
X-11910592Y8738868D01*
X-12640644Y8738868D01*
X-12639408Y8741132D01*
X-12639539Y8742965D01*
X-12643790Y8749580D01*
X-13779181Y9884971D01*
X-13792022Y9891983D01*
X-13802711Y9884187D01*
X-13854337Y9818701D01*
X-13859342Y9811337D01*
X-13990580Y9585395D01*
X-13994484Y9577425D01*
X-14092580Y9335237D01*
X-14095324Y9326793D01*
X-14158317Y9073200D01*
X-14159844Y9064449D01*
X-14186476Y8804517D01*
X-14186755Y8795633D01*
X-16244132Y8795633D01*
X-16129886Y9011406D01*
X-16127097Y9016397D01*
X-15837561Y9507932D01*
X-15704498Y9733828D01*
X-15701488Y9738683D01*
X-15664739Y9795056D01*
X-15363399Y10257312D01*
X-13426955Y10257312D01*
X-13419975Y10244185D01*
X-12287812Y9112022D01*
X-12273868Y9104408D01*
X-12272035Y9104539D01*
X-12265420Y9108790D01*
X-11130196Y10244014D01*
X-11123342Y10256566D01*
X-11131550Y10267637D01*
X-11196641Y10317312D01*
X11123045Y10317312D01*
X11130025Y10304185D01*
X12262188Y9172022D01*
X12276132Y9164408D01*
X12277965Y9164539D01*
X12284580Y9168790D01*
X13419804Y10304014D01*
X13426658Y10316566D01*
X13418450Y10327637D01*
X13328762Y10396084D01*
X13321313Y10400977D01*
X13093353Y10528641D01*
X13085303Y10532429D01*
X12841617Y10626705D01*
X12833127Y10629317D01*
X12578578Y10688317D01*
X12569800Y10689707D01*
X12309478Y10712254D01*
X12300607Y10712394D01*
X12039696Y10698035D01*
X12030886Y10696921D01*
X11774607Y10645945D01*
X11766050Y10643604D01*
X11519496Y10557020D01*
X11511362Y10553500D01*
X11279477Y10433045D01*
X11271905Y10428406D01*
X11131447Y10328033D01*
X11123045Y10317312D01*
X-11196641Y10317312D01*
X-11221238Y10336084D01*
X-11228687Y10340977D01*
X-11456647Y10468641D01*
X-11464697Y10472429D01*
X-11708383Y10566705D01*
X-11716873Y10569317D01*
X-11971422Y10628317D01*
X-11980200Y10629707D01*
X-12240522Y10652254D01*
X-12249393Y10652394D01*
X-12510304Y10638035D01*
X-12519114Y10636921D01*
X-12775393Y10585945D01*
X-12783950Y10583604D01*
X-13030504Y10497020D01*
X-13038638Y10493500D01*
X-13270523Y10373045D01*
X-13278095Y10368406D01*
X-13418553Y10268033D01*
X-13426955Y10257312D01*
X-15363399Y10257312D01*
X-15246751Y10436250D01*
X-15243529Y10440953D01*
X-15203240Y10497020D01*
X-14757659Y11117111D01*
X-14754225Y11121669D01*
X-14688212Y11205255D01*
X-14352911Y11629820D01*
X-14238161Y11775118D01*
X-14234517Y11779523D01*
X-13689348Y12408884D01*
X-13685507Y12413120D01*
X-13428651Y12683790D01*
X-13112334Y13017119D01*
X-13108360Y13021122D01*
X-12508343Y13598531D01*
X-12504146Y13602389D01*
X-11878620Y14151926D01*
X-11874241Y14155601D01*
X-11224417Y14676210D01*
X-11219875Y14679683D01*
X-10547098Y15170279D01*
X-10542403Y15173542D01*
X-9848063Y15633117D01*
X-9843236Y15636156D01*
X-9128763Y16063759D01*
X-9123810Y16066573D01*
X-8390677Y16461324D01*
X-8385587Y16463918D01*
X-7635293Y16825011D01*
X-7630094Y16827369D01*
X-6864193Y17154052D01*
X-6858913Y17156164D01*
X-6078961Y17447777D01*
X-6073602Y17449643D01*
X-5281211Y17705578D01*
X-5275780Y17707197D01*
X-4472618Y17926917D01*
X-4467090Y17928295D01*
X-3960002Y18042573D01*
X-3654802Y18111352D01*
X-3649197Y18112482D01*
X-2829465Y18258499D01*
X-2823815Y18259374D01*
X-1998298Y18368055D01*
X-1992615Y18368672D01*
X-1162976Y18439798D01*
X-1157286Y18440156D01*
X-416498Y18469909D01*
X-325321Y18473571D01*
X-319604Y18473671D01*
X513021Y18469311D01*
G37*
G04 #@! TD.AperFunction*
M02*
