M48
; DRILL file {KiCad (6.0.6)} date Wed Jan 18 13:06:52 2023
; FORMAT={-:-/ absolute / metric / decimal}
; #@! TF.CreationDate,2023-01-18T13:06:52-07:00
; #@! TF.GenerationSoftware,Kicad,Pcbnew,(6.0.6)
; #@! TF.FileFunction,Plated,1,4,PTH
FMAT,2
METRIC
; #@! TA.AperFunction,Plated,PTH,ViaDrill
T1C0.400
; #@! TA.AperFunction,Plated,PTH,ComponentDrill
T2C0.610
%
G90
G05
T1
X-18.0Y0.0
X-17.119Y5.562
X-17.119Y-5.562
X-14.562Y10.58
X-14.562Y-10.58
X-10.58Y14.562
X-10.58Y-14.562
X-5.562Y17.119
X-5.562Y-17.119
X0.0Y18.0
X0.0Y-18.0
X5.562Y17.119
X5.562Y-17.119
X10.58Y14.562
X10.58Y-14.562
X14.562Y10.58
X14.562Y-10.58
X17.119Y5.562
X17.119Y-5.562
X18.0Y0.0
T2
X-7.62Y9.35
X-7.62Y4.35
X-7.62Y-3.25
X-7.62Y-8.25
X-6.985Y8.25
X-6.985Y3.25
X-6.985Y-4.35
X-6.985Y-9.35
X-6.35Y9.35
X-6.35Y4.35
X-6.35Y-3.25
X-6.35Y-8.25
X-5.715Y8.25
X-5.715Y3.25
X-5.715Y-4.35
X-5.715Y-9.35
X-5.08Y9.35
X-5.08Y4.35
X-5.08Y-3.25
X-5.08Y-8.25
X-4.445Y8.25
X-4.445Y3.25
X-4.445Y-4.35
X-4.445Y-9.35
X-3.81Y9.35
X-3.81Y4.35
X-3.81Y-3.25
X-3.81Y-8.25
X-3.175Y8.25
X-3.175Y3.25
X-3.175Y-4.35
X-3.175Y-9.35
X-2.54Y9.35
X-2.54Y4.35
X-2.54Y-3.25
X-2.54Y-8.25
X-1.905Y8.25
X-1.905Y3.25
X-1.905Y-4.35
X-1.905Y-9.35
X-1.27Y9.35
X-1.27Y4.35
X-1.27Y-3.25
X-1.27Y-8.25
X-0.635Y8.25
X-0.635Y3.25
X-0.635Y-4.35
X-0.635Y-9.35
X0.0Y9.35
X0.0Y4.35
X0.0Y-3.25
X0.0Y-8.25
X0.635Y8.25
X0.635Y3.25
X0.635Y-4.35
X0.635Y-9.35
X1.27Y9.35
X1.27Y4.35
X1.27Y-3.25
X1.27Y-8.25
X1.905Y8.25
X1.905Y3.25
X1.905Y-4.35
X1.905Y-9.35
X2.54Y9.35
X2.54Y4.35
X2.54Y-3.25
X2.54Y-8.25
X3.175Y8.25
X3.175Y3.25
X3.175Y-4.35
X3.175Y-9.35
X3.81Y9.35
X3.81Y4.35
X3.81Y-3.25
X3.81Y-8.25
X4.445Y8.25
X4.445Y3.25
X4.445Y-4.35
X4.445Y-9.35
X5.08Y9.35
X5.08Y4.35
X5.08Y-3.25
X5.08Y-8.25
X5.715Y8.25
X5.715Y3.25
X5.715Y-4.35
X5.715Y-9.35
X6.35Y9.35
X6.35Y4.35
X6.35Y-3.25
X6.35Y-8.25
X6.985Y8.25
X6.985Y3.25
X6.985Y-4.35
X6.985Y-9.35
X7.62Y9.35
X7.62Y4.35
X7.62Y-3.25
X7.62Y-8.25
T0
M30
