%TF.GenerationSoftware,KiCad,Pcbnew,(5.1.10)-1*%
%TF.CreationDate,2022-07-15T13:15:33-06:00*%
%TF.ProjectId,Double_MicroD_25_Gateway,446f7562-6c65-45f4-9d69-63726f445f32,rev?*%
%TF.SameCoordinates,Original*%
%TF.FileFunction,Legend,Top*%
%TF.FilePolarity,Positive*%
%FSLAX46Y46*%
G04 Gerber Fmt 4.6, Leading zero omitted, Abs format (unit mm)*
G04 Created by KiCad (PCBNEW (5.1.10)-1) date 2022-07-15 13:15:33*
%MOMM*%
%LPD*%
G01*
G04 APERTURE LIST*
%ADD10C,0.150000*%
G04 APERTURE END LIST*
D10*
X16391666Y-8657142D02*
X16391666Y-8180952D01*
X16677380Y-8752380D02*
X15677380Y-8419047D01*
X16677380Y-8085714D01*
X16677380Y-7752380D02*
X16010714Y-7752380D01*
X16105952Y-7752380D02*
X16058333Y-7704761D01*
X16010714Y-7609523D01*
X16010714Y-7466666D01*
X16058333Y-7371428D01*
X16153571Y-7323809D01*
X16677380Y-7323809D01*
X16153571Y-7323809D02*
X16058333Y-7276190D01*
X16010714Y-7180952D01*
X16010714Y-7038095D01*
X16058333Y-6942857D01*
X16153571Y-6895238D01*
X16677380Y-6895238D01*
X16677380Y-6419047D02*
X15677380Y-6419047D01*
X16058333Y-6419047D02*
X16010714Y-6323809D01*
X16010714Y-6133333D01*
X16058333Y-6038095D01*
X16105952Y-5990476D01*
X16201190Y-5942857D01*
X16486904Y-5942857D01*
X16582142Y-5990476D01*
X16629761Y-6038095D01*
X16677380Y-6133333D01*
X16677380Y-6323809D01*
X16629761Y-6419047D01*
X16677380Y-5514285D02*
X16010714Y-5514285D01*
X15677380Y-5514285D02*
X15725000Y-5561904D01*
X15772619Y-5514285D01*
X15725000Y-5466666D01*
X15677380Y-5514285D01*
X15772619Y-5514285D01*
X16629761Y-4657142D02*
X16677380Y-4752380D01*
X16677380Y-4942857D01*
X16629761Y-5038095D01*
X16534523Y-5085714D01*
X16153571Y-5085714D01*
X16058333Y-5038095D01*
X16010714Y-4942857D01*
X16010714Y-4752380D01*
X16058333Y-4657142D01*
X16153571Y-4609523D01*
X16248809Y-4609523D01*
X16344047Y-5085714D01*
X16010714Y-4180952D02*
X16677380Y-4180952D01*
X16105952Y-4180952D02*
X16058333Y-4133333D01*
X16010714Y-4038095D01*
X16010714Y-3895238D01*
X16058333Y-3800000D01*
X16153571Y-3752380D01*
X16677380Y-3752380D01*
X16010714Y-3419047D02*
X16010714Y-3038095D01*
X15677380Y-3276190D02*
X16534523Y-3276190D01*
X16629761Y-3228571D01*
X16677380Y-3133333D01*
X16677380Y-3038095D01*
X16677380Y-1942857D02*
X15677380Y-1942857D01*
X15677380Y-1561904D01*
X15725000Y-1466666D01*
X15772619Y-1419047D01*
X15867857Y-1371428D01*
X16010714Y-1371428D01*
X16105952Y-1419047D01*
X16153571Y-1466666D01*
X16201190Y-1561904D01*
X16201190Y-1942857D01*
X16677380Y-942857D02*
X16010714Y-942857D01*
X16201190Y-942857D02*
X16105952Y-895238D01*
X16058333Y-847619D01*
X16010714Y-752380D01*
X16010714Y-657142D01*
X16629761Y57142D02*
X16677380Y-38095D01*
X16677380Y-228571D01*
X16629761Y-323809D01*
X16534523Y-371428D01*
X16153571Y-371428D01*
X16058333Y-323809D01*
X16010714Y-228571D01*
X16010714Y-38095D01*
X16058333Y57142D01*
X16153571Y104761D01*
X16248809Y104761D01*
X16344047Y-371428D01*
X16629761Y485714D02*
X16677380Y580952D01*
X16677380Y771428D01*
X16629761Y866666D01*
X16534523Y914285D01*
X16486904Y914285D01*
X16391666Y866666D01*
X16344047Y771428D01*
X16344047Y628571D01*
X16296428Y533333D01*
X16201190Y485714D01*
X16153571Y485714D01*
X16058333Y533333D01*
X16010714Y628571D01*
X16010714Y771428D01*
X16058333Y866666D01*
X16629761Y1295238D02*
X16677380Y1390476D01*
X16677380Y1580952D01*
X16629761Y1676190D01*
X16534523Y1723809D01*
X16486904Y1723809D01*
X16391666Y1676190D01*
X16344047Y1580952D01*
X16344047Y1438095D01*
X16296428Y1342857D01*
X16201190Y1295238D01*
X16153571Y1295238D01*
X16058333Y1342857D01*
X16010714Y1438095D01*
X16010714Y1580952D01*
X16058333Y1676190D01*
X16010714Y2580952D02*
X16677380Y2580952D01*
X16010714Y2152380D02*
X16534523Y2152380D01*
X16629761Y2200000D01*
X16677380Y2295238D01*
X16677380Y2438095D01*
X16629761Y2533333D01*
X16582142Y2580952D01*
X16677380Y3057142D02*
X16010714Y3057142D01*
X16201190Y3057142D02*
X16105952Y3104761D01*
X16058333Y3152380D01*
X16010714Y3247619D01*
X16010714Y3342857D01*
X16629761Y4057142D02*
X16677380Y3961904D01*
X16677380Y3771428D01*
X16629761Y3676190D01*
X16534523Y3628571D01*
X16153571Y3628571D01*
X16058333Y3676190D01*
X16010714Y3771428D01*
X16010714Y3961904D01*
X16058333Y4057142D01*
X16153571Y4104761D01*
X16248809Y4104761D01*
X16344047Y3628571D01*
X16629761Y5247619D02*
X16677380Y5390476D01*
X16677380Y5628571D01*
X16629761Y5723809D01*
X16582142Y5771428D01*
X16486904Y5819047D01*
X16391666Y5819047D01*
X16296428Y5771428D01*
X16248809Y5723809D01*
X16201190Y5628571D01*
X16153571Y5438095D01*
X16105952Y5342857D01*
X16058333Y5295238D01*
X15963095Y5247619D01*
X15867857Y5247619D01*
X15772619Y5295238D01*
X15725000Y5342857D01*
X15677380Y5438095D01*
X15677380Y5676190D01*
X15725000Y5819047D01*
X16677380Y6247619D02*
X16010714Y6247619D01*
X15677380Y6247619D02*
X15725000Y6200000D01*
X15772619Y6247619D01*
X15725000Y6295238D01*
X15677380Y6247619D01*
X15772619Y6247619D01*
X16677380Y7152380D02*
X15677380Y7152380D01*
X16629761Y7152380D02*
X16677380Y7057142D01*
X16677380Y6866666D01*
X16629761Y6771428D01*
X16582142Y6723809D01*
X16486904Y6676190D01*
X16201190Y6676190D01*
X16105952Y6723809D01*
X16058333Y6771428D01*
X16010714Y6866666D01*
X16010714Y7057142D01*
X16058333Y7152380D01*
X16629761Y8009523D02*
X16677380Y7914285D01*
X16677380Y7723809D01*
X16629761Y7628571D01*
X16534523Y7580952D01*
X16153571Y7580952D01*
X16058333Y7628571D01*
X16010714Y7723809D01*
X16010714Y7914285D01*
X16058333Y8009523D01*
X16153571Y8057142D01*
X16248809Y8057142D01*
X16344047Y7580952D01*
X18327380Y-13728571D02*
X17327380Y-13728571D01*
X18041666Y-13395238D01*
X17327380Y-13061904D01*
X18327380Y-13061904D01*
X18327380Y-12585714D02*
X17660714Y-12585714D01*
X17327380Y-12585714D02*
X17375000Y-12633333D01*
X17422619Y-12585714D01*
X17375000Y-12538095D01*
X17327380Y-12585714D01*
X17422619Y-12585714D01*
X18279761Y-11680952D02*
X18327380Y-11776190D01*
X18327380Y-11966666D01*
X18279761Y-12061904D01*
X18232142Y-12109523D01*
X18136904Y-12157142D01*
X17851190Y-12157142D01*
X17755952Y-12109523D01*
X17708333Y-12061904D01*
X17660714Y-11966666D01*
X17660714Y-11776190D01*
X17708333Y-11680952D01*
X18327380Y-11252380D02*
X17660714Y-11252380D01*
X17851190Y-11252380D02*
X17755952Y-11204761D01*
X17708333Y-11157142D01*
X17660714Y-11061904D01*
X17660714Y-10966666D01*
X18327380Y-10490476D02*
X18279761Y-10585714D01*
X18232142Y-10633333D01*
X18136904Y-10680952D01*
X17851190Y-10680952D01*
X17755952Y-10633333D01*
X17708333Y-10585714D01*
X17660714Y-10490476D01*
X17660714Y-10347619D01*
X17708333Y-10252380D01*
X17755952Y-10204761D01*
X17851190Y-10157142D01*
X18136904Y-10157142D01*
X18232142Y-10204761D01*
X18279761Y-10252380D01*
X18327380Y-10347619D01*
X18327380Y-10490476D01*
X18327380Y-9728571D02*
X17327380Y-9728571D01*
X17327380Y-9490476D01*
X17375000Y-9347619D01*
X17470238Y-9252380D01*
X17565476Y-9204761D01*
X17755952Y-9157142D01*
X17898809Y-9157142D01*
X18089285Y-9204761D01*
X18184523Y-9252380D01*
X18279761Y-9347619D01*
X18327380Y-9490476D01*
X18327380Y-9728571D01*
X18422619Y-8966666D02*
X18422619Y-8204761D01*
X17327380Y-8109523D02*
X18327380Y-7776190D01*
X17327380Y-7442857D01*
X18327380Y-6680952D02*
X17803571Y-6680952D01*
X17708333Y-6728571D01*
X17660714Y-6823809D01*
X17660714Y-7014285D01*
X17708333Y-7109523D01*
X18279761Y-6680952D02*
X18327380Y-6776190D01*
X18327380Y-7014285D01*
X18279761Y-7109523D01*
X18184523Y-7157142D01*
X18089285Y-7157142D01*
X17994047Y-7109523D01*
X17946428Y-7014285D01*
X17946428Y-6776190D01*
X17898809Y-6680952D01*
X18279761Y-5776190D02*
X18327380Y-5871428D01*
X18327380Y-6061904D01*
X18279761Y-6157142D01*
X18232142Y-6204761D01*
X18136904Y-6252380D01*
X17851190Y-6252380D01*
X17755952Y-6204761D01*
X17708333Y-6157142D01*
X17660714Y-6061904D01*
X17660714Y-5871428D01*
X17708333Y-5776190D01*
X17660714Y-4919047D02*
X18327380Y-4919047D01*
X17660714Y-5347619D02*
X18184523Y-5347619D01*
X18279761Y-5300000D01*
X18327380Y-5204761D01*
X18327380Y-5061904D01*
X18279761Y-4966666D01*
X18232142Y-4919047D01*
X17660714Y-4014285D02*
X18327380Y-4014285D01*
X17660714Y-4442857D02*
X18184523Y-4442857D01*
X18279761Y-4395238D01*
X18327380Y-4300000D01*
X18327380Y-4157142D01*
X18279761Y-4061904D01*
X18232142Y-4014285D01*
X18327380Y-3538095D02*
X17660714Y-3538095D01*
X17755952Y-3538095D02*
X17708333Y-3490476D01*
X17660714Y-3395238D01*
X17660714Y-3252380D01*
X17708333Y-3157142D01*
X17803571Y-3109523D01*
X18327380Y-3109523D01*
X17803571Y-3109523D02*
X17708333Y-3061904D01*
X17660714Y-2966666D01*
X17660714Y-2823809D01*
X17708333Y-2728571D01*
X17803571Y-2680952D01*
X18327380Y-2680952D01*
X18422619Y-2442857D02*
X18422619Y-1680952D01*
X17803571Y-1109523D02*
X17803571Y-1442857D01*
X18327380Y-1442857D02*
X17327380Y-1442857D01*
X17327380Y-966666D01*
X18279761Y-204761D02*
X18327380Y-300000D01*
X18327380Y-490476D01*
X18279761Y-585714D01*
X18184523Y-633333D01*
X17803571Y-633333D01*
X17708333Y-585714D01*
X17660714Y-490476D01*
X17660714Y-300000D01*
X17708333Y-204761D01*
X17803571Y-157142D01*
X17898809Y-157142D01*
X17994047Y-633333D01*
X18279761Y652380D02*
X18327380Y557142D01*
X18327380Y366666D01*
X18279761Y271428D01*
X18184523Y223809D01*
X17803571Y223809D01*
X17708333Y271428D01*
X17660714Y366666D01*
X17660714Y557142D01*
X17708333Y652380D01*
X17803571Y699999D01*
X17898809Y699999D01*
X17994047Y223809D01*
X18327380Y1557142D02*
X17327380Y1557142D01*
X18279761Y1557142D02*
X18327380Y1461904D01*
X18327380Y1271428D01*
X18279761Y1176190D01*
X18232142Y1128571D01*
X18136904Y1080952D01*
X17851190Y1080952D01*
X17755952Y1128571D01*
X17708333Y1176190D01*
X17660714Y1271428D01*
X17660714Y1461904D01*
X17708333Y1557142D01*
X17660714Y1890476D02*
X17660714Y2271428D01*
X17327380Y2033333D02*
X18184523Y2033333D01*
X18279761Y2080952D01*
X18327380Y2176190D01*
X18327380Y2271428D01*
X18327380Y2604761D02*
X17327380Y2604761D01*
X18327380Y3033333D02*
X17803571Y3033333D01*
X17708333Y2985714D01*
X17660714Y2890476D01*
X17660714Y2747619D01*
X17708333Y2652380D01*
X17755952Y2604761D01*
X18327380Y3509523D02*
X17660714Y3509523D01*
X17851190Y3509523D02*
X17755952Y3557142D01*
X17708333Y3604761D01*
X17660714Y3699999D01*
X17660714Y3795238D01*
X18327380Y4271428D02*
X18279761Y4176190D01*
X18232142Y4128571D01*
X18136904Y4080952D01*
X17851190Y4080952D01*
X17755952Y4128571D01*
X17708333Y4176190D01*
X17660714Y4271428D01*
X17660714Y4414285D01*
X17708333Y4509523D01*
X17755952Y4557142D01*
X17851190Y4604761D01*
X18136904Y4604761D01*
X18232142Y4557142D01*
X18279761Y4509523D01*
X18327380Y4414285D01*
X18327380Y4271428D01*
X17660714Y5461904D02*
X18327380Y5461904D01*
X17660714Y5033333D02*
X18184523Y5033333D01*
X18279761Y5080952D01*
X18327380Y5176190D01*
X18327380Y5319047D01*
X18279761Y5414285D01*
X18232142Y5461904D01*
X17660714Y6366666D02*
X18470238Y6366666D01*
X18565476Y6319047D01*
X18613095Y6271428D01*
X18660714Y6176190D01*
X18660714Y6033333D01*
X18613095Y5938095D01*
X18279761Y6366666D02*
X18327380Y6271428D01*
X18327380Y6080952D01*
X18279761Y5985714D01*
X18232142Y5938095D01*
X18136904Y5890476D01*
X17851190Y5890476D01*
X17755952Y5938095D01*
X17708333Y5985714D01*
X17660714Y6080952D01*
X17660714Y6271428D01*
X17708333Y6366666D01*
X18327380Y6842857D02*
X17327380Y6842857D01*
X18327380Y7271428D02*
X17803571Y7271428D01*
X17708333Y7223809D01*
X17660714Y7128571D01*
X17660714Y6985714D01*
X17708333Y6890476D01*
X17755952Y6842857D01*
X18422619Y7509523D02*
X18422619Y8271428D01*
X18327380Y8509523D02*
X17327380Y8509523D01*
X17327380Y8747619D01*
X17375000Y8890476D01*
X17470238Y8985714D01*
X17565476Y9033333D01*
X17755952Y9080952D01*
X17898809Y9080952D01*
X18089285Y9033333D01*
X18184523Y8985714D01*
X18279761Y8890476D01*
X18327380Y8747619D01*
X18327380Y8509523D01*
X18327380Y9652380D02*
X18279761Y9557142D01*
X18232142Y9509523D01*
X18136904Y9461904D01*
X17851190Y9461904D01*
X17755952Y9509523D01*
X17708333Y9557142D01*
X17660714Y9652380D01*
X17660714Y9795238D01*
X17708333Y9890476D01*
X17755952Y9938095D01*
X17851190Y9985714D01*
X18136904Y9985714D01*
X18232142Y9938095D01*
X18279761Y9890476D01*
X18327380Y9795238D01*
X18327380Y9652380D01*
X17660714Y10842857D02*
X18327380Y10842857D01*
X17660714Y10414285D02*
X18184523Y10414285D01*
X18279761Y10461904D01*
X18327380Y10557142D01*
X18327380Y10699999D01*
X18279761Y10795238D01*
X18232142Y10842857D01*
X18327380Y11319047D02*
X17327380Y11319047D01*
X17708333Y11319047D02*
X17660714Y11414285D01*
X17660714Y11604761D01*
X17708333Y11699999D01*
X17755952Y11747619D01*
X17851190Y11795238D01*
X18136904Y11795238D01*
X18232142Y11747619D01*
X18279761Y11699999D01*
X18327380Y11604761D01*
X18327380Y11414285D01*
X18279761Y11319047D01*
X18327380Y12366666D02*
X18279761Y12271428D01*
X18184523Y12223809D01*
X17327380Y12223809D01*
X18279761Y13128571D02*
X18327380Y13033333D01*
X18327380Y12842857D01*
X18279761Y12747619D01*
X18184523Y12699999D01*
X17803571Y12699999D01*
X17708333Y12747619D01*
X17660714Y12842857D01*
X17660714Y13033333D01*
X17708333Y13128571D01*
X17803571Y13176190D01*
X17898809Y13176190D01*
X17994047Y12699999D01*
X19977380Y-6204761D02*
X19501190Y-6538095D01*
X19977380Y-6776190D02*
X18977380Y-6776190D01*
X18977380Y-6395238D01*
X19025000Y-6300000D01*
X19072619Y-6252380D01*
X19167857Y-6204761D01*
X19310714Y-6204761D01*
X19405952Y-6252380D01*
X19453571Y-6300000D01*
X19501190Y-6395238D01*
X19501190Y-6776190D01*
X19310714Y-5871428D02*
X19977380Y-5633333D01*
X19310714Y-5395238D02*
X19977380Y-5633333D01*
X20215476Y-5728571D01*
X20263095Y-5776190D01*
X20310714Y-5871428D01*
X19977380Y-4585714D02*
X19453571Y-4585714D01*
X19358333Y-4633333D01*
X19310714Y-4728571D01*
X19310714Y-4919047D01*
X19358333Y-5014285D01*
X19929761Y-4585714D02*
X19977380Y-4680952D01*
X19977380Y-4919047D01*
X19929761Y-5014285D01*
X19834523Y-5061904D01*
X19739285Y-5061904D01*
X19644047Y-5014285D01*
X19596428Y-4919047D01*
X19596428Y-4680952D01*
X19548809Y-4585714D01*
X19310714Y-4109523D02*
X19977380Y-4109523D01*
X19405952Y-4109523D02*
X19358333Y-4061904D01*
X19310714Y-3966666D01*
X19310714Y-3823809D01*
X19358333Y-3728571D01*
X19453571Y-3680952D01*
X19977380Y-3680952D01*
X19977380Y-2442857D02*
X18977380Y-2442857D01*
X19691666Y-2109523D01*
X18977380Y-1776190D01*
X19977380Y-1776190D01*
X19977380Y-1157142D02*
X19929761Y-1252380D01*
X19882142Y-1300000D01*
X19786904Y-1347619D01*
X19501190Y-1347619D01*
X19405952Y-1300000D01*
X19358333Y-1252380D01*
X19310714Y-1157142D01*
X19310714Y-1014285D01*
X19358333Y-919047D01*
X19405952Y-871428D01*
X19501190Y-823809D01*
X19786904Y-823809D01*
X19882142Y-871428D01*
X19929761Y-919047D01*
X19977380Y-1014285D01*
X19977380Y-1157142D01*
X19977380Y-395238D02*
X19310714Y-395238D01*
X19501190Y-395238D02*
X19405952Y-347619D01*
X19358333Y-300000D01*
X19310714Y-204761D01*
X19310714Y-109523D01*
X19310714Y652380D02*
X20120238Y652380D01*
X20215476Y604761D01*
X20263095Y557142D01*
X20310714Y461904D01*
X20310714Y319047D01*
X20263095Y223809D01*
X19929761Y652380D02*
X19977380Y557142D01*
X19977380Y366666D01*
X19929761Y271428D01*
X19882142Y223809D01*
X19786904Y176190D01*
X19501190Y176190D01*
X19405952Y223809D01*
X19358333Y271428D01*
X19310714Y366666D01*
X19310714Y557142D01*
X19358333Y652380D01*
X19929761Y1509523D02*
X19977380Y1414285D01*
X19977380Y1223809D01*
X19929761Y1128571D01*
X19834523Y1080952D01*
X19453571Y1080952D01*
X19358333Y1128571D01*
X19310714Y1223809D01*
X19310714Y1414285D01*
X19358333Y1509523D01*
X19453571Y1557142D01*
X19548809Y1557142D01*
X19644047Y1080952D01*
X19310714Y1985714D02*
X19977380Y1985714D01*
X19405952Y1985714D02*
X19358333Y2033333D01*
X19310714Y2128571D01*
X19310714Y2271428D01*
X19358333Y2366666D01*
X19453571Y2414285D01*
X19977380Y2414285D01*
X19929761Y2842857D02*
X19977380Y2938095D01*
X19977380Y3128571D01*
X19929761Y3223809D01*
X19834523Y3271428D01*
X19786904Y3271428D01*
X19691666Y3223809D01*
X19644047Y3128571D01*
X19644047Y2985714D01*
X19596428Y2890476D01*
X19501190Y2842857D01*
X19453571Y2842857D01*
X19358333Y2890476D01*
X19310714Y2985714D01*
X19310714Y3128571D01*
X19358333Y3223809D01*
X19310714Y3557142D02*
X19310714Y3938095D01*
X18977380Y3700000D02*
X19834523Y3700000D01*
X19929761Y3747619D01*
X19977380Y3842857D01*
X19977380Y3938095D01*
X19929761Y4652380D02*
X19977380Y4557142D01*
X19977380Y4366666D01*
X19929761Y4271428D01*
X19834523Y4223809D01*
X19453571Y4223809D01*
X19358333Y4271428D01*
X19310714Y4366666D01*
X19310714Y4557142D01*
X19358333Y4652380D01*
X19453571Y4699999D01*
X19548809Y4699999D01*
X19644047Y4223809D01*
X19977380Y5128571D02*
X19310714Y5128571D01*
X19501190Y5128571D02*
X19405952Y5176190D01*
X19358333Y5223809D01*
X19310714Y5319047D01*
X19310714Y5414285D01*
X19310714Y5747619D02*
X19977380Y5747619D01*
X19405952Y5747619D02*
X19358333Y5795238D01*
X19310714Y5890476D01*
X19310714Y6033333D01*
X19358333Y6128571D01*
X19453571Y6176190D01*
X19977380Y6176190D01*
X20627380Y-3585714D02*
X20627380Y-2919047D01*
X21627380Y-3347619D01*
X20579761Y-1823809D02*
X21865476Y-2680952D01*
X21627380Y-966666D02*
X21627380Y-1538095D01*
X21627380Y-1252380D02*
X20627380Y-1252380D01*
X20770238Y-1347619D01*
X20865476Y-1442857D01*
X20913095Y-1538095D01*
X20627380Y-61904D02*
X20627380Y-538095D01*
X21103571Y-585714D01*
X21055952Y-538095D01*
X21008333Y-442857D01*
X21008333Y-204761D01*
X21055952Y-109523D01*
X21103571Y-61904D01*
X21198809Y-14285D01*
X21436904Y-14285D01*
X21532142Y-61904D01*
X21579761Y-109523D01*
X21627380Y-204761D01*
X21627380Y-442857D01*
X21579761Y-538095D01*
X21532142Y-585714D01*
X20579761Y1128571D02*
X21865476Y271428D01*
X20722619Y1414285D02*
X20675000Y1461904D01*
X20627380Y1557142D01*
X20627380Y1795238D01*
X20675000Y1890476D01*
X20722619Y1938095D01*
X20817857Y1985714D01*
X20913095Y1985714D01*
X21055952Y1938095D01*
X21627380Y1366666D01*
X21627380Y1985714D01*
X20722619Y2366666D02*
X20675000Y2414285D01*
X20627380Y2509523D01*
X20627380Y2747619D01*
X20675000Y2842857D01*
X20722619Y2890476D01*
X20817857Y2938095D01*
X20913095Y2938095D01*
X21055952Y2890476D01*
X21627380Y2319047D01*
X21627380Y2938095D01*
%TO.C,J4*%
X9080000Y-13510000D02*
X-8080000Y-13510000D01*
X9080000Y-10490000D02*
X9080000Y-13510000D01*
X-9080000Y-10490000D02*
X9080000Y-10490000D01*
X-9080000Y-12510000D02*
X-9080000Y-10490000D01*
X-8080000Y-13510000D02*
X-9080000Y-12510000D01*
%TO.C,J2*%
X9080000Y10490000D02*
X-8080000Y10490000D01*
X9080000Y13510000D02*
X9080000Y10490000D01*
X-9080000Y13510000D02*
X9080000Y13510000D01*
X-9080000Y11490000D02*
X-9080000Y13510000D01*
X-8080000Y10490000D02*
X-9080000Y11490000D01*
%TO.C,J3*%
X-233333Y-7752380D02*
X-233333Y-8466666D01*
X-280952Y-8609523D01*
X-376190Y-8704761D01*
X-519047Y-8752380D01*
X-614285Y-8752380D01*
X147619Y-7752380D02*
X766666Y-7752380D01*
X433333Y-8133333D01*
X576190Y-8133333D01*
X671428Y-8180952D01*
X719047Y-8228571D01*
X766666Y-8323809D01*
X766666Y-8561904D01*
X719047Y-8657142D01*
X671428Y-8704761D01*
X576190Y-8752380D01*
X290476Y-8752380D01*
X195238Y-8704761D01*
X147619Y-8657142D01*
X-7334285Y-3912380D02*
X-7905714Y-3912380D01*
X-7620000Y-3912380D02*
X-7620000Y-2912380D01*
X-7715238Y-3055238D01*
X-7810476Y-3150476D01*
X-7905714Y-3198095D01*
%TO.C,J1*%
X-233333Y4247619D02*
X-233333Y3533333D01*
X-280952Y3390476D01*
X-376190Y3295238D01*
X-519047Y3247619D01*
X-614285Y3247619D01*
X766666Y3247619D02*
X195238Y3247619D01*
X480952Y3247619D02*
X480952Y4247619D01*
X385714Y4104761D01*
X290476Y4009523D01*
X195238Y3961904D01*
X-7334285Y8087619D02*
X-7905714Y8087619D01*
X-7620000Y8087619D02*
X-7620000Y9087619D01*
X-7715238Y8944761D01*
X-7810476Y8849523D01*
X-7905714Y8801904D01*
%TD*%
M02*
