%TF.GenerationSoftware,KiCad,Pcbnew,(5.1.9)-1*%
%TF.CreationDate,2021-07-21T15:44:07-06:00*%
%TF.ProjectId,SingleFeedThru,53696e67-6c65-4466-9565-64546872752e,rev?*%
%TF.SameCoordinates,Original*%
%TF.FileFunction,Soldermask,Top*%
%TF.FilePolarity,Negative*%
%FSLAX46Y46*%
G04 Gerber Fmt 4.6, Leading zero omitted, Abs format (unit mm)*
G04 Created by KiCad (PCBNEW (5.1.9)-1) date 2021-07-21 15:44:07*
%MOMM*%
%LPD*%
G01*
G04 APERTURE LIST*
%ADD10C,3.200000*%
%ADD11O,0.920000X0.920000*%
G04 APERTURE END LIST*
D10*
X25400000Y0D02*
G75*
G03*
X25400000Y0I-25400000J0D01*
G01*
D11*
%TO.C,J1*%
X-7620000Y4000000D03*
X-6985000Y2900000D03*
X-6350000Y4000000D03*
X-5715000Y2900000D03*
X-5080000Y4000000D03*
X-4445000Y2900000D03*
X-3810000Y4000000D03*
X-3175000Y2900000D03*
X-2540000Y4000000D03*
X-1905000Y2900000D03*
X-1270000Y4000000D03*
X-635000Y2900000D03*
X0Y4000000D03*
X635000Y2900000D03*
X1270000Y4000000D03*
X1905000Y2900000D03*
X2540000Y4000000D03*
X3175000Y2900000D03*
X3810000Y4000000D03*
X4445000Y2900000D03*
X5080000Y4000000D03*
X5715000Y2900000D03*
X6350000Y4000000D03*
X6985000Y2900000D03*
X7620000Y4000000D03*
%TD*%
%TO.C,J2*%
X7620000Y-4000000D03*
X6985000Y-2900000D03*
X6350000Y-4000000D03*
X5715000Y-2900000D03*
X5080000Y-4000000D03*
X4445000Y-2900000D03*
X3810000Y-4000000D03*
X3175000Y-2900000D03*
X2540000Y-4000000D03*
X1905000Y-2900000D03*
X1270000Y-4000000D03*
X635000Y-2900000D03*
X0Y-4000000D03*
X-635000Y-2900000D03*
X-1270000Y-4000000D03*
X-1905000Y-2900000D03*
X-2540000Y-4000000D03*
X-3175000Y-2900000D03*
X-3810000Y-4000000D03*
X-4445000Y-2900000D03*
X-5080000Y-4000000D03*
X-5715000Y-2900000D03*
X-6350000Y-4000000D03*
X-6985000Y-2900000D03*
X-7620000Y-4000000D03*
%TD*%
M02*
