%TF.GenerationSoftware,KiCad,Pcbnew,(5.1.9)-1*%
%TF.CreationDate,2021-07-01T13:51:44-06:00*%
%TF.ProjectId,SingleFeedThru,53696e67-6c65-4466-9565-64546872752e,rev?*%
%TF.SameCoordinates,Original*%
%TF.FileFunction,Copper,L2,Bot*%
%TF.FilePolarity,Positive*%
%FSLAX46Y46*%
G04 Gerber Fmt 4.6, Leading zero omitted, Abs format (unit mm)*
G04 Created by KiCad (PCBNEW (5.1.9)-1) date 2021-07-01 13:51:44*
%MOMM*%
%LPD*%
G01*
G04 APERTURE LIST*
%TA.AperFunction,ComponentPad*%
%ADD10C,1.000000*%
%TD*%
%TA.AperFunction,Conductor*%
%ADD11C,0.090000*%
%TD*%
G04 APERTURE END LIST*
D10*
%TO.P,J1,1*%
%TO.N,Net-(J1-Pad1)*%
X-7620000Y5000000D03*
%TO.P,J1,14*%
%TO.N,Net-(J1-Pad14)*%
X-6980000Y6100000D03*
%TO.P,J1,2*%
%TO.N,Net-(J1-Pad2)*%
X-6350000Y5000000D03*
%TO.P,J1,3*%
%TO.N,Net-(J1-Pad3)*%
X-5080000Y5000000D03*
%TO.P,J1,4*%
%TO.N,Net-(J1-Pad4)*%
X-3810000Y5000000D03*
%TO.P,J1,5*%
%TO.N,Net-(J1-Pad5)*%
X-2540000Y5000000D03*
%TO.P,J1,6*%
%TO.N,Net-(J1-Pad6)*%
X-1270000Y5000000D03*
%TO.P,J1,7*%
%TO.N,Net-(J1-Pad7)*%
X0Y5000000D03*
%TO.P,J1,8*%
%TO.N,Net-(J1-Pad8)*%
X1270000Y5000000D03*
%TO.P,J1,9*%
%TO.N,Net-(J1-Pad9)*%
X2540000Y5000000D03*
%TO.P,J1,10*%
%TO.N,Net-(J1-Pad10)*%
X3810000Y5000000D03*
%TO.P,J1,11*%
%TO.N,Net-(J1-Pad11)*%
X5080000Y5000000D03*
%TO.P,J1,12*%
%TO.N,Net-(J1-Pad12)*%
X6350000Y5000000D03*
%TO.P,J1,13*%
%TO.N,Net-(J1-Pad13)*%
X7620000Y5000000D03*
%TO.P,J1,15*%
%TO.N,Net-(J1-Pad15)*%
X-5710000Y6100000D03*
%TO.P,J1,16*%
%TO.N,Net-(J1-Pad16)*%
X-4440000Y6100000D03*
%TO.P,J1,17*%
%TO.N,Net-(J1-Pad17)*%
X-3170000Y6100000D03*
%TO.P,J1,18*%
%TO.N,Net-(J1-Pad18)*%
X-1900000Y6100000D03*
%TO.P,J1,19*%
%TO.N,Net-(J1-Pad19)*%
X-630000Y6100000D03*
%TO.P,J1,20*%
%TO.N,Net-(J1-Pad20)*%
X640000Y6100000D03*
%TO.P,J1,21*%
%TO.N,Net-(J1-Pad21)*%
X1910000Y6100000D03*
%TO.P,J1,22*%
%TO.N,Net-(J1-Pad22)*%
X3180000Y6100000D03*
%TO.P,J1,23*%
%TO.N,Net-(J1-Pad23)*%
X4450000Y6100000D03*
%TO.P,J1,24*%
%TO.N,Net-(J1-Pad24)*%
X5720000Y6100000D03*
%TO.P,J1,25*%
%TO.N,Net-(J1-Pad25)*%
X6990000Y6100000D03*
%TD*%
%TO.P,J2,25*%
%TO.N,Net-(J1-Pad25)*%
X6990000Y-6100000D03*
%TO.P,J2,24*%
%TO.N,Net-(J1-Pad24)*%
X5720000Y-6100000D03*
%TO.P,J2,23*%
%TO.N,Net-(J1-Pad23)*%
X4450000Y-6100000D03*
%TO.P,J2,22*%
%TO.N,Net-(J1-Pad22)*%
X3180000Y-6100000D03*
%TO.P,J2,21*%
%TO.N,Net-(J1-Pad21)*%
X1910000Y-6100000D03*
%TO.P,J2,20*%
%TO.N,Net-(J1-Pad20)*%
X640000Y-6100000D03*
%TO.P,J2,19*%
%TO.N,Net-(J1-Pad19)*%
X-630000Y-6100000D03*
%TO.P,J2,18*%
%TO.N,Net-(J1-Pad18)*%
X-1900000Y-6100000D03*
%TO.P,J2,17*%
%TO.N,Net-(J1-Pad17)*%
X-3170000Y-6100000D03*
%TO.P,J2,16*%
%TO.N,Net-(J1-Pad16)*%
X-4440000Y-6100000D03*
%TO.P,J2,15*%
%TO.N,Net-(J1-Pad15)*%
X-5710000Y-6100000D03*
%TO.P,J2,13*%
%TO.N,Net-(J1-Pad13)*%
X7620000Y-5000000D03*
%TO.P,J2,12*%
%TO.N,Net-(J1-Pad12)*%
X6350000Y-5000000D03*
%TO.P,J2,11*%
%TO.N,Net-(J1-Pad11)*%
X5080000Y-5000000D03*
%TO.P,J2,10*%
%TO.N,Net-(J1-Pad10)*%
X3810000Y-5000000D03*
%TO.P,J2,9*%
%TO.N,Net-(J1-Pad9)*%
X2540000Y-5000000D03*
%TO.P,J2,8*%
%TO.N,Net-(J1-Pad8)*%
X1270000Y-5000000D03*
%TO.P,J2,7*%
%TO.N,Net-(J1-Pad7)*%
X0Y-5000000D03*
%TO.P,J2,6*%
%TO.N,Net-(J1-Pad6)*%
X-1270000Y-5000000D03*
%TO.P,J2,5*%
%TO.N,Net-(J1-Pad5)*%
X-2540000Y-5000000D03*
%TO.P,J2,4*%
%TO.N,Net-(J1-Pad4)*%
X-3810000Y-5000000D03*
%TO.P,J2,3*%
%TO.N,Net-(J1-Pad3)*%
X-5080000Y-5000000D03*
%TO.P,J2,2*%
%TO.N,Net-(J1-Pad2)*%
X-6350000Y-5000000D03*
%TO.P,J2,14*%
%TO.N,Net-(J1-Pad14)*%
X-6980000Y-6100000D03*
%TO.P,J2,1*%
%TO.N,Net-(J1-Pad1)*%
X-7620000Y-5000000D03*
%TD*%
D11*
%TO.N,Net-(J1-Pad14)*%
X-6980000Y6100000D02*
X-6980000Y-6100000D01*
%TO.N,Net-(J1-Pad15)*%
X-5710000Y-6100000D02*
X-5710000Y6100000D01*
%TO.N,Net-(J1-Pad16)*%
X-4440000Y-5295002D02*
X-4440000Y-6100000D01*
X-4440000Y6100000D02*
X-4440000Y-5295002D01*
%TO.N,Net-(J1-Pad17)*%
X-3170000Y-6100000D02*
X-3170000Y6100000D01*
%TO.N,Net-(J1-Pad18)*%
X-1900000Y6100000D02*
X-1900000Y-6100000D01*
%TO.N,Net-(J1-Pad19)*%
X-630000Y5295002D02*
X-630000Y6100000D01*
X-630000Y-6100000D02*
X-630000Y5295002D01*
%TO.N,Net-(J1-Pad20)*%
X640000Y6100000D02*
X640000Y-6100000D01*
%TO.N,Net-(J1-Pad21)*%
X1910000Y5285002D02*
X1910000Y6100000D01*
X1910000Y-6100000D02*
X1910000Y5285002D01*
%TO.N,Net-(J1-Pad22)*%
X3180000Y6100000D02*
X3180000Y-6100000D01*
%TO.N,Net-(J1-Pad23)*%
X4450000Y5285002D02*
X4450000Y6100000D01*
X4450000Y-6100000D02*
X4450000Y5285002D01*
%TO.N,Net-(J1-Pad24)*%
X5720000Y6100000D02*
X5720000Y-6100000D01*
%TO.N,Net-(J1-Pad25)*%
X6990000Y-6100000D02*
X6990000Y6100000D01*
%TD*%
M02*
