%TF.GenerationSoftware,KiCad,Pcbnew,(5.1.9)-1*%
%TF.CreationDate,2021-07-21T16:10:05-06:00*%
%TF.ProjectId,SingleFeedThru,53696e67-6c65-4466-9565-64546872752e,rev?*%
%TF.SameCoordinates,Original*%
%TF.FileFunction,Copper,L1,Top*%
%TF.FilePolarity,Positive*%
%FSLAX46Y46*%
G04 Gerber Fmt 4.6, Leading zero omitted, Abs format (unit mm)*
G04 Created by KiCad (PCBNEW (5.1.9)-1) date 2021-07-21 16:10:05*
%MOMM*%
%LPD*%
G01*
G04 APERTURE LIST*
%TA.AperFunction,ComponentPad*%
%ADD10O,0.920000X0.920000*%
%TD*%
%TA.AperFunction,Conductor*%
%ADD11C,0.090000*%
%TD*%
%TA.AperFunction,NonConductor*%
%ADD12C,0.254000*%
%TD*%
%TA.AperFunction,NonConductor*%
%ADD13C,0.100000*%
%TD*%
G04 APERTURE END LIST*
D10*
%TO.P,J1,1*%
%TO.N,Net-(J1-Pad1)*%
X-7620000Y4000000D03*
%TO.P,J1,14*%
%TO.N,Net-(J1-Pad14)*%
X-6985000Y2900000D03*
%TO.P,J1,2*%
%TO.N,Net-(J1-Pad2)*%
X-6350000Y4000000D03*
%TO.P,J1,15*%
%TO.N,Net-(J1-Pad15)*%
X-5715000Y2900000D03*
%TO.P,J1,3*%
%TO.N,Net-(J1-Pad3)*%
X-5080000Y4000000D03*
%TO.P,J1,16*%
%TO.N,Net-(J1-Pad16)*%
X-4445000Y2900000D03*
%TO.P,J1,4*%
%TO.N,Net-(J1-Pad4)*%
X-3810000Y4000000D03*
%TO.P,J1,17*%
%TO.N,Net-(J1-Pad17)*%
X-3175000Y2900000D03*
%TO.P,J1,5*%
%TO.N,Net-(J1-Pad5)*%
X-2540000Y4000000D03*
%TO.P,J1,18*%
%TO.N,Net-(J1-Pad18)*%
X-1905000Y2900000D03*
%TO.P,J1,6*%
%TO.N,Net-(J1-Pad6)*%
X-1270000Y4000000D03*
%TO.P,J1,19*%
%TO.N,Net-(J1-Pad19)*%
X-635000Y2900000D03*
%TO.P,J1,7*%
%TO.N,Net-(J1-Pad7)*%
X0Y4000000D03*
%TO.P,J1,20*%
%TO.N,Net-(J1-Pad20)*%
X635000Y2900000D03*
%TO.P,J1,8*%
%TO.N,Net-(J1-Pad8)*%
X1270000Y4000000D03*
%TO.P,J1,21*%
%TO.N,Net-(J1-Pad21)*%
X1905000Y2900000D03*
%TO.P,J1,9*%
%TO.N,Net-(J1-Pad9)*%
X2540000Y4000000D03*
%TO.P,J1,22*%
%TO.N,Net-(J1-Pad22)*%
X3175000Y2900000D03*
%TO.P,J1,10*%
%TO.N,Net-(J1-Pad10)*%
X3810000Y4000000D03*
%TO.P,J1,23*%
%TO.N,Net-(J1-Pad23)*%
X4445000Y2900000D03*
%TO.P,J1,11*%
%TO.N,Net-(J1-Pad11)*%
X5080000Y4000000D03*
%TO.P,J1,24*%
%TO.N,Net-(J1-Pad24)*%
X5715000Y2900000D03*
%TO.P,J1,12*%
%TO.N,Net-(J1-Pad12)*%
X6350000Y4000000D03*
%TO.P,J1,25*%
%TO.N,Net-(J1-Pad25)*%
X6985000Y2900000D03*
%TO.P,J1,13*%
%TO.N,Net-(J1-Pad13)*%
X7620000Y4000000D03*
%TD*%
%TO.P,J2,13*%
%TO.N,Net-(J1-Pad13)*%
X7620000Y-4000000D03*
%TO.P,J2,25*%
%TO.N,Net-(J1-Pad25)*%
X6985000Y-2900000D03*
%TO.P,J2,12*%
%TO.N,Net-(J1-Pad12)*%
X6350000Y-4000000D03*
%TO.P,J2,24*%
%TO.N,Net-(J1-Pad24)*%
X5715000Y-2900000D03*
%TO.P,J2,11*%
%TO.N,Net-(J1-Pad11)*%
X5080000Y-4000000D03*
%TO.P,J2,23*%
%TO.N,Net-(J1-Pad23)*%
X4445000Y-2900000D03*
%TO.P,J2,10*%
%TO.N,Net-(J1-Pad10)*%
X3810000Y-4000000D03*
%TO.P,J2,22*%
%TO.N,Net-(J1-Pad22)*%
X3175000Y-2900000D03*
%TO.P,J2,9*%
%TO.N,Net-(J1-Pad9)*%
X2540000Y-4000000D03*
%TO.P,J2,21*%
%TO.N,Net-(J1-Pad21)*%
X1905000Y-2900000D03*
%TO.P,J2,8*%
%TO.N,Net-(J1-Pad8)*%
X1270000Y-4000000D03*
%TO.P,J2,20*%
%TO.N,Net-(J1-Pad20)*%
X635000Y-2900000D03*
%TO.P,J2,7*%
%TO.N,Net-(J1-Pad7)*%
X0Y-4000000D03*
%TO.P,J2,19*%
%TO.N,Net-(J1-Pad19)*%
X-635000Y-2900000D03*
%TO.P,J2,6*%
%TO.N,Net-(J1-Pad6)*%
X-1270000Y-4000000D03*
%TO.P,J2,18*%
%TO.N,Net-(J1-Pad18)*%
X-1905000Y-2900000D03*
%TO.P,J2,5*%
%TO.N,Net-(J1-Pad5)*%
X-2540000Y-4000000D03*
%TO.P,J2,17*%
%TO.N,Net-(J1-Pad17)*%
X-3175000Y-2900000D03*
%TO.P,J2,4*%
%TO.N,Net-(J1-Pad4)*%
X-3810000Y-4000000D03*
%TO.P,J2,16*%
%TO.N,Net-(J1-Pad16)*%
X-4445000Y-2900000D03*
%TO.P,J2,3*%
%TO.N,Net-(J1-Pad3)*%
X-5080000Y-4000000D03*
%TO.P,J2,15*%
%TO.N,Net-(J1-Pad15)*%
X-5715000Y-2900000D03*
%TO.P,J2,2*%
%TO.N,Net-(J1-Pad2)*%
X-6350000Y-4000000D03*
%TO.P,J2,14*%
%TO.N,Net-(J1-Pad14)*%
X-6985000Y-2900000D03*
%TO.P,J2,1*%
%TO.N,Net-(J1-Pad1)*%
X-7620000Y-4000000D03*
%TD*%
D11*
%TO.N,Net-(J1-Pad1)*%
X-7620000Y4000000D02*
X-7620000Y-4000000D01*
%TO.N,Net-(J1-Pad2)*%
X-6350000Y4000000D02*
X-6350000Y-4000000D01*
%TO.N,Net-(J1-Pad3)*%
X-5080000Y4000000D02*
X-5080000Y-4000000D01*
%TO.N,Net-(J1-Pad4)*%
X-3810000Y4000000D02*
X-3810000Y-4000000D01*
%TO.N,Net-(J1-Pad5)*%
X-2540000Y4000000D02*
X-2540000Y-4000000D01*
%TO.N,Net-(J1-Pad6)*%
X-1270000Y4000000D02*
X-1270000Y-4000000D01*
%TO.N,Net-(J1-Pad7)*%
X0Y4000000D02*
X0Y-4000000D01*
%TO.N,Net-(J1-Pad8)*%
X1270000Y2669198D02*
X1270000Y-4000000D01*
X1270000Y4000000D02*
X1270000Y2669198D01*
%TO.N,Net-(J1-Pad9)*%
X2540000Y4000000D02*
X2540000Y-4000000D01*
%TO.N,Net-(J1-Pad10)*%
X3810000Y4000000D02*
X3810000Y-4000000D01*
%TO.N,Net-(J1-Pad11)*%
X5080000Y4000000D02*
X5080000Y-4000000D01*
%TO.N,Net-(J1-Pad12)*%
X6350000Y4000000D02*
X6350000Y-4000000D01*
%TO.N,Net-(J1-Pad13)*%
X7620000Y-4000000D02*
X7620000Y4000000D01*
%TD*%
D12*
X1520371Y26103762D02*
X3538643Y25907449D01*
X5535633Y25555326D01*
X7499331Y25049510D01*
X9417927Y24393043D01*
X11279883Y23589874D01*
X13074000Y22644832D01*
X14789489Y21563602D01*
X16416031Y20352686D01*
X17943846Y19019366D01*
X19363745Y17571662D01*
X20667188Y16018279D01*
X21846335Y14368561D01*
X22894097Y12632428D01*
X23804170Y10820323D01*
X24571083Y8943143D01*
X25190222Y7012177D01*
X25657864Y5039040D01*
X25971197Y3035598D01*
X26128335Y1013898D01*
X26128335Y-1013898D01*
X25971197Y-3035598D01*
X25657864Y-5039040D01*
X25190222Y-7012177D01*
X24571083Y-8943143D01*
X23804170Y-10820323D01*
X22894097Y-12632428D01*
X21846335Y-14368561D01*
X20667188Y-16018279D01*
X19363745Y-17571662D01*
X17943846Y-19019366D01*
X16416031Y-20352686D01*
X14789489Y-21563602D01*
X13074000Y-22644832D01*
X11279883Y-23589874D01*
X9417927Y-24393043D01*
X7499331Y-25049510D01*
X5535633Y-25555326D01*
X3538643Y-25907449D01*
X1520371Y-26103762D01*
X-507045Y-26143083D01*
X-2531411Y-26025178D01*
X-4540553Y-25750753D01*
X-6522387Y-25321461D01*
X-8464995Y-24739882D01*
X-10356694Y-24009515D01*
X-12186106Y-23134751D01*
X-13942230Y-22120853D01*
X-15614503Y-20973917D01*
X-17192869Y-19700842D01*
X-18667835Y-18309283D01*
X-20030530Y-16807610D01*
X-21272760Y-15204855D01*
X-22387052Y-13510655D01*
X-23366706Y-11735201D01*
X-24205830Y-9889170D01*
X-24899378Y-7983664D01*
X-25443177Y-6030144D01*
X-25833959Y-4040357D01*
X-26069371Y-2026272D01*
X-26148000Y0D01*
X-26069371Y2026272D01*
X-25833959Y4040357D01*
X-25826662Y4077513D01*
X-8407000Y4077513D01*
X-8407000Y3922487D01*
X-8376756Y3770441D01*
X-8317430Y3627216D01*
X-8231303Y3498317D01*
X-8121683Y3388697D01*
X-7992784Y3302570D01*
X-7992000Y3302245D01*
X-7991999Y-3302245D01*
X-7992784Y-3302570D01*
X-8121683Y-3388697D01*
X-8231303Y-3498317D01*
X-8317430Y-3627216D01*
X-8376756Y-3770441D01*
X-8407000Y-3922487D01*
X-8407000Y-4077513D01*
X-8376756Y-4229559D01*
X-8317430Y-4372784D01*
X-8231303Y-4501683D01*
X-8121683Y-4611303D01*
X-7992784Y-4697430D01*
X-7849559Y-4756756D01*
X-7697513Y-4787000D01*
X-7542487Y-4787000D01*
X-7390441Y-4756756D01*
X-7247216Y-4697430D01*
X-7118317Y-4611303D01*
X-7008697Y-4501683D01*
X-6985000Y-4466218D01*
X-6961303Y-4501683D01*
X-6851683Y-4611303D01*
X-6722784Y-4697430D01*
X-6579559Y-4756756D01*
X-6427513Y-4787000D01*
X-6272487Y-4787000D01*
X-6120441Y-4756756D01*
X-5977216Y-4697430D01*
X-5848317Y-4611303D01*
X-5738697Y-4501683D01*
X-5715000Y-4466218D01*
X-5691303Y-4501683D01*
X-5581683Y-4611303D01*
X-5452784Y-4697430D01*
X-5309559Y-4756756D01*
X-5157513Y-4787000D01*
X-5002487Y-4787000D01*
X-4850441Y-4756756D01*
X-4707216Y-4697430D01*
X-4578317Y-4611303D01*
X-4468697Y-4501683D01*
X-4445000Y-4466218D01*
X-4421303Y-4501683D01*
X-4311683Y-4611303D01*
X-4182784Y-4697430D01*
X-4039559Y-4756756D01*
X-3887513Y-4787000D01*
X-3732487Y-4787000D01*
X-3580441Y-4756756D01*
X-3437216Y-4697430D01*
X-3308317Y-4611303D01*
X-3198697Y-4501683D01*
X-3175000Y-4466218D01*
X-3151303Y-4501683D01*
X-3041683Y-4611303D01*
X-2912784Y-4697430D01*
X-2769559Y-4756756D01*
X-2617513Y-4787000D01*
X-2462487Y-4787000D01*
X-2310441Y-4756756D01*
X-2167216Y-4697430D01*
X-2038317Y-4611303D01*
X-1928697Y-4501683D01*
X-1905000Y-4466218D01*
X-1881303Y-4501683D01*
X-1771683Y-4611303D01*
X-1642784Y-4697430D01*
X-1499559Y-4756756D01*
X-1347513Y-4787000D01*
X-1192487Y-4787000D01*
X-1040441Y-4756756D01*
X-897216Y-4697430D01*
X-768317Y-4611303D01*
X-658697Y-4501683D01*
X-635000Y-4466218D01*
X-611303Y-4501683D01*
X-501683Y-4611303D01*
X-372784Y-4697430D01*
X-229559Y-4756756D01*
X-77513Y-4787000D01*
X77513Y-4787000D01*
X229559Y-4756756D01*
X372784Y-4697430D01*
X501683Y-4611303D01*
X611303Y-4501683D01*
X635000Y-4466218D01*
X658697Y-4501683D01*
X768317Y-4611303D01*
X897216Y-4697430D01*
X1040441Y-4756756D01*
X1192487Y-4787000D01*
X1347513Y-4787000D01*
X1499559Y-4756756D01*
X1642784Y-4697430D01*
X1771683Y-4611303D01*
X1881303Y-4501683D01*
X1905000Y-4466218D01*
X1928697Y-4501683D01*
X2038317Y-4611303D01*
X2167216Y-4697430D01*
X2310441Y-4756756D01*
X2462487Y-4787000D01*
X2617513Y-4787000D01*
X2769559Y-4756756D01*
X2912784Y-4697430D01*
X3041683Y-4611303D01*
X3151303Y-4501683D01*
X3175000Y-4466218D01*
X3198697Y-4501683D01*
X3308317Y-4611303D01*
X3437216Y-4697430D01*
X3580441Y-4756756D01*
X3732487Y-4787000D01*
X3887513Y-4787000D01*
X4039559Y-4756756D01*
X4182784Y-4697430D01*
X4311683Y-4611303D01*
X4421303Y-4501683D01*
X4445000Y-4466218D01*
X4468697Y-4501683D01*
X4578317Y-4611303D01*
X4707216Y-4697430D01*
X4850441Y-4756756D01*
X5002487Y-4787000D01*
X5157513Y-4787000D01*
X5309559Y-4756756D01*
X5452784Y-4697430D01*
X5581683Y-4611303D01*
X5691303Y-4501683D01*
X5715000Y-4466218D01*
X5738697Y-4501683D01*
X5848317Y-4611303D01*
X5977216Y-4697430D01*
X6120441Y-4756756D01*
X6272487Y-4787000D01*
X6427513Y-4787000D01*
X6579559Y-4756756D01*
X6722784Y-4697430D01*
X6851683Y-4611303D01*
X6961303Y-4501683D01*
X6985000Y-4466218D01*
X7008697Y-4501683D01*
X7118317Y-4611303D01*
X7247216Y-4697430D01*
X7390441Y-4756756D01*
X7542487Y-4787000D01*
X7697513Y-4787000D01*
X7849559Y-4756756D01*
X7992784Y-4697430D01*
X8121683Y-4611303D01*
X8231303Y-4501683D01*
X8317430Y-4372784D01*
X8376756Y-4229559D01*
X8407000Y-4077513D01*
X8407000Y-3922487D01*
X8376756Y-3770441D01*
X8317430Y-3627216D01*
X8231303Y-3498317D01*
X8121683Y-3388697D01*
X7992784Y-3302570D01*
X7992000Y-3302245D01*
X7992000Y3302245D01*
X7992784Y3302570D01*
X8121683Y3388697D01*
X8231303Y3498317D01*
X8317430Y3627216D01*
X8376756Y3770441D01*
X8407000Y3922487D01*
X8407000Y4077513D01*
X8376756Y4229559D01*
X8317430Y4372784D01*
X8231303Y4501683D01*
X8121683Y4611303D01*
X7992784Y4697430D01*
X7849559Y4756756D01*
X7697513Y4787000D01*
X7542487Y4787000D01*
X7390441Y4756756D01*
X7247216Y4697430D01*
X7118317Y4611303D01*
X7008697Y4501683D01*
X6985000Y4466218D01*
X6961303Y4501683D01*
X6851683Y4611303D01*
X6722784Y4697430D01*
X6579559Y4756756D01*
X6427513Y4787000D01*
X6272487Y4787000D01*
X6120441Y4756756D01*
X5977216Y4697430D01*
X5848317Y4611303D01*
X5738697Y4501683D01*
X5715000Y4466218D01*
X5691303Y4501683D01*
X5581683Y4611303D01*
X5452784Y4697430D01*
X5309559Y4756756D01*
X5157513Y4787000D01*
X5002487Y4787000D01*
X4850441Y4756756D01*
X4707216Y4697430D01*
X4578317Y4611303D01*
X4468697Y4501683D01*
X4445000Y4466218D01*
X4421303Y4501683D01*
X4311683Y4611303D01*
X4182784Y4697430D01*
X4039559Y4756756D01*
X3887513Y4787000D01*
X3732487Y4787000D01*
X3580441Y4756756D01*
X3437216Y4697430D01*
X3308317Y4611303D01*
X3198697Y4501683D01*
X3175000Y4466218D01*
X3151303Y4501683D01*
X3041683Y4611303D01*
X2912784Y4697430D01*
X2769559Y4756756D01*
X2617513Y4787000D01*
X2462487Y4787000D01*
X2310441Y4756756D01*
X2167216Y4697430D01*
X2038317Y4611303D01*
X1928697Y4501683D01*
X1905000Y4466218D01*
X1881303Y4501683D01*
X1771683Y4611303D01*
X1642784Y4697430D01*
X1499559Y4756756D01*
X1347513Y4787000D01*
X1192487Y4787000D01*
X1040441Y4756756D01*
X897216Y4697430D01*
X768317Y4611303D01*
X658697Y4501683D01*
X635000Y4466218D01*
X611303Y4501683D01*
X501683Y4611303D01*
X372784Y4697430D01*
X229559Y4756756D01*
X77513Y4787000D01*
X-77513Y4787000D01*
X-229559Y4756756D01*
X-372784Y4697430D01*
X-501683Y4611303D01*
X-611303Y4501683D01*
X-635000Y4466218D01*
X-658697Y4501683D01*
X-768317Y4611303D01*
X-897216Y4697430D01*
X-1040441Y4756756D01*
X-1192487Y4787000D01*
X-1347513Y4787000D01*
X-1499559Y4756756D01*
X-1642784Y4697430D01*
X-1771683Y4611303D01*
X-1881303Y4501683D01*
X-1905000Y4466218D01*
X-1928697Y4501683D01*
X-2038317Y4611303D01*
X-2167216Y4697430D01*
X-2310441Y4756756D01*
X-2462487Y4787000D01*
X-2617513Y4787000D01*
X-2769559Y4756756D01*
X-2912784Y4697430D01*
X-3041683Y4611303D01*
X-3151303Y4501683D01*
X-3175000Y4466218D01*
X-3198697Y4501683D01*
X-3308317Y4611303D01*
X-3437216Y4697430D01*
X-3580441Y4756756D01*
X-3732487Y4787000D01*
X-3887513Y4787000D01*
X-4039559Y4756756D01*
X-4182784Y4697430D01*
X-4311683Y4611303D01*
X-4421303Y4501683D01*
X-4445000Y4466218D01*
X-4468697Y4501683D01*
X-4578317Y4611303D01*
X-4707216Y4697430D01*
X-4850441Y4756756D01*
X-5002487Y4787000D01*
X-5157513Y4787000D01*
X-5309559Y4756756D01*
X-5452784Y4697430D01*
X-5581683Y4611303D01*
X-5691303Y4501683D01*
X-5715000Y4466218D01*
X-5738697Y4501683D01*
X-5848317Y4611303D01*
X-5977216Y4697430D01*
X-6120441Y4756756D01*
X-6272487Y4787000D01*
X-6427513Y4787000D01*
X-6579559Y4756756D01*
X-6722784Y4697430D01*
X-6851683Y4611303D01*
X-6961303Y4501683D01*
X-6985000Y4466218D01*
X-7008697Y4501683D01*
X-7118317Y4611303D01*
X-7247216Y4697430D01*
X-7390441Y4756756D01*
X-7542487Y4787000D01*
X-7697513Y4787000D01*
X-7849559Y4756756D01*
X-7992784Y4697430D01*
X-8121683Y4611303D01*
X-8231303Y4501683D01*
X-8317430Y4372784D01*
X-8376756Y4229559D01*
X-8407000Y4077513D01*
X-25826662Y4077513D01*
X-25443177Y6030144D01*
X-24899378Y7983664D01*
X-24205830Y9889170D01*
X-23366706Y11735201D01*
X-22387052Y13510655D01*
X-21272760Y15204855D01*
X-20030530Y16807610D01*
X-18667835Y18309283D01*
X-17192869Y19700842D01*
X-15614503Y20973917D01*
X-13942230Y22120853D01*
X-12186106Y23134751D01*
X-10356694Y24009515D01*
X-8464995Y24739882D01*
X-6522387Y25321461D01*
X-4540553Y25750753D01*
X-2531411Y26025178D01*
X-507045Y26143083D01*
X1520371Y26103762D01*
%TA.AperFunction,NonConductor*%
D13*
G36*
X1520371Y26103762D02*
G01*
X3538643Y25907449D01*
X5535633Y25555326D01*
X7499331Y25049510D01*
X9417927Y24393043D01*
X11279883Y23589874D01*
X13074000Y22644832D01*
X14789489Y21563602D01*
X16416031Y20352686D01*
X17943846Y19019366D01*
X19363745Y17571662D01*
X20667188Y16018279D01*
X21846335Y14368561D01*
X22894097Y12632428D01*
X23804170Y10820323D01*
X24571083Y8943143D01*
X25190222Y7012177D01*
X25657864Y5039040D01*
X25971197Y3035598D01*
X26128335Y1013898D01*
X26128335Y-1013898D01*
X25971197Y-3035598D01*
X25657864Y-5039040D01*
X25190222Y-7012177D01*
X24571083Y-8943143D01*
X23804170Y-10820323D01*
X22894097Y-12632428D01*
X21846335Y-14368561D01*
X20667188Y-16018279D01*
X19363745Y-17571662D01*
X17943846Y-19019366D01*
X16416031Y-20352686D01*
X14789489Y-21563602D01*
X13074000Y-22644832D01*
X11279883Y-23589874D01*
X9417927Y-24393043D01*
X7499331Y-25049510D01*
X5535633Y-25555326D01*
X3538643Y-25907449D01*
X1520371Y-26103762D01*
X-507045Y-26143083D01*
X-2531411Y-26025178D01*
X-4540553Y-25750753D01*
X-6522387Y-25321461D01*
X-8464995Y-24739882D01*
X-10356694Y-24009515D01*
X-12186106Y-23134751D01*
X-13942230Y-22120853D01*
X-15614503Y-20973917D01*
X-17192869Y-19700842D01*
X-18667835Y-18309283D01*
X-20030530Y-16807610D01*
X-21272760Y-15204855D01*
X-22387052Y-13510655D01*
X-23366706Y-11735201D01*
X-24205830Y-9889170D01*
X-24899378Y-7983664D01*
X-25443177Y-6030144D01*
X-25833959Y-4040357D01*
X-26069371Y-2026272D01*
X-26148000Y0D01*
X-26069371Y2026272D01*
X-25833959Y4040357D01*
X-25826662Y4077513D01*
X-8407000Y4077513D01*
X-8407000Y3922487D01*
X-8376756Y3770441D01*
X-8317430Y3627216D01*
X-8231303Y3498317D01*
X-8121683Y3388697D01*
X-7992784Y3302570D01*
X-7992000Y3302245D01*
X-7991999Y-3302245D01*
X-7992784Y-3302570D01*
X-8121683Y-3388697D01*
X-8231303Y-3498317D01*
X-8317430Y-3627216D01*
X-8376756Y-3770441D01*
X-8407000Y-3922487D01*
X-8407000Y-4077513D01*
X-8376756Y-4229559D01*
X-8317430Y-4372784D01*
X-8231303Y-4501683D01*
X-8121683Y-4611303D01*
X-7992784Y-4697430D01*
X-7849559Y-4756756D01*
X-7697513Y-4787000D01*
X-7542487Y-4787000D01*
X-7390441Y-4756756D01*
X-7247216Y-4697430D01*
X-7118317Y-4611303D01*
X-7008697Y-4501683D01*
X-6985000Y-4466218D01*
X-6961303Y-4501683D01*
X-6851683Y-4611303D01*
X-6722784Y-4697430D01*
X-6579559Y-4756756D01*
X-6427513Y-4787000D01*
X-6272487Y-4787000D01*
X-6120441Y-4756756D01*
X-5977216Y-4697430D01*
X-5848317Y-4611303D01*
X-5738697Y-4501683D01*
X-5715000Y-4466218D01*
X-5691303Y-4501683D01*
X-5581683Y-4611303D01*
X-5452784Y-4697430D01*
X-5309559Y-4756756D01*
X-5157513Y-4787000D01*
X-5002487Y-4787000D01*
X-4850441Y-4756756D01*
X-4707216Y-4697430D01*
X-4578317Y-4611303D01*
X-4468697Y-4501683D01*
X-4445000Y-4466218D01*
X-4421303Y-4501683D01*
X-4311683Y-4611303D01*
X-4182784Y-4697430D01*
X-4039559Y-4756756D01*
X-3887513Y-4787000D01*
X-3732487Y-4787000D01*
X-3580441Y-4756756D01*
X-3437216Y-4697430D01*
X-3308317Y-4611303D01*
X-3198697Y-4501683D01*
X-3175000Y-4466218D01*
X-3151303Y-4501683D01*
X-3041683Y-4611303D01*
X-2912784Y-4697430D01*
X-2769559Y-4756756D01*
X-2617513Y-4787000D01*
X-2462487Y-4787000D01*
X-2310441Y-4756756D01*
X-2167216Y-4697430D01*
X-2038317Y-4611303D01*
X-1928697Y-4501683D01*
X-1905000Y-4466218D01*
X-1881303Y-4501683D01*
X-1771683Y-4611303D01*
X-1642784Y-4697430D01*
X-1499559Y-4756756D01*
X-1347513Y-4787000D01*
X-1192487Y-4787000D01*
X-1040441Y-4756756D01*
X-897216Y-4697430D01*
X-768317Y-4611303D01*
X-658697Y-4501683D01*
X-635000Y-4466218D01*
X-611303Y-4501683D01*
X-501683Y-4611303D01*
X-372784Y-4697430D01*
X-229559Y-4756756D01*
X-77513Y-4787000D01*
X77513Y-4787000D01*
X229559Y-4756756D01*
X372784Y-4697430D01*
X501683Y-4611303D01*
X611303Y-4501683D01*
X635000Y-4466218D01*
X658697Y-4501683D01*
X768317Y-4611303D01*
X897216Y-4697430D01*
X1040441Y-4756756D01*
X1192487Y-4787000D01*
X1347513Y-4787000D01*
X1499559Y-4756756D01*
X1642784Y-4697430D01*
X1771683Y-4611303D01*
X1881303Y-4501683D01*
X1905000Y-4466218D01*
X1928697Y-4501683D01*
X2038317Y-4611303D01*
X2167216Y-4697430D01*
X2310441Y-4756756D01*
X2462487Y-4787000D01*
X2617513Y-4787000D01*
X2769559Y-4756756D01*
X2912784Y-4697430D01*
X3041683Y-4611303D01*
X3151303Y-4501683D01*
X3175000Y-4466218D01*
X3198697Y-4501683D01*
X3308317Y-4611303D01*
X3437216Y-4697430D01*
X3580441Y-4756756D01*
X3732487Y-4787000D01*
X3887513Y-4787000D01*
X4039559Y-4756756D01*
X4182784Y-4697430D01*
X4311683Y-4611303D01*
X4421303Y-4501683D01*
X4445000Y-4466218D01*
X4468697Y-4501683D01*
X4578317Y-4611303D01*
X4707216Y-4697430D01*
X4850441Y-4756756D01*
X5002487Y-4787000D01*
X5157513Y-4787000D01*
X5309559Y-4756756D01*
X5452784Y-4697430D01*
X5581683Y-4611303D01*
X5691303Y-4501683D01*
X5715000Y-4466218D01*
X5738697Y-4501683D01*
X5848317Y-4611303D01*
X5977216Y-4697430D01*
X6120441Y-4756756D01*
X6272487Y-4787000D01*
X6427513Y-4787000D01*
X6579559Y-4756756D01*
X6722784Y-4697430D01*
X6851683Y-4611303D01*
X6961303Y-4501683D01*
X6985000Y-4466218D01*
X7008697Y-4501683D01*
X7118317Y-4611303D01*
X7247216Y-4697430D01*
X7390441Y-4756756D01*
X7542487Y-4787000D01*
X7697513Y-4787000D01*
X7849559Y-4756756D01*
X7992784Y-4697430D01*
X8121683Y-4611303D01*
X8231303Y-4501683D01*
X8317430Y-4372784D01*
X8376756Y-4229559D01*
X8407000Y-4077513D01*
X8407000Y-3922487D01*
X8376756Y-3770441D01*
X8317430Y-3627216D01*
X8231303Y-3498317D01*
X8121683Y-3388697D01*
X7992784Y-3302570D01*
X7992000Y-3302245D01*
X7992000Y3302245D01*
X7992784Y3302570D01*
X8121683Y3388697D01*
X8231303Y3498317D01*
X8317430Y3627216D01*
X8376756Y3770441D01*
X8407000Y3922487D01*
X8407000Y4077513D01*
X8376756Y4229559D01*
X8317430Y4372784D01*
X8231303Y4501683D01*
X8121683Y4611303D01*
X7992784Y4697430D01*
X7849559Y4756756D01*
X7697513Y4787000D01*
X7542487Y4787000D01*
X7390441Y4756756D01*
X7247216Y4697430D01*
X7118317Y4611303D01*
X7008697Y4501683D01*
X6985000Y4466218D01*
X6961303Y4501683D01*
X6851683Y4611303D01*
X6722784Y4697430D01*
X6579559Y4756756D01*
X6427513Y4787000D01*
X6272487Y4787000D01*
X6120441Y4756756D01*
X5977216Y4697430D01*
X5848317Y4611303D01*
X5738697Y4501683D01*
X5715000Y4466218D01*
X5691303Y4501683D01*
X5581683Y4611303D01*
X5452784Y4697430D01*
X5309559Y4756756D01*
X5157513Y4787000D01*
X5002487Y4787000D01*
X4850441Y4756756D01*
X4707216Y4697430D01*
X4578317Y4611303D01*
X4468697Y4501683D01*
X4445000Y4466218D01*
X4421303Y4501683D01*
X4311683Y4611303D01*
X4182784Y4697430D01*
X4039559Y4756756D01*
X3887513Y4787000D01*
X3732487Y4787000D01*
X3580441Y4756756D01*
X3437216Y4697430D01*
X3308317Y4611303D01*
X3198697Y4501683D01*
X3175000Y4466218D01*
X3151303Y4501683D01*
X3041683Y4611303D01*
X2912784Y4697430D01*
X2769559Y4756756D01*
X2617513Y4787000D01*
X2462487Y4787000D01*
X2310441Y4756756D01*
X2167216Y4697430D01*
X2038317Y4611303D01*
X1928697Y4501683D01*
X1905000Y4466218D01*
X1881303Y4501683D01*
X1771683Y4611303D01*
X1642784Y4697430D01*
X1499559Y4756756D01*
X1347513Y4787000D01*
X1192487Y4787000D01*
X1040441Y4756756D01*
X897216Y4697430D01*
X768317Y4611303D01*
X658697Y4501683D01*
X635000Y4466218D01*
X611303Y4501683D01*
X501683Y4611303D01*
X372784Y4697430D01*
X229559Y4756756D01*
X77513Y4787000D01*
X-77513Y4787000D01*
X-229559Y4756756D01*
X-372784Y4697430D01*
X-501683Y4611303D01*
X-611303Y4501683D01*
X-635000Y4466218D01*
X-658697Y4501683D01*
X-768317Y4611303D01*
X-897216Y4697430D01*
X-1040441Y4756756D01*
X-1192487Y4787000D01*
X-1347513Y4787000D01*
X-1499559Y4756756D01*
X-1642784Y4697430D01*
X-1771683Y4611303D01*
X-1881303Y4501683D01*
X-1905000Y4466218D01*
X-1928697Y4501683D01*
X-2038317Y4611303D01*
X-2167216Y4697430D01*
X-2310441Y4756756D01*
X-2462487Y4787000D01*
X-2617513Y4787000D01*
X-2769559Y4756756D01*
X-2912784Y4697430D01*
X-3041683Y4611303D01*
X-3151303Y4501683D01*
X-3175000Y4466218D01*
X-3198697Y4501683D01*
X-3308317Y4611303D01*
X-3437216Y4697430D01*
X-3580441Y4756756D01*
X-3732487Y4787000D01*
X-3887513Y4787000D01*
X-4039559Y4756756D01*
X-4182784Y4697430D01*
X-4311683Y4611303D01*
X-4421303Y4501683D01*
X-4445000Y4466218D01*
X-4468697Y4501683D01*
X-4578317Y4611303D01*
X-4707216Y4697430D01*
X-4850441Y4756756D01*
X-5002487Y4787000D01*
X-5157513Y4787000D01*
X-5309559Y4756756D01*
X-5452784Y4697430D01*
X-5581683Y4611303D01*
X-5691303Y4501683D01*
X-5715000Y4466218D01*
X-5738697Y4501683D01*
X-5848317Y4611303D01*
X-5977216Y4697430D01*
X-6120441Y4756756D01*
X-6272487Y4787000D01*
X-6427513Y4787000D01*
X-6579559Y4756756D01*
X-6722784Y4697430D01*
X-6851683Y4611303D01*
X-6961303Y4501683D01*
X-6985000Y4466218D01*
X-7008697Y4501683D01*
X-7118317Y4611303D01*
X-7247216Y4697430D01*
X-7390441Y4756756D01*
X-7542487Y4787000D01*
X-7697513Y4787000D01*
X-7849559Y4756756D01*
X-7992784Y4697430D01*
X-8121683Y4611303D01*
X-8231303Y4501683D01*
X-8317430Y4372784D01*
X-8376756Y4229559D01*
X-8407000Y4077513D01*
X-25826662Y4077513D01*
X-25443177Y6030144D01*
X-24899378Y7983664D01*
X-24205830Y9889170D01*
X-23366706Y11735201D01*
X-22387052Y13510655D01*
X-21272760Y15204855D01*
X-20030530Y16807610D01*
X-18667835Y18309283D01*
X-17192869Y19700842D01*
X-15614503Y20973917D01*
X-13942230Y22120853D01*
X-12186106Y23134751D01*
X-10356694Y24009515D01*
X-8464995Y24739882D01*
X-6522387Y25321461D01*
X-4540553Y25750753D01*
X-2531411Y26025178D01*
X-507045Y26143083D01*
X1520371Y26103762D01*
G37*
%TD.AperFunction*%
D12*
X-371999Y-2157096D02*
X-405441Y-2143244D01*
X-557487Y-2113000D01*
X-712513Y-2113000D01*
X-864559Y-2143244D01*
X-898000Y-2157096D01*
X-898000Y2157096D01*
X-864559Y2143244D01*
X-712513Y2113000D01*
X-557487Y2113000D01*
X-405441Y2143244D01*
X-372000Y2157096D01*
X-371999Y-2157096D01*
%TA.AperFunction,NonConductor*%
D13*
G36*
X-371999Y-2157096D02*
G01*
X-405441Y-2143244D01*
X-557487Y-2113000D01*
X-712513Y-2113000D01*
X-864559Y-2143244D01*
X-898000Y-2157096D01*
X-898000Y2157096D01*
X-864559Y2143244D01*
X-712513Y2113000D01*
X-557487Y2113000D01*
X-405441Y2143244D01*
X-372000Y2157096D01*
X-371999Y-2157096D01*
G37*
%TD.AperFunction*%
D12*
X7248000Y-2157096D02*
X7214559Y-2143244D01*
X7062513Y-2113000D01*
X6907487Y-2113000D01*
X6755441Y-2143244D01*
X6722000Y-2157096D01*
X6722000Y2157096D01*
X6755441Y2143244D01*
X6907487Y2113000D01*
X7062513Y2113000D01*
X7214559Y2143244D01*
X7248001Y2157096D01*
X7248000Y-2157096D01*
%TA.AperFunction,NonConductor*%
D13*
G36*
X7248000Y-2157096D02*
G01*
X7214559Y-2143244D01*
X7062513Y-2113000D01*
X6907487Y-2113000D01*
X6755441Y-2143244D01*
X6722000Y-2157096D01*
X6722000Y2157096D01*
X6755441Y2143244D01*
X6907487Y2113000D01*
X7062513Y2113000D01*
X7214559Y2143244D01*
X7248001Y2157096D01*
X7248000Y-2157096D01*
G37*
%TD.AperFunction*%
D12*
X4708001Y-2157096D02*
X4674559Y-2143244D01*
X4522513Y-2113000D01*
X4367487Y-2113000D01*
X4215441Y-2143244D01*
X4182000Y-2157096D01*
X4182000Y2157096D01*
X4215441Y2143244D01*
X4367487Y2113000D01*
X4522513Y2113000D01*
X4674559Y2143244D01*
X4708000Y2157096D01*
X4708001Y-2157096D01*
%TA.AperFunction,NonConductor*%
D13*
G36*
X4708001Y-2157096D02*
G01*
X4674559Y-2143244D01*
X4522513Y-2113000D01*
X4367487Y-2113000D01*
X4215441Y-2143244D01*
X4182000Y-2157096D01*
X4182000Y2157096D01*
X4215441Y2143244D01*
X4367487Y2113000D01*
X4522513Y2113000D01*
X4674559Y2143244D01*
X4708000Y2157096D01*
X4708001Y-2157096D01*
G37*
%TD.AperFunction*%
D12*
X2168001Y-2157096D02*
X2134559Y-2143244D01*
X1982513Y-2113000D01*
X1827487Y-2113000D01*
X1675441Y-2143244D01*
X1642000Y-2157096D01*
X1642000Y2157096D01*
X1675441Y2143244D01*
X1827487Y2113000D01*
X1982513Y2113000D01*
X2134559Y2143244D01*
X2168000Y2157096D01*
X2168001Y-2157096D01*
%TA.AperFunction,NonConductor*%
D13*
G36*
X2168001Y-2157096D02*
G01*
X2134559Y-2143244D01*
X1982513Y-2113000D01*
X1827487Y-2113000D01*
X1675441Y-2143244D01*
X1642000Y-2157096D01*
X1642000Y2157096D01*
X1675441Y2143244D01*
X1827487Y2113000D01*
X1982513Y2113000D01*
X2134559Y2143244D01*
X2168000Y2157096D01*
X2168001Y-2157096D01*
G37*
%TD.AperFunction*%
D12*
X-1641999Y-2157096D02*
X-1675441Y-2143244D01*
X-1827487Y-2113000D01*
X-1982513Y-2113000D01*
X-2134559Y-2143244D01*
X-2168000Y-2157096D01*
X-2168000Y2157096D01*
X-2134559Y2143244D01*
X-1982513Y2113000D01*
X-1827487Y2113000D01*
X-1675441Y2143244D01*
X-1642000Y2157096D01*
X-1641999Y-2157096D01*
%TA.AperFunction,NonConductor*%
D13*
G36*
X-1641999Y-2157096D02*
G01*
X-1675441Y-2143244D01*
X-1827487Y-2113000D01*
X-1982513Y-2113000D01*
X-2134559Y-2143244D01*
X-2168000Y-2157096D01*
X-2168000Y2157096D01*
X-2134559Y2143244D01*
X-1982513Y2113000D01*
X-1827487Y2113000D01*
X-1675441Y2143244D01*
X-1642000Y2157096D01*
X-1641999Y-2157096D01*
G37*
%TD.AperFunction*%
D12*
X-6721999Y-2157096D02*
X-6755441Y-2143244D01*
X-6907487Y-2113000D01*
X-7062513Y-2113000D01*
X-7214559Y-2143244D01*
X-7248000Y-2157096D01*
X-7248000Y2157096D01*
X-7214559Y2143244D01*
X-7062513Y2113000D01*
X-6907487Y2113000D01*
X-6755441Y2143244D01*
X-6722000Y2157096D01*
X-6721999Y-2157096D01*
%TA.AperFunction,NonConductor*%
D13*
G36*
X-6721999Y-2157096D02*
G01*
X-6755441Y-2143244D01*
X-6907487Y-2113000D01*
X-7062513Y-2113000D01*
X-7214559Y-2143244D01*
X-7248000Y-2157096D01*
X-7248000Y2157096D01*
X-7214559Y2143244D01*
X-7062513Y2113000D01*
X-6907487Y2113000D01*
X-6755441Y2143244D01*
X-6722000Y2157096D01*
X-6721999Y-2157096D01*
G37*
%TD.AperFunction*%
D12*
X-2911999Y-2157096D02*
X-2945441Y-2143244D01*
X-3097487Y-2113000D01*
X-3252513Y-2113000D01*
X-3404559Y-2143244D01*
X-3438000Y-2157096D01*
X-3438000Y2157096D01*
X-3404559Y2143244D01*
X-3252513Y2113000D01*
X-3097487Y2113000D01*
X-2945441Y2143244D01*
X-2912000Y2157096D01*
X-2911999Y-2157096D01*
%TA.AperFunction,NonConductor*%
D13*
G36*
X-2911999Y-2157096D02*
G01*
X-2945441Y-2143244D01*
X-3097487Y-2113000D01*
X-3252513Y-2113000D01*
X-3404559Y-2143244D01*
X-3438000Y-2157096D01*
X-3438000Y2157096D01*
X-3404559Y2143244D01*
X-3252513Y2113000D01*
X-3097487Y2113000D01*
X-2945441Y2143244D01*
X-2912000Y2157096D01*
X-2911999Y-2157096D01*
G37*
%TD.AperFunction*%
D12*
X3438001Y-2157096D02*
X3404559Y-2143244D01*
X3252513Y-2113000D01*
X3097487Y-2113000D01*
X2945441Y-2143244D01*
X2912000Y-2157096D01*
X2912000Y2157096D01*
X2945441Y2143244D01*
X3097487Y2113000D01*
X3252513Y2113000D01*
X3404559Y2143244D01*
X3438000Y2157096D01*
X3438001Y-2157096D01*
%TA.AperFunction,NonConductor*%
D13*
G36*
X3438001Y-2157096D02*
G01*
X3404559Y-2143244D01*
X3252513Y-2113000D01*
X3097487Y-2113000D01*
X2945441Y-2143244D01*
X2912000Y-2157096D01*
X2912000Y2157096D01*
X2945441Y2143244D01*
X3097487Y2113000D01*
X3252513Y2113000D01*
X3404559Y2143244D01*
X3438000Y2157096D01*
X3438001Y-2157096D01*
G37*
%TD.AperFunction*%
D12*
X5978001Y-2157096D02*
X5944559Y-2143244D01*
X5792513Y-2113000D01*
X5637487Y-2113000D01*
X5485441Y-2143244D01*
X5452000Y-2157096D01*
X5452000Y2157096D01*
X5485441Y2143244D01*
X5637487Y2113000D01*
X5792513Y2113000D01*
X5944559Y2143244D01*
X5978000Y2157096D01*
X5978001Y-2157096D01*
%TA.AperFunction,NonConductor*%
D13*
G36*
X5978001Y-2157096D02*
G01*
X5944559Y-2143244D01*
X5792513Y-2113000D01*
X5637487Y-2113000D01*
X5485441Y-2143244D01*
X5452000Y-2157096D01*
X5452000Y2157096D01*
X5485441Y2143244D01*
X5637487Y2113000D01*
X5792513Y2113000D01*
X5944559Y2143244D01*
X5978000Y2157096D01*
X5978001Y-2157096D01*
G37*
%TD.AperFunction*%
D12*
X898001Y-2157096D02*
X864559Y-2143244D01*
X712513Y-2113000D01*
X557487Y-2113000D01*
X405441Y-2143244D01*
X372000Y-2157096D01*
X372000Y2157096D01*
X405441Y2143244D01*
X557487Y2113000D01*
X712513Y2113000D01*
X864559Y2143244D01*
X898000Y2157096D01*
X898001Y-2157096D01*
%TA.AperFunction,NonConductor*%
D13*
G36*
X898001Y-2157096D02*
G01*
X864559Y-2143244D01*
X712513Y-2113000D01*
X557487Y-2113000D01*
X405441Y-2143244D01*
X372000Y-2157096D01*
X372000Y2157096D01*
X405441Y2143244D01*
X557487Y2113000D01*
X712513Y2113000D01*
X864559Y2143244D01*
X898000Y2157096D01*
X898001Y-2157096D01*
G37*
%TD.AperFunction*%
D12*
X-5451999Y-2157096D02*
X-5485441Y-2143244D01*
X-5637487Y-2113000D01*
X-5792513Y-2113000D01*
X-5944559Y-2143244D01*
X-5978000Y-2157096D01*
X-5978000Y2157096D01*
X-5944559Y2143244D01*
X-5792513Y2113000D01*
X-5637487Y2113000D01*
X-5485441Y2143244D01*
X-5452000Y2157096D01*
X-5451999Y-2157096D01*
%TA.AperFunction,NonConductor*%
D13*
G36*
X-5451999Y-2157096D02*
G01*
X-5485441Y-2143244D01*
X-5637487Y-2113000D01*
X-5792513Y-2113000D01*
X-5944559Y-2143244D01*
X-5978000Y-2157096D01*
X-5978000Y2157096D01*
X-5944559Y2143244D01*
X-5792513Y2113000D01*
X-5637487Y2113000D01*
X-5485441Y2143244D01*
X-5452000Y2157096D01*
X-5451999Y-2157096D01*
G37*
%TD.AperFunction*%
D12*
X-4181999Y-2157096D02*
X-4215441Y-2143244D01*
X-4367487Y-2113000D01*
X-4522513Y-2113000D01*
X-4674559Y-2143244D01*
X-4708000Y-2157096D01*
X-4708000Y2157096D01*
X-4674559Y2143244D01*
X-4522513Y2113000D01*
X-4367487Y2113000D01*
X-4215441Y2143244D01*
X-4182000Y2157096D01*
X-4181999Y-2157096D01*
%TA.AperFunction,NonConductor*%
D13*
G36*
X-4181999Y-2157096D02*
G01*
X-4215441Y-2143244D01*
X-4367487Y-2113000D01*
X-4522513Y-2113000D01*
X-4674559Y-2143244D01*
X-4708000Y-2157096D01*
X-4708000Y2157096D01*
X-4674559Y2143244D01*
X-4522513Y2113000D01*
X-4367487Y2113000D01*
X-4215441Y2143244D01*
X-4182000Y2157096D01*
X-4181999Y-2157096D01*
G37*
%TD.AperFunction*%
M02*
